<?xml version="1.0" encoding="UTF-8"?>
<svg width="36px" height="47px" viewBox="0 0 36 47" version="1.1" xmlns="http://www.w3.org/2000/svg" xmlns:xlink="http://www.w3.org/1999/xlink">
    <!-- Generator: Sketch 53.2 (72643) - https://sketchapp.com -->
    <title>Approve communication</title>
    <desc>Created with Sketch.</desc>
    <g id="Design" stroke="none" stroke-width="1" fill="none" fill-rule="evenodd">
        <g id="Homepage" transform="translate(-598.000000, -586.000000)">
            <g id="Why-Us?" transform="translate(-3.000000, 246.000000)">
                <g id="Approve-communication" transform="translate(602.000000, 341.000000)">
                    <path d="M30.79,19.95 L30.79,21.26 C30.7903261,21.5078946 30.7702584,21.755396 30.73,22 C30.5183913,23.4598009 29.6729999,24.751676 28.42,25.53 C28.1758722,25.6895792 27.91414,25.8204453 27.64,25.92 C27.5510217,25.9669083 27.457114,26.0038006 27.36,26.03 L26.97,26.15 C26.5712221,26.2509067 26.1613445,26.3013015 25.75,26.3 L21,26.3 L21.21,25.1 C21.4985371,23.8667559 20.7402244,22.6311523 19.51,22.33 L19.42,22.33 C18.205974,22.0579782 16.9945913,22.7963026 16.68,24 L17,22.86 C17,22.86 17,23 17,23 L16.66,24.42 C16.5562413,24.8631737 16.2330603,25.2225108 15.8033294,25.3725112 C15.3735984,25.5225117 14.8970045,25.4423413 14.54,25.16 C13.3715137,24.2070909 12.6954346,22.7777716 12.7,21.27 L12.7,18.62 C12.690092,18.5302727 12.690092,18.4397273 12.7,18.35 C12.6951108,18.3235574 12.6951108,18.2964426 12.7,18.27 C12.6946654,18.2268308 12.6946654,18.1831692 12.7,18.14 C12.7576846,17.4373274 12.9657153,16.7552596 13.31,16.14 C14.2006294,14.5434231 15.8818373,13.5499821 17.71,13.54 L24.38,13.54 C26.0816674,13.5346656 27.7151772,14.2082898 28.9184437,15.4115563 C30.1217102,16.6148228 30.7953344,18.2483326 30.79,19.95 Z" id="Path" fill-opacity="0.3" fill="#3C83E9" fill-rule="nonzero"></path>
                    <path d="M14.48,32.49 C15.5097735,32.3665848 16.4449679,33.1004215 16.57,34.13 C16.57,34.71 16.4,35.36 16.74,35.82 C17.0511904,36.1611417 17.5151527,36.3195678 17.97,36.24 C18.4126559,36.1590419 18.8603996,36.1089213 19.31,36.09 C20.44,36.15 21.26,37.18 21.81,38.17 C22.5970533,39.5828811 23.176343,41.1018325 23.53,42.68 C23.619293,43.0073534 23.619293,43.3526466 23.53,43.68 C23.31,44.38 22.44,44.61 21.71,44.68 C19.8738057,44.8529418 18.0216186,44.7177456 16.23,44.28 C14.3876259,43.9546045 12.7368856,42.9434368 11.61,41.45 C10.18,39.22 10.87,36.45 11.39,34.1" id="Path" fill-opacity="0.3" fill="#3C83E9" fill-rule="nonzero"></path>
                    <path d="M19.68,26.3 L19.56,27 L19.19,26.88 C19.19,26.88 19.09,26.65 18.92,26.3 L19.68,26.3 Z" id="Path" fill="#FFFFFF" fill-rule="nonzero"></path>
                    <path d="M12.34,18.5 C12.04,18.5 5.55,18.5 5.26,18.41 C2.77157874,17.9818732 0.952360209,15.8249807 0.95,13.3 L0.95,8.11 C0.955479398,5.23876899 3.27878481,2.91099568 6.15,2.9 L18.66,2.9 C21.5351212,2.90550264 23.8644974,5.23487881 23.87,8.11 L23.87,11.53 L20,11.53 L16,11.8 C14.1860616,12.4822436 12.9889572,14.2220354 13,16.16 L13,16.54 C13.8794859,14.9325978 12.3197078,13.0463905 14.1519775,13.0513916 L13,14.7598877 L12.34,18.5 Z" id="Path" fill-opacity="0.3" fill="#3C83E9" fill-rule="nonzero"></path>
                    <path d="M4.82,0.44 C2.47927339,1.32407078 0.932908191,3.5678945 0.94,6.07 L0.94,12.64 C0.901054334,15.9074365 3.51270428,18.5906385 6.78,18.64 L15.49,18.64" id="Path" stroke="#1F2025" stroke-width="2" stroke-linecap="round" stroke-linejoin="round"></path>
                    <path d="M26.9,5.7 C26.8953885,3.07617088 25.0570961,0.812695254 22.49,0.27 C22.0261709,0.150255713 21.5490366,0.0897739034 21.07,0.09 L10,0.0899993684" id="Path" stroke="#1F2025" stroke-width="2" stroke-linecap="round" stroke-linejoin="round"></path>
                    <path d="M6.27,7.14 L21.57,7.14" id="Path" stroke="#1F2025" stroke-width="2" stroke-linecap="round" stroke-linejoin="round"></path>
                    <path d="M6.27,11.51 L9.63,11.51" id="Path" stroke="#1F2025" stroke-width="2" stroke-linecap="round" stroke-linejoin="round"></path>
                    <path d="M24.22,25.88 L24.98,26.66 L26.98,28.66 L26.98,25.95 C26.98,25.95 27.43,25.95 28.04,25.89 C29.0859889,25.8427868 30.109389,25.5698801 31.04,25.09 C31.9767457,24.4467259 32.6455149,23.4827022 32.92,22.38 C33.0126066,22.0070617 33.0596168,21.624264 33.06,21.24 L33.06,16.16 C33.0729737,14.0599919 31.6679822,12.215427 29.64,11.67 C29.2816114,11.5724898 28.9113882,11.5253705 28.54,11.53 L20,11.53" id="Path" stroke="#1F2025" stroke-width="2" stroke-linecap="round" stroke-linejoin="round"></path>
                    <path d="M13,21.24 L13,16.16 C12.9889572,14.2220354 14.1860616,12.4822436 16,11.8" id="Path" stroke="#1F2025" stroke-width="2" stroke-linecap="round" stroke-linejoin="round"></path>
                    <path d="M17.08,16.98 L28.92,16.98" id="Path" stroke="#1F2025" stroke-width="2" stroke-linecap="round" stroke-linejoin="round"></path>
                    <path d="M16.61,27.38 C16.15,30.76 14.01,32.38 10.99,33.58" id="Path" stroke="#1F2025" stroke-width="2" stroke-linecap="round" stroke-linejoin="round"></path>
                    <path d="M16.7,24.34 C16.7054728,23.1879994 17.6379994,22.2554728 18.79,22.25 L18.79,22.25 C19.9420006,22.2554728 20.8745272,23.1879994 20.88,24.34 L20.12,29.83 C20.0571336,30.3664025 20.2267453,30.9040751 20.5860251,31.3073094 C20.9453049,31.7105436 21.4599267,31.9408139 22,31.94 L26.27,31.94 C28.5548594,31.8669377 30.4685404,33.6554245 30.55,35.94 L29.55,41.94 C29.55,44.12 27.62,44.94 25.27,44.94 L5,44.94" id="Path" stroke="#1F2025" stroke-width="2" stroke-linecap="round" stroke-linejoin="round"></path>
                </g>
            </g>
        </g>
    </g>
</svg>