<?xml version="1.0" encoding="UTF-8"?>
<svg width="37px" height="46px" viewBox="0 0 37 46" version="1.1" xmlns="http://www.w3.org/2000/svg" xmlns:xlink="http://www.w3.org/1999/xlink">
    <!-- Generator: Sketch 53.2 (72643) - https://sketchapp.com -->
    <title>Tools</title>
    <desc>Created with Sketch.</desc>
    <g id="Design" stroke="none" stroke-width="1" fill="none" fill-rule="evenodd">
        <g id="Homepage" transform="translate(-593.000000, -450.000000)">
            <g id="Why-Us?" transform="translate(-3.000000, 246.000000)">
                <g id="Tools" transform="translate(597.000000, 205.000000)">
                    <path d="M1.61,5.18 C2.05,4.6 2.61,4.27 3.29,4.94 C3.65599487,5.38257964 3.79299352,5.97130356 3.66,6.53 C3.53371337,6.93763591 3.47625936,7.36347152 3.49,7.79 C3.55450304,8.17047565 3.80097408,8.4953693 4.15,8.66 C4.65,8.91 5.73,8.76 5.09,9.66 C4.83677541,10.0784959 4.44353272,10.3937985 3.98,10.55 C3.5373849,10.6120285 3.08674756,10.5240134 2.7,10.3 C1.98301008,10.0018126 1.38514186,9.47428184 1,8.8 C0.715375144,8.17262795 0.655346678,7.4664107 0.83,6.8 C0.986313114,6.21593982 1.25089654,5.66642039 1.61,5.18 L1.61,5.18 Z" id="Path" fill-opacity="0.3" fill="#3C83E9" fill-rule="nonzero"></path>
                    <path d="M4.89,10.71 C5.81141796,10.3950762 6.54158914,9.68127422 6.87732007,8.76723221 C7.213051,7.85319021 7.11850775,6.83646761 6.62,6" id="Path" stroke="#1F2025" stroke-width="2" stroke-linecap="round" stroke-linejoin="round"></path>
                    <path d="M6,15.25 C5.33,12.57 4.86,10.72 4.86,10.72" id="Path" stroke="#1F2025" stroke-width="2" stroke-linecap="round" stroke-linejoin="round"></path>
                    <path d="M2,0.07 C2.98629819,0.873164011 3.23332473,2.27865984 2.58,3.37 C2.28232817,3.83084107 1.92600896,4.25102881 1.52,4.62 C0.754631478,5.47342417 0.422923672,6.63071584 0.62,7.76 C0.785915346,8.72532906 1.32982291,9.58468543 2.13127597,10.1477672 C2.93272902,10.710849 3.9255926,10.9311913 4.89,10.76" id="Path" stroke="#1F2025" stroke-width="2" stroke-linecap="round" stroke-linejoin="round"></path>
                    <path d="M18.27,10.72 C19.9319565,11.2287311 21.2556504,12.4930998 21.84,14.13 C23,17 24,16.43 22.16,16.56 C20.32,16.69 16.68,16.05 16.99,14.44 C17.2940611,13.1611462 17.7227786,11.9151858 18.27,10.72" id="Path" fill-opacity="0.3" fill="#3C83E9" fill-rule="nonzero"></path>
                    <path d="M11,1.49 C11.1,1.49 11.19,1.58 11.27,1.83 C12.48,5.33 12.19,9.15 11.89,12.83 C11.7643822,15.6474434 11.3215869,18.4417498 10.57,21.16 C9.94,23.17 9,25 8.25,27 C7.42453919,28.9310716 7.1111105,31.0424099 7.34,33.13 C7.60992518,35.2569069 9.01054833,37.0708287 11,37.87 C12.5980787,38.281037 14.2852241,38.176028 15.82,37.57 C18.57,36.7 22.92,34.92 24.82,38.22 C25.3392286,39.1774706 25.3392286,40.3325294 24.82,41.29 C23.9294052,42.5693258 22.5442819,43.4178045 21,43.63 C16.15,44.84 11.05,44.29 6.08,43.73 C5.22510928,43.6797008 4.38410913,43.4905602 3.59,43.17 C2.22492446,42.4326138 1.24976636,41.1360553 0.92,39.62 C0.609835896,38.100685 0.525594978,36.5439129 0.67,35 L1.25,19 C1.19662706,18.1597932 1.398826,17.3231079 1.83,16.6 C2.26041694,16.1047413 2.8167022,15.7350361 3.44,15.53 C5.58833525,14.7587245 7.8206124,14.2451329 10.09,14 C9.82330586,11.2619046 9.74979064,8.50842537 9.87,5.76 C9.88570658,4.90656794 9.97943024,4.05636053 10.15,3.22 C10.2,3 10.63,1.5 11,1.49 Z" id="Path" fill-opacity="0.3" fill="#3C83E9" fill-rule="nonzero"></path>
                    <path d="M10,4.44 L12,0.69 L14,4.44 L14,15.25 L15,15.25 C15.7257996,15.2505658 16.3856326,14.8288974 16.69,14.17 L21.92,2.83 L28.14,5.69 L23.3,16.15" id="Path" stroke="#1F2025" stroke-width="2" stroke-linecap="round" stroke-linejoin="round"></path>
                    <path d="M29,19.92 C33.842477,21.8555297 36.2437946,27.3118569 34.4,32.19 C32.9493954,36.0671083 29.1309794,38.5368923 25,38.27 C25,38.27 25,38.27 25,38.27 L25,19.58 C25,19.47 25,19.36 25,19.26 C24.8981304,18.0344341 24.2891382,16.9070736 23.32,16.15" id="Path" stroke="#1F2025" stroke-width="2" stroke-linecap="round" stroke-linejoin="round"></path>
                    <path d="M20.45,6 L22.16,6.83" id="Path" stroke="#1F2025" stroke-width="2" stroke-linecap="round" stroke-linejoin="round"></path>
                    <path d="M19.24,9.25 L20.95,10.08" id="Path" stroke="#1F2025" stroke-width="2" stroke-linecap="round" stroke-linejoin="round"></path>
                    <path d="M17.65,12.41 L19.35,13.25" id="Path" stroke="#1F2025" stroke-width="2" stroke-linecap="round" stroke-linejoin="round"></path>
                    <path d="M24,42.31 C23.1800143,43.2973622 21.9634561,43.8689979 20.68,43.87 L5.31,43.87 C2.93031731,43.8590146 1.00547051,41.9297018 1,39.55 L1,19.55 C1.00549855,17.1608883 2.94088831,15.2254986 5.33,15.22 L8.87,15.22 C9.48255131,15.2202159 9.98373761,14.7323354 10,14.12 L10,8.36" id="Path" stroke="#1F2025" stroke-width="2" stroke-linecap="round" stroke-linejoin="round"></path>
                </g>
            </g>
        </g>
    </g>
</svg>