<?xml version="1.0" encoding="UTF-8"?>
<svg width="34px" height="44px" viewBox="0 0 34 44" version="1.1" xmlns="http://www.w3.org/2000/svg" xmlns:xlink="http://www.w3.org/1999/xlink">
    <!-- Generator: Sketch 53.2 (72643) - https://sketchapp.com -->
    <title>Analytics</title>
    <desc>Created with Sketch.</desc>
    <g id="Design" stroke="none" stroke-width="1" fill="none" fill-rule="evenodd">
        <g id="Homepage" transform="translate(-916.000000, -446.000000)">
            <g id="Why-Us?" transform="translate(-3.000000, 246.000000)">
                <g id="Analytics" transform="translate(919.000000, 201.000000)">
                    <circle id="Oval" fill="#1F2025" fill-rule="nonzero" cx="7.42" cy="6.66" r="1"></circle>
                    <circle id="Oval" fill="#1F2025" fill-rule="nonzero" cx="32.67" cy="9.66" r="1"></circle>
                    <path d="M33,12.71 C33.78,16.65 33,38.27 33,38.27 C33,38.27 34.53,42.4 12.31,41.87 L0.31,40.74" id="Path" fill="#FFFFFF" fill-rule="nonzero"></path>
                    <path d="M32.67,13.22 L32.67,37.28 C32.5565209,39.6688791 30.5398615,41.5204579 28.15,41.43 L1.91,41.43" id="Path" stroke="#1F2025" stroke-width="2" stroke-linecap="round" stroke-linejoin="round"></path>
                    <path d="M25.35,21.72 L25.35,37.27 C25.3386345,37.1937546 25.3386345,37.1162454 25.35,37.04 L25.35,21.54 C25.3615967,21.5994397 25.3615967,21.6605603 25.35,21.72 L25.35,21.72 Z" id="Path" fill="#F49292" fill-rule="nonzero"></path>
                    <path d="M27,19.37 L27,38.07 L24.09,38.07 L24.09,37.84 L25.35,37.84 L25.35,37.27 C25.3386345,37.1937546 25.3386345,37.1162454 25.35,37.04 L25.35,21.54 C25.2774409,21.2683558 25.0311676,21.0795462 24.75,21.08 C24.4020606,21.08 24.12,21.3620606 24.12,21.71 L24.12,19.37 L27,19.37 Z" id="Path" fill-opacity="0.3" fill="#3C83E9" fill-rule="nonzero"></path>
                    <path d="M20.07,21.79 L20.07,38.07 L17.16,38.07 L17.16,37.87 L18.42,37.87 L18.42,37.38 C18.4086182,37.3138191 18.4086182,37.2461809 18.42,37.18 L18.42,23.68 C18.328654,23.4300702 18.0858375,23.2681925 17.82,23.28 C17.4957769,23.2626747 17.2165946,23.5064054 17.19,23.83 L17.19,21.83 L20.07,21.79 Z" id="Path" fill-opacity="0.3" fill="#3C83E9" fill-rule="nonzero"></path>
                    <path d="M13.09,25.25 L13.09,38.07 L10.18,38.07 L10.18,37.91 L11.44,37.91 L11.44,37.52 C11.4286447,37.4672711 11.4286447,37.4127289 11.44,37.36 L11.44,26.74 C11.316958,26.5291415 11.0831707,26.4083514 10.84,26.43 C10.49,26.43 10.21,26.62 10.21,26.86 L10.21,25.25 L13.09,25.25 Z" id="Path" fill-opacity="0.3" fill="#3C83E9" fill-rule="nonzero"></path>
                    <path d="M6.26,29.64 L6.26,37.75 C6.26,38.2028735 5.89287349,38.57 5.44,38.57 L5.44,38.57 C4.98712651,38.57 4.62,38.2028735 4.62,37.75 L4.62,31.07 C4.63111496,31.0105148 4.63111496,30.9494852 4.62,30.89 C4.54445471,30.6203634 4.30000404,30.4329512 4.02,30.43 L3.9,30.43 C3.6053998,30.4910977 3.39313327,30.7491472 3.39,31.05 L3.39,29.64 C3.39,29.19 3.75,28.48 4.2,28.48 L5.43,28.34 C5.84,28.34 6.26,29.19 6.26,29.64 Z" id="Path" fill-opacity="0.3" fill="#3C83E9" fill-rule="nonzero"></path>
                    <polyline id="Path" stroke="#1F2025" stroke-width="2" stroke-linecap="round" stroke-linejoin="round" points="27.35 37.84 27 37.84 26.97 37.84 25.71 37.84 25.35 37.84 24.09 37.84 20.38 37.84 13.44 37.84 6.61 37.84"></polyline>
                    <path d="M23.35,33.22 L23.35,21.08 C23.35,19.9754305 24.2454305,19.08 25.35,19.08 L25.35,19.08 C26.4545695,19.08 27.35,19.9754305 27.35,21.08 L27.35,37.84" id="Path" stroke="#1F2025" stroke-width="2" stroke-linecap="round" stroke-linejoin="round"></path>
                    <path d="M16.38,35.58 L16.38,24 C16.38,22.8954305 17.2754305,22 18.38,22 L18.38,22 C19.4845695,22 20.38,22.8954305 20.38,24 L20.38,37.84" id="Path" stroke="#1F2025" stroke-width="2" stroke-linecap="round" stroke-linejoin="round"></path>
                    <path d="M9.44,35.58 L9.44,27 C9.44,25.8954305 10.3354305,25 11.44,25 L11.44,25 C12.5445695,25 13.44,25.8954305 13.44,27 L13.44,37.84" id="Path" stroke="#1F2025" stroke-width="2" stroke-linecap="round" stroke-linejoin="round"></path>
                    <path d="M2.62,33.76 L2.62,29.9 C2.62,28.7954305 3.5154305,27.9 4.62,27.9 L4.62,27.9 C5.7245695,27.9 6.62,28.7954305 6.62,29.9 L6.62,37.84" id="Path" stroke="#1F2025" stroke-width="2" stroke-linecap="round" stroke-linejoin="round"></path>
                    <path d="M10.56,12.27 C9.77,12.64 8.96,13.04 8.18,13.49 C8.94823403,13.036126 9.74299374,12.6287282 10.56,12.27 L10.56,12.27 Z" id="Path" stroke="#000000" stroke-width="2" stroke-linecap="round" stroke-linejoin="round"></path>
                    <path d="M8.11,13.53 C7.63,13.81 7.17666667,14.1033333 6.75,14.41 L6.75,14.41 C7.19,14.08 7.65,13.8 8.11,13.53 Z" id="Path" stroke="#000000" stroke-width="2" stroke-linecap="round" stroke-linejoin="round"></path>
                    <path d="M10.56,12.27 C9.77,12.64 8.96,13.04 8.18,13.49 C8.94823403,13.036126 9.74299374,12.6287282 10.56,12.27 L10.56,12.27 Z" id="Path" stroke="#000000" stroke-width="2" stroke-linecap="round" stroke-linejoin="round"></path>
                    <path d="M10.56,12.27 C9.77,12.64 8.96,13.04 8.18,13.49 C8.94823403,13.036126 9.74299374,12.6287282 10.56,12.27 L10.56,12.27 Z" id="Path" stroke="#000000" stroke-width="2" stroke-linecap="round" stroke-linejoin="round"></path>
                    <path d="M1.59,23.84 L1.59,23.78 C1.58743209,23.7467161 1.58743209,23.7132839 1.59,23.68 L1.59,23.52 C1.59331276,23.4834082 1.59331276,23.4465918 1.59,23.41 C1.59,23.41 1.59,23.33 1.59,23.29 C1.13826391,20.8029951 1.20635992,18.2493949 1.79,15.79 C1.79,15.61 1.88,15.44 1.93,15.27 C2.53111086,13.070012 3.64096198,11.0421359 5.17,9.35" id="Path" stroke="#1F2025" stroke-width="2" stroke-linecap="round" stroke-linejoin="round"></path>
                    <path d="M25.07,4.64 L24.33,5.69 L23.06,7.52 L22.36,8.52 L21.36,10.02 L19.36,12.83 L18.53,9.53 C15.9481948,10.1510367 13.4279099,11.0045196 11,12.08 L10.56,12.27 C9.77,12.64 8.96,13.04 8.18,13.49 L8.11,13.49 C7.65,13.76 7.19,14.04 6.75,14.33 C5.01203801,15.4096353 3.54177645,16.8696392 2.45,18.6 C2.23779458,18.9638921 2.05713482,19.345285 1.91,19.74 C1.85887415,19.8638655 1.81545794,19.9907744 1.78,20.12 C1.67397369,20.4295167 1.59370066,20.7472642 1.54,21.07 C0.8,16.19 5.37,10.07 12.68,6.72 C16.5200285,4.8370928 20.825618,4.11428198 25.07,4.64 Z" id="Path" fill-opacity="0.3" fill="#3C83E9" fill-rule="nonzero"></path>
                    <path d="M17,3.38 L16.17,0.08 L25.17,4.6 L25.17,4.6 L24.43,5.65 L23.16,7.48 L23.08,7.6 L22.46,8.49 L21.46,9.99 L19.88,12.26 L19.5,12.8 L19.38,12.31 L18.82,10.11 L18.67,9.5 C16.0395095,10.1225692 13.471987,10.9862209 11,12.08 L10.56,12.27 C9.77,12.64 8.96,13.04 8.18,13.49 L8.11,13.49 C7.65,13.76 7.19,14.04 6.75,14.33 C5.01203801,15.4096353 3.54177645,16.8696392 2.45,18.6 C2.23779458,18.9638921 2.05713482,19.345285 1.91,19.74 C1.85887415,19.8638655 1.81545794,19.9907744 1.78,20.12 C1.67397369,20.4295167 1.59370066,20.7472642 1.54,21.07 C1.53679282,21.1065965 1.53679282,21.1434035 1.54,21.18 L1.54,21.18 C1.48211365,21.5102334 1.45200828,21.8447376 1.45,22.18 C1.45,22.26 1.45,22.33 1.45,22.41 C1.45771285,22.8296051 1.50120383,23.2477876 1.58,23.66 C1.57707038,23.693269 1.57707038,23.726731 1.58,23.76 L1.58,23.84" id="Path" stroke="#1F2025" stroke-width="2" stroke-linecap="round" stroke-linejoin="round"></path>
                    <circle id="Oval" fill="#1F2025" fill-rule="nonzero" cx="2.62" cy="37.94" r="1"></circle>
                </g>
            </g>
        </g>
    </g>
</svg>