<?xml version="1.0" encoding="UTF-8"?>
<svg width="32px" height="44px" viewBox="0 0 32 44" version="1.1" xmlns="http://www.w3.org/2000/svg" xmlns:xlink="http://www.w3.org/1999/xlink">
    <!-- Generator: Sketch 53.2 (72643) - https://sketchapp.com -->
    <title>Ribbon</title>
    <desc>Created with Sketch.</desc>
    <g id="Design" stroke="none" stroke-width="1" fill="none" fill-rule="evenodd">
        <g id="Homepage" transform="translate(-279.000000, -586.000000)">
            <g id="Why-Us?" transform="translate(-3.000000, 246.000000)">
                <g id="Ribbon" transform="translate(283.000000, 341.000000)">
                    <path d="M18.33,27.81 C17.9677774,27.6206433 17.589666,27.4633758 17.2,27.34 C15.75,26.87 13.3,26.58 12.2,29.34 C11.9113226,29.4905529 11.6009231,29.595144 11.28,29.65 C10.13,29.88 8.28,29.56 8.45,25.23 C8.33585475,24.9674896 8.19155102,24.719153 8.02,24.49 C7.88839464,24.3075666 7.74117336,24.1369238 7.58,23.98 C6.36923801,22.7793681 4.5304735,22.4782603 3,23.23 C1.34,23.85 0.85,23.05 0.85,21.9 C0.912931273,20.814737 1.14227487,19.7455911 1.53,18.73 C1.68,18.28 1.8,17.99 1.8,17.99 L3.8,16.37 L4.46,15.82 L3.95,15.23 L1.38,12.23 L0.48,11.23 L1,8.67 L3.09,8.17 L7,7.23 L7.17,6.34 L7.51,4.54 L8.14,1.23 L11.14,1.38 L13.83,4 C13.4563394,5.35904692 13.1987475,6.74736678 13.06,8.15 C12.61,12.15 12.82,18.33 17.06,22.35 C17.9532095,23.1913628 18.9637284,23.898726 20.06,24.45 C21.4850499,25.1431025 22.2497939,26.7221957 21.91,28.27 C21.56,29.46 20.66,30.11 18.33,27.81 Z" id="Path" fill-opacity="0.3" fill="#3C83E9" fill-rule="nonzero"></path>
                    <path d="M18.84,29.08 L17.2,27.34 L16.86,27 C16.4369717,26.5530489 15.8447405,26.3057162 15.2294841,26.3190499 C14.6142276,26.3323837 14.0332677,26.6051415 13.63,27.07 L11.74,29.25 C11.5988373,29.4139652 11.4336258,29.5555751 11.25,29.67 C10.5688531,30.0933587 9.7102577,30.1085335 9.01457599,29.7095089 C8.31889427,29.3104842 7.8984828,28.5617049 7.92,27.76 L8,24.86 C8.01024935,24.7368796 8.01024935,24.6131204 8,24.49 C7.96207948,24.2655113 7.89483774,24.0469757 7.8,23.84 C7.40535429,23.041769 6.56844593,22.5601519 5.68,22.62 L2.8,22.83 C2.03238958,22.8955227 1.28965113,22.5394677 0.86,21.9 C0.232039093,21.015988 0.360655397,19.8027075 1.16,19.07 L1.54,18.72 L3.26,17.09 C3.48023126,16.8859234 3.65414079,16.6369941 3.77,16.36 C3.91879192,15.9996452 3.97051118,15.6065789 3.92,15.22 C3.85247642,14.6922292 3.59253236,14.2079499 3.19,13.86 L1.35,12.26 L1,12 C0.767364127,11.7980581 0.579949745,11.5493081 0.45,11.27 C0.0335696103,10.3775919 0.257856774,9.31732526 1,8.67 C1.41176576,8.31228161 1.94507323,8.12616089 2.49,8.15 L3.09,8.15 L5.37,8.22 C5.85364339,8.23013222 6.32746638,8.08272062 6.72,7.8 C7.32372583,7.35287519 7.65896057,6.62967215 7.61,5.88 L7.51,4.52 L7.4,3 C7.33685359,2.3178804 7.61362005,1.64840479 8.14,1.21 C9.01679074,0.442706742 10.3441203,0.509073218 11.14,1.36 L13.14,3.46 C13.3324146,3.67068198 13.5676808,3.8377551 13.83,3.95 C14.7074878,4.34418665 15.7396213,4.11662965 16.37,3.39 L18.26,1.21 C18.8646159,0.518947268 19.8374255,0.280827744 20.6928672,0.614494801 C21.5483089,0.948161859 22.1029697,1.78207482 22.08,2.7 L22,5.6 C21.9844608,6.21640737 22.2294951,6.81080619 22.674913,7.23718913 C23.1203309,7.66357207 23.7248583,7.88242893 24.34,7.84 L27.22,7.63 C28.1372021,7.56972513 28.9936658,8.09122884 29.3611501,8.9337537 C29.7286343,9.77627855 29.5281734,10.7587813 28.86,11.39 L26.76,13.39 C26.3130489,13.8130283 26.0657162,14.4052595 26.0790499,15.0205159 C26.0923837,15.6357724 26.3651415,16.2167323 26.83,16.62 L29,18.49 C29.6910527,19.0946159 29.9291723,20.0674255 29.5955052,20.9228672 C29.2618381,21.7783089 28.4279252,22.3329697 27.51,22.31 L24.63,22.22 C22.84,22.16 22.25,23.78 22.92,25.11 L24.8,28.86 L28.92,37.08 L29.19,37.62 L23.08,35.62 L20.53,41.52 L15.91,31.27 C15.7952223,30.9870387 15.5203539,30.8019131 15.215,30.8019131 C14.9096461,30.8019131 14.6347777,30.9870387 14.52,31.27 L10.68,41.42 L7.77,35.69 L1.77,38.05 L3.59,33.23" id="Path" stroke="#1F2025" stroke-width="2" stroke-linecap="round" stroke-linejoin="round"></path>
                    <circle id="Oval" stroke="#1F2025" stroke-width="2" stroke-linecap="round" stroke-linejoin="round" cx="15" cy="15.23" r="7.38"></circle>
                    <polyline id="Path" stroke="#1F2025" stroke-width="2" stroke-linecap="round" stroke-linejoin="round" points="15.5 18.9 15.5 11.57 13.83 13.23"></polyline>
                    <circle id="Oval" fill="#1F2025" fill-rule="nonzero" cx="4.68" cy="30.71" r="1"></circle>
                </g>
            </g>
        </g>
    </g>
</svg>