<?xml version="1.0" encoding="UTF-8"?>
<svg width="32px" height="41px" viewBox="0 0 32 41" version="1.1" xmlns="http://www.w3.org/2000/svg" xmlns:xlink="http://www.w3.org/1999/xlink">
    <!-- Generator: Sketch 53.2 (72643) - https://sketchapp.com -->
    <title>Thought</title>
    <desc>Created with Sketch.</desc>
    <g id="Design" stroke="none" stroke-width="1" fill="none" fill-rule="evenodd">
        <g id="Homepage" transform="translate(-919.000000, -586.000000)">
            <g id="Why-Us?" transform="translate(-3.000000, 246.000000)">
                <g id="Thought" transform="translate(923.000000, 341.000000)">
                    <rect id="Rectangle" fill-opacity="0.3" fill="#3C83E9" fill-rule="nonzero" transform="translate(14.358795, 31.064782) rotate(-2.390000) translate(-14.358795, -31.064782) " x="10.8987945" y="29.4147825" width="6.92" height="3.3" rx="1.65"></rect>
                    <path d="M16.13,36.07 L13.95,36.19 C13.4,36.19 12.95,35.5 12.89,34.6 L12.89,34.6 C12.89,33.69 13.28,32.93 13.83,32.9 L16,32.78 C16.55,32.78 17,33.47 17.06,34.37 L17.06,34.37 C17.1,35.28 16.68,36 16.13,36.07 Z" id="Path" fill-opacity="0.3" fill="#3C83E9" fill-rule="nonzero"></path>
                    <path d="M19.14,25.48 C18.5507872,25.542607 17.9550881,25.4672887 17.4,25.26 C16.4412513,24.872426 15.7497086,24.0183897 15.57,23 L14.36,16.83 C14.36,16.83 15.61,15.46 15.8,18.57 C15.8622514,19.5982932 16.0849422,20.6105242 16.46,21.57 C16.6550488,22.2624179 17.0646896,22.8751284 17.63,23.32 L17.84,23.42 C18.1999218,23.5173672 18.58337,23.3927968 18.8173487,23.10249 C19.0513273,22.8121832 19.091601,22.4110244 18.92,22.08 C17.86,19.93 19.32,19.22 19.32,19.22 L20.32,22.5 C20.5550127,22.5484537 20.7564464,22.6986134 20.87,22.91 C21.71,24.26 21.31,25.26 19.14,25.48 Z" id="Path" fill-opacity="0.3" fill="#3C83E9" fill-rule="nonzero"></path>
                    <path d="M12.55,32.83 L17.84,32.83 C18.7512698,32.83 19.49,33.5687302 19.49,34.48 L19.49,34.48 C19.49,35.3912698 18.7512698,36.13 17.84,36.13 L12.55,36.13" id="Path" stroke="#1F2025" stroke-width="2" stroke-linecap="round" stroke-linejoin="round"></path>
                    <circle id="Oval" fill="#1F2025" fill-rule="nonzero" cx="15.04" cy="39.18" r="1"></circle>
                    <path d="M17.85,32.83 L12.55,32.83 C11.6387302,32.83 10.9,32.0912698 10.9,31.18 C10.9054596,30.2710012 11.6410012,29.5354596 12.55,29.53 L15,29.53 C15,29.53 21.81,30.08 22,23.44" id="Path" stroke="#1F2025" stroke-width="2" stroke-linecap="round" stroke-linejoin="round"></path>
                    <path d="M5,4.47 C5,4.47 5.74,3.47 6.72,6.02 C6.91122487,6.69708032 7.38764556,7.25742038 8.02515588,7.55505321 C8.6626662,7.85268604 9.3981442,7.85814206 10.04,7.57 C10.04,7.57 10.63,7.66 10.04,8.34 C9.45,9.02 4.95,11.07 5,4.47 Z" id="Path" fill-opacity="0.3" fill="#3C83E9" fill-rule="nonzero"></path>
                    <path d="M0.75,13.83 C0.779534001,13.7946976 0.817315322,13.7672202 0.86,13.75 C1.16,13.63 1.56,14 1.69,14.22 C1.85009125,14.5729472 1.98379113,14.9372794 2.09,15.31 C2.47,16.23 3.42,16.88 3.59,17.85 C3.72,18.62 3.32,19.42 3.47,20.19 C3.6500263,20.9324171 4.24899332,21.5000656 5,21.64 C5.75194879,21.7508828 6.51617009,21.5444344 7.11,21.07 C7.3951111,20.8049801 7.71465688,20.5796163 8.06,20.4 C8.97,20.04 9.33,20.91 8.93,21.6 C8.5133129,22.3117086 7.93422074,22.9147868 7.24,23.36 C6.45389153,23.9070265 5.48263137,24.1192648 4.54,23.95 C3.72914264,23.7140143 3.00572388,23.2444877 2.46,22.6 C2.23746054,22.3873785 2.05460084,22.136793 1.92,21.86 C1.77749263,21.1470515 1.77749263,20.4129485 1.92,19.7 C1.82598131,18.6812704 1.53743518,17.6900296 1.07,16.78 C0.762864291,16.1042977 0.599412692,15.3721707 0.59,14.63 C0.566229807,14.3535472 0.621730278,14.0760448 0.75,13.83 L0.75,13.83 Z" id="Path" fill-opacity="0.3" fill="#3C83E9" fill-rule="nonzero"></path>
                    <path d="M9.71,1.84 C9.61183237,2.03208925 9.61703859,2.26070788 9.72384863,2.44812928 C9.83065867,2.63555067 10.0246994,2.75655396 10.24,2.77 C11.11,2.91 11.24,1.4 11.72,1.36 C12.2,1.32 13.11,0.71 12.21,0.5 C11.1958311,0.462442171 10.2402124,0.974653788 9.71,1.84 L9.71,1.84 Z" id="Path" fill-opacity="0.3" fill="#3C83E9" fill-rule="nonzero"></path>
                    <path d="M14.42,15.62 C14.42,15.62 13,14.56 13.18,17.17 C13.3549387,18.6771246 13.3246628,20.2010132 13.09,21.7 C13.0011803,22.3206678 12.7256497,22.8996309 12.3,23.36 C11.6958736,23.7926155 10.8771064,23.7680525 10.3,23.3 C9.66,22.93 9.08,22.78 8.74,23.6 C8.11,25.15 8.74,26.15 11.1,25.94 C12.4926983,25.8112514 13.7299307,24.9976774 14.4,23.77 L14.42,15.62 Z" id="Path" fill-opacity="0.3" fill="#3C83E9" fill-rule="nonzero"></path>
                    <path d="M17.26,7.74 C17.2014266,7.69540552 17.1507268,7.64132569 17.11,7.58 C17.04,7.47 17,7.34 16.93,7.23 C16.51,6.61 16.12,7.95 16.11,8.23 C16.1224999,8.95736347 16.4206341,9.65061516 16.94,10.16 C17.37,10.64 17.24,10.87 17.26,11.51 C17.26,11.88 17.46,12.31 17.83,12.36 C18.0480444,12.3794813 18.2615603,12.2895799 18.4,12.12 C18.5367366,11.9494407 18.6355945,11.7517248 18.69,11.54 C18.9289463,10.5591035 19.0132952,9.54691664 18.94,8.54 C18.9484885,8.48265545 18.932895,8.42435271 18.8969132,8.37890204 C18.8609314,8.33345137 18.8077623,8.30489604 18.75,8.3 L17.75,8.01 C17.5727237,7.94801993 17.4070943,7.85675472 17.26,7.74 L17.26,7.74 Z" id="Path" fill-opacity="0.3" fill="#3C83E9" fill-rule="nonzero"></path>
                    <path d="M4.74,6.94 C4.53537965,6.43137445 4.43014776,5.88824212 4.43,5.34 C4.43,3.02040405 6.31040405,1.14 8.63,1.14 C8.91902232,1.13989853 9.20726077,1.17006302 9.49,1.23 C10.2802227,0.173964641 11.6581938,-0.256896857 12.9092444,0.160876858 C14.160295,0.578650573 15.0028791,1.75104045 15,3.07 L15,22.8 C15.0247117,24.6597658 13.6136209,26.2251208 11.761265,26.3928023 C9.9089091,26.5604837 8.23965775,25.2739715 7.93,23.44 C9.21382119,22.7059815 10.0043204,21.3388379 10,19.86 C10,19.75 10,19.65 10,19.55 C9.8610461,17.7404466 8.55971621,16.2323634 6.79,15.83" id="Path" stroke="#1F2025" stroke-width="2" stroke-linecap="round" stroke-linejoin="round"></path>
                    <path d="M4.74,6.94 C5.28789717,8.27266539 6.48070234,9.23143916 7.9,9.48 C8.14102854,9.52195378 8.38535591,9.54203548 8.63,9.54 C10.691847,9.5361611 12.4459985,8.03623451 12.77,6" id="Path" stroke="#1F2025" stroke-width="2" stroke-linecap="round" stroke-linejoin="round"></path>
                    <path d="M6.79,15.83 C8.56324119,16.226487 9.8673752,17.7378199 10,19.55 C10,19.65 10,19.76 10,19.86 C9.98828045,21.9606995 8.40151059,23.7179073 6.31288881,23.9431508 C4.22426704,24.1683943 2.29933318,22.7898997 1.84,20.74 C1.69521919,20.1149409 1.69521919,19.4650591 1.84,18.84 C1.96415631,18.3717064 1.79453993,17.8746909 1.41,17.58 C0.534999188,16.9326529 0.0191777822,15.9084319 0.02,14.82 C0.0227114032,14.1296483 0.243177183,13.4577526 0.65,12.9 C0.853240691,12.6233065 1.0919496,12.3745113 1.36,12.16 C1.4972008,12.0484159 1.64077667,11.9449077 1.79,11.85 C1.91,11.77 2.24,11.72 2.19,11.52 C1.97597282,10.9457313 1.85119189,10.3420614 1.82,9.73 C1.84984059,9.23303094 2.01211957,8.75309947 2.29,8.34" id="Path" stroke="#1F2025" stroke-width="2" stroke-linecap="round" stroke-linejoin="round"></path>
                    <path d="M8.71,9.54 C10.3999913,9.54 11.77,10.9100087 11.77,12.6" id="Path" stroke="#1F2025" stroke-width="2" stroke-linecap="round" stroke-linejoin="round"></path>
                    <path d="M6.79,15.83 L6.72,15.83" id="Path" stroke="#1F2025" stroke-width="2" stroke-linecap="round" stroke-linejoin="round"></path>
                    <path d="M25.26,6.94 C25.4646204,6.43137445 25.5698522,5.88824212 25.57,5.34 C25.57,3.02040405 23.6895959,1.14 21.37,1.14 C21.0809777,1.13989853 20.7927392,1.17006302 20.51,1.23 C19.7497414,0.213387645 18.440744,-0.22824979 17.22,0.12" id="Path" stroke="#1F2025" stroke-width="2" stroke-linecap="round" stroke-linejoin="round"></path>
                    <path d="M25.26,6.94 C24.7121028,8.27266539 23.5192977,9.23143916 22.1,9.48 C21.8589715,9.52195378 21.6146441,9.54203548 21.37,9.54 C19.6659549,9.54271845 18.1291587,8.5155539 17.48,6.94" id="Path" stroke="#1F2025" stroke-width="2" stroke-linecap="round" stroke-linejoin="round"></path>
                    <path d="M21.29,9.54 C19.6000087,9.54 18.23,10.9100087 18.23,12.6" id="Path" stroke="#1F2025" stroke-width="2" stroke-linecap="round" stroke-linejoin="round"></path>
                    <path d="M23.21,15.83 C21.4367588,16.226487 20.1326248,17.7378199 20,19.55 C20,19.65 20,19.76 20,19.86 C20.0117195,21.9606995 21.5984894,23.7179073 23.6871112,23.9431508 C25.775733,24.1683943 27.7006668,22.7898997 28.16,20.74 C28.3047808,20.1149409 28.3047808,19.4650591 28.16,18.84 C28.0358437,18.3717064 28.2054601,17.8746909 28.59,17.58 C29.4650008,16.9326529 29.9808222,15.9084319 29.98,14.82 C29.9772886,14.1296483 29.7568228,13.4577526 29.35,12.9 C29.1467593,12.6233065 28.9080504,12.3745113 28.64,12.16 C28.5027992,12.0484159 28.3592233,11.9449077 28.21,11.85 C28.09,11.77 27.76,11.72 27.81,11.52 C28.0240272,10.9457313 28.1488081,10.3420614 28.18,9.73 C28.045476,8.27449422 26.9033952,7.11567968 25.45,6.96 L25.3,6.96" id="Path" stroke="#1F2025" stroke-width="2" stroke-linecap="round" stroke-linejoin="round"></path>
                    <path d="M23.21,15.83 L23.28,15.83" id="Path" stroke="#1F2025" stroke-width="2" stroke-linecap="round" stroke-linejoin="round"></path>
                    <circle id="Oval" fill="#1F2025" fill-rule="nonzero" cx="25.58" cy="15.41" r="1"></circle>
                </g>
            </g>
        </g>
    </g>
</svg>