<?xml version="1.0" encoding="UTF-8"?>
<svg width="444px" height="394px" viewBox="0 0 444 394" version="1.1" xmlns="http://www.w3.org/2000/svg" xmlns:xlink="http://www.w3.org/1999/xlink">
    <!-- Generator: Sketch 53.2 (72643) - https://sketchapp.com -->
    <title>VR guy floating</title>
    <desc>Created with Sketch.</desc>
    <defs>
        <linearGradient x1="50%" y1="183.344197%" x2="50%" y2="-336.888563%" id="linearGradient-1">
            <stop stop-color="#FFFFFF" offset="7%"></stop>
            <stop stop-color="#D1D3D4" offset="79%"></stop>
        </linearGradient>
        <linearGradient x1="-16.2793296%" y1="52.6058957%" x2="283.893855%" y2="44.3318994%" id="linearGradient-2">
            <stop stop-color="#FFFFFF" offset="3%"></stop>
            <stop stop-color="#D1D3D4" offset="79%"></stop>
        </linearGradient>
        <linearGradient x1="50%" y1="177.301298%" x2="50%" y2="13.3262368%" id="linearGradient-3">
            <stop stop-color="#A0E2D0" offset="0%"></stop>
            <stop stop-color="#39A9BB" offset="34%"></stop>
            <stop stop-color="#445DCE" offset="67%"></stop>
            <stop stop-color="#243F7E" offset="100%"></stop>
        </linearGradient>
        <linearGradient x1="-72.2186849%" y1="56.4341261%" x2="-72.082886%" y2="46.2543715%" id="linearGradient-4">
            <stop stop-color="#A0E2D0" offset="0%"></stop>
            <stop stop-color="#39A9BB" offset="34%"></stop>
            <stop stop-color="#445DCE" offset="67%"></stop>
            <stop stop-color="#243F7E" offset="100%"></stop>
        </linearGradient>
        <linearGradient x1="9.98848976%" y1="145.157672%" x2="83.8774064%" y2="16.6147326%" id="linearGradient-5">
            <stop stop-color="#A0E2D0" offset="0%"></stop>
            <stop stop-color="#39A9BB" offset="4%"></stop>
            <stop stop-color="#445DCE" offset="58%"></stop>
            <stop stop-color="#243F7E" offset="100%"></stop>
        </linearGradient>
        <linearGradient x1="50%" y1="156.989247%" x2="50%" y2="-79.3010753%" id="linearGradient-6">
            <stop stop-color="#A0E2D0" offset="0%"></stop>
            <stop stop-color="#39A9BB" offset="34%"></stop>
            <stop stop-color="#445DCE" offset="67%"></stop>
            <stop stop-color="#243F7E" offset="100%"></stop>
        </linearGradient>
        <linearGradient x1="728.232585%" y1="-2586.12717%" x2="-54.0234027%" y2="456.069364%" id="linearGradient-7">
            <stop stop-color="#FFFFFF" stop-opacity="0" offset="0%"></stop>
            <stop stop-color="#000000" offset="100%"></stop>
        </linearGradient>
        <linearGradient x1="55.6720495%" y1="44.3660466%" x2="45.9094721%" y2="100.630746%" id="linearGradient-8">
            <stop stop-color="#FFFFFF" stop-opacity="0" offset="0%"></stop>
            <stop stop-color="#000000" offset="100%"></stop>
        </linearGradient>
        <linearGradient x1="44.3084685%" y1="70.8285386%" x2="54.0768912%" y2="-41.747493%" id="linearGradient-9">
            <stop stop-color="#FFFFFF" stop-opacity="0" offset="0%"></stop>
            <stop stop-color="#000000" offset="100%"></stop>
        </linearGradient>
        <linearGradient x1="63.6308162%" y1="40.5503525%" x2="10.358505%" y2="71.5156719%" id="linearGradient-10">
            <stop stop-color="#FFFFFF" stop-opacity="0" offset="0%"></stop>
            <stop stop-color="#000000" offset="100%"></stop>
        </linearGradient>
        <linearGradient x1="50.2285556%" y1="98.1975867%" x2="37.1801726%" y2="-142.684766%" id="linearGradient-11">
            <stop stop-color="#FFFFFF" stop-opacity="0" offset="0%"></stop>
            <stop stop-color="#000000" offset="100%"></stop>
        </linearGradient>
        <linearGradient x1="-16.5750412%" y1="34.5211581%" x2="135.84387%" y2="76.0022272%" id="linearGradient-12">
            <stop stop-color="#FFFFFF" stop-opacity="0" offset="0%"></stop>
            <stop stop-color="#000000" offset="100%"></stop>
        </linearGradient>
        <linearGradient x1="41.7249417%" y1="77.9005731%" x2="53.8885357%" y2="14.7322952%" id="linearGradient-13">
            <stop stop-color="#FFFFFF" stop-opacity="0" offset="0%"></stop>
            <stop stop-color="#000000" offset="100%"></stop>
        </linearGradient>
        <linearGradient x1="49.9954016%" y1="183.318808%" x2="49.9954016%" y2="-336.91825%" id="linearGradient-14">
            <stop stop-color="#FFFFFF" offset="7%"></stop>
            <stop stop-color="#D1D3D4" offset="79%"></stop>
        </linearGradient>
        <linearGradient x1="110.165439%" y1="527.423168%" x2="-38.2231592%" y2="-676.595745%" id="linearGradient-15">
            <stop stop-color="#FFFFFF" stop-opacity="0" offset="0%"></stop>
            <stop stop-color="#000000" offset="100%"></stop>
        </linearGradient>
        <linearGradient x1="63.3514207%" y1="67.4799041%" x2="22.2653209%" y2="-21.5627273%" id="linearGradient-16">
            <stop stop-color="#FFFFFF" stop-opacity="0" offset="0%"></stop>
            <stop stop-color="#000000" offset="100%"></stop>
        </linearGradient>
        <linearGradient x1="52.4555592%" y1="199.644315%" x2="48.2867355%" y2="-108.3207%" id="linearGradient-17">
            <stop stop-color="#FFFFFF" stop-opacity="0" offset="0%"></stop>
            <stop stop-color="#000000" offset="100%"></stop>
        </linearGradient>
        <linearGradient x1="22.3319276%" y1="108.209866%" x2="101.064504%" y2="-58.9158097%" id="linearGradient-18">
            <stop stop-color="#FFFFFF" stop-opacity="0" offset="0%"></stop>
            <stop stop-color="#000000" offset="100%"></stop>
        </linearGradient>
        <linearGradient x1="49.9922684%" y1="151.834494%" x2="49.9922684%" y2="0.897161221%" id="linearGradient-19">
            <stop stop-color="#FFFFFF" offset="7%"></stop>
            <stop stop-color="#D1D3D4" offset="79%"></stop>
        </linearGradient>
        <linearGradient x1="68.8223562%" y1="102.745046%" x2="15.4234694%" y2="-11.435458%" id="linearGradient-20">
            <stop stop-color="#FFFFFF" offset="7%"></stop>
            <stop stop-color="#D1D3D4" offset="79%"></stop>
        </linearGradient>
        <linearGradient x1="49.9922684%" y1="142.554901%" x2="49.9922684%" y2="-93.0369577%" id="linearGradient-21">
            <stop stop-color="#FFFFFF" offset="7%"></stop>
            <stop stop-color="#D1D3D4" offset="79%"></stop>
        </linearGradient>
        <linearGradient x1="49.9922684%" y1="151.841436%" x2="49.9922684%" y2="0.883889112%" id="linearGradient-22">
            <stop stop-color="#FFFFFF" offset="7%"></stop>
            <stop stop-color="#D1D3D4" offset="79%"></stop>
        </linearGradient>
        <linearGradient x1="68.8223562%" y1="102.745413%" x2="15.4234694%" y2="-11.4503817%" id="linearGradient-23">
            <stop stop-color="#FFFFFF" offset="7%"></stop>
            <stop stop-color="#D1D3D4" offset="79%"></stop>
        </linearGradient>
        <linearGradient x1="49.9922684%" y1="142.566301%" x2="49.9922684%" y2="-93.0886686%" id="linearGradient-24">
            <stop stop-color="#FFFFFF" offset="7%"></stop>
            <stop stop-color="#D1D3D4" offset="79%"></stop>
        </linearGradient>
        <linearGradient x1="50%" y1="116.573988%" x2="50%" y2="-198.717949%" id="linearGradient-25">
            <stop stop-color="#ABCF9C" offset="0%"></stop>
            <stop stop-color="#84CF9C" offset="17%"></stop>
            <stop stop-color="#39CE9C" offset="46%"></stop>
            <stop stop-color="#007A75" offset="100%"></stop>
        </linearGradient>
        <linearGradient x1="49.99764%" y1="152.606986%" x2="49.99764%" y2="-89.4238988%" id="linearGradient-26">
            <stop stop-color="#ABCF9C" offset="0%"></stop>
            <stop stop-color="#84CF9C" offset="17%"></stop>
            <stop stop-color="#39CE9C" offset="46%"></stop>
            <stop stop-color="#007A75" offset="100%"></stop>
        </linearGradient>
        <linearGradient x1="50.0275071%" y1="117.861096%" x2="50.0275071%" y2="-200.913116%" id="linearGradient-27">
            <stop stop-color="#ABCF9C" offset="0%"></stop>
            <stop stop-color="#84CF9C" offset="17%"></stop>
            <stop stop-color="#39CE9C" offset="46%"></stop>
            <stop stop-color="#007A75" offset="100%"></stop>
        </linearGradient>
        <linearGradient x1="50.0325472%" y1="192.023105%" x2="50.0325472%" y2="-166.111952%" id="linearGradient-28">
            <stop stop-color="#ABCF9C" offset="0%"></stop>
            <stop stop-color="#84CF9C" offset="17%"></stop>
            <stop stop-color="#39CE9C" offset="46%"></stop>
            <stop stop-color="#007A75" offset="100%"></stop>
        </linearGradient>
        <linearGradient x1="50%" y1="116.579991%" x2="50%" y2="-198.728181%" id="linearGradient-29">
            <stop stop-color="#ABCF9C" offset="0%"></stop>
            <stop stop-color="#84CF9C" offset="17%"></stop>
            <stop stop-color="#39CE9C" offset="46%"></stop>
            <stop stop-color="#007A75" offset="100%"></stop>
        </linearGradient>
        <linearGradient x1="-75.5545241%" y1="137.555527%" x2="178.768905%" y2="-45.4916654%" id="linearGradient-30">
            <stop stop-color="#ABCF9C" offset="0%"></stop>
            <stop stop-color="#84CF9C" offset="17%"></stop>
            <stop stop-color="#39CE9C" offset="46%"></stop>
            <stop stop-color="#007A75" offset="100%"></stop>
        </linearGradient>
        <linearGradient x1="50.039249%" y1="116.586835%" x2="50.039249%" y2="-198.740933%" id="linearGradient-31">
            <stop stop-color="#ABCF9C" offset="0%"></stop>
            <stop stop-color="#84CF9C" offset="17%"></stop>
            <stop stop-color="#39CE9C" offset="46%"></stop>
            <stop stop-color="#007A75" offset="100%"></stop>
        </linearGradient>
        <linearGradient x1="50.0125219%" y1="266.059943%" x2="50.0125219%" y2="-158.916108%" id="linearGradient-32">
            <stop stop-color="#ABCF9C" offset="0%"></stop>
            <stop stop-color="#84CF9C" offset="17%"></stop>
            <stop stop-color="#39CE9C" offset="46%"></stop>
            <stop stop-color="#007A75" offset="100%"></stop>
        </linearGradient>
        <linearGradient x1="50%" y1="133.172968%" x2="50%" y2="-83.8917818%" id="linearGradient-33">
            <stop stop-color="#FFFFFF" offset="7%"></stop>
            <stop stop-color="#D1D3D4" offset="79%"></stop>
        </linearGradient>
        <linearGradient x1="-26.9196881%" y1="126.911319%" x2="117.165333%" y2="-17.1737026%" id="linearGradient-34">
            <stop stop-color="#FFFFFF" offset="7%"></stop>
            <stop stop-color="#D1D3D4" offset="79%"></stop>
        </linearGradient>
        <linearGradient x1="50%" y1="310.261132%" x2="50%" y2="-161.232005%" id="linearGradient-35">
            <stop stop-color="#FFFFFF" offset="7%"></stop>
            <stop stop-color="#D1D3D4" offset="79%"></stop>
        </linearGradient>
        <linearGradient x1="50%" y1="201.158953%" x2="50%" y2="-172.406426%" id="linearGradient-36">
            <stop stop-color="#FFFFFF" offset="7%"></stop>
            <stop stop-color="#D1D3D4" offset="79%"></stop>
        </linearGradient>
        <linearGradient x1="50%" y1="164.943779%" x2="50%" y2="-292.473703%" id="linearGradient-37">
            <stop stop-color="#ABCF9C" offset="0%"></stop>
            <stop stop-color="#84CF9C" offset="17%"></stop>
            <stop stop-color="#39CE9C" offset="46%"></stop>
            <stop stop-color="#007A75" offset="100%"></stop>
        </linearGradient>
        <linearGradient x1="50%" y1="296.478122%" x2="50%" y2="-362.80683%" id="linearGradient-38">
            <stop stop-color="#ABCF9C" offset="0%"></stop>
            <stop stop-color="#84CF9C" offset="17%"></stop>
            <stop stop-color="#39CE9C" offset="46%"></stop>
            <stop stop-color="#007A75" offset="100%"></stop>
        </linearGradient>
        <linearGradient x1="49.8849055%" y1="130.093045%" x2="49.8849055%" y2="-400.384639%" id="linearGradient-39">
            <stop stop-color="#ABCF9C" offset="0%"></stop>
            <stop stop-color="#84CF9C" offset="17%"></stop>
            <stop stop-color="#39CE9C" offset="46%"></stop>
            <stop stop-color="#007A75" offset="100%"></stop>
        </linearGradient>
        <linearGradient x1="49.9885144%" y1="146.32853%" x2="49.9885144%" y2="-282.519742%" id="linearGradient-40">
            <stop stop-color="#ABCF9C" offset="0%"></stop>
            <stop stop-color="#84CF9C" offset="17%"></stop>
            <stop stop-color="#39CE9C" offset="46%"></stop>
            <stop stop-color="#007A75" offset="100%"></stop>
        </linearGradient>
        <linearGradient x1="50.0041942%" y1="86.33055%" x2="50.0041942%" y2="-268.290923%" id="linearGradient-41">
            <stop stop-color="#ABCF9C" offset="0%"></stop>
            <stop stop-color="#84CF9C" offset="17%"></stop>
            <stop stop-color="#39CE9C" offset="46%"></stop>
            <stop stop-color="#007A75" offset="100%"></stop>
        </linearGradient>
        <linearGradient x1="50.0065236%" y1="186.774683%" x2="50.0065236%" y2="-752.708152%" id="linearGradient-42">
            <stop stop-color="#ABCF9C" offset="0%"></stop>
            <stop stop-color="#84CF9C" offset="17%"></stop>
            <stop stop-color="#39CE9C" offset="46%"></stop>
            <stop stop-color="#007A75" offset="100%"></stop>
        </linearGradient>
    </defs>
    <g id="Design" stroke="none" stroke-width="1" fill="none" fill-rule="evenodd">
        <g id="Homepage" transform="translate(-748.000000, -968.000000)">
            <g id="01-Designers" transform="translate(0.000000, 872.000000)">
                <g id="VR-guy-floating" transform="translate(748.000000, 96.000000)">
                    <circle id="Oval" fill="url(#linearGradient-1)" fill-rule="nonzero" cx="222" cy="197" r="197"></circle>
                    <path d="M312.053715,22 L210.834385,93.3674242 L204,105 L395,105 C376.197221,69.4868014 347.289786,40.560647 312.053715,22 L312.053715,22 Z" id="Path" fill="url(#linearGradient-2)" fill-rule="nonzero"></path>
                    <path d="M444,165.277372 C444,153.52646 344.608193,144 222,144 C99.3918072,144 0,153.504968 0,165.277372 L0,165.277372 L0,250 C0,238.249088 99.3918072,228.722628 222,228.722628 C337.546988,228.722628 432.504145,237.185219 443.02641,248.001217 L443.02641,167.276156 C443.601556,166.765604 443.951674,166.04681 444,165.277372 Z" id="Path" fill="url(#linearGradient-3)" fill-rule="nonzero"></path>
                    <path d="M414.661457,239 C420.585399,211.154933 420.441234,182.360731 414.238769,154.57636 C375.822335,148.253013 304.120574,144 222.001433,144 C139.882291,144 68.1805307,148.279761 29.7640962,154.57636 C23.5596993,182.360328 23.413709,211.154566 29.3360579,239 C67.6508334,232.639205 139.604066,228.359444 222.001433,228.359444 C304.398799,228.359444 376.357383,232.639205 414.661457,239 Z" id="Path" fill="url(#linearGradient-4)" fill-rule="nonzero"></path>
                    <path d="M156.959908,169.469276 L156.959908,182.182725 C156.955222,200.020742 149.342154,217.025737 136,229 L136,229 C159.076747,228.078275 184.136693,227.522062 210.41008,227.410819 L220,182.797208 L194.266514,144 C191.436935,144.031784 188.625175,144.07063 185.831233,144.11654 L156.959908,169.469276 Z" id="Path" fill="url(#linearGradient-5)" fill-rule="nonzero"></path>
                    <path d="M0,249 L0,251 L1,251 C0.409252695,250.489137 0.0496373087,249.769906 0,249 Z" id="Path" fill="url(#linearGradient-6)" fill-rule="nonzero"></path>
                    <polygon id="Path" fill="#3B221D" fill-rule="nonzero" points="209 294.77718 219 312 218.875454 295.826695 216.208095 292"></polygon>
                    <path d="M220,295.218703 L219.936147,303 C219.936147,303 212.486635,295.58371 218.084411,292 L220,295.218703 Z" id="Path" fill="#F59180" fill-rule="nonzero"></path>
                    <path d="M262.810416,243.607283 C259.32168,231.927174 230.319893,198 230.319893,198 L210,225.264239 L237.69684,255.191522 L216.897578,292.239783 L220.482188,296 C220.482188,296 266.299153,255.287391 262.810416,243.607283 Z" id="Path" fill="#103B66" fill-rule="nonzero"></path>
                    <g id="Group" opacity="0.49" style="mix-blend-mode: color-burn;" transform="translate(219.000000, 206.000000)" fill-rule="nonzero">
                        <path d="M17.9351351,50.6097959 L17.3945946,51.5277551 L17.3945946,51.5277551 C17.5934453,51.2327353 17.7739544,50.9261903 17.9351351,50.6097959 Z" id="Path" fill="url(#linearGradient-7)"></path>
                        <path d="M0.108108108,30.4412245 L18.3243243,49.7767347 C19.6864865,46.5930612 21.5675676,39.3608163 16.5513514,29.6134694 C9.68648649,16.3110204 16.5513514,0.143265306 16.5513514,0.143265306 L0.108108108,30.4412245 Z" id="Path" fill="url(#linearGradient-8)"></path>
                    </g>
                    <path d="M177.945794,321.085747 L178,331 C178,331 168.637119,321.680707 175.536084,317 L177.945794,321.085747 Z" id="Path" fill="#F59180" fill-rule="nonzero"></path>
                    <path d="M176.392448,317 L169,322.01732 L181,342 L178.932966,325.29725 C178.932966,325.29725 172.38566,319.722451 176.392448,317 Z" id="Path" fill="#3B221D" fill-rule="nonzero"></path>
                    <path d="M178.343717,321 L174,314.194756 L193.648365,262.547722 C195.675512,257.213187 195.984149,251.377476 194.531017,245.858544 C177.947861,182.817679 207.102119,166 207.102119,166 L207.102119,166 L229.85314,198.061211 C240.097251,248.385747 178.343717,321 178.343717,321 Z" id="Path" fill="#254A7F" fill-rule="nonzero"></path>
                    <path d="M189.516909,273 C194.668522,259.318264 199.508891,254.934901 202.798411,243.813743 C206.08793,232.692586 230,213.341772 230,213.341772 L189.05541,207 C188.701237,217.508137 190.005239,230.424955 194.115796,246.200723 C195.578087,251.793117 195.272221,257.707962 193.241096,263.115732 L189.516909,273 Z" id="Path" fill="url(#linearGradient-9)" fill-rule="nonzero" opacity="0.49" style="mix-blend-mode: color-burn;"></path>
                    <path d="M210.505914,127.849606 C210.505914,127.849606 241.199552,147.29157 275.771121,122 L278,124.446199 C278,124.446199 247.024428,167.259998 202,144.159372" id="Path" fill="#F9AA8F" fill-rule="nonzero"></path>
                    <path d="M202,143.914233 C211.297038,148.880892 220.116489,150.900667 228.256704,151 C230.778316,145.727486 232.060493,139.907824 231.997807,134.019545 C231.997807,133.969878 231.997807,133.920212 231.997807,133.865026 C219.06049,132.165325 210.48514,127 210.48514,127 L202,143.914233 Z" id="Path" fill="#9092A0" fill-rule="nonzero"></path>
                    <path d="M213.147979,135 L212,148.69714 C223.49466,152.214674 235.843826,151.689861 247,147.209716 C221.26926,147.343477 213.147979,135 213.147979,135 Z" id="Path" fill="url(#linearGradient-10)" fill-rule="nonzero" opacity="0.49" style="mix-blend-mode: color-burn;"></path>
                    <path d="M275.718223,119 L275.000064,121.041952 C275.000064,121.041952 274.964411,125.951099 276.573901,124.834903 C278.183392,123.718707 281,123.702837 281,123.702837 L275.718223,119 Z" id="Path" fill="#F9AA8F" fill-rule="nonzero"></path>
                    <path d="M189.060059,123.574731 C189.060059,123.574731 189.417634,124.43988 180.456593,132.296081 C173.196741,138.658422 195.886487,172.721663 187.196336,202.819188 C184.113608,213.485781 171.793531,206.043347 190.24114,212.706609 C218.283673,222.868083 230.370785,217.005488 234.867559,206.860134 C241.146789,192.700702 219.697719,132.167115 210.178644,127.196536 C204.219064,124.101344 193.751874,121.822938 191.877315,112" id="Path" fill="#9092A0" fill-rule="nonzero"></path>
                    <path d="M190.899704,212.741931 C200.813186,216.329412 208.727764,217.90362 215,218 C186.09153,216.870211 210.786095,184.711388 210.786095,184.711388 L199.268087,181.739668 C199.965002,162.324434 190.964533,147.369457 190.964533,147.369457 L181.299564,147 C185.291969,161.183937 193.552303,183.201433 187.863531,202.889744 C184.794944,213.518326 172.50979,206.08635 190.899704,212.741931 Z" id="Path" fill="url(#linearGradient-11)" fill-rule="nonzero" opacity="0.49" style="mix-blend-mode: color-burn;"></path>
                    <path d="M188,113.991914 C188,113.991914 190.76077,120.76452 190.568531,125.502624 C190.338912,131.138303 210.326461,141.756878 204.051983,124.817204 C203.074767,122.178879 201.985411,120.318453 207.426851,115.226759 C210.427921,112.414359 200.666435,111 200.666435,111" id="Path" fill="#F9AA8F" fill-rule="nonzero"></path>
                    <path d="M187,114.021158 C187,114.021158 189.842221,120.953229 189.64431,125.802895 C189.567345,127.712695 191.771853,130.179287 194.520616,132 L194.520616,132 C191.150632,126.315145 201.359538,127.066815 201.535459,123.703786 C201.606927,122.373051 202.481034,120.780624 203.503573,119.332962 C204.471818,117.819538 205.649269,116.454504 207,115.27951 L195.598131,112 L187,114.021158 Z" id="Path" fill="url(#linearGradient-12)" fill-rule="nonzero" opacity="0.49" style="mix-blend-mode: color-burn;"></path>
                    <path d="M214,104.570713 C214,99.8649043 210.116295,95.1643891 210.116295,95.1643891 L210.116295,95.1643891 C206.327775,89.9488198 199.565884,87.7454006 193.380871,89.7110098 C187.195858,91.676619 183.001503,97.3619544 183,103.782 C183,111.949675 189.696043,118 197.961638,118 C204.60947,118 210.239502,114.294639 212.18939,108.355475 C213.302545,107.400017 213.959316,106.027151 214,104.570713 L214,104.570713 Z" id="Path" fill="#F9AA8F" fill-rule="nonzero"></path>
                    <path d="M194.262979,112.576556 C195.99004,107.950217 208,104.303329 208,104.303329 L184.350922,100 L183,103.26136 C183,103.26136 183.180123,105.543271 183.815851,109.424602 C186.025005,114.577135 191.322738,118 197.515787,118 C197.515787,117.99479 192.535919,117.213314 194.262979,112.576556 Z" id="Path" fill="url(#linearGradient-13)" fill-rule="nonzero" opacity="0.49" style="mix-blend-mode: color-burn;"></path>
                    <path d="M180,158.645634 L164.347108,150 C155.863156,161.957992 150.560686,174.66167 172.597752,181 C153.48765,168.598919 180,158.645634 180,158.645634 Z" id="Path" fill="url(#linearGradient-14)" fill-rule="nonzero"></path>
                    <path d="M193.069009,105.597377 L193.069009,105.597377 C192.724585,105.710218 192.348753,105.670783 192.03488,105.488869 C191.721008,105.306956 191.498553,104.999636 191.422778,104.643258 C191.156398,103.410407 190.52774,101.855943 189.083958,101.995309 C186.7185,102.220438 184.859164,104.991672 185.354632,107.355529 C185.692492,108.803495 186.507418,110.09382 187.666814,111.01656 C187.666814,111.01656 189.510167,112.179728 187.847953,114.725833 C187.738148,114.891318 187.555703,114.993301 187.358042,114.999682 C187.16038,115.006063 186.971812,114.916057 186.85169,114.757994 C184.683353,111.959959 176.819802,100.312199 187.384451,90.0688176 C199.46214,78.3299342 208.694886,84.4298654 211.555812,85.8449637 C214.416738,87.260062 213.686855,96.3617168 203.27138,96.5332438 C194.939,96.6672494 194.001341,102.225798 193.95872,104.423489 C193.940142,104.965223 193.583336,105.435994 193.069009,105.597377 L193.069009,105.597377 Z" id="Path" fill="#A85D33" fill-rule="nonzero"></path>
                    <g id="Group" opacity="0.49" style="mix-blend-mode: color-burn;" transform="translate(189.000000, 85.000000)" fill-rule="nonzero">
                        <path d="M22.8818182,0.127777778 L23.7272727,2.47777778 C23.6678381,1.62909593 23.3748243,0.814643801 22.8818182,0.127777778 Z" id="Path" fill="url(#linearGradient-15)"></path>
                        <path d="M23.8854545,2.92222222 L23.7272727,2.47777778 C23.7272727,3.45 23.0890909,4.41666667 20.8472727,4.7 C15.9381818,5.31666667 5.7,2.40555556 1.21090909,8.66666667 C-1.79454545,12.85 3.52909091,16.8888889 3.84,19.1277778 C3.92150555,19.4691504 4.11368306,19.7725417 4.38545455,19.9888889 L4.44,19.9888889 C4.44,19.9888889 3.29454545,11.0722222 13.9418182,10.8944444 C21.2727273,10.7444444 23.9236364,6.2 23.8854545,2.92222222 Z" id="Path" fill="url(#linearGradient-16)"></path>
                    </g>
                    <path d="M209.282799,106.157434 C205.98248,106.157434 209.927974,107.259475 211.337433,108 L211.337433,107.924198 C212.304944,106.91998 212.90132,105.512338 213,104 C212.950371,104.629738 212.444157,106.157434 209.282799,106.157434 Z" id="Path" fill="url(#linearGradient-17)" fill-rule="nonzero" opacity="0.49" style="mix-blend-mode: color-burn;"></path>
                    <path d="M213.822603,103.398003 C213.751064,102.985383 213.377757,102.685849 212.945437,102.694182 C212.193935,102.751623 211.456997,102.926388 210.763217,103.211698 C207.334779,104.443386 194.375176,109.28216 192.428294,102.337095 C190.556292,95.6559637 194.674696,94.310422 207.677088,92.1989567 C220.096485,90.1806442 215.346948,104.194978 213.876089,103.703338 L213.822603,103.398003 Z" id="Path" fill="#1B1C37" fill-rule="nonzero"></path>
                    <path d="M193.341926,97 C193.341926,97 186.097477,99.5145455 182.102377,105.727273 C182.102377,105.727273 181.500448,107.292727 183.215678,109 C183.215678,109 188.515845,103.06 196,101.821818" id="Path" fill="#1B1C37" fill-rule="nonzero"></path>
                    <path d="M186.033123,104.402401 C186.033123,104.402401 185.602597,106.879403 187.845861,107.82281 C190.089125,108.766217 190.447141,105.649844 189.531708,105.341337 C188.988578,105.126977 188.668581,104.569843 188.761294,104 L186.033123,104.402401 Z" id="Path" fill="#1B1C37" fill-rule="nonzero"></path>
                    <path d="M215.082314,102.624913 C216.579803,99.1444398 217.425753,90.5709797 207.826062,92.20478 C204.67926,92.6810769 201.560527,93.3313103 198.483834,94.1525679 C197.702709,94.3659574 196.982513,94.7635047 196.382096,95.3127258 C195.389024,96.2600106 194.401207,97.9736383 195.446822,100.831458 C197.228046,105.674319 203.622585,103.92876 208.624723,102.3535 C213.62686,100.77824 214.640949,102.396075 215.082314,102.624913 Z" id="Path" fill="#343860" fill-rule="nonzero"></path>
                    <path d="M279.376645,118 L278.018951,123.696886 C277.926778,124.076697 278.177726,124.456585 278.621635,124.609237 L279.568709,124.938108 C279.819021,125.020631 280.099899,125.020631 280.350211,124.938108 L280.350211,124.938108 C280.813174,124.791761 281.078362,124.400511 280.979386,124.009844 L280.694602,122.895928 L279.95946,121.484967 L279.95946,119.071481" id="Path" fill="#1B1C37" fill-rule="nonzero"></path>
                    <path d="M282.5,112 C279.461264,112 277,115.583875 277,120 C277,124.416125 279.461264,128 282.5,128 C285.538736,128 288,124.416125 288,120 C288,115.583875 285.538736,112 282.5,112 Z M282.5,125.185956 C280.818043,125.185956 279.416412,122.86606 279.416412,119.984395 C279.416412,117.102731 280.795617,114.782835 282.5,114.782835 C284.204383,114.782835 285.583588,117.102731 285.583588,119.984395 C285.583588,122.86606 284.204383,125.185956 282.5,125.185956 Z" id="Shape" fill="#1B1C37" fill-rule="nonzero"></path>
                    <path d="M281.803916,116.008542 L281.086268,116.117122 C280.406295,116.219695 279.796228,116.59979 279.395807,117.170344 L279.316068,117.284352 C279.053752,117.660045 278.948559,118.126879 279.023693,118.581878 L279.619075,122.24644 L279.619075,122.425596 C279.607584,122.839107 279.760435,123.239767 280.042824,123.536344 C280.325213,123.83292 280.713101,124.000166 281.118163,124 L281.118163,124 C281.639262,123.998762 282.122346,123.721248 282.393983,123.267088 L282.782044,122.61561 C282.925136,122.375104 283.000549,122.098972 282.999997,121.81755 L282.999997,117.067193 C282.994821,116.75883 282.861488,116.467264 282.633281,116.265278 C282.405074,116.063292 282.103527,115.969946 281.803916,116.008542 L281.803916,116.008542 Z" id="Path" fill="#F9AA8F" fill-rule="nonzero"></path>
                    <path d="M184.302048,132 C184.302048,132 174.458356,136.427652 164.593277,149.961332 C155.476767,162.465449 149.76625,175.849762 176.500882,181.755077 C203.235514,187.660392 203.770207,185.681284 203.770207,185.681284 L205,182.592597 C205,182.592597 170.5551,173.523911 173.046768,166.813084 C176.602474,157.242953 191.370684,155.519903 192.215499,146.381869 C193.060313,137.243834 191.033828,132.048011 184.302048,132 Z" id="Path" fill="#F9AA8F" fill-rule="nonzero"></path>
                    <path d="M180,158.645634 L164.347108,150 C155.863156,161.957992 150.560686,174.66167 172.597752,181 C153.48765,168.598919 180,158.645634 180,158.645634 Z" id="Path" fill="url(#linearGradient-18)" fill-rule="nonzero" opacity="0.49" style="mix-blend-mode: color-burn;"></path>
                    <path d="M192.826556,147.083857 C193.662185,137.942634 191.554483,131.048027 184.842834,131 C184.842834,131 176.167191,135.125024 164.468378,150.210978 C164.292736,150.440442 164.154352,150.691252 164,150.931389 C168.03444,154.421384 173.580465,157.335049 179.999377,159 C185.321858,155.275205 192.294307,152.900515 192.826556,147.083857 Z" id="Path" fill="#9092A0" fill-rule="nonzero"></path>
                    <path d="M204.532808,178.490741 C204.679724,178.302359 204.836107,178.138093 205,178 C204.266478,178.433035 203.587346,179.112167 203,180 C203.540683,179.59728 204.054693,179.091167 204.532808,178.490741 L204.532808,178.490741 Z" id="Path"></path>
                    <path d="M200.012048,189.686443 C200.804552,190.195661 201.886212,190.06425 203,189.440047 C201.601913,189.174241 200.252563,188.688459 199,188 C199.090832,188.682509 199.458106,189.294521 200.012048,189.686443 L200.012048,189.686443 Z" id="Path"></path>
                    <path d="M195.353247,180 L191,183.872778 C192.572336,184.04284 194.107786,184.422746 195.555844,185 C195.565584,183.307134 196.063195,181.645532 197,180.177736 C196.447485,180.149654 195.89748,180.090291 195.353247,180 L195.353247,180 Z" id="Path" fill="#F9AA8F" fill-rule="nonzero"></path>
                    <path d="M203.467716,178.950712 C204.035757,178.421175 204.692566,178.016115 205.401978,177.757837 C207.194089,176.819 208.955739,178.60279 209.9711,179.966865 L209.996484,180 C210.057405,177.702611 209.326346,175.725531 207.828689,174.698334 C205.09737,172.831705 200.848086,174.836398 198.345223,179.171615 C198.223379,179.386995 198.11169,179.602375 198,179.817755 C199.859512,179.986258 201.729813,179.689675 203.467716,178.950712 L203.467716,178.950712 Z" id="Path" fill="#1B1C37" fill-rule="nonzero"></path>
                    <path d="M203.365145,189.874422 C202.28112,190.437453 201.233402,190.555986 200.470954,190.096671 C199.936355,189.742188 199.58258,189.190294 199.495851,188.575499 C198.391079,188.081612 197.239627,187.493887 196,187 C196.036307,188.896526 196.778008,190.516475 198.219917,191.375838 C200.39834,192.6797 203.51556,191.869725 206,189.607723 C205.159745,189.908219 204.252965,190.000003 203.365145,189.874422 L203.365145,189.874422 Z" id="Path" fill="#1B1C37" fill-rule="nonzero"></path>
                    <path d="M200.885041,182.502646 C201.455553,181.558199 202.169541,180.713332 203,180 C201.233012,180.718582 199.328859,181.011817 197.434046,180.857143 C196.503799,182.517538 196.009672,184.39717 196,186.312169 C197.232867,186.84127 198.383198,187.460317 199.476787,188 C199.198231,186.544974 199.683125,184.465608 200.885041,182.502646 Z" id="Path" fill="#1B1C37" fill-rule="nonzero"></path>
                    <path d="M210.727362,181.971998 C210.224503,181.488431 209.747594,180.976939 209.298758,180.439803 L209.272783,180.407659 C208.233799,179.057612 206.436355,177.332552 204.597352,178.264727 C204.435158,178.344627 204.280396,178.43967 204.135004,178.548666 C203.663723,178.897588 203.156791,179.192213 202.623282,179.427268 C201.786949,180.149541 201.067911,181.004999 200.493363,181.961284 C199.282946,183.948853 198.799818,186.048925 199.075149,187.532905 C200.290325,188.20651 201.5994,188.681811 202.955757,188.941882 C203.841591,189.076256 204.746002,188.97672 205.584388,188.652587 C206.412294,188.315773 207.17041,187.81941 207.818205,187.190036 C211.397507,183.820277 211.236464,182.491659 210.727362,181.971998 Z" id="Path" fill="#F9AA8F" fill-rule="nonzero"></path>
                    <path d="M279.918262,114.271379 L279.918262,114.271379 C279.879153,114.146829 279.78709,114.051177 279.671751,114.015259 C279.556413,113.979341 279.432383,114.007698 279.339643,114.091189 L277.603786,115.681102 C276.873335,116.345012 276.329813,117.223635 276.036693,118.214363 L275,121.669773 L276.094554,123 L278.023285,121.1822 C278.517471,120.70381 278.8177,120.028581 278.85746,119.306103 L278.958719,117.620796 C278.975468,117.356186 279.049889,117.099889 279.175701,116.873537 L279.735033,115.855992 C280.005929,115.38341 280.072994,114.803416 279.918262,114.271379 Z" id="Path" fill="#F9AA8F" fill-rule="nonzero"></path>
                    <polygon id="Path" stroke="#FFFFFF" stroke-width="2" points="166 116.5 166 101.5 152.497269 94 139 101.5 139 116.5 152.497269 124"></polygon>
                    <polyline id="Path" stroke="#FFFFFF" stroke-width="2" points="139 102 152.497269 109 166 102"></polyline>
                    <path d="M152.5,109 L152.5,124" id="Path" stroke="#FFFFFF" stroke-width="2"></path>
                    <polygon id="Path" stroke="#FFFFFF" stroke-width="2" points="184 266.5 184 251.5 170.5 244 157 251.5 157 266.5 170.5 274"></polygon>
                    <polyline id="Path" stroke="#FFFFFF" stroke-width="2" points="157 251 170.5 258 184 251"></polyline>
                    <path d="M170.5,259 L170.5,274" id="Path" stroke="#FFFFFF" stroke-width="2"></path>
                    <polygon id="Path" fill="url(#linearGradient-19)" fill-rule="nonzero" points="113 55 113 35 95.497294 25 78 35 78 55 95.497294 65"></polygon>
                    <polygon id="Path" fill="url(#linearGradient-20)" fill-rule="nonzero" points="113 55 113 35 95 25 95 65"></polygon>
                    <polygon id="Path" fill="url(#linearGradient-21)" fill-rule="nonzero" points="78 34 95.497294 44 113 34 95.497294 24"></polygon>
                    <polygon id="Path" fill="url(#linearGradient-22)" fill-rule="nonzero" points="407 307.998661 407 287.995982 389.497294 278 372 287.995982 372 307.998661 389.497294 318"></polygon>
                    <polygon id="Path" fill="url(#linearGradient-23)" fill-rule="nonzero" points="407 307.998661 407 287.995982 389 278 389 318"></polygon>
                    <polygon id="Path" fill="url(#linearGradient-24)" fill-rule="nonzero" points="372 286.997321 389.497294 297 407 286.997321 389.497294 277"></polygon>
                    <g id="Group" opacity="0.43" style="mix-blend-mode: overlay;" transform="translate(152.000000, 182.000000)" stroke="#FFFFFF" stroke-linecap="round" stroke-width="2">
                        <path d="M0.0888888889,4.91111111 C0.0888888889,2.2785538 2.22299825,0.144444444 4.85555556,0.144444444" id="Path"></path>
                        <path d="M9.62777778,4.91111111 C9.62777778,7.54366842 7.49366842,9.67777778 4.86111111,9.67777778" id="Path"></path>
                    </g>
                    <path d="M280,260 C278.939134,260 277.921718,259.578573 277.171573,258.828427 C276.421427,258.078282 276,257.060866 276,256" id="Path" stroke="#FFFFFF" stroke-width="2"></path>
                    <path d="M280,250 C281.060866,250 282.078282,250.421427 282.828427,251.171573 C283.578573,251.921718 284,252.939134 284,254" id="Path" stroke="#FFFFFF" stroke-width="2"></path>
                    <path d="M227,118 C227,115.790861 228.790861,114 231,114" id="Path" stroke="#FFFFFF" stroke-width="2"></path>
                    <path d="M235,117 C235,119.209139 233.209139,121 231,121" id="Path" stroke="#FFFFFF" stroke-width="2"></path>
                    <path d="M136,184.566265 C56.1156233,181.358768 0,173.808568 0,165 L0,249.433735 C0,258.242303 56.1156233,265.792503 136,269 L136,184.566265 Z" id="Path" fill="url(#linearGradient-25)" fill-rule="nonzero"></path>
                    <path d="M25.0001023,198.353069 C24.978183,219.661556 28.4787537,240.829368 35.362443,261.013733 C59.4949456,264.548464 94.5452959,267.37307 136,269 L136,185.443615 C88.9955681,183.57821 50.2489602,180.223659 26.2927242,176 C25.4353836,183.420711 25.0038138,190.883767 25.0001023,198.353069 L25.0001023,198.353069 Z" id="Path" fill="url(#linearGradient-26)" fill-rule="nonzero"></path>
                    <path d="M0.0374096196,249.567792 L0.0374096196,249.657167 C0.0631388941,249.778983 0.0988846532,249.898543 0.144294247,250.014665 L0.144294247,250.014665 C0.194587648,250.136013 0.253520477,250.253719 0.320653882,250.366906 L0.374096196,250.456281 C0.450632512,250.578501 0.534507594,250.696123 0.625275071,250.808522 L0.625275071,250.808522 C0.721471235,250.924184 0.828355863,251.039845 0.940584722,251.155506 L1.02609242,251.239624 C1.14900975,251.355285 1.2772713,251.470946 1.41622131,251.591865 L1.41622131,251.591865 C1.55517133,251.702269 1.70480981,251.81793 1.86513675,251.928334 L1.98805407,252.012452 C2.15372524,252.128113 2.33008488,252.243774 2.52247721,252.359436 L2.52247721,252.359436 C2.70418108,252.46984 2.8965734,252.580243 3.0996542,252.690647 L3.25463691,252.774765 C3.46840616,252.890426 3.68751965,253.006087 3.92266583,253.116491 L3.95473122,253.116491 L4.66016976,253.442446 L4.84187362,253.521306 L5.6381641,253.857775 L5.68091795,253.857775 L6.50927381,254.178473 L6.71769884,254.257333 L7.6475951,254.593802 L7.70103741,254.593802 L8.64696636,254.909242 L8.88211254,254.982844 L9.95095882,255.314056 L10.0097454,255.314056 L11.0785916,255.624239 L11.3351147,255.697842 L12.5215341,256.023796 L12.6016976,256.023796 L13.7827727,256.328722 L14.0553285,256.397067 L15.3806979,256.717764 L15.4448287,256.717764 L16.7648538,257.02269 L17.0587865,257.091035 L18.5070732,257.406475 L18.5818925,257.406475 L20.024835,257.706143 L20.3241119,257.769231 L21.8953159,258.079413 L21.9968563,258.079413 L23.535995,258.373824 L23.8566489,258.431655 L25.5561144,258.741837 L25.6362779,258.741837 L27.3197108,259.036248 L27.6350204,259.088821 L29.4574033,259.393747 L29.5535995,259.393747 L31.343917,259.677643 L31.6592267,259.724958 L33.6098711,260.024626 L33.6900346,260.024626 L35.6086136,260.308522 L35.939956,260.355838 L37.9974851,260.644992 L38.088337,260.644992 L40.1138007,260.918373 L40.4344546,260.960432 L42.614901,261.244328 L42.7164414,261.244328 L44.8541339,261.512452 L45.1587551,261.549253 L47.4621188,261.827892 L47.5476265,261.827892 L49.8135806,262.090758 L50.1182018,262.127559 L52.5337944,262.400941 L52.6139579,262.400941 L54.9921408,262.65855 L55.296762,262.690094 L57.8192392,262.952961 L57.9100912,262.952961 L60.4165357,263.205313 L60.6623703,263.205313 L63.334486,263.462922 L63.3665514,263.462922 L66.0386671,263.710017 L66.289846,263.710017 L69.0528136,263.962369 L69.1116001,263.962369 L71.8745677,264.204206 L72.0723043,264.204206 L74.9688777,264.4513 L74.9688777,264.4513 L77.8494184,264.68788 L78.0631877,264.68788 C80.0369905,264.8456 82.0410772,264.999816 84.075448,265.150526 L84.2250865,265.150526 C86.2772713,265.301236 88.3579587,265.450194 90.4671487,265.597399 L90.5847218,265.597399 C92.7010374,265.744604 94.83873,265.886552 96.9977994,266.023243 L97.1100283,266.023243 C99.2869119,266.163438 101.490517,266.298377 103.720843,266.428058 L103.827727,266.428058 C106.082993,266.561243 108.36498,266.690924 110.673688,266.8171 L110.673688,266.8171 C118.804045,267.258716 127.246149,267.653016 136,268 L136,230 C56.1464948,233.128113 0,240.561981 0,249.210293 L0,249.210293 C0.00183643033,249.330305 0.0143541311,249.449929 0.0374096196,249.567792 L0.0374096196,249.567792 Z" id="Path" fill="url(#linearGradient-27)" fill-rule="nonzero"></path>
                    <path d="M35.0864253,261.109889 L35.3543138,261.152799 L35.6864954,261.201073 L37.7492364,261.49608 L37.8403185,261.49608 L39.8709128,261.774997 L40.1923789,261.817907 L42.3783486,262.107551 L42.4801462,262.107551 L44.6232537,262.381103 L44.9286465,262.418649 L47.2378449,262.702929 L47.3235692,262.702929 L49.5952631,262.971118 L49.900656,263.008665 L52.3223674,263.287581 L52.402734,263.287581 L54.7869411,263.550406 L55.0923339,263.582588 L57.6212007,263.850777 L57.7122828,263.850777 L60.2250764,264.108238 L60.4715337,264.108238 L63.1504181,264.371063 L63.1825647,264.371063 L65.8614491,264.623161 L66.1132642,264.623161 L68.8832307,264.880622 L68.9421661,264.880622 L71.7121326,265.127355 L71.91037,265.127355 L74.8142807,265.379453 L74.8142807,265.379453 L77.7021181,265.620822 L77.9164288,265.620822 C79.8952314,265.781736 81.9043947,265.939073 83.9439187,266.092835 L84.0939362,266.092835 C86.1513194,266.250172 88.2372774,266.402146 90.3518101,266.548755 L90.469681,266.548755 C92.5913575,266.698941 94.734465,266.843763 96.8990036,266.983221 L97.0115167,266.983221 C99.1939145,267.126255 101.403101,267.263925 103.639077,267.396232 L103.746232,267.396232 C106.00721,267.532114 108.294978,267.66442 110.609534,267.793151 L110.609534,267.793151 C118.760486,268.243708 127.223975,268.645991 136,269 L136,230 C90.8125782,231.812956 53.2063993,235.004401 29,239.032595 C30.5973326,246.504145 32.629608,253.875819 35.0864253,261.109889 Z" id="Path" fill="url(#linearGradient-28)" fill-rule="nonzero"></path>
                    <path d="M308,184.567273 L308,269 C387.884377,265.786983 444,258.241749 444,249.432727 L444,165 C444,173.809021 387.884377,181.359611 308,184.567273 Z" id="Path" fill="url(#linearGradient-29)" fill-rule="nonzero"></path>
                    <path d="M308,269 C349.454704,267.351872 384.505055,264.548464 408.637558,261.013733 C415.521153,240.829345 419.021721,219.661548 418.999899,198.353069 C418.996187,190.883767 418.564617,183.420711 417.707277,176 C393.75104,180.239558 354.988408,183.57291 308,185.443615 L308,269 Z" id="Path" fill="url(#linearGradient-30)" fill-rule="nonzero"></path>
                    <path d="M308,230 L308,269 C316.741651,268.644177 325.185737,268.243876 333.332257,267.799097 L333.332257,267.799097 C335.637943,267.671 337.918684,267.539346 340.174479,267.404133 L340.286734,267.404133 C342.517583,267.26892 344.719923,267.131928 346.893754,266.993157 L347.0167,266.993157 C349.186967,266.850828 351.325162,266.70672 353.431283,266.560832 L353.548884,266.560832 C355.658569,266.411386 357.739745,266.260161 359.792411,266.107158 L359.94743,266.107158 C361.978715,265.954154 363.98149,265.797591 365.955756,265.637471 L366.169576,265.637471 L369.045447,265.39729 L369.045447,265.39729 L371.937355,265.151772 L372.135138,265.151772 L374.893408,264.906254 L374.957554,264.906254 L377.715825,264.650062 L377.972408,264.650062 L380.645151,264.399206 L380.677224,264.399206 L383.349967,264.137676 L383.601205,264.137676 L386.102892,263.881484 L386.199111,263.881484 L388.72218,263.614616 L389.026873,263.582592 L391.400268,263.321062 L391.48045,263.321062 L393.89661,263.04352 L394.201303,263.006158 L396.462443,262.739291 L396.553316,262.739291 L398.857221,262.456412 L399.167259,262.41905 L401.305453,262.146845 L401.407017,262.146845 L403.58263,261.858629 L403.903359,261.81593 L405.929298,261.538388 L406.025517,261.538388 L408.083529,261.244834 L408.420295,261.196798 L410.328633,260.913918 L410.414161,260.913918 L412.359918,260.609689 L412.675301,260.561653 L414.466039,260.273436 L414.567603,260.273436 L416.385068,259.969208 L416.705798,259.915834 L418.38428,259.62228 L418.464462,259.62228 L420.158981,259.312714 L420.47971,259.254003 L422.008519,258.960449 L422.115429,258.960449 L423.681656,258.645545 L423.986349,258.581497 L425.424285,258.277268 L425.499122,258.277268 L426.942403,257.957028 L427.24175,257.887642 L428.556739,257.578076 L428.626231,257.578076 L429.946566,257.252498 L430.219185,257.183112 L431.400538,256.873546 L431.48072,256.873546 L432.667418,256.54263 L432.924001,256.467907 L433.993098,256.153004 L434.051899,256.153004 L435.120996,255.816751 L435.356197,255.742028 L436.302348,255.421787 L436.361149,255.421787 L437.291263,255.080197 L437.499737,255.000137 L438.328287,254.674559 L438.371051,254.674559 L439.167529,254.332968 L439.349275,254.252908 L440.054879,253.921993 L440.086952,253.921993 C440.322153,253.804571 440.541318,253.692487 440.749792,253.575065 L440.904811,253.489667 C441.102594,253.377583 441.300377,253.265499 441.476778,253.153415 L441.476778,253.153415 C441.66387,253.035993 441.840271,252.918571 442.011327,252.80115 L442.134273,252.715752 C442.294638,252.603668 442.444311,252.486246 442.583294,252.374162 L442.583294,252.374162 C442.727622,252.25674 442.850568,252.139318 442.973514,252.016559 L443.059042,251.925825 C443.171297,251.808403 443.278207,251.690981 443.374426,251.57356 L443.374426,251.57356 C443.465235,251.459465 443.549131,251.340051 443.625664,251.215957 L443.679118,251.125222 C443.746268,251.010312 443.805214,250.890814 443.85552,250.76762 L443.85552,250.76762 C443.900962,250.649738 443.936717,250.528357 443.962429,250.40468 L443.962429,250.313946 C443.98549,250.194288 443.998011,250.072845 443.999848,249.951006 L443.999848,249.951006 C444.106757,240.722732 387.947084,233.175722 308,230 Z" id="Path" fill="url(#linearGradient-31)" fill-rule="nonzero"></path>
                    <path d="M308,230 L308,269 C316.764371,268.644177 325.230403,268.243876 333.398097,267.799097 L333.398097,267.799097 C335.709775,267.671 337.996444,267.539346 340.258102,267.404133 L340.370649,267.404133 C342.607296,267.26892 344.81536,267.131928 346.994841,266.993157 L347.118107,266.993157 C349.294015,266.850828 351.437766,266.70672 353.549361,266.560832 L353.667268,266.560832 C355.782436,266.411386 357.869021,266.260161 359.927022,266.107158 L360.082444,266.107158 C362.119008,265.954154 364.126989,265.797591 366.106386,265.637471 L366.320761,265.637471 L369.204107,265.39729 L369.204107,265.39729 L372.103531,265.151772 L372.301828,265.151772 L375.067268,264.906254 L375.13158,264.906254 L377.89702,264.650062 L378.15427,264.650062 L380.833959,264.399206 L380.866116,264.399206 L383.545805,264.137676 L383.797696,264.137676 L386.305885,263.881484 L386.402354,263.881484 L388.931981,263.614616 L389.237466,263.582592 L391.61703,263.321062 L391.69742,263.321062 L394.11986,263.04352 L394.425344,263.006158 L396.692362,262.739291 L396.783471,262.739291 L399.093363,262.456412 L399.404207,262.41905 L401.547959,262.146845 L401.649787,262.146845 L403.831054,261.858629 L404.152617,261.81593 L406.183822,261.538388 L406.280291,261.538388 L408.343651,261.244834 L408.681292,261.196798 L408.949261,261.159436 C411.394361,253.958481 413.414719,246.621348 415,239.185575 C390.818482,234.979745 353.201002,231.804024 308,230 Z" id="Path" fill="url(#linearGradient-32)" fill-rule="nonzero"></path>
                    <circle id="Oval" fill="url(#linearGradient-33)" fill-rule="nonzero" cx="372" cy="48" r="47"></circle>
                    <path d="M388,91.9656399 C372.396723,67.4173224 351.582678,46.6032774 327.03436,31 C320.490157,48.3890249 324.725718,67.9986361 337.863541,81.1364589 C351.001364,94.2742817 370.610975,98.5098427 388,91.9656399 L388,91.9656399 Z" id="Path" fill="url(#linearGradient-34)" fill-rule="nonzero"></path>
                    <ellipse id="Oval" fill="#D1D2DB" fill-rule="nonzero" transform="translate(211.707731, 154.835237) rotate(-17.310000) translate(-211.707731, -154.835237) " cx="211.707731" cy="154.835237" rx="8.55347184" ry="13.7764837"></ellipse>
                    <ellipse id="Oval" fill="#9092A0" fill-rule="nonzero" transform="translate(208.435832, 152.349306) rotate(-17.310000) translate(-208.435832, -152.349306) " cx="208.435832" cy="152.349306" rx="1.12869453" ry="1.81832471"></ellipse>
                    <ellipse id="Oval" fill="#9092A0" fill-rule="nonzero" transform="translate(215.192685, 150.810448) rotate(-17.310000) translate(-215.192685, -150.810448) " cx="215.192685" cy="150.810448" rx="1" ry="1.58836012"></ellipse>
                    <path d="M72.3963523,96.6042856 C71.6379955,96.6046045 70.8803573,96.6503705 70.1276163,96.7413311 C68.0521544,97.0243135 65.9442309,96.5359034 64.212888,95.3708767 C58.8296337,91.6291081 52.1384898,90.2058208 45.6724358,91.427098 C39.2063819,92.6483753 33.5195902,96.4095477 29.9149375,101.848909 C29.1746625,102.918158 27.9380613,103.546512 26.6266049,103.519809 L26.6266049,103.519809 C20.2054083,103.519809 15,108.659666 15,115 L91,115 C91.0056542,110.124006 89.0483062,105.445728 85.5589871,101.995407 C82.0696679,98.5450855 77.3345358,96.6056811 72.3963523,96.6042856 Z" id="Path" fill="#FFFFFF" fill-rule="nonzero"></path>
                    <path d="M340.267758,85.0320394 C340.685976,85.031801 341.103824,85.0560985 341.519004,85.1047982 C342.664915,85.2572301 343.828487,84.992382 344.784058,84.3616187 C347.758839,82.3389638 351.45407,81.5703571 355.024892,82.2315288 C358.595713,82.8927005 361.73679,84.927115 363.729962,87.869634 C364.143424,88.4470127 364.830227,88.7832552 365.555815,88.7635283 L365.555815,88.7635283 C369.11484,88.7635283 372,91.5556918 372,95 L330,95 C329.99432,92.360046 331.073236,89.8261764 332.999119,87.9565208 C334.925002,86.0868652 337.539872,85.0347922 340.267758,85.0320394 Z" id="Path" fill="#FFFFFF" fill-rule="nonzero"></path>
                    <path d="M114.396423,123.328763 C114.087536,123.327943 113.778885,123.34606 113.472173,123.383015 C112.625787,123.501871 111.765859,123.29884 111.059451,122.813368 C108.864263,121.258009 106.137913,120.668538 103.504351,121.179861 C100.870789,121.691183 98.5554532,123.25953 97.0882287,125.52597 C96.7797644,125.9674 96.2744527,126.225533 95.7394684,126.214971 L95.7394684,126.214971 C93.1219323,126.214971 91,128.357301 91,131 L122,131 C122.002854,128.963636 121.202513,127.009925 119.775791,125.570506 C118.349069,124.131088 116.413395,123.324434 114.396423,123.328763 L114.396423,123.328763 Z" id="Path" fill="#FFFFFF" fill-rule="nonzero"></path>
                    <path d="M334.396423,107.328763 C334.087537,107.32797 333.778887,107.346087 333.472173,107.383015 C332.625787,107.501871 331.765859,107.29884 331.059451,106.813368 C328.864263,105.258009 326.137913,104.668538 323.504351,105.179861 C320.870789,105.691183 318.555453,107.25953 317.088229,109.52597 C316.779764,109.9674 316.274453,110.225533 315.739468,110.214971 L315.739468,110.214971 C313.121932,110.214971 311,112.357301 311,115 L342,115 C342.002854,112.963636 341.202513,111.009925 339.775791,109.570506 C338.349069,108.131088 336.413395,107.324434 334.396423,107.328763 Z" id="Path" fill="#FFFFFF" fill-rule="nonzero"></path>
                    <g id="Group" opacity="0.24" style="mix-blend-mode: overlay;" transform="translate(248.000000, 169.000000)" stroke="#FFFFFF" stroke-width="2">
                        <ellipse id="Oval" cx="0.694318182" cy="0.580338983" rx="1" ry="1"></ellipse>
                        <path d="M5.51181818,0.580338983 L23.4305682,0.580338983" id="Path" stroke-linecap="round"></path>
                        <path d="M28.9210227,0.580338983 L46.8397727,0.580338983" id="Path" stroke-linecap="round"></path>
                        <ellipse id="Oval" cx="46.3911364" cy="6.60610169" rx="1" ry="1"></ellipse>
                        <path d="M41.5736364,6.60610169 L23.6548864,6.60610169" id="Path" stroke-linecap="round"></path>
                        <path d="M18.1697727,6.60610169 L0.245681818,6.60610169" id="Path" stroke-linecap="round"></path>
                        <ellipse id="Oval" cx="0.694318182" cy="12.8650847" rx="1" ry="1"></ellipse>
                        <path d="M5.51181818,12.8650847 L23.4305682,12.8650847" id="Path" stroke-linecap="round"></path>
                        <path d="M28.9210227,12.8650847 L46.8397727,12.8650847" id="Path" stroke-linecap="round"></path>
                        <ellipse id="Oval" cx="46.3911364" cy="18.8908475" rx="1" ry="1"></ellipse>
                        <path d="M41.5736364,18.8908475 L23.6548864,18.8908475" id="Path" stroke-linecap="round"></path>
                        <path d="M18.1697727,18.8908475 L0.245681818,18.8908475" id="Path" stroke-linecap="round"></path>
                        <ellipse id="Oval" cx="0.694318182" cy="25.1498305" rx="1" ry="1"></ellipse>
                        <path d="M5.51181818,25.1498305 L23.4305682,25.1498305" id="Path" stroke-linecap="round"></path>
                        <path d="M28.9210227,25.1498305 L46.8397727,25.1498305" id="Path" stroke-linecap="round"></path>
                        <ellipse id="Oval" cx="46.3911364" cy="31.1755932" rx="1" ry="1"></ellipse>
                        <path d="M41.5736364,31.1755932 L23.6548864,31.1755932" id="Path" stroke-linecap="round"></path>
                        <path d="M18.1697727,31.1755932 L0.245681818,31.1755932" id="Path" stroke-linecap="round"></path>
                    </g>
                    <circle id="Oval" fill="url(#linearGradient-35)" fill-rule="nonzero" cx="166" cy="47" r="16"></circle>
                    <path d="M213.696472,370.663173 L201.186947,358.077763 C199.605502,356.486196 197.460287,355.592018 195.223414,355.592018 C192.986542,355.592018 190.841326,356.486196 189.259882,358.077763 L186.149867,361.201267 C185.228835,362.128369 183.979359,362.64925 182.676484,362.64925 C181.373608,362.64925 180.124133,362.128369 179.2031,361.201267 L143.7639,325.557839 C141.171291,322.948891 137.654594,321.483147 133.987661,321.483147 C130.320728,321.483147 126.80403,322.948891 124.211422,325.557839 L99,350.922197 C177.439099,413.745013 290.289502,407.173277 361,335.664874 C346.176667,320.84839 327.537956,302.87077 317.256741,293.021786 C312.981296,288.922759 306.236172,289.003886 302.059351,293.204573 L225.067795,370.663173 C223.56317,372.186504 221.516738,373.043112 219.382133,373.043112 C217.247529,373.043112 215.201097,372.186504 213.696472,370.663173 Z" id="Path" fill="url(#linearGradient-36)" fill-rule="nonzero"></path>
                    <ellipse id="Oval" fill="url(#linearGradient-37)" fill-rule="nonzero" cx="59.5" cy="216.5" rx="9.5" ry="14.5"></ellipse>
                    <ellipse id="Oval" fill="url(#linearGradient-38)" fill-rule="nonzero" cx="59.5" cy="217" rx="3.5" ry="5"></ellipse>
                    <path d="M92.7585212,245.0577 C98.1273044,245.415298 103.845535,245.730199 109.854972,245.997064 C110.675738,246.033451 111.475645,245.730365 112.069425,245.158003 C112.663206,244.58564 112.999348,243.793655 112.999999,242.965479 L112.999999,206.960073 C113.001439,205.33455 111.730802,203.997171 110.119705,203.928488 C104.15792,203.66696 98.4714572,203.357397 93.1767991,203.005136 C92.3507835,202.95659 91.541515,203.253863 90.9401378,203.826741 C90.3387607,204.399619 89.9986017,205.197303 90.0000043,206.031383 L90.0000043,242.031452 C89.9973905,243.610437 91.19752,244.927046 92.7585212,245.0577 Z" id="Path" fill="url(#linearGradient-39)" fill-rule="nonzero"></path>
                    <path d="M90.0000004,232.457653 L90.0000004,243.058769 C89.9992092,244.643915 91.2770085,245.958138 92.922123,246.064186 C98.5127501,246.419323 104.467264,246.732056 110.725017,246.997084 C111.579699,247.033221 112.412658,246.732221 113.030974,246.163798 C113.64929,245.595376 113.999323,244.808842 114,243.986367 L114,231 C105.680221,231.461149 97.6471402,231.938199 90.0000004,232.457653 Z" id="Path" fill="url(#linearGradient-40)" fill-rule="nonzero"></path>
                    <path d="M360.879836,201.916568 L342.416519,236.728542 C341.804779,237.882883 341.870746,239.275202 342.588932,240.367552 C343.307118,241.459901 344.565053,242.081215 345.876709,241.991438 L384.622231,239.322626 C385.893591,239.235763 387.025718,238.493466 387.604436,237.367297 C388.183154,236.241127 388.123549,234.896326 387.447425,233.824875 L367.15984,201.68705 C366.471292,200.597355 365.248672,199.955095 363.952995,200.002449 C362.657318,200.049802 361.485667,200.779566 360.879836,201.916568 Z" id="Path" fill="url(#linearGradient-41)" fill-rule="nonzero"></path>
                    <path d="M342.416538,236.366217 C341.80477,237.599899 341.87074,239.087918 342.588959,240.255348 C343.307179,241.422778 344.565172,242.086797 345.87689,241.990849 L384.624217,239.138601 C385.809737,239.051292 386.879715,238.353942 387.488287,237.271967 C388.096859,236.189991 388.166825,234.860643 387.675568,233.713626 C375.244135,232.304616 361.10136,231.061036 345.57014,230 L342.416538,236.366217 Z" id="Path" fill="url(#linearGradient-42)" fill-rule="nonzero"></path>
                </g>
            </g>
        </g>
    </g>
</svg>