<?xml version="1.0" encoding="UTF-8"?>
<svg width="460px" height="273px" viewBox="0 0 460 273" version="1.1" xmlns="http://www.w3.org/2000/svg" xmlns:xlink="http://www.w3.org/1999/xlink">
    <!-- Generator: Sketch 53.2 (72643) - https://sketchapp.com -->
    <title>conference meeting</title>
    <desc>Created with Sketch.</desc>
    <defs>
        <linearGradient x1="53.2880083%" y1="-6.83688166%" x2="43.2382455%" y2="172.663102%" id="linearGradient-1">
            <stop stop-color="#ABCF9C" offset="0%"></stop>
            <stop stop-color="#84BC93" offset="25%"></stop>
            <stop stop-color="#228B7D" offset="82%"></stop>
            <stop stop-color="#007A75" offset="100%"></stop>
        </linearGradient>
        <linearGradient x1="68.9860019%" y1="141.553838%" x2="81.1054347%" y2="264.026832%" id="linearGradient-2">
            <stop stop-color="#ABCF9C" offset="0%"></stop>
            <stop stop-color="#84BC93" offset="25%"></stop>
            <stop stop-color="#228B7D" offset="82%"></stop>
            <stop stop-color="#007A75" offset="100%"></stop>
        </linearGradient>
        <linearGradient x1="47.3097939%" y1="-14.6865576%" x2="54.7974604%" y2="111.811999%" id="linearGradient-3">
            <stop stop-color="#ABCF9C" offset="0%"></stop>
            <stop stop-color="#84BC93" offset="25%"></stop>
            <stop stop-color="#228B7D" offset="82%"></stop>
            <stop stop-color="#007A75" offset="100%"></stop>
        </linearGradient>
        <linearGradient x1="58.9362812%" y1="-11.7749752%" x2="27.5278586%" y2="183.872078%" id="linearGradient-4">
            <stop stop-color="#ABCF9C" offset="0%"></stop>
            <stop stop-color="#84BC93" offset="25%"></stop>
            <stop stop-color="#228B7D" offset="82%"></stop>
            <stop stop-color="#007A75" offset="100%"></stop>
        </linearGradient>
        <linearGradient x1="62.3607082%" y1="-8.45633444%" x2="24.1167225%" y2="127.622246%" id="linearGradient-5">
            <stop stop-color="#ABCF9C" offset="0%"></stop>
            <stop stop-color="#84BC93" offset="25%"></stop>
            <stop stop-color="#228B7D" offset="82%"></stop>
            <stop stop-color="#007A75" offset="100%"></stop>
        </linearGradient>
        <linearGradient x1="69.4791408%" y1="-15.9713701%" x2="32.8742157%" y2="96.6871166%" id="linearGradient-6">
            <stop stop-color="#ABCF9C" offset="0%"></stop>
            <stop stop-color="#84BC93" offset="25%"></stop>
            <stop stop-color="#228B7D" offset="82%"></stop>
            <stop stop-color="#007A75" offset="100%"></stop>
        </linearGradient>
        <linearGradient x1="42.9584384%" y1="-23.2165706%" x2="59.0169956%" y2="167.039307%" id="linearGradient-7">
            <stop stop-color="#ABCF9C" offset="0%"></stop>
            <stop stop-color="#84BC93" offset="25%"></stop>
            <stop stop-color="#228B7D" offset="82%"></stop>
            <stop stop-color="#007A75" offset="100%"></stop>
        </linearGradient>
        <linearGradient x1="39.5511627%" y1="-20.6018807%" x2="64.9770797%" y2="115.039908%" id="linearGradient-8">
            <stop stop-color="#ABCF9C" offset="0%"></stop>
            <stop stop-color="#84BC93" offset="25%"></stop>
            <stop stop-color="#228B7D" offset="82%"></stop>
            <stop stop-color="#007A75" offset="100%"></stop>
        </linearGradient>
        <linearGradient x1="45.2220281%" y1="-6.97138289%" x2="65.0407599%" y2="108.731735%" id="linearGradient-9">
            <stop stop-color="#ABCF9C" offset="0%"></stop>
            <stop stop-color="#84BC93" offset="25%"></stop>
            <stop stop-color="#228B7D" offset="82%"></stop>
            <stop stop-color="#007A75" offset="100%"></stop>
        </linearGradient>
        <linearGradient x1="50.0174483%" y1="121.18772%" x2="50.0174483%" y2="-181.78158%" id="linearGradient-10">
            <stop stop-color="#FFFFFF" offset="0%"></stop>
            <stop stop-color="#D1D3D4" offset="79%"></stop>
        </linearGradient>
        <linearGradient x1="49.9973529%" y1="139.902357%" x2="49.9973529%" y2="-115.018215%" id="linearGradient-11">
            <stop stop-color="#FFFFFF" offset="10%"></stop>
            <stop stop-color="#D1D3D4" offset="79%"></stop>
        </linearGradient>
        <linearGradient x1="50%" y1="94.453188%" x2="50%" y2="-55.2838663%" id="linearGradient-12">
            <stop stop-color="#FFFFFF" offset="10%"></stop>
            <stop stop-color="#D1D3D4" offset="79%"></stop>
        </linearGradient>
        <linearGradient x1="49.999338%" y1="130.327234%" x2="49.999338%" y2="-17.9489772%" id="linearGradient-13">
            <stop stop-color="#FFFFFF" offset="10%"></stop>
            <stop stop-color="#D1D3D4" offset="79%"></stop>
        </linearGradient>
        <linearGradient x1="58.3165306%" y1="112.945839%" x2="44.5437872%" y2="-27.0169421%" id="linearGradient-14">
            <stop stop-color="#FFFFFF" stop-opacity="0" offset="0%"></stop>
            <stop stop-color="#000000" offset="100%"></stop>
        </linearGradient>
        <linearGradient x1="67.2989504%" y1="116.087963%" x2="50.7365206%" y2="52.8125%" id="linearGradient-15">
            <stop stop-color="#ABCF9C" offset="0%"></stop>
            <stop stop-color="#84CF9C" offset="17%"></stop>
            <stop stop-color="#39CE9C" offset="46%"></stop>
            <stop stop-color="#007A75" offset="100%"></stop>
        </linearGradient>
        <linearGradient x1="28.9230053%" y1="4.69907407%" x2="71.4826542%" y2="95.8564815%" id="linearGradient-16">
            <stop stop-color="#FFD600" offset="0%"></stop>
            <stop stop-color="#FF9C38" offset="48%"></stop>
            <stop stop-color="#FF5147" offset="100%"></stop>
        </linearGradient>
        <linearGradient x1="186.567164%" y1="-225.239658%" x2="-22.9621125%" y2="189.416984%" id="linearGradient-17">
            <stop stop-color="#FFFFFF" stop-opacity="0" offset="0%"></stop>
            <stop stop-color="#000000" offset="100%"></stop>
        </linearGradient>
        <linearGradient x1="44.1456255%" y1="118.129232%" x2="66.1217911%" y2="-142.432733%" id="linearGradient-18">
            <stop stop-color="#FFFFFF" offset="10%"></stop>
            <stop stop-color="#D1D3D4" offset="79%"></stop>
        </linearGradient>
        <linearGradient x1="75.7985434%" y1="5.25382399%" x2="21.0990544%" y2="114.985591%" id="linearGradient-19">
            <stop stop-color="#FFFFFF" stop-opacity="0" offset="0%"></stop>
            <stop stop-color="#000000" offset="100%"></stop>
        </linearGradient>
        <linearGradient x1="54.9170956%" y1="92.2284123%" x2="47.0908726%" y2="7.45821727%" id="linearGradient-20">
            <stop stop-color="#FFFFFF" stop-opacity="0" offset="0%"></stop>
            <stop stop-color="#000000" offset="100%"></stop>
        </linearGradient>
        <linearGradient x1="58.2152667%" y1="84.5455405%" x2="18.1909933%" y2="-126.91762%" id="linearGradient-21">
            <stop stop-color="#FFFFFF" stop-opacity="0" offset="0%"></stop>
            <stop stop-color="#000000" offset="100%"></stop>
        </linearGradient>
        <linearGradient x1="50.0079859%" y1="239.54388%" x2="50.0079859%" y2="-360.512381%" id="linearGradient-22">
            <stop stop-color="#FFFFFF" stop-opacity="0" offset="0%"></stop>
            <stop stop-color="#000000" offset="100%"></stop>
        </linearGradient>
        <linearGradient x1="48.9716496%" y1="79.5474369%" x2="62.4024713%" y2="-38.1742391%" id="linearGradient-23">
            <stop stop-color="#FFFFFF" stop-opacity="0" offset="0%"></stop>
            <stop stop-color="#000000" offset="100%"></stop>
        </linearGradient>
        <linearGradient x1="20.5318491%" y1="60.4062789%" x2="117.408782%" y2="-34.9996922%" id="linearGradient-24">
            <stop stop-color="#FFFFFF" stop-opacity="0" offset="0%"></stop>
            <stop stop-color="#000000" offset="100%"></stop>
        </linearGradient>
        <linearGradient x1="51.4668601%" y1="98.4351768%" x2="48.6563005%" y2="-29.0091244%" id="linearGradient-25">
            <stop stop-color="#FFFFFF" stop-opacity="0" offset="0%"></stop>
            <stop stop-color="#000000" offset="100%"></stop>
        </linearGradient>
        <linearGradient x1="49.9741338%" y1="279.652605%" x2="49.9741338%" y2="-128.039702%" id="linearGradient-26">
            <stop stop-color="#FFFFFF" stop-opacity="0" offset="0%"></stop>
            <stop stop-color="#000000" offset="100%"></stop>
        </linearGradient>
        <linearGradient x1="50.2813299%" y1="105.512841%" x2="50.2813299%" y2="47.7016195%" id="linearGradient-27">
            <stop stop-color="#FFFFFF" stop-opacity="0" offset="0%"></stop>
            <stop stop-color="#000000" offset="100%"></stop>
        </linearGradient>
        <linearGradient x1="25.5001135%" y1="256.538699%" x2="63.5360418%" y2="-58.3072854%" id="linearGradient-28">
            <stop stop-color="#FFFFFF" offset="10%"></stop>
            <stop stop-color="#D1D3D4" offset="79%"></stop>
        </linearGradient>
        <linearGradient x1="73.1708232%" y1="94.2634938%" x2="24.9745348%" y2="2.20021271%" id="linearGradient-29">
            <stop stop-color="#FFFFFF" stop-opacity="0" offset="0%"></stop>
            <stop stop-color="#000000" offset="100%"></stop>
        </linearGradient>
        <linearGradient x1="61.4004982%" y1="57.2755937%" x2="43.1305103%" y2="46.5734932%" id="linearGradient-30">
            <stop stop-color="#FFFFFF" stop-opacity="0" offset="0%"></stop>
            <stop stop-color="#000000" offset="100%"></stop>
        </linearGradient>
        <linearGradient x1="50%" y1="123.382173%" x2="50%" y2="-80.03663%" id="linearGradient-31">
            <stop stop-color="#FFFFFF" stop-opacity="0" offset="0%"></stop>
            <stop stop-color="#000000" offset="100%"></stop>
        </linearGradient>
        <linearGradient x1="71.0342857%" y1="230.321285%" x2="37.5028571%" y2="-57.1285141%" id="linearGradient-32">
            <stop stop-color="#FFD600" offset="0%"></stop>
            <stop stop-color="#FF9C38" offset="48%"></stop>
            <stop stop-color="#FF5147" offset="100%"></stop>
        </linearGradient>
        <linearGradient x1="65.1262523%" y1="98.8927739%" x2="34.695768%" y2="0.524475524%" id="linearGradient-33">
            <stop stop-color="#FFFFFF" stop-opacity="0" offset="0%"></stop>
            <stop stop-color="#000000" offset="100%"></stop>
        </linearGradient>
        <linearGradient x1="50%" y1="2644.03114%" x2="50%" y2="-1498.3564%" id="linearGradient-34">
            <stop stop-color="#FFFFFF" offset="0%"></stop>
            <stop stop-color="#D1D3D4" offset="79%"></stop>
        </linearGradient>
        <linearGradient x1="49.9134948%" y1="2644.03114%" x2="49.9134948%" y2="-1498.3564%" id="linearGradient-35">
            <stop stop-color="#FFFFFF" offset="0%"></stop>
            <stop stop-color="#D1D3D4" offset="79%"></stop>
        </linearGradient>
        <linearGradient x1="50%" y1="2461.5917%" x2="50%" y2="-1680.88235%" id="linearGradient-36">
            <stop stop-color="#FFFFFF" offset="0%"></stop>
            <stop stop-color="#D1D3D4" offset="79%"></stop>
        </linearGradient>
        <linearGradient x1="49.9134948%" y1="2461.5917%" x2="49.9134948%" y2="-1680.88235%" id="linearGradient-37">
            <stop stop-color="#FFFFFF" offset="0%"></stop>
            <stop stop-color="#D1D3D4" offset="79%"></stop>
        </linearGradient>
        <linearGradient x1="50%" y1="2279.06574%" x2="50%" y2="-1863.4083%" id="linearGradient-38">
            <stop stop-color="#FFFFFF" offset="0%"></stop>
            <stop stop-color="#D1D3D4" offset="79%"></stop>
        </linearGradient>
        <linearGradient x1="49.9134948%" y1="2279.06574%" x2="49.9134948%" y2="-1863.4083%" id="linearGradient-39">
            <stop stop-color="#FFFFFF" offset="0%"></stop>
            <stop stop-color="#D1D3D4" offset="79%"></stop>
        </linearGradient>
        <linearGradient x1="50%" y1="2096.53979%" x2="50%" y2="-2045.93426%" id="linearGradient-40">
            <stop stop-color="#FFFFFF" offset="0%"></stop>
            <stop stop-color="#D1D3D4" offset="79%"></stop>
        </linearGradient>
        <linearGradient x1="49.9134948%" y1="2096.53979%" x2="49.9134948%" y2="-2045.93426%" id="linearGradient-41">
            <stop stop-color="#FFFFFF" offset="0%"></stop>
            <stop stop-color="#D1D3D4" offset="79%"></stop>
        </linearGradient>
        <linearGradient x1="50%" y1="1914.10035%" x2="50%" y2="-2228.3737%" id="linearGradient-42">
            <stop stop-color="#FFFFFF" offset="0%"></stop>
            <stop stop-color="#D1D3D4" offset="79%"></stop>
        </linearGradient>
        <linearGradient x1="49.9134948%" y1="1914.10035%" x2="49.9134948%" y2="-2228.3737%" id="linearGradient-43">
            <stop stop-color="#FFFFFF" offset="0%"></stop>
            <stop stop-color="#D1D3D4" offset="79%"></stop>
        </linearGradient>
        <linearGradient x1="50%" y1="1731.57439%" x2="50%" y2="-2410.89965%" id="linearGradient-44">
            <stop stop-color="#FFFFFF" offset="0%"></stop>
            <stop stop-color="#D1D3D4" offset="79%"></stop>
        </linearGradient>
        <linearGradient x1="49.9134948%" y1="1731.57439%" x2="49.9134948%" y2="-2410.89965%" id="linearGradient-45">
            <stop stop-color="#FFFFFF" offset="0%"></stop>
            <stop stop-color="#D1D3D4" offset="79%"></stop>
        </linearGradient>
        <linearGradient x1="50%" y1="1549.13495%" x2="50%" y2="-2593.3391%" id="linearGradient-46">
            <stop stop-color="#FFFFFF" offset="0%"></stop>
            <stop stop-color="#D1D3D4" offset="79%"></stop>
        </linearGradient>
        <linearGradient x1="49.9134948%" y1="1549.13495%" x2="49.9134948%" y2="-2593.3391%" id="linearGradient-47">
            <stop stop-color="#FFFFFF" offset="0%"></stop>
            <stop stop-color="#D1D3D4" offset="79%"></stop>
        </linearGradient>
        <linearGradient x1="50%" y1="1366.609%" x2="50%" y2="-2775.77855%" id="linearGradient-48">
            <stop stop-color="#FFFFFF" offset="0%"></stop>
            <stop stop-color="#D1D3D4" offset="79%"></stop>
        </linearGradient>
        <linearGradient x1="49.9134948%" y1="1366.609%" x2="49.9134948%" y2="-2775.77855%" id="linearGradient-49">
            <stop stop-color="#FFFFFF" offset="0%"></stop>
            <stop stop-color="#D1D3D4" offset="79%"></stop>
        </linearGradient>
        <linearGradient x1="50%" y1="1184.08304%" x2="50%" y2="-2958.3045%" id="linearGradient-50">
            <stop stop-color="#FFFFFF" offset="0%"></stop>
            <stop stop-color="#D1D3D4" offset="79%"></stop>
        </linearGradient>
        <linearGradient x1="49.9134948%" y1="1184.08304%" x2="49.9134948%" y2="-2958.3045%" id="linearGradient-51">
            <stop stop-color="#FFFFFF" offset="0%"></stop>
            <stop stop-color="#D1D3D4" offset="79%"></stop>
        </linearGradient>
        <linearGradient x1="50%" y1="1001.6436%" x2="50%" y2="-3140.83045%" id="linearGradient-52">
            <stop stop-color="#FFFFFF" offset="0%"></stop>
            <stop stop-color="#D1D3D4" offset="79%"></stop>
        </linearGradient>
        <linearGradient x1="49.9134948%" y1="1001.6436%" x2="49.9134948%" y2="-3140.83045%" id="linearGradient-53">
            <stop stop-color="#FFFFFF" offset="0%"></stop>
            <stop stop-color="#D1D3D4" offset="79%"></stop>
        </linearGradient>
        <linearGradient x1="50%" y1="819.117647%" x2="50%" y2="-3323.3564%" id="linearGradient-54">
            <stop stop-color="#FFFFFF" offset="0%"></stop>
            <stop stop-color="#D1D3D4" offset="79%"></stop>
        </linearGradient>
        <linearGradient x1="49.9134948%" y1="819.117647%" x2="49.9134948%" y2="-3323.3564%" id="linearGradient-55">
            <stop stop-color="#FFFFFF" offset="0%"></stop>
            <stop stop-color="#D1D3D4" offset="79%"></stop>
        </linearGradient>
        <linearGradient x1="49.9670703%" y1="115.468212%" x2="49.9670703%" y2="-149.429451%" id="linearGradient-56">
            <stop stop-color="#FFFFFF" offset="0%"></stop>
            <stop stop-color="#D1D3D4" offset="79%"></stop>
        </linearGradient>
        <linearGradient x1="50.027027%" y1="400.294504%" x2="50.027027%" y2="2.38218404%" id="linearGradient-57">
            <stop stop-color="#FFFFFF" offset="0%"></stop>
            <stop stop-color="#D1D3D4" offset="79%"></stop>
        </linearGradient>
        <linearGradient x1="50.018622%" y1="543.770614%" x2="50.018622%" y2="-1451.18663%" id="linearGradient-58">
            <stop stop-color="#FFFFFF" offset="10%"></stop>
            <stop stop-color="#D1D3D4" offset="79%"></stop>
        </linearGradient>
        <linearGradient x1="50.0118231%" y1="239.684864%" x2="50.0118231%" y2="-463.400549%" id="linearGradient-59">
            <stop stop-color="#FFFFFF" offset="10%"></stop>
            <stop stop-color="#D1D3D4" offset="79%"></stop>
        </linearGradient>
        <linearGradient x1="50.2959573%" y1="140.146833%" x2="50.2959573%" y2="-115.205698%" id="linearGradient-60">
            <stop stop-color="#FFFFFF" stop-opacity="0" offset="0%"></stop>
            <stop stop-color="#000000" offset="100%"></stop>
        </linearGradient>
        <linearGradient x1="121.417834%" y1="78.6378045%" x2="-43.4034483%" y2="14.9354542%" id="linearGradient-61">
            <stop stop-color="#FFFFFF" stop-opacity="0" offset="0%"></stop>
            <stop stop-color="#000000" offset="100%"></stop>
        </linearGradient>
        <linearGradient x1="37.8646328%" y1="67.5092264%" x2="56.1570619%" y2="41.7133242%" id="linearGradient-62">
            <stop stop-color="#FFFFFF" stop-opacity="0" offset="0%"></stop>
            <stop stop-color="#000000" offset="100%"></stop>
        </linearGradient>
        <linearGradient x1="-73.7118669%" y1="121.118613%" x2="187.841191%" y2="-20.4634778%" id="linearGradient-63">
            <stop stop-color="#FFFFFF" stop-opacity="0" offset="0%"></stop>
            <stop stop-color="#000000" offset="100%"></stop>
        </linearGradient>
        <linearGradient x1="1.67554778%" y1="58.2540771%" x2="100.13003%" y2="40.2979059%" id="linearGradient-64">
            <stop stop-color="#7A96CD" offset="0%"></stop>
            <stop stop-color="#6A88C4" offset="100%"></stop>
        </linearGradient>
        <linearGradient x1="0%" y1="50%" x2="100.000538%" y2="50%" id="linearGradient-65">
            <stop stop-color="#1C3C6C" offset="0%"></stop>
            <stop stop-color="#132B51" offset="100%"></stop>
        </linearGradient>
        <linearGradient x1="72.6456714%" y1="29.9501091%" x2="27.0658487%" y2="96.0710945%" id="linearGradient-66">
            <stop stop-color="#5E7EBE" offset="0%"></stop>
            <stop stop-color="#7A96CD" offset="100%"></stop>
        </linearGradient>
    </defs>
    <g id="Design" stroke="none" stroke-width="1" fill="none" fill-rule="evenodd">
        <g id="Homepage" transform="translate(-730.000000, -2329.000000)" fill-rule="nonzero">
            <g id="03-Marketers" transform="translate(0.000000, 2172.000000)">
                <g id="conference-meeting" transform="translate(730.000000, 156.524119)">
                    <path d="M443.432444,214.542361 L442.385032,216.804296 C442.001844,217.632177 442.02137,218.586094 442.438127,219.398171 L443.065609,220.616865 C443.509686,221.483974 443.334243,222.53346 442.631198,223.215482 L441.356928,224.453145 C439.588882,226.169204 438.741983,228.600329 439.069034,231.020817 L439.069034,231.020817 C439.232173,232.220342 440.012934,233.25263 441.134896,233.75221 L441.134896,233.75221 C442.81465,234.513402 443.559063,236.460113 442.804962,238.119593 L442.163001,239.504258 C441.49473,240.949322 441.10834,242.50473 441.02388,244.089773 L441.02388,244.089773 C440.910868,246.374368 441.486794,248.640909 442.679466,250.605283 L445.092857,254.579081 L449.383865,256.475881 L453.853464,248.533029 C456.36328,244.07036 456.278792,238.635411 453.631432,234.25012 L453.631432,234.25012 C452.410388,232.228408 452.678878,229.659978 454.292701,227.92429 L454.915356,227.255667 C456.128949,225.953738 456.842442,224.276799 456.93295,222.513666 L456.995698,221.356617 C457.076442,219.811476 456.012521,218.43385 454.476119,218.09412 L452.492312,217.653114 C451.560929,217.447413 450.968567,216.547065 451.16012,215.62828 L451.691066,213.072341 C452.254336,210.373283 451.085865,207.609566 448.741903,206.096856 L448.688808,206.05892 C447.799464,205.48806 446.70084,205.326879 445.680536,205.61757 C444.660232,205.908261 443.819836,206.621882 443.379349,207.571619 L443.379349,207.571619 C442.836583,208.743835 442.727328,210.065415 443.070435,211.308316 L443.591728,213.205117 C443.70116,213.655351 443.644729,214.129113 443.432444,214.542361 Z" id="Path" fill="url(#linearGradient-1)"></path>
                    <path d="M452.823407,233.539233 C451.666042,231.543976 451.917801,229.006734 453.443327,227.291661 L454.031339,226.632299 C455.177411,225.348401 455.851208,223.694686 455.936681,221.955972 L455.995938,220.814949 C456.072189,219.291207 455.067462,217.93266 453.616539,217.597636 L451.743105,217.162737 C450.863542,216.959885 450.304136,216.072006 450.485033,215.165946 L450.986438,212.645406 C451.517053,209.983859 450.41389,207.259154 448.201357,205.76653 L448.151217,205.729119 L448.151217,205.729119 C447.696663,205.403 447.095114,205.390884 446.628432,205.698446 C446.161751,206.006008 445.922396,206.572315 446.022521,207.132017 L446.934168,213.524555 C447.024542,214.175129 447.039842,214.834364 446.979751,215.488613 L446.665232,218.977152 C446.572403,219.95854 446.905931,220.932013 447.576879,221.637982 L447.576879,221.637982 C448.833081,222.944372 449.057042,224.962045 448.119309,226.524743 L448.119309,226.524743 C446.385921,229.421469 445.955591,232.944779 446.938727,236.19071 L446.938727,236.19071 C447.254927,237.237064 447.339028,238.34272 447.184871,239.426728 L446.163827,246.646977 L446.487461,254.376945 L448.83951,255.475881 L453.060435,247.643034 C455.429216,243.232378 455.338986,237.863495 452.823407,233.539233 L452.823407,233.539233 Z" id="Path" fill="url(#linearGradient-2)"></path>
                    <path d="M446.550375,213.200296 C446.70718,214.121845 446.789891,215.055093 446.797669,215.990586 C446.742039,216.922353 446.639627,217.850548 446.490841,218.771465 C446.341624,219.674548 446.243761,220.5858 446.197752,221.500585 C446.233483,222.409149 446.362423,223.311303 446.582431,224.192061 L447.122814,226.916476 L447.580766,229.269165 L448.281432,227.984597 C448.634055,227.354076 448.959201,226.704734 449.34388,226.102445 C449.728774,225.487335 450.157361,224.902276 450.626145,224.352044 L452,222.705162 L450.694838,224.42733 C450.259937,224.995852 449.866552,225.596642 449.517902,226.224785 C449.169858,226.850601 448.881349,227.514059 448.560783,228.163401 L447.695254,229.974972 C447.884719,230.789384 448.005757,231.619011 448.057036,232.454707 C448.092585,233.411052 448.006371,234.36807 447.800583,235.301461 L447.173189,238.01176 L446.999167,238.759915 C447.246461,238.289377 447.457119,237.851777 447.754788,237.414177 C448.039425,236.961006 448.356275,236.530074 448.702748,236.124903 L449.72856,234.910915 L448.766861,236.181367 C448.446933,236.601162 448.157636,237.044676 447.901332,237.508284 C447.644879,237.978822 447.443381,238.44936 447.196087,238.919898 L446.738135,239.860974 L446.545795,240.693826 C446.323917,241.58234 446.148121,242.482335 446.019151,243.390008 C445.898403,244.299075 445.840251,245.215764 445.845129,246.133244 C445.845129,247.050793 445.900083,247.982458 445.922981,248.909418 C445.959617,250.763337 446.014571,252.617257 446.032889,254.475881 C445.868027,252.626667 445.748959,250.777453 445.602415,248.928239 C445.542881,247.987163 445.474188,247.083731 445.428393,246.14736 C445.392564,245.205354 445.421641,244.261923 445.515404,243.324133 C445.515404,243.084158 445.579517,242.853595 445.616153,242.599504 L445.373439,241.333757 C445.26811,240.806755 445.185679,240.279753 445.052873,239.766866 C444.921381,239.251333 444.753008,238.746484 444.549126,238.256439 L443.94005,236.774245 L444.626978,238.218796 C444.858162,238.703582 445.054091,239.205293 445.213156,239.719812 C445.373439,240.237404 445.483347,240.759701 445.616153,241.281998 L445.735221,241.752536 C445.808493,241.343168 445.890924,240.938506 445.987094,240.538548 L446.587011,237.823545 L447.182348,235.113246 C447.265325,234.714177 447.324966,234.31036 447.360949,233.903964 L445.964197,232.464118 C445.46045,231.951231 444.975021,231.419524 444.452956,230.94428 C443.926513,230.464828 443.366284,230.026031 442.776853,229.63148 L441,228.431608 L442.831807,229.532667 C443.448275,229.898401 444.037586,230.31046 444.594921,230.765476 C445.158201,231.236014 445.666528,231.706552 446.197752,232.210027 L447.397585,233.320497 C447.397585,233.024058 447.397585,232.732324 447.397585,232.435886 C447.342699,231.526163 447.214026,230.622732 447.012906,229.734998 L446.5,227.001173 L446.032889,224.314401 C445.950458,223.843863 445.858868,223.415674 445.781016,222.940431 C445.713459,222.47327 445.685876,222.000925 445.698585,221.528817 C445.7746,220.593195 445.904582,219.663032 446.087843,218.743232 C446.229808,217.802157 446.431307,216.917545 446.481682,216.009407 C446.521707,215.089006 446.48801,214.166782 446.380933,213.252055 L446.170275,210.475881 L446.550375,213.200296 Z" id="Path" fill="url(#linearGradient-3)"></path>
                    <path d="M458.308405,240.071003 L458.308405,241.487025 C458.308428,242.004291 458.074528,242.493723 457.67229,242.818086 L457.064448,243.290093 C456.633811,243.636808 456.475789,244.222309 456.673355,244.739156 L457.031464,245.68317 C457.52666,246.98282 457.385397,248.439806 456.649795,249.619712 L456.649795,249.619712 C456.286012,250.205374 455.646792,250.562099 454.958201,250.563727 L454.958201,250.563727 C453.917264,250.563727 453.073417,251.409026 453.073417,252.451756 L453.073417,253.31553 C453.073333,254.220139 452.903916,255.116711 452.573949,255.958771 L452.573949,255.958771 C452.101447,257.171602 451.281826,258.217597 450.217969,258.965458 L448.064603,260.475881 L445.430617,260.475881 L445.025389,255.316841 C444.797259,252.419129 446.118703,249.617226 448.498104,247.953526 L448.498104,247.953526 C449.594291,247.186241 450.061004,245.791356 449.647822,244.517312 L449.487615,244.045305 C449.177589,243.088965 449.209239,242.054388 449.577142,241.118859 L449.817452,240.50525 C450.140588,239.685479 451.005571,239.217384 451.867155,239.396032 L452.979178,239.627316 C453.501142,239.735916 454.014035,239.40668 454.133608,238.886264 L454.463445,237.437202 C454.812866,235.906676 456.05778,234.743752 457.606323,234.501316 L457.644019,234.501316 C458.232744,234.407314 458.833016,234.576565 459.286356,234.964384 C459.739695,235.352203 460.000531,235.919603 459.999999,236.516787 L459.999999,236.516787 C460.000613,237.250657 459.745657,237.961756 459.279069,238.527539 L458.572275,239.381872 C458.409022,239.575064 458.316,239.818004 458.308405,240.071003 Z" id="Path" fill="url(#linearGradient-4)"></path>
                    <path d="M447.589708,247.938431 C448.721048,247.171076 449.203613,245.774635 448.778427,244.498535 L448.613462,244.026671 C448.294227,243.07062 448.326818,242.036354 448.705648,241.101108 L448.953096,240.487684 C449.285829,239.66816 450.176503,239.200207 451.063678,239.378801 L452.208729,239.610015 C452.746196,239.718583 453.274324,239.389446 453.397448,238.869187 L453.737082,237.420562 C454.096881,235.890498 455.378771,234.727926 456.973308,234.485562 L457.026679,234.485562 C457.354903,234.436172 457.682407,234.578534 457.863487,234.84931 C458.044567,235.120087 458.045574,235.468962 457.86606,235.740723 L455.799145,238.883343 C455.597225,239.203588 455.434395,239.545641 455.313954,239.902571 L454.629834,241.813624 C454.437764,242.354089 454.009685,242.78423 453.460523,242.988568 L453.460523,242.988568 C452.442863,243.366966 451.822073,244.371899 451.95643,245.423391 L451.95643,245.423391 C452.207634,247.371963 451.58153,249.33113 450.238853,250.797932 L450.238853,250.797932 C449.806383,251.27094 449.4881,251.831983 449.307285,252.440022 L448.099159,256.488623 L446.02254,260.475881 L444.445668,260.475881 L444.028404,255.318398 C443.78318,252.417809 445.13886,249.60848 447.589708,247.938431 L447.589708,247.938431 Z" id="Path" fill="url(#linearGradient-5)"></path>
                    <path d="M455.142986,238.858703 C454.851838,239.306217 454.596864,239.778189 454.380695,240.269746 C454.197773,240.768882 454.039692,241.277535 453.907082,241.793673 C453.784656,242.300936 453.634048,242.800347 453.456022,243.289378 C453.231688,243.753601 452.961061,244.191877 452.648624,244.596945 L451.746504,245.885697 L450.970681,247.000421 L450.903022,246.158499 C450.866937,245.744593 450.844384,245.325984 450.785747,244.912078 C450.727749,244.496697 450.640305,244.08637 450.524132,243.68447 L450.181326,242.485084 L450.460983,243.698581 C450.554443,244.100675 450.619272,244.509423 450.654939,244.921485 C450.691024,245.330687 450.691024,245.749296 450.704556,246.163202 L450.73613,247.315554 C450.453954,247.693831 450.203448,248.096674 449.98737,248.519644 C449.751965,249.00986 449.579095,249.530091 449.473162,250.067088 L449.179973,251.633345 L449.098782,252.066065 C449.071719,251.77445 449.058187,251.478131 449.017591,251.181812 C448.974394,250.876212 448.909565,250.574365 448.823636,250.278744 L448.571042,249.394491 L448.77853,250.288151 C448.847971,250.585042 448.896216,250.886891 448.922869,251.191219 C448.949932,251.492241 448.949932,251.802671 448.958954,252.108397 L448.958954,252.715145 L448.868742,253.185493 C448.780557,253.702566 448.666128,254.214396 448.525936,254.718826 C448.381936,255.221995 448.204078,255.713945 447.993685,256.191014 C447.777176,256.661362 447.542625,257.131709 447.321606,257.602057 C446.870546,258.542752 446.419486,259.511669 446,260.475881 C446.505187,259.535186 446.987821,258.594491 447.479477,257.68672 C447.718539,257.216372 447.962111,256.746024 448.201173,256.275677 C448.432886,255.795449 448.631845,255.298785 448.796572,254.789378 C448.841678,254.657681 448.873252,254.52128 448.909337,254.389583 L449.319802,253.787538 C449.491204,253.538253 449.658097,253.284266 449.838521,253.049092 C450.022413,252.811331 450.222931,252.588089 450.43843,252.381198 L451.087957,251.755636 L450.406856,252.34357 C450.178522,252.540037 449.964437,252.753844 449.766351,252.983243 C449.567885,253.213714 449.391971,253.453591 449.202526,253.698172 L449.026613,253.923939 C449.08074,253.693468 449.130356,253.453591 449.170952,253.232527 L449.477673,251.670973 L449.784393,250.114123 C449.833095,249.886272 449.894851,249.66167 449.969328,249.441525 L451.015787,249.032323 C451.390167,248.886515 451.760036,248.726597 452.138926,248.60901 C452.518245,248.486833 452.90571,248.394078 453.298151,248.331505 L454.479928,248.138662 L453.289129,248.265656 C452.889125,248.307174 452.492613,248.379491 452.102842,248.482016 C451.710419,248.585493 451.331529,248.721894 450.952639,248.844184 L450.086604,249.131096 C450.149752,248.975881 450.2129,248.820667 450.28507,248.660748 C450.520358,248.200615 450.79193,247.76168 451.096978,247.348478 L451.999098,246.050319 L452.901218,244.752159 C453.050068,244.531096 453.194407,244.324143 453.352278,244.093673 C453.494574,243.862449 453.616843,243.618473 453.717636,243.364634 C453.897311,242.858612 454.047931,242.341883 454.168696,241.81719 C454.304014,241.304511 454.407758,240.782425 454.588182,240.297967 C454.776298,239.809103 455.002588,239.33717 455.264772,238.886924 L456,237.475881 L455.142986,238.858703 Z" id="Path" fill="url(#linearGradient-6)"></path>
                    <path d="M432.605358,234.222712 L432.422527,235.930425 C432.356099,236.555296 432.578471,237.176393 433.027277,237.619524 L433.702347,238.284927 C434.180372,238.758244 434.297647,239.482953 433.993002,240.08105 L433.43982,241.165238 C432.670487,242.670159 432.656604,244.446063 433.402316,245.962653 L433.402316,245.962653 C433.771378,246.714692 434.504975,247.224747 435.343143,247.312071 L435.343143,247.312071 C435.949375,247.375375 436.5054,247.675253 436.888768,248.145668 C437.272136,248.616082 437.451409,249.218454 437.387105,249.820129 L437.274594,250.862438 C437.158827,251.955497 437.251062,253.060414 437.546497,254.119655 L437.546497,254.119655 C437.971253,255.644563 438.840555,257.010871 440.045194,258.046928 L442.473572,260.140853 L445.680155,260.475881 L446.8334,254.305782 C447.477074,250.845744 446.228846,247.305869 443.551809,244.999447 L443.551809,244.999447 C442.314795,243.935347 441.924576,242.193349 442.590772,240.709227 L442.848611,240.136888 C443.347515,239.022549 443.440328,237.770651 443.111138,236.595828 L442.895491,235.823402 C442.607258,234.79774 441.619315,234.125045 440.551497,234.227365 L439.145101,234.36696 C438.494539,234.43249 437.910861,233.969015 437.832464,233.324651 L437.630881,231.495956 C437.399893,229.606941 436.033391,228.047874 434.180522,227.559377 L434.13833,227.559377 C433.434815,227.373103 432.684404,227.501891 432.084749,227.91182 C431.485093,228.321748 431.096316,228.971716 431.020818,229.690528 L431.020818,229.690528 C430.927816,230.574589 431.148308,231.46317 431.644321,232.203238 L432.394399,233.324651 C432.568411,233.590286 432.643063,233.90808 432.605358,234.222712 L432.605358,234.222712 Z" id="Path" fill="url(#linearGradient-7)"></path>
                    <path d="M443.311152,244.980112 C441.994964,243.914541 441.577051,242.166717 442.282016,240.67599 L442.555458,240.102418 C443.084552,238.98568 443.182982,237.731086 442.833871,236.553733 L442.605175,235.779644 C442.2995,234.751774 441.251774,234.077631 440.119339,234.180171 L438.627838,234.320066 C437.93791,234.385737 437.318911,233.921264 437.23577,233.275513 L437.031932,231.45687 C436.788869,229.56201 435.339304,227.997336 433.372782,227.507151 L433.328037,227.507151 L433.328037,227.507151 C432.927366,227.410854 432.503506,227.541089 432.24124,227.84108 C431.978975,228.14107 431.925843,228.55644 432.105007,228.906107 L434.272655,232.963079 C434.492003,233.37542 434.658872,233.810532 434.769822,234.259445 L435.366422,236.656323 C435.531103,237.332925 436.008573,237.90555 436.669,238.218491 L436.669,238.218491 C437.891856,238.802657 438.532019,240.093993 438.220161,241.347489 L438.220161,241.347489 C437.64169,243.6726 438.161835,246.118752 439.647031,248.057815 L439.647031,248.057815 C440.124707,248.682518 440.44745,249.39948 440.591648,250.156249 L441.556152,255.201817 L443.619395,260.280027 L445.608063,260.475881 L446.831094,254.292496 C447.498575,250.822749 446.159716,247.280655 443.311152,244.980112 Z" id="Path" fill="url(#linearGradient-8)"></path>
                    <path d="M435.797193,233.236073 C436.086597,233.82685 436.331372,234.442836 436.529042,235.0778 C436.686047,235.725652 436.812546,236.382002 436.908035,237.044227 C436.99912,237.691152 437.124209,238.331716 437.282672,238.962692 C437.493527,239.572435 437.762196,240.155997 438.084221,240.703699 L438.990319,242.435114 L439.774443,243.931517 L439.953049,242.890749 C440.04453,242.37756 440.118587,241.86437 440.236205,241.351181 C440.347944,240.842875 440.493546,240.344323 440.67183,239.859574 L441.21636,238.420725 L440.74153,239.897944 C440.592515,240.385135 440.476039,240.883665 440.39303,241.38955 C440.301549,241.897944 440.25363,242.415929 440.18393,242.933915 L440.005324,244.372764 C440.293318,244.882446 440.54108,245.418383 440.745886,245.974682 C440.969734,246.617566 441.116186,247.289944 441.18151,247.974682 L441.342691,249.96509 L441.386254,250.511852 C441.451597,250.147344 441.503872,249.782836 441.590997,249.418327 C441.678083,249.043624 441.790199,248.676517 441.926428,248.320006 L442.327202,247.255258 L441.978703,248.343987 C441.861032,248.705199 441.767843,249.075518 441.699903,249.4519 C441.630203,249.826001 441.595353,250.209694 441.547435,250.588591 L441.455954,251.346385 L441.503872,251.960294 C441.546309,252.618043 441.62047,253.272843 441.726041,253.921924 C441.830009,254.571915 441.97558,255.213001 442.161665,255.84039 C442.357696,256.459095 442.597289,257.087392 442.784608,257.710893 C443.189739,258.967488 443.607938,260.21449 444,261.475881 C443.516457,260.25286 443.054695,259.025042 442.584221,257.797224 C442.35334,257.178519 442.122459,256.569406 441.90029,255.941109 C441.685669,255.315806 441.510994,254.674757 441.377541,254.022644 C441.342691,253.854778 441.32091,253.67732 441.290416,253.509454 L440.854792,252.703699 C440.680542,252.367968 440.515005,252.02744 440.327686,251.710893 C440.137841,251.390396 439.926712,251.085808 439.696031,250.799622 L439.003388,249.931517 L439.739593,250.756457 C439.987013,251.031662 440.215612,251.326631 440.423524,251.638951 C440.632623,251.955498 440.811229,252.286433 441.002904,252.598183 L441.18151,252.905138 C441.14666,252.607776 441.11181,252.31521 441.090029,252.022644 L440.911423,250.037032 L440.732817,248.051421 C440.703468,247.760945 440.658373,247.472661 440.597773,247.188111 L439.412875,246.531037 C438.977251,246.300821 438.567764,246.051421 438.136496,245.849982 C437.702573,245.646103 437.255569,245.47778 436.799129,245.346385 L435.422556,244.943507 L436.816554,245.26485 C437.284458,245.371135 437.744574,245.515414 438.193127,245.696505 C438.628751,245.878759 439.064376,246.104179 439.5,246.305617 L440.488867,246.785234 C440.436592,246.583795 440.375605,246.37756 440.305905,246.180917 C440.083442,245.573839 439.815328,244.988272 439.504356,244.430318 L438.633107,242.689311 L437.761859,240.948303 C437.613746,240.655737 437.465634,240.37756 437.326234,240.070605 C437.184397,239.762904 437.067769,239.441888 436.977735,239.111373 C436.83316,238.455604 436.724062,237.790966 436.651016,237.120965 C436.550823,236.463891 436.494192,235.797224 436.337367,235.168927 C436.173158,234.533839 435.961897,233.914656 435.705712,233.317608 L435,231.475881 L435.797193,233.236073 Z" id="Path" fill="url(#linearGradient-9)"></path>
                    <path d="M432,261.790929 C432,265.443672 433.301432,268.890828 434.475549,271.931593 C434.832936,272.862005 435.716429,273.475028 436.701186,273.475881 L454.298805,273.475881 C455.283563,273.475028 456.167055,272.862005 456.524442,271.931593 C457.69856,268.890828 458.999991,265.443672 458.999991,261.790929 C459.001205,260.0307 458.873541,258.272807 458.61805,256.531744 C458.440985,255.34999 457.43926,254.476495 456.260383,254.475881 L434.744323,254.475881 C433.565447,254.476495 432.563722,255.34999 432.386657,256.531744 C432.129588,258.272688 432.000347,260.030581 432,261.790929 L432,261.790929 Z" id="Path" fill="url(#linearGradient-10)"></path>
                    <path d="M20.0604147,25.4758813 L358.93959,25.4758813 C361.34256,25.4758813 363.647111,26.4268892 365.346267,28.1196942 C367.045424,29.8124992 368,32.1084355 368,34.5024234 L368,215.475881 L11,215.475881 L11.0000049,34.5118407 C10.9974962,32.1162217 11.9509647,29.8178653 13.6503932,28.1230229 C15.3498216,26.4281805 17.6558059,25.47588 20.0604147,25.4758813 Z" id="Path" fill="url(#linearGradient-11)"></path>
                    <path d="M204,215.475881 L201.161765,184.578334 L125.002451,184.578334 L125.002451,152.25017 L115.068627,152.25017 L115.068627,130.842854 C115.068627,123.150384 108.820915,116.914406 101.113971,116.914406 L101.113971,116.914406 C93.4070264,116.914406 87.1593137,123.150384 87.1593137,130.842854 L87.1593137,164.006725 L57.3578431,164.006725 L57.3578431,145.42287 L39.8553922,145.42287 L39.8553922,92.4758813 L11,92.4758813 L11,215.475881 L204,215.475881 Z" id="Path" fill="url(#linearGradient-12)"></path>
                    <path d="M368,215.475881 L368,177.424454 L331.378798,177.424454 L331.378798,113.664133 L304.324105,113.664133 C290.616927,113.664133 279.505064,124.756149 279.505064,138.438844 L279.505064,153.20176 L252.540176,153.20176 C251.228182,153.20175 249.970197,153.723295 249.044253,154.651127 C248.118309,155.578959 247.600645,156.836681 247.605672,158.146322 L247.605672,182.067058 L213.574612,182.067058 L213.574612,172.829031 C213.574612,170.361403 211.570625,168.360996 209.098582,168.360996 L199.395003,168.360996 L199.395003,79.7599105 C199.395003,77.3939065 197.473546,75.4758813 195.103309,75.4758813 L139.174207,75.4758813 C136.803969,75.4758813 134.882512,77.3939065 134.882512,79.7599105 L134.882512,200.170385 L90.2167454,200.170385 L90.2167454,191.390012 L60.72316,191.390012 C59.3944696,191.390012 58.3173531,190.314819 58.3173531,188.988502 L58.3173531,188.478948 C58.3173531,182.37372 53.3592317,177.424454 47.243079,177.424454 L11,177.424454 L11,215.475881 L368,215.475881 Z" id="Path" fill="url(#linearGradient-13)"></path>
                    <path d="M395.00001,28.0755932 L395.00001,127.164712 C395.00001,128.99342 396.497368,130.475881 398.344453,130.475881 L434.655547,130.475881 C436.502632,130.475881 437.99999,128.99342 437.99999,127.164712 L437.99999,3.79525883 C438.00306,2.56782552 437.320063,1.43941686 436.225344,0.863292516 C435.130625,0.287168177 433.80382,0.357865973 432.777881,1.04698798 L396.466787,25.3273224 C395.546946,25.9451685 394.997262,26.9751013 395.00001,28.0755932 Z" id="Path" fill="#39CE9C"></path>
                    <path d="M413.936209,130.475881 L434.674951,130.475881 C436.511319,130.475881 437.99999,128.993474 437.99999,127.164832 L437.99999,3.79513805 C438.003043,2.56774941 437.324008,1.4393818 436.235641,0.86327842 C435.147273,0.287175044 433.828166,0.357870267 432.808179,1.0469672 L396.707758,25.3264181 C396.441228,25.508584 396.2028,25.728481 396,25.9791678 L405.742364,35.3541672 C410.982461,40.3956895 413.941464,47.3404062 413.940959,54.5960932 L413.940959,130.475881 L413.936209,130.475881 Z" id="Path" fill="url(#linearGradient-14)" opacity="0.49" style="mix-blend-mode: multiply;"></path>
                    <ellipse id="Oval" fill="url(#linearGradient-15)" cx="413.5" cy="67.9758813" rx="5.5" ry="20.5"></ellipse>
                    <path d="M414.622106,68.9581729 L419,73.1198627 C418.360856,82.1360664 416.116645,88.4758813 413.588903,88.4758813 C410.522936,88.4758813 408,79.222409 408,67.9758813 C408,56.7293535 410.522936,47.4758813 413.588903,47.4758813 C416.0782,47.4758813 418.279161,53.5689368 418.961555,62.3431266 L414.57405,66.9461359 C414.024937,67.5149542 414.046447,68.4155498 414.622106,68.9581729 L414.622106,68.9581729 Z" id="Path" fill="url(#linearGradient-16)"></path>
                    <path d="M387,95.1959878 L404.519685,60.907306 C404.654864,60.6425081 404.923524,60.4762192 405.216705,60.4758813 L405.216705,60.4758813 C405.486215,60.4770001 405.736395,60.6185017 405.879665,60.8508515 C406.022935,61.0832013 406.039343,61.3740392 405.923143,61.6215537 L389.354796,96.4758813" id="Path" fill="#E4E4EA"></path>
                    <path d="M389.602755,91.4866717 L388,94.34036 L390.296211,95.4758813 L392,92.2181686 C391.342023,91.6818767 390.476108,91.4176508 389.602755,91.4866717 Z" id="Path" fill="url(#linearGradient-17)" opacity="0.49" style="mix-blend-mode: color-burn;"></path>
                    <path d="M364.161484,83.4655947 C364.161484,83.4655947 366.269488,83.1660849 366.942445,80.3989725 C367.615402,77.6318601 362.164897,78.6644982 362.164897,78.6644982 L362,84.4758813" id="Path" fill="#F9AA8F"></path>
                    <path d="M359.87482,77.7435881 L359,76.9103087 L362.446983,66.5866261 C362.446983,66.5866261 367.610325,65.3641504 366.939946,71.0424253 C366.939946,71.0424253 365.836912,78.616785 363.107852,81.4758813 C363.103098,81.4758813 362.717987,79.2654456 359.87482,77.7435881 Z" id="Path" fill="url(#linearGradient-18)"></path>
                    <path d="M359.279495,81.5108577 L359.279495,78.1009543 C359.278488,77.6545909 359.46225,77.2309458 359.780812,76.9452168 L362.442671,74.5573292 C362.523264,74.4830933 362.633154,74.4575082 362.735042,74.489258 C362.836929,74.5210077 362.917131,74.6058282 362.948424,74.7149298 C363.07708,75.1925073 363.046025,76.1046804 361.879244,77.2842968 C361.879244,77.2842968 363.538469,79.5050322 361.684041,82.1269327 C359.829613,84.7488332 359,84.4670625 359,84.4670625" id="Path" fill="#F9AA8F"></path>
                    <path d="M381,100.887282 L384.472549,96.1752942 C385.027353,95.4228009 385.876043,94.9095998 386.831618,94.7487701 L388.14326,94.5258757 C389.388282,94.312952 390.652624,94.7907929 391.398775,95.7562528 L391.398775,95.7562528 C392.215868,96.8098651 392.198565,98.2466682 391.356312,99.282442 L391.356312,99.282442 C390.767848,100.007539 389.855801,100.432642 388.888726,100.432577 L388.176287,100.432577 C388.176287,100.432577 388.506557,103.294541 383.137316,104.475881" id="Path" fill="#F9AA8F"></path>
                    <path d="M332.102907,80.4758813 C332.102907,80.4758813 338.809329,86.093945 340.777053,99.3399018 C342.744777,112.585859 360.264176,81.0764655 360.264176,81.0764655 C360.264176,81.0764655 364,81.4027672 364,82.9680695 C364,82.9680695 357.721344,109.923426 349.01868,112.174435 C340.316016,114.425443 321,103.331186 321,103.331186" id="Path" fill="#20436D"></path>
                    <path d="M353.473802,100.587165 C351.080699,99.1114388 354.746932,90.4758813 354.746932,90.4758813 L354.746932,90.4758813 C349.381596,98.4969409 341.824178,107.937863 340.565406,99.6700732 C340.469682,99.0276436 340.354813,98.4084904 340.235158,97.8079584 L338.717931,98.5760808 L338,109.981534 L350.707375,111.475881 C352.382547,110.395855 353.947636,108.496498 355.373925,106.178165 C356.790642,103.645688 355.651525,101.927887 353.473802,100.587165 Z" id="Path" fill="url(#linearGradient-19)" opacity="0.49" style="mix-blend-mode: color-burn;"></path>
                    <polyline id="Path" fill="#F9AA8F" points="337 251.336046 337.294557 258.475881 341 258.475881 341 250.475881"></polyline>
                    <path d="M342.208255,148.475881 L325.418579,148.475881 L325,163.698458 L336.162111,251.475881 L341.538528,251.475881 C348.914823,198.574728 342.208255,148.475881 342.208255,148.475881 Z" id="Path" fill="#1B1C37"></path>
                    <path d="M344.996706,174.958611 C344.493465,164.488695 343.643653,156.612929 343.097684,152.273792 C342.936797,150.959183 342.566722,149.677584 342.000998,148.475881 L325.432028,148.475881 L325,163.60687 L332.429925,215.475881 L332.429925,215.475881 C332.429925,215.475881 332.372955,192.875046 338.877106,190.929433 C343.135664,189.655686 345.091657,185.405199 344.996706,174.958611 Z" id="Path" fill="url(#linearGradient-20)" opacity="0.49" style="mix-blend-mode: color-burn;"></path>
                    <polyline id="Path" fill="#F9AA8F" points="312 252.336685 312 259.475881 315.747756 259.475881 317 250.475881"></polyline>
                    <polygon id="Path" fill="#252749" points="305 153.475881 310.141351 253.475881 316.178725 253.475881 335 153.475881"></polygon>
                    <path d="M307.797828,203.475881 C307.797828,203.475881 307.361865,182.625602 316.129032,177.362195 C323.094858,173.177007 329.572022,173.025678 332.997445,163.241322 L335,153.475881 L305,153.475881 L307.797828,203.475881 Z" id="Path" fill="url(#linearGradient-21)" opacity="0.49" style="mix-blend-mode: color-burn;"></path>
                    <path d="M305.249161,157.792766 C306.830379,158.255951 316.317681,160.757151 333.921897,158.631131 L335,153.475881 L305,153.475881 L305.249161,157.792766 Z" id="Path" fill="url(#linearGradient-22)" opacity="0.49" style="mix-blend-mode: color-burn;"></path>
                    <ellipse id="Oval" fill="#D4D4DD" cx="340.5" cy="56.4758813" rx="1.5" ry="2"></ellipse>
                    <path d="M317.900137,78.4758813 C317.900137,78.4758813 303.555872,101.691822 306.364507,153.677395 C306.364507,153.677395 318.789303,158.07879 344.052899,153.110692 C344.052899,153.110692 348.733956,151.136676 346.296984,145.734105 C343.860011,140.331535 344.090535,97.4084905 333.462889,83.6423254" id="Path" fill="#254A7F"></path>
                    <path d="M316.036003,121.469038 C317.610203,104.339948 329.466338,111.059094 329.466338,111.059094 L314.036344,84.4758813 C309.985025,94.4552325 303.371495,116.865004 305.366427,153.678353 C305.366427,153.678353 315.090538,157.104171 334.808217,154.496953 C334.991207,152.64809 335.043338,150.788589 334.964219,148.932364 C334.586033,140.973489 314.461803,138.598129 316.036003,121.469038 Z" id="Path" fill="url(#linearGradient-23)" opacity="0.49" style="mix-blend-mode: color-burn;"></path>
                    <path d="M333,70.5975996 L319.706865,67.4758813 C319.706865,67.4758813 320.977737,74.9985543 318,78.3493896 L330.453618,83.4758813 C330.453618,83.4758813 327.072356,73.3613228 333,70.5975996 Z" id="Path" fill="#F9AA8F"></path>
                    <path d="M319.706865,67.4758813 C319.706865,67.4758813 320.977737,75.1157705 318,78.5188175 L325.077922,81.4758813 C326.362709,80.8408397 327.206865,80.1233882 326.743043,79.4204796 C325.430427,77.432945 326.279221,76.6815599 327.318182,74.5728342 C328.357143,72.4641084 333,70.6559367 333,70.6559367 L319.706865,67.4758813 Z" id="Path" fill="url(#linearGradient-24)" opacity="0.49" style="mix-blend-mode: color-burn;"></path>
                    <path d="M335.615402,42.4758813 C335.615402,42.4758813 343.940937,45.8576074 337.647257,54.4943899 C331.353576,63.1311725 325,50.2562843 325,50.2562843" id="Path" fill="#603C24"></path>
                    <path d="M339.971776,59.4630771 C339.613439,55.4962955 337.571859,52.3105627 335.865042,50.2893029 C335.228373,49.4494984 334.486754,48.6953978 333.658439,48.0455624 L333.436835,47.8609509 L333.436835,47.8609509 C329.496467,44.9486721 324.204373,44.6810791 319.992486,47.1811416 C315.780598,49.6812042 313.463509,54.465402 314.106016,59.3352023 C314.748523,64.2050025 318.226361,68.2185699 322.941325,69.5315074 L322.941325,69.5315074 L323.276087,69.6072455 C323.483546,69.6593154 323.695719,69.6924508 323.903177,69.7492544 C332.663581,72.2012745 336.162085,67.9930778 337.515279,63.8937545 C339.085363,63.2168455 340.193379,61.8914292 339.971776,59.4630771 Z" id="Path" fill="#F9AA8F"></path>
                    <path d="M317.357754,49.4758813 C314.390626,52.5793098 313.289827,56.9951002 314.458471,61.1061812 C315.627114,65.2172622 318.893525,68.4197066 323.061537,69.5407727 L323.061537,69.5407727 L323.399011,69.6159573 C323.608149,69.6676468 323.822041,69.70054 324.03118,69.7569285 C325.642377,70.2282055 327.313242,70.4702858 328.993471,70.4758813 C325.347803,69.4984814 324.763165,61.0778056 331.688508,58.3194704 C338.613851,55.5611352 336.783888,51.2709137 336.774381,51.2709137 L336.774381,51.2709137 L317.357754,49.4758813 Z" id="Path" fill="url(#linearGradient-25)" opacity="0.49" style="mix-blend-mode: color-burn;"></path>
                    <path d="M339,62.4758813 C338.349076,63.3248396 337.437653,63.7379061 336.525236,63.5974694 C334.982771,63.3443676 337.328681,64.4758813 337.328681,64.4758813 C338.054308,64.1003194 338.649153,63.3884919 339,62.4758813 Z" id="Path" fill="url(#linearGradient-26)" opacity="0.49" style="mix-blend-mode: color-burn;"></path>
                    <path d="M337.695297,52.3238337 C336.382975,54.3883515 334.045575,55.5646696 331.609019,55.386809 C328.359883,55.1804217 327.114537,58.6702436 326.725952,60.2040766 C326.617705,60.6153189 326.246871,60.9021534 325.822373,60.9029791 L325.822373,60.9029791 C325.305241,60.9029791 324.886023,60.4829666 324.886023,59.9648549 C324.886023,58.4685469 324.502119,55.69639 321.608797,55.69639 C317.638671,55.69639 318.060028,62.3054747 321.238938,63.0841178 C324.417848,63.8627608 320.44304,69.2757372 319.366237,68.375138 C318.289434,67.4745388 312.58706,59.7819207 312.058022,55.5885057 C311.528984,51.3950907 314.525306,41.9012742 324.862614,41.5166433 C335.199923,41.1320124 344.451065,43.3741292 337.695297,52.3238337 Z" id="Path" fill="#70462A"></path>
                    <path d="M316,80.0325315 L318.711268,74.4758813 L327.456338,79.9438616 C328.369048,80.5149395 328.993472,81.4491242 329.171831,82.510364 L330,87.4758813 L327.648592,83.5349946 L325.464789,86.5744034 L316,80.0325315 Z" id="Path" fill="#3C6799"></path>
                    <path d="M330.011236,86.4758813 L329,80.2866582 L329.341573,75.4758813 L331.224719,78.3246699 C331.605568,78.8921517 331.908043,79.5106212 332.123596,80.1625981 L333,82.8919214 L330.752809,82.2762154 L330.011236,86.4758813 Z" id="Path" fill="#3C6799"></path>
                    <ellipse id="Oval" fill="#E4E4EA" cx="336.5" cy="56.4758813" rx="1.5" ry="2"></ellipse>
                    <path d="M311.739487,259.475881 L307.85349,267.068181 C307.291761,268.165585 306.999478,269.376692 307.000001,270.604705 L307,272.475881 L318,272.475881 L317.999996,268.859832 C318.000705,268.171236 317.909332,267.485524 317.728214,266.82025 L315.725615,259.494593 L311.739487,259.475881 Z" id="Path" fill="#1B1C37"></path>
                    <path d="M337,258.475881 L337,271.475881 L352,271.475881 L352,271.00281 C351.999998,269.381172 351.253644,267.858473 349.994265,266.910743 L348.251132,265.600335 C347.718295,265.198172 347.117725,264.904478 346.480833,264.734615 L344.022336,264.081776 C342.869761,263.777214 342.040619,262.724962 341.975853,261.484615 L341.817386,258.485343 L337,258.475881 Z" id="Path" fill="#1B1C37"></path>
                    <path d="M326.630734,81.9131405 L326.630734,81.9131405 C326.286364,82.1897463 326.062895,82.6019441 326.011378,83.0555701 C325.95986,83.509196 326.084695,83.9654976 326.357365,84.3202358 L328.460916,87.060019 C328.662304,87.3229642 328.965394,87.4757919 329.285656,87.475879 L329.285656,87.475879 C329.776068,87.4769141 330.203256,87.1229308 330.318898,86.6196967 L330.95367,83.8652361 C331.092218,83.2706101 330.914904,82.6433895 330.490333,82.2262586 L330.393032,82.1284092 C329.921028,81.6662396 329.288195,81.4322735 328.646251,81.4826032 L327.483275,81.5706676 C327.173625,81.5949713 326.877383,81.7139746 326.630734,81.9131405 L326.630734,81.9131405 Z" id="Path" fill="#4778A8"></path>
                    <path d="M330,86.7106071 C330,86.7106071 333.308903,108.555757 330.98945,123.415208 C330.755912,124.937683 331.158978,126.490942 332.098553,127.689259 L335.504101,132.091532 C335.717434,132.366258 336.05239,132.508899 336.391394,132.469388 C336.730398,132.429876 337.026083,132.213732 337.17466,131.896825 L339.448093,127.019658 C339.899013,126.049704 340.079093,124.969279 339.968129,123.899601 C339.328438,117.673733 336.709848,95.4914077 330.938827,85.4758813" id="Path" fill="#4778A8"></path>
                    <path d="M331.173913,116.206292 C333.665353,117.846865 336.282765,119.274817 339,120.475881 C338.272634,114.47948 336.817903,104.521849 334.396419,96.0917818 C332.812788,94.3127862 331.348849,92.77099 330,91.4758813 C330.68133,97.0453234 331.592839,106.998211 331.173913,116.206292 Z" id="Path" fill="url(#linearGradient-27)" opacity="0.49" style="mix-blend-mode: color-burn;"></path>
                    <path d="M316.294096,79.6961519 C316.294096,79.6961519 322.397227,76.1051665 340.156956,97.9214701 C360.281175,122.645665 381.263055,100.022932 381.263055,100.022932 C381.263055,100.022932 385.053819,101.53143 383.712836,104.363423 C383.712836,104.363423 362.65988,134.680447 327.936481,109.434444 C306.329125,93.7280341 316.294096,79.6961519 316.294096,79.6961519 Z" id="Path" fill="#254A7F"></path>
                    <path d="M364,80.8860351 C364,80.8860351 367.059738,71.6306845 367.593006,70.4126178 C368.126275,69.194551 371.819815,68.6613411 373,72.0220313 L369.162215,82.4758813 C369.162215,82.4758813 367.107819,78.704277 364,80.8860351 Z" id="Path" fill="url(#linearGradient-28)"></path>
                    <rect id="Rectangle" fill="#70462A" x="374" y="182.475881" width="65" height="71"></rect>
                    <rect id="Rectangle" fill="url(#linearGradient-29)" opacity="0.49" style="mix-blend-mode: color-burn;" x="374" y="182.475881" width="65" height="71"></rect>
                    <rect id="Rectangle" fill="#70462A" x="374" y="182.475881" width="26" height="71"></rect>
                    <path d="M370.745318,171.475881 L430.839627,171.475881 C435.346476,171.475881 439,175.1494 439,179.680916 L439,184.475881 L370.745318,184.475881 C369.229141,184.475881 368.000037,183.24005 368.000037,181.715575 L368.000037,174.250416 C367.996271,173.515875 368.283842,172.81012 368.799091,172.28938 C369.314339,171.768641 370.014766,171.475872 370.745318,171.475881 L370.745318,171.475881 Z" id="Path" fill="#70462A"></path>
                    <path d="M370.745318,171.475881 L430.839627,171.475881 C435.346476,171.475881 439,175.1494 439,179.680916 L439,184.475881 L370.745318,184.475881 C369.229141,184.475881 368.000037,183.24005 368.000037,181.715575 L368.000037,174.250416 C367.996271,173.515875 368.283842,172.81012 368.799091,172.28938 C369.314339,171.768641 370.014766,171.475872 370.745318,171.475881 L370.745318,171.475881 Z" id="Path" fill="url(#linearGradient-30)" opacity="0.49" style="mix-blend-mode: color-burn;"></path>
                    <path d="M392.282255,181.701346 L392.282255,174.236188 C392.282255,172.711713 393.499031,171.475881 395,171.475881 L370.717745,171.475881 C369.216776,171.475881 368,172.711713 368,174.236188 L368,181.715575 C368,183.24005 369.216776,184.475881 370.717745,184.475881 L395,184.475881 C394.276775,184.475891 393.583375,184.183122 393.073294,183.662382 C392.563214,183.141643 392.278527,182.435887 392.282255,181.701346 Z" id="Path" fill="#70462A"></path>
                    <polygon id="Path" fill="#70462A" points="378.788332 273.475881 375 273.475881 375 253.475881 384 253.475881"></polygon>
                    <polygon id="Path" fill="url(#linearGradient-31)" opacity="0.49" style="mix-blend-mode: color-burn;" points="384 253.475881 375 253.475881 375 261.475881 381.921408 261.475881"></polygon>
                    <polygon id="Path" fill="#70462A" points="393.788332 273.475881 390 273.475881 390 253.475881 399 253.475881"></polygon>
                    <polygon id="Path" fill="url(#linearGradient-31)" opacity="0.49" style="mix-blend-mode: color-burn;" points="399 253.475881 390 253.475881 390 261.475881 396.921408 261.475881"></polygon>
                    <polygon id="Path" fill="#593924" points="434.207329 273.475881 438 273.475881 438 253.475881 429 253.475881"></polygon>
                    <polygon id="Path" fill="url(#linearGradient-31)" opacity="0.49" style="mix-blend-mode: color-burn;" points="431.078592 261.475881 438 261.475881 438 253.475881 429 253.475881"></polygon>
                    <polygon id="Path" fill="#593924" points="405.211668 273.475881 409 273.475881 409 253.475881 400 253.475881"></polygon>
                    <polygon id="Path" fill="url(#linearGradient-31)" opacity="0.49" style="mix-blend-mode: color-burn;" points="402.082932 261.475881 409 261.475881 409 253.475881 400 253.475881"></polygon>
                    <path d="M373.883878,191.475881 L390,191.475881 L390,215.475881 L373.883878,215.475881 C372.84347,215.475881 372.000053,214.640981 372.000053,213.611079 L372.000053,193.354669 C371.996287,192.857674 372.193098,192.379754 372.546792,192.027005 C372.900487,191.674256 373.381799,191.475867 373.883878,191.475881 Z" id="Path" fill="#7F5030"></path>
                    <ellipse id="Oval" fill="url(#linearGradient-32)" cx="380.5" cy="202.975881" rx="1.5" ry="2.5"></ellipse>
                    <rect id="Rectangle" fill="#7F5030" x="390" y="191.475881" width="5" height="24"></rect>
                    <rect id="Rectangle" fill="url(#linearGradient-33)" opacity="0.49" style="mix-blend-mode: color-burn;" x="390" y="191.475881" width="5" height="24"></rect>
                    <path d="M373.883878,220.475881 L390,220.475881 L390,244.475881 L373.883878,244.475881 C372.84347,244.475881 372.000053,243.640981 372.000053,242.611079 L372.000053,222.354669 C371.996287,221.857674 372.193098,221.379754 372.546792,221.027005 C372.900487,220.674256 373.381799,220.475867 373.883878,220.475881 Z" id="Path" fill="#7F5030"></path>
                    <ellipse id="Oval" fill="url(#linearGradient-32)" cx="380.5" cy="231.975881" rx="1.5" ry="2.5"></ellipse>
                    <rect id="Rectangle" fill="#7F5030" x="390" y="220.475881" width="5" height="24"></rect>
                    <rect id="Rectangle" fill="url(#linearGradient-33)" opacity="0.49" style="mix-blend-mode: color-burn;" x="390" y="220.475881" width="5" height="24"></rect>
                    <rect id="Rectangle" fill="url(#linearGradient-34)" x="147" y="87.4758813" width="5" height="5" rx="0.89"></rect>
                    <rect id="Rectangle" fill="url(#linearGradient-35)" x="156" y="87.4758813" width="5" height="5" rx="0.89"></rect>
                    <rect id="Rectangle" fill="url(#linearGradient-34)" x="166" y="87.4758813" width="5" height="5" rx="0.89"></rect>
                    <rect id="Rectangle" fill="url(#linearGradient-34)" x="175" y="87.4758813" width="5" height="5" rx="0.89"></rect>
                    <rect id="Rectangle" fill="url(#linearGradient-34)" x="184" y="87.4758813" width="5" height="5" rx="0.89"></rect>
                    <rect id="Rectangle" fill="url(#linearGradient-36)" x="147" y="97.4758813" width="5" height="5" rx="0.89"></rect>
                    <rect id="Rectangle" fill="url(#linearGradient-37)" x="156" y="97.4758813" width="5" height="5" rx="0.89"></rect>
                    <rect id="Rectangle" fill="url(#linearGradient-36)" x="166" y="97.4758813" width="5" height="5" rx="0.89"></rect>
                    <rect id="Rectangle" fill="url(#linearGradient-36)" x="175" y="97.4758813" width="5" height="5" rx="0.89"></rect>
                    <rect id="Rectangle" fill="url(#linearGradient-36)" x="184" y="97.4758813" width="5" height="5" rx="0.89"></rect>
                    <rect id="Rectangle" fill="url(#linearGradient-38)" x="147" y="107.475881" width="5" height="5" rx="0.89"></rect>
                    <rect id="Rectangle" fill="url(#linearGradient-39)" x="156" y="107.475881" width="5" height="5" rx="0.89"></rect>
                    <rect id="Rectangle" fill="url(#linearGradient-38)" x="166" y="107.475881" width="5" height="5" rx="0.89"></rect>
                    <rect id="Rectangle" fill="url(#linearGradient-38)" x="175" y="107.475881" width="5" height="5" rx="0.89"></rect>
                    <rect id="Rectangle" fill="url(#linearGradient-38)" x="184" y="107.475881" width="5" height="5" rx="0.89"></rect>
                    <rect id="Rectangle" fill="url(#linearGradient-40)" x="147" y="116.475881" width="5" height="5" rx="0.89"></rect>
                    <rect id="Rectangle" fill="url(#linearGradient-41)" x="156" y="116.475881" width="5" height="5" rx="0.89"></rect>
                    <rect id="Rectangle" fill="url(#linearGradient-40)" x="166" y="116.475881" width="5" height="5" rx="0.89"></rect>
                    <rect id="Rectangle" fill="url(#linearGradient-40)" x="175" y="116.475881" width="5" height="5" rx="0.89"></rect>
                    <rect id="Rectangle" fill="url(#linearGradient-40)" x="184" y="116.475881" width="5" height="5" rx="0.89"></rect>
                    <rect id="Rectangle" fill="url(#linearGradient-42)" x="147" y="127.475881" width="5" height="5" rx="0.89"></rect>
                    <rect id="Rectangle" fill="url(#linearGradient-43)" x="156" y="127.475881" width="5" height="5" rx="0.89"></rect>
                    <rect id="Rectangle" fill="url(#linearGradient-42)" x="166" y="127.475881" width="5" height="5" rx="0.89"></rect>
                    <rect id="Rectangle" fill="url(#linearGradient-42)" x="175" y="127.475881" width="5" height="5" rx="0.89"></rect>
                    <rect id="Rectangle" fill="url(#linearGradient-42)" x="184" y="127.475881" width="5" height="5" rx="0.89"></rect>
                    <rect id="Rectangle" fill="url(#linearGradient-44)" x="147" y="137.475881" width="5" height="5" rx="0.89"></rect>
                    <rect id="Rectangle" fill="url(#linearGradient-45)" x="156" y="137.475881" width="5" height="5" rx="0.89"></rect>
                    <rect id="Rectangle" fill="url(#linearGradient-44)" x="166" y="137.475881" width="5" height="5" rx="0.89"></rect>
                    <rect id="Rectangle" fill="url(#linearGradient-44)" x="175" y="137.475881" width="5" height="5" rx="0.89"></rect>
                    <rect id="Rectangle" fill="url(#linearGradient-44)" x="184" y="137.475881" width="5" height="5" rx="0.89"></rect>
                    <rect id="Rectangle" fill="url(#linearGradient-46)" x="147" y="146.475881" width="5" height="5" rx="0.89"></rect>
                    <rect id="Rectangle" fill="url(#linearGradient-47)" x="156" y="146.475881" width="5" height="5" rx="0.89"></rect>
                    <rect id="Rectangle" fill="url(#linearGradient-46)" x="166" y="146.475881" width="5" height="5" rx="0.89"></rect>
                    <rect id="Rectangle" fill="url(#linearGradient-46)" x="175" y="146.475881" width="5" height="5" rx="0.89"></rect>
                    <rect id="Rectangle" fill="url(#linearGradient-46)" x="184" y="146.475881" width="5" height="5" rx="0.89"></rect>
                    <rect id="Rectangle" fill="url(#linearGradient-48)" x="147" y="156.475881" width="5" height="5" rx="0.89"></rect>
                    <rect id="Rectangle" fill="url(#linearGradient-49)" x="156" y="156.475881" width="5" height="5" rx="0.89"></rect>
                    <rect id="Rectangle" fill="url(#linearGradient-48)" x="166" y="156.475881" width="5" height="5" rx="0.89"></rect>
                    <rect id="Rectangle" fill="url(#linearGradient-48)" x="175" y="156.475881" width="5" height="5" rx="0.89"></rect>
                    <rect id="Rectangle" fill="url(#linearGradient-48)" x="184" y="156.475881" width="5" height="5" rx="0.89"></rect>
                    <rect id="Rectangle" fill="url(#linearGradient-50)" x="147" y="167.475881" width="5" height="5" rx="0.89"></rect>
                    <rect id="Rectangle" fill="url(#linearGradient-51)" x="156" y="167.475881" width="5" height="5" rx="0.89"></rect>
                    <rect id="Rectangle" fill="url(#linearGradient-50)" x="166" y="167.475881" width="5" height="5" rx="0.89"></rect>
                    <rect id="Rectangle" fill="url(#linearGradient-50)" x="175" y="167.475881" width="5" height="5" rx="0.89"></rect>
                    <rect id="Rectangle" fill="url(#linearGradient-50)" x="184" y="167.475881" width="5" height="5" rx="0.89"></rect>
                    <rect id="Rectangle" fill="url(#linearGradient-52)" x="147" y="177.475881" width="5" height="5" rx="0.89"></rect>
                    <rect id="Rectangle" fill="url(#linearGradient-53)" x="156" y="177.475881" width="5" height="5" rx="0.89"></rect>
                    <rect id="Rectangle" fill="url(#linearGradient-52)" x="166" y="177.475881" width="5" height="5" rx="0.89"></rect>
                    <rect id="Rectangle" fill="url(#linearGradient-52)" x="175" y="177.475881" width="5" height="5" rx="0.89"></rect>
                    <rect id="Rectangle" fill="url(#linearGradient-52)" x="184" y="177.475881" width="5" height="5" rx="0.89"></rect>
                    <rect id="Rectangle" fill="url(#linearGradient-54)" x="147" y="186.475881" width="5" height="5" rx="0.89"></rect>
                    <rect id="Rectangle" fill="url(#linearGradient-55)" x="156" y="186.475881" width="5" height="5" rx="0.89"></rect>
                    <rect id="Rectangle" fill="url(#linearGradient-54)" x="166" y="186.475881" width="5" height="5" rx="0.89"></rect>
                    <rect id="Rectangle" fill="url(#linearGradient-54)" x="175" y="186.475881" width="5" height="5" rx="0.89"></rect>
                    <rect id="Rectangle" fill="url(#linearGradient-54)" x="184" y="186.475881" width="5" height="5" rx="0.89"></rect>
                    <path d="M252.994257,153.475881 C251.680602,153.475866 250.421094,153.997084 249.494422,154.924206 C248.56775,155.851328 248.050313,157.107916 248.056604,158.415928 L248.056604,182.292038 L214.003828,182.292038 L214.003828,183.525872 C213.894631,189.308993 216.125362,194.89295 220.194088,199.021304 C224.262814,203.149658 229.827772,205.475639 235.6368,205.475881 L250.32206,205.475881 L250.32206,196.434041 L280,196.434041 L280,153.475881 L252.994257,153.475881 Z" id="Path" fill="url(#linearGradient-56)"></path>
                    <path d="M150.146667,56.475894 L185.867387,56.475894 C190.358905,56.475894 194,60.2933458 194,65.0024112 L194,76.4758813 L142,76.4758813 L142,65.0024112 C141.999997,62.7384829 142.858752,60.5674939 144.386954,58.9680376 C145.915155,57.3685812 147.98733,56.4719817 150.146667,56.475894 Z" id="Path" fill="url(#linearGradient-57)"></path>
                    <path d="M235.633147,99.3499237 C235.374181,99.3503713 235.115482,99.3659401 234.858473,99.3965444 C234.147219,99.4871117 233.426317,99.3210462 232.834637,98.9303375 C230.992971,97.683762 228.704588,97.2106224 226.493799,97.6193235 C224.283009,98.0280246 222.339299,99.2835367 221.108007,101.098199 C220.851212,101.454195 220.424996,101.66115 219.975047,101.648323 L219.975047,101.648323 C217.779689,101.648323 216,103.361979 216,105.475881 L242,105.475881 C242,103.850368 241.329055,102.2915 240.134899,101.142526 C238.940743,99.993552 237.321296,99.3486866 235.633147,99.3499237 Z" id="Path" fill="url(#linearGradient-58)"></path>
                    <path d="M245.789548,81.5211152 C246.187874,81.5206607 246.58586,81.5447502 246.981319,81.5932511 C248.073591,81.7453168 249.18249,81.4796935 250.093166,80.847846 C252.924992,78.8178668 256.446472,78.0452167 259.849501,78.7072023 C263.25253,79.3691879 266.244922,81.4089707 268.139986,84.358464 C268.534301,84.9363958 269.188893,85.2728334 269.88035,85.2529502 L269.88035,85.2529502 C273.260139,85.2529502 276,88.0390513 276,91.4758813 L236,91.4758813 C236,88.8357131 237.031396,86.3036794 238.867292,84.4367986 C240.703189,82.5699179 243.193199,81.5211152 245.789548,81.5211152 Z" id="Path" fill="url(#linearGradient-59)"></path>
                    <path d="M390.666543,125.475881 L439,125.475881 L439,132.454066 C439,134.675253 437.226156,136.475881 435.038009,136.475881 L390.666543,136.475881 C389.193852,136.475881 388,135.264003 388,133.769075 L388,128.173089 C388.005209,126.681911 389.197537,125.475872 390.666543,125.475881 Z" id="Path" fill="#E4E4EA"></path>
                    <path d="M93.1109525,123.514225 C92.7265228,123.598253 93.4021871,124.041735 94.20017,124.475881 L94.20017,124.475881 L94.8350615,124.359175 C95.284859,124.276027 95.6916821,124.083657 96,123.808323 C96,123.808323 93.897286,123.3415 93.1109525,123.514225 Z" id="Path" fill="url(#linearGradient-60)" opacity="0.49" style="mix-blend-mode: color-burn;"></path>
                    <path d="M67.5274056,237.571345 C54.9370562,236.486046 43.5357954,230.22906 35.4080254,219.951747 C27.2242982,209.598936 23.3492685,196.424346 24.4917261,182.848667 C24.6170992,181.421444 24.1233805,180.009531 23.1388356,178.979736 C22.1542907,177.94994 20.7761052,177.403915 19.3623245,177.483514 L19.3623245,177.483514 L5,177.483514 L7.91443273,195.14558 L22.9529056,229.474069 L38.923997,239.383323 L52.5775315,247.475881 L67.6253306,247.475881 L67.6253306,247.447569 C70.1311475,247.175904 72.0238874,245.023813 71.9997721,242.473724 C71.9756569,239.923635 70.0425643,237.808591 67.5320687,237.585502 L67.5274056,237.571345 Z" id="Path" fill="#39CE9C"></path>
                    <path d="M67.5274056,237.571345 C54.9370562,236.486046 43.5357954,230.22906 35.4080254,219.951747 C27.2242982,209.598936 23.3492685,196.424346 24.4917261,182.848667 C24.6170992,181.421444 24.1233805,180.009531 23.1388356,178.979736 C22.1542907,177.94994 20.7761052,177.403915 19.3623245,177.483514 L19.3623245,177.483514 L5,177.483514 L7.91443273,195.14558 L22.9529056,229.474069 L38.923997,239.383323 L52.5775315,247.475881 L67.6253306,247.475881 L67.6253306,247.447569 C70.1311475,247.175904 72.0238874,245.023813 71.9997721,242.473724 C71.9756569,239.923635 70.0425643,237.808591 67.5320687,237.585502 L67.5274056,237.571345 Z" id="Path" fill="url(#linearGradient-61)" opacity="0.49" style="mix-blend-mode: multiply;"></path>
                    <path d="M52.8692887,247.433769 C52.7287135,247.433769 52.5881382,247.433769 52.4475629,247.433769 C37.0826843,246.11936 23.1891604,238.562683 13.3254613,226.16766 C3.51799235,213.843304 -1.13036372,198.197592 0.23321654,182.10432 C0.347864853,180.316577 1.41492857,178.73086 3.02280943,177.958828 C4.63069029,177.186795 6.52808917,177.349109 7.98312282,178.38316 C9.43815646,179.417211 10.2234146,181.161386 10.0359997,182.942904 C8.8879682,196.496868 12.7819036,209.650385 21.0055577,219.986638 C29.1682958,230.247512 40.6298673,236.475646 53.2816429,237.578053 C55.9989584,237.692537 58.1094692,240.000058 57.9956007,242.732046 C57.8817322,245.464034 55.5866042,247.585941 52.8692887,247.471458 L52.8692887,247.433769 Z" id="Path" fill="#39CE9C"></path>
                    <path d="M65.7437267,273.475881 L45.4777053,273.475881 C42.2817871,273.462446 39.3625644,271.644653 37.9185538,268.768817 C36.4745431,265.892981 36.7490415,262.443641 38.6293508,259.83696 L44.6263905,251.593499 C47.8879718,247.12785 53.0558876,244.48698 58.5548463,244.475881 L74.6352367,244.475881 C75.9412594,244.475881 77,245.543799 77,246.861142 C77,248.178485 75.9412594,249.246403 74.6352367,249.246403 L58.5548463,249.246403 C54.56051,249.254535 50.8067885,251.173331 48.4383889,254.417648 L42.4413492,262.661109 C41.6164241,263.818304 41.4995224,265.342724 42.1382094,266.614112 C42.7768964,267.885499 44.0647268,268.69196 45.4777053,268.70536 L65.7484562,268.70536 C67.0544789,268.70536 68.1132195,269.773277 68.1132195,271.090621 C68.1132195,272.407964 67.0544789,273.475881 65.7484562,273.475881 L65.7437267,273.475881 Z" id="Path" fill="#C6C6CC"></path>
                    <path d="M47.7816271,255.475881 L48.4626897,254.576196 C50.8311268,251.516925 54.5849077,249.707571 58.5793072,249.699903 L74.6599521,249.699903 C75.7363841,249.689092 76.6693056,248.98818 76.929608,247.994689 C77.1899103,247.001198 76.7118988,245.965865 75.7666789,245.475881 C67.9770995,247.895923 59.6481816,248.287354 51.6457115,246.609485 C48.8775544,247.768206 46.4771156,249.596865 44.6837381,251.913128 L43,254.094865 C44.58284,254.628678 46.1767156,255.089017 47.7816271,255.475881 Z" id="Path" fill="url(#linearGradient-62)" opacity="0.49" style="mix-blend-mode: color-burn;"></path>
                    <circle id="Oval" fill="#C6C6CC" cx="60" cy="247.475881" r="1"></circle>
                    <circle id="Oval" fill="#C6C6CC" cx="64" cy="247.475881" r="1"></circle>
                    <circle id="Oval" fill="#C6C6CC" cx="67" cy="247.475881" r="1"></circle>
                    <path d="M51.7552562,273.475881 L31.4797105,273.475881 C28.2830364,273.462446 25.3631232,271.644653 23.918771,268.768817 C22.4744188,265.892981 22.7489821,262.443641 24.6297362,259.83696 L30.6281944,251.593499 C33.8885663,247.130547 39.0535591,244.490001 44.5504834,244.475881 L60.6346774,244.475881 C61.941009,244.475881 63,245.543799 63,246.861142 C63,248.178485 61.941009,249.246403 60.6346774,249.246403 L44.5504834,249.246403 C40.5552023,249.254535 36.800593,251.173331 34.4316332,254.417648 L28.4662895,262.661109 C27.6411693,263.818304 27.52424,265.342724 28.163078,266.614112 C28.801916,267.885499 30.0900511,268.69196 31.5033637,268.70536 L51.7789094,268.70536 C53.085241,268.70536 54.144232,269.773277 54.144232,271.090621 C54.144232,272.407964 53.085241,273.475881 51.7789094,273.475881 L51.7552562,273.475881 Z" id="Path" fill="#E4E4EA"></path>
                    <circle id="Oval" fill="#C6C6CC" cx="47" cy="247.475881" r="1"></circle>
                    <circle id="Oval" fill="#C6C6CC" cx="50" cy="247.475881" r="1"></circle>
                    <circle id="Oval" fill="#C6C6CC" cx="55" cy="247.475881" r="1"></circle>
                    <path d="M96.9509562,120.219362 L96.112433,116.717231 C95.6202738,114.666108 95.3718985,112.565834 95.3722841,110.458496 L95.3722841,107.853758 L80.5037229,104.475881 L62,127.6286 L75.4351082,131.475881 C75.4351082,131.475881 83.0286613,128.130219 85.979888,128.351116 C89.7602689,128.641042 93.9107242,123.919379 95.0584235,122.511163 L95.573717,122.396113 C96.0507059,122.287768 96.4641224,121.997241 96.7225675,121.588764 C96.9810126,121.180287 97.0631988,120.687504 96.9509562,120.219362 Z" id="Path" fill="#F9AA8F"></path>
                    <path d="M63,126.018826 L66.0360531,128.871587 L75.1161874,131.475881 C75.1161874,131.475881 82.6876368,128.130789 85.630273,128.351648 C86.7003013,128.392795 87.7618641,128.149637 88.7036929,127.64766 C78.1242154,129.262691 77.6431178,117.985084 85.9011823,114.262691 C92.4403737,111.313305 95,107.853182 95,107.853182 L86.4196468,105.89766 L80.1793899,104.475881 L63,126.018826 Z" id="Path" fill="url(#linearGradient-63)" opacity="0.49" style="mix-blend-mode: color-burn;"></path>
                    <path d="M22.5507882,174.566754 L27,179.459437 L21.2485799,186.464235 C21.2485799,186.464235 18.4444913,187.007351 22.6419428,180.675644 C22.6419428,180.675644 16.1786488,181.181624 18.505261,173.475881 L22.5507882,174.566754 Z" id="Path" fill="#F9AA8F"></path>
                    <path d="M56.3473465,122.475881 C56.3473465,122.475881 29.7267252,126.757386 19,172.147953 L23.6187794,173.475881 C23.6187794,173.475881 47.8614621,143.098935 63.2022392,145.372008 C63.2069667,145.376734 75.2810329,128.208183 56.3473465,122.475881 Z" id="Path" fill="url(#linearGradient-64)"></path>
                    <path d="M85,139.63858 L80.1177706,153.348267 L80.1177706,153.348267 L78.9767131,156.548917 L72.7336324,174.079643 L69.0345486,184.475881 L36,184.475881 C36,139.069889 53.2561558,124.058323 53.2561558,124.058323 C59.101737,121.872857 66.9488452,121.863457 72.0041038,124.580015 C78.3968315,128.020361 85,139.63858 85,139.63858 Z" id="Path" fill="#7A96CD"></path>
                    <path d="M69.1443857,184.475881 C69.1443857,184.475881 96.4761891,197.38145 104.16062,203.266957 C112.332951,209.525922 58.1384793,266.475881 58.1384793,266.475881 L52.6261434,266.475881 L77.0211618,212.088126 L36,184.475881 L69.1443857,184.475881 Z" id="Path" fill="url(#linearGradient-65)"></path>
                    <path d="M84,139.387949 L77.1329243,158.475881 C65.2566462,155.56662 61,149.200858 61,149.200858 L74.7717791,128.475881 L74.7717791,128.475881 C78.2831155,131.726073 81.3821316,135.390557 84,139.387949 L84,139.387949 Z" id="Path" fill="url(#linearGradient-66)"></path>
                    <path d="M74,112.475881 C74,112.475881 75.0375412,97.3307863 83.8947159,99.7344656 C88.0520387,100.804125 92.1107251,102.22983 96.0263325,103.995969 C96.5066853,104.219924 96.8540088,104.658571 96.9635954,105.17967 C97.0731819,105.700769 96.9322099,106.243352 96.583178,106.643847 C94.2606088,109.301301 89.1347747,113.763909 83.4473358,109.626899 L83.4473358,109.626899 C83.3392139,108.587137 82.8486133,107.625608 82.0718799,106.931139 C81.6955889,106.639997 81.2061578,106.541371 80.7474391,106.66425 C80.2887204,106.787128 79.912839,107.117548 79.7302732,107.558394 C79.0020906,109.339606 77.2601637,112.475881 74,112.475881 Z" id="Path" fill="#4D2C26"></path>
                    <path d="M130,126.696542 C130,126.696542 131.992943,119.520063 135.983598,119.910681 C139.974253,120.3013 145.519213,117.040089 141.738342,123.944044 C137.95747,130.847999 132.202727,129.335488 132.202727,129.335488 L130,126.696542 Z" id="Path" fill="#F9AA8F"></path>
                    <path d="M123.654822,267.479987 L130,271.035321 C130,271.035321 120,273.322067 120,267.475881 L123.654822,267.479987 Z" id="Path" fill="#F59180"></path>
                    <path d="M119,266.475881 L119,273.475881 L137,273.475881 L125.412917,268.119892 C125.412917,268.119892 119,270.272651 119,266.475881 Z" id="Path" fill="#3B221D"></path>
                    <path d="M55.6778957,267.479987 L62,271.035321 C62,271.035321 52,273.322067 52,267.475881 L55.6778957,267.479987 Z" id="Path" fill="#F59180"></path>
                    <path d="M52.5974995,266.475881 L49,273.475881 L70,273.475881 L58.7975433,268.119892 C58.7975433,268.119892 52.5974995,270.272651 52.5974995,266.475881 Z" id="Path" fill="#3B221D"></path>
                    <path d="M123,266.475881 L116.833066,266.475881 L87.5164085,227.137628 C33.7312533,212.297732 35.0025906,184.475881 35.0025906,184.475881 L68.5175069,184.475881 C105.153841,198.521543 123,266.475881 123,266.475881 Z" id="Path" fill="#1C3C6C"></path>
                    <path d="M55,146.845952 C55,146.845952 100.214076,169.973772 133,129.836603 L130.793622,127.102117 L119.137463,131.206199 C106.369541,135.708275 92.2929073,134.85806 80.1755865,128.852941 L71.3500733,124.475881 L55,146.845952 Z" id="Path" fill="#7A96CD"></path>
                    <path d="M80,153.475881 L78.8615058,156.685342 L72.6324496,174.264326 C68.6337222,178.760399 64.4996819,180.475881 64.4996819,180.475881 L58,178.143013 L61.6114528,171.139697 C71.8718982,171.139697 80,153.475881 80,153.475881 Z" id="Path" fill="#1C3C6C"></path>
                </g>
            </g>
        </g>
    </g>
</svg>