<?xml version="1.0" encoding="UTF-8"?>
<svg width="460px" height="304px" viewBox="0 0 460 304" version="1.1" xmlns="http://www.w3.org/2000/svg" xmlns:xlink="http://www.w3.org/1999/xlink">
    <!-- Generator: Sketch 53.2 (72643) - https://sketchapp.com -->
    <title>collaboration on design like the blue website header</title>
    <desc>Created with Sketch.</desc>
    <defs>
        <linearGradient x1="50.0007953%" y1="202.020587%" x2="50.0007953%" y2="-36.2943195%" id="linearGradient-1">
            <stop stop-color="#FFFFFF" stop-opacity="0" offset="0%"></stop>
            <stop stop-color="#EAEAEA" stop-opacity="0.09" offset="9%"></stop>
            <stop stop-color="#000000" offset="100%"></stop>
        </linearGradient>
        <linearGradient x1="63.6268003%" y1="65.8607894%" x2="43.0882905%" y2="34.993907%" id="linearGradient-2">
            <stop stop-color="#FFFFFF" stop-opacity="0" offset="0%"></stop>
            <stop stop-color="#000000" offset="100%"></stop>
        </linearGradient>
        <linearGradient x1="92.1102066%" y1="32.1204847%" x2="3.07326237%" y2="74.9781627%" id="linearGradient-3">
            <stop stop-color="#FFFFFF" stop-opacity="0" offset="0%"></stop>
            <stop stop-color="#000000" offset="100%"></stop>
        </linearGradient>
        <linearGradient x1="56.3518757%" y1="49.8931831%" x2="45.647003%" y2="42.6490581%" id="linearGradient-4">
            <stop stop-color="#00598A" offset="0%"></stop>
            <stop stop-color="#074469" offset="100%"></stop>
        </linearGradient>
        <linearGradient x1="53.5466171%" y1="87.526064%" x2="46.0667184%" y2="-45.8972157%" id="linearGradient-5">
            <stop stop-color="#FFFFFF" stop-opacity="0" offset="0%"></stop>
            <stop stop-color="#000000" offset="100%"></stop>
        </linearGradient>
        <linearGradient x1="87.8607595%" y1="50.006454%" x2="-37.2151899%" y2="50.006454%" id="linearGradient-6">
            <stop stop-color="#2F5C63" offset="0%"></stop>
            <stop stop-color="#2E5A61" offset="37%"></stop>
            <stop stop-color="#2A5259" offset="58%"></stop>
            <stop stop-color="#24454B" offset="75%"></stop>
            <stop stop-color="#1B3337" offset="90%"></stop>
            <stop stop-color="#122124" offset="100%"></stop>
        </linearGradient>
        <linearGradient x1="87.8932969%" y1="50.0041133%" x2="-37.254902%" y2="50.0041133%" id="linearGradient-7">
            <stop stop-color="#FFFFFF" stop-opacity="0" offset="0%"></stop>
            <stop stop-color="#000000" offset="100%"></stop>
        </linearGradient>
        <linearGradient x1="44.8380721%" y1="57.5405084%" x2="58.8110081%" y2="37.8883603%" id="linearGradient-8">
            <stop stop-color="#FFFFFF" stop-opacity="0" offset="0%"></stop>
            <stop stop-color="#000000" offset="100%"></stop>
        </linearGradient>
        <linearGradient x1="-16.8291647%" y1="49.4387381%" x2="123.571892%" y2="50.342256%" id="linearGradient-9">
            <stop stop-color="#FFFFFF" stop-opacity="0" offset="0%"></stop>
            <stop stop-color="#000000" offset="100%"></stop>
        </linearGradient>
        <linearGradient x1="42.5441342%" y1="60.1901819%" x2="66.3202704%" y2="26.176632%" id="linearGradient-10">
            <stop stop-color="#FFFFFF" stop-opacity="0" offset="0%"></stop>
            <stop stop-color="#000000" offset="100%"></stop>
        </linearGradient>
        <linearGradient x1="-11.8402937%" y1="25.5995343%" x2="239.834787%" y2="116.533178%" id="linearGradient-11">
            <stop stop-color="#FFFFFF" stop-opacity="0" offset="0%"></stop>
            <stop stop-color="#000000" offset="100%"></stop>
        </linearGradient>
        <linearGradient x1="81.6558416%" y1="84.9663785%" x2="-4.22405907%" y2="-1.32084534%" id="linearGradient-12">
            <stop stop-color="#FFFFFF" stop-opacity="0" offset="0%"></stop>
            <stop stop-color="#000000" offset="80%"></stop>
        </linearGradient>
        <linearGradient x1="195.949454%" y1="78.8273595%" x2="-165.603096%" y2="5.41562291%" id="linearGradient-13">
            <stop stop-color="#FFFFFF" stop-opacity="0" offset="0%"></stop>
            <stop stop-color="#000000" offset="100%"></stop>
        </linearGradient>
        <linearGradient x1="49.5332574%" y1="69.7493154%" x2="50.9870822%" y2="-29.1763219%" id="linearGradient-14">
            <stop stop-color="#FFFFFF" stop-opacity="0" offset="0%"></stop>
            <stop stop-color="#000000" offset="100%"></stop>
        </linearGradient>
        <linearGradient x1="35.8447919%" y1="114.408141%" x2="110.35375%" y2="-195.500803%" id="linearGradient-15">
            <stop stop-color="#FFFFFF" stop-opacity="0" offset="0%"></stop>
            <stop stop-color="#000000" offset="100%"></stop>
        </linearGradient>
        <linearGradient x1="10.138141%" y1="50.3955057%" x2="172.652775%" y2="48.349122%" id="linearGradient-16">
            <stop stop-color="#FFFFFF" stop-opacity="0" offset="0%"></stop>
            <stop stop-color="#000000" offset="80%"></stop>
        </linearGradient>
        <linearGradient x1="39.1935902%" y1="39.6327684%" x2="55.0897539%" y2="50.6214689%" id="linearGradient-17">
            <stop stop-color="#025C63" offset="0%"></stop>
            <stop stop-color="#027F8A" offset="92%"></stop>
        </linearGradient>
        <linearGradient x1="-8139.4829%" y1="-45.0956451%" x2="-8090.48692%" y2="86.2298196%" id="linearGradient-18">
            <stop stop-color="#025C63" offset="0%"></stop>
            <stop stop-color="#027F8A" offset="92%"></stop>
        </linearGradient>
        <linearGradient x1="17.3597389%" y1="102.841865%" x2="118.939262%" y2="-29.377915%" id="linearGradient-19">
            <stop stop-color="#FFFFFF" stop-opacity="0" offset="0%"></stop>
            <stop stop-color="#000000" offset="80%"></stop>
        </linearGradient>
        <linearGradient x1="40.1654239%" y1="57.8802623%" x2="103.42684%" y2="-4.46371906%" id="linearGradient-20">
            <stop stop-color="#FFFFFF" stop-opacity="0" offset="0%"></stop>
            <stop stop-color="#000000" offset="80%"></stop>
        </linearGradient>
        <linearGradient x1="7.78142154%" y1="51.7409153%" x2="190.098334%" y2="43.317622%" id="linearGradient-21">
            <stop stop-color="#FFFFFF" stop-opacity="0" offset="0%"></stop>
            <stop stop-color="#000000" offset="80%"></stop>
        </linearGradient>
        <linearGradient x1="46.7891729%" y1="69.6509556%" x2="55.6004271%" y2="-3.67755058%" id="linearGradient-22">
            <stop stop-color="#FFFFFF" stop-opacity="0" offset="0%"></stop>
            <stop stop-color="#000000" offset="80%"></stop>
        </linearGradient>
        <linearGradient x1="37.7636768%" y1="48.7170088%" x2="140.153855%" y2="59.9706745%" id="linearGradient-23">
            <stop stop-color="#FFFFFF" stop-opacity="0" offset="0%"></stop>
            <stop stop-color="#000000" offset="80%"></stop>
        </linearGradient>
    </defs>
    <g id="Design" stroke="none" stroke-width="1" fill="none" fill-rule="evenodd">
        <g id="Homepage" transform="translate(-250.000000, -1664.000000)">
            <g id="02-Developers" transform="translate(0.000000, 1458.000000)">
                <g id="collaboration-on-design-like-the-blue-website-header" transform="translate(250.000000, 206.000000)">
                    <path d="M10.4666189,54.4494765 L297.525968,54.4494765 C297.787769,54.4494765 298,54.661616 298,54.9233032 L298,263.966173 C298,264.227861 297.787769,264.44 297.525968,264.44 L10.4666189,264.44 C4.69039311,264.429569 0.0104358446,259.751635 0,253.977906 L0,64.9210469 C0,59.1325245 4.69455417,54.44 10.4855802,54.44 L10.4666189,54.4494765 Z" id="Path" fill="#E4EFF2" fill-rule="nonzero"></path>
                    <rect id="Rectangle" fill="#C7D5E0" fill-rule="nonzero" x="159" y="196.44" width="80" height="6"></rect>
                    <rect id="Rectangle" fill="#C7D5E0" fill-rule="nonzero" x="159" y="209.44" width="80" height="6"></rect>
                    <rect id="Rectangle" fill="#C7D5E0" fill-rule="nonzero" x="159" y="223.44" width="80" height="6"></rect>
                    <rect id="Rectangle" fill="#C7D5E0" fill-rule="nonzero" x="159" y="236.44" width="40" height="6"></rect>
                    <path d="M297.482909,54.4419945 L10.4652709,54.4419945 C4.68995699,54.4709891 0.0181480588,59.2156407 0,65.0704395 L0,74.44 L298,74.44 L297.999537,54.9417044 C298.005579,54.803106 297.952232,54.6686249 297.853219,54.5728546 C297.754206,54.4770843 297.619193,54.4293732 297.482909,54.4419945 Z" id="Path" fill="#282A49" fill-rule="nonzero"></path>
                    <rect id="Rectangle" fill="url(#linearGradient-1)" fill-rule="nonzero" opacity="0.49" style="mix-blend-mode: color-burn;" x="0" y="74.44" width="298" height="12"></rect>
                    <circle id="Oval" fill="#39CE9C" fill-rule="nonzero" cx="45.5" cy="64.94" r="2.5"></circle>
                    <circle id="Oval" fill="#3D6FD3" fill-rule="nonzero" cx="32.5" cy="64.94" r="2.5"></circle>
                    <circle id="Oval" fill="#EF513D" fill-rule="nonzero" cx="18.5" cy="64.94" r="2.5"></circle>
                    <rect id="Rectangle" fill="#C7D5E0" fill-rule="nonzero" x="16" y="130.44" width="40" height="47" rx="3.69"></rect>
                    <rect id="Rectangle" fill="#C7D5E0" fill-rule="nonzero" x="65" y="131.44" width="80" height="6"></rect>
                    <rect id="Rectangle" fill="#C7D5E0" fill-rule="nonzero" x="65" y="144.44" width="80" height="6"></rect>
                    <rect id="Rectangle" fill="#C7D5E0" fill-rule="nonzero" x="65" y="157.44" width="80" height="6"></rect>
                    <rect id="Rectangle" fill="#C7D5E0" fill-rule="nonzero" x="65" y="171.44" width="40" height="6"></rect>
                    <rect id="Rectangle" fill="#C7D5E0" fill-rule="nonzero" x="160" y="130.44" width="128" height="47" rx="6.65"></rect>
                    <rect id="Rectangle" fill="#C7D5E0" fill-rule="nonzero" x="16" y="87.44" width="272" height="34" rx="3.14"></rect>
                    <path d="M19.938171,188.44 L140.061829,188.44 C142.236821,188.44 144,190.211321 144,192.396357 L144,244.483643 C144,245.532934 143.585087,246.539249 142.846536,247.28121 C142.107986,248.023171 141.106297,248.44 140.061829,248.44 L25.7557089,248.44 C20.3677796,248.44 16,244.052051 16,238.639241 L16,192.396357 C16,190.211321 17.7631792,188.44 19.938171,188.44 Z" id="Path" fill="#C7D5E0" fill-rule="nonzero"></path>
                    <circle id="Oval" fill="#B6CAD8" fill-rule="nonzero" cx="80.5" cy="216.94" r="11.5"></circle>
                    <path d="M78,214.979269 L78,219.900731 C78.0006097,220.458984 78.3004647,220.973248 78.7838332,221.245038 C79.2672017,221.516828 79.8584833,221.503636 80.3294675,221.210552 L84.2771512,218.749822 C84.7265734,218.468843 85,217.973386 85,217.44 C85,216.906614 84.7265734,216.411157 84.2771512,216.130178 L80.3294675,213.669448 C79.8584833,213.376364 79.2672017,213.363172 78.7838332,213.634962 C78.3004647,213.906752 78.0006097,214.421016 78,214.979269 L78,214.979269 Z" id="Path" fill="#C7D5E0" fill-rule="nonzero"></path>
                    <path d="M326.720902,45.4991159 L326.720902,80.44 L421.043381,80.44 C428.199124,80.44 434,74.6162185 434,67.4322198 L434,45.4991159 C434,21.8265719 415.561553,2.31252537 392.398698,0.606353254 L392.398698,0.440013355 L245,0.44 C269.696631,0.42100308 326.720902,20.7002131 326.720902,45.4991159 Z" id="Path" fill="#3D6FD3" fill-rule="nonzero"></path>
                    <path d="M326.720902,45.4991159 L326.720902,80.44 L421.043381,80.44 C428.199124,80.44 434,74.6162185 434,67.4322198 L434,45.4991159 C434,21.8265719 415.561553,2.31252537 392.398698,0.606353254 L392.398698,0.440013355 L245,0.44 C269.696631,0.42100308 326.720902,20.7002131 326.720902,45.4991159 Z" id="Path" fill="url(#linearGradient-2)" fill-rule="nonzero" opacity="0.49" style="mix-blend-mode: color-burn;"></path>
                    <path d="M326.720902,258.388916 L326.720902,243.44 L421.043381,243.44 C428.199124,243.44 434,249.262743 434,256.445462 L434,258.388916 C434,282.05724 415.561553,301.567808 392.398698,303.273676 L392.398698,303.439987 L245,303.44 C269.696631,303.458994 326.720902,283.183398 326.720902,258.388916 Z" id="Path" fill="#3D6FD3" fill-rule="nonzero"></path>
                    <path d="M326.720902,258.388916 L326.720902,243.44 L421.043381,243.44 C428.199124,243.44 434,249.262743 434,256.445462 L434,258.388916 C434,282.05724 415.561553,301.567808 392.398698,303.273676 L392.398698,303.439987 L245,303.44 C269.696631,303.458994 326.720902,283.183398 326.720902,258.388916 Z" id="Path" fill="url(#linearGradient-3)" fill-rule="nonzero" opacity="0.49" style="mix-blend-mode: color-burn;"></path>
                    <path d="M333.111139,258.535232 L333.111139,46.349491 C333.111139,21.6497446 353.3116,1.44 378,1.44 L230.603387,1.44 L230.603387,1.60577011 C207.439371,3.3108341 189,22.7532999 189,46.3447547 L189,258.535232 C189,282.126687 207.439371,301.573889 230.603387,303.274217 L230.603387,303.439987 L378,303.44 C353.3116,303.458932 333.111139,283.249187 333.111139,258.535232 Z" id="Path" fill="#3D6FD3" fill-rule="nonzero"></path>
                    <rect id="Rectangle" stroke="#8BB1F7" stroke-width="2" x="225" y="180.44" width="70" height="70" rx="7.18"></rect>
                    <rect id="Rectangle" stroke="#8BB1F7" stroke-width="2" x="233" y="189.44" width="18" height="18"></rect>
                    <polyline id="Path" stroke="#8BB1F7" stroke-width="2" points="287 238.44 287 242.44 283 242.44"></polyline>
                    <rect id="Rectangle" stroke="#8BB1F7" stroke-width="2" x="225" y="180.44" width="70" height="70" rx="7.18"></rect>
                    <rect id="Rectangle" stroke="#8BB1F7" stroke-width="2" x="233" y="189.44" width="18" height="18"></rect>
                    <polyline id="Path" stroke="#8BB1F7" stroke-width="2" points="287 238.44 287 242.44 283 242.44"></polyline>
                    <path d="M226,249.44 L294,181.44" id="Path" stroke="#8BB1F7" stroke-width="2"></path>
                    <path d="M287,215.44 L272,215.44" id="Path" stroke="#8BB1F7" stroke-width="2"></path>
                    <path d="M287,220.44 L268,220.44" id="Path" stroke="#8BB1F7" stroke-width="2"></path>
                    <path d="M287,224.44 L263,224.44" id="Path" stroke="#8BB1F7" stroke-width="2"></path>
                    <path d="M287,228.44 L259,228.44" id="Path" stroke="#8BB1F7" stroke-width="2"></path>
                    <path d="M287,233.44 L255,233.44" id="Path" stroke="#8BB1F7" stroke-width="2"></path>
                    <path d="M233,228.44 L234,228.44" id="Path" stroke="#8BB1F7" stroke-width="2"></path>
                    <path d="M234,224.44 L240,224.44" id="Path" stroke="#8BB1F7" stroke-width="2"></path>
                    <path d="M234,220.44 L244,220.44" id="Path" stroke="#8BB1F7" stroke-width="2"></path>
                    <path d="M234,215.44 L248,215.44" id="Path" stroke="#8BB1F7" stroke-width="2"></path>
                    <polygon id="Path" stroke="#8BB1F7" stroke-width="2" points="250.815534 195.891017 248.334951 193.44 241.849515 199.865508 237.902913 195.963105 233 200.821885 233 206.44 251 206.44 251 196.174566"></polygon>
                    <polygon id="Path" stroke="#8BB1F7" stroke-width="2" points="250.815534 195.891017 248.334951 193.44 241.849515 199.865508 237.902913 195.963105 233 200.821885 233 206.44 251 206.44 251 196.174566"></polygon>
                    <rect id="Rectangle" stroke="#8BB1F7" stroke-width="2" x="279" y="203.44" width="1" height="1"></rect>
                    <rect id="Rectangle" stroke="#8BB1F7" stroke-width="2" x="286" y="203.44" width="1" height="1"></rect>
                    <rect id="Rectangle" stroke="#8BB1F7" stroke-width="2" x="279" y="210.44" width="1" height="1"></rect>
                    <rect id="Rectangle" stroke="#8BB1F7" stroke-width="2" x="286" y="210.44" width="1" height="1"></rect>
                    <polygon id="Path" stroke="#8BB1F7" stroke-width="2" points="279.511962 203.44 279.511962 203.951962 279 203.951962 279 209.932823 279.511962 209.932823 279.511962 210.44 285.492823 210.44 285.492823 209.932823 286 209.932823 286 203.951962 285.492823 203.951962 285.492823 203.44"></polygon>
                    <rect id="Rectangle" stroke="#8BB1F7" stroke-width="2" x="203" y="112.44" width="10" height="10"></rect>
                    <rect id="Rectangle" stroke="#8BB1F7" stroke-width="2" x="307" y="112.44" width="10" height="10"></rect>
                    <rect id="Rectangle" stroke="#8BB1F7" stroke-width="2" x="203" y="259.44" width="10" height="10"></rect>
                    <rect id="Rectangle" stroke="#8BB1F7" stroke-width="2" x="307" y="259.44" width="10" height="10"></rect>
                    <path d="M243.705167,116.44 L212.962076,116.44 L212.962076,121.41176 L208,121.41176 L208,259.46824 L212.962076,259.46824 L212.962076,264.44 L307.037924,264.44 L307.037924,259.46824 L312,259.46824 L312,121.41176 L307.037924,121.41176 L307.037924,116.44 L276.299567,116.44" id="Path" stroke="#8BB1F7" stroke-width="2" stroke-dasharray="4"></path>
                    <path d="M260,145.44 C231.280426,145.43738 208,122.156954 208,93.44" id="Path" stroke="#8BB1F7" stroke-width="2"></path>
                    <path d="M260,41.44 C273.79208,41.4399999 287.019202,46.9187071 296.77123,56.6707351 C306.523258,66.4227632 312.001258,79.6491788 312,93.44" id="Path" stroke="#8BB1F7" stroke-width="2"></path>
                    <path d="M312,93.44 C312.002516,107.231207 306.52492,120.458354 296.77262,130.210655 C287.020319,139.962956 273.792465,145.441258 260,145.44" id="Path" stroke="#8BB1F7" stroke-width="2" stroke-dasharray="4"></path>
                    <path d="M208,93.44 C208,64.7230456 231.280426,41.4426199 260,41.44" id="Path" stroke="#8BB1F7" stroke-width="2" stroke-dasharray="4"></path>
                    <path d="M232,93.44 C232,64.728751 244.539677,41.44 260,41.44" id="Path" stroke="#8BB1F7" stroke-width="2"></path>
                    <path d="M288,93.44 C288,122.155993 275.465468,145.44 260,145.44" id="Path" stroke="#8BB1F7" stroke-width="2"></path>
                    <path d="M260,41.44 C275.465468,41.44 288,64.7240069 288,93.44" id="Path" stroke="#8BB1F7" stroke-width="2" stroke-dasharray="4"></path>
                    <path d="M279.182473,70.44 C286.304637,67.6259213 292.727775,63.2749136 298,57.6930848 C288.249521,47.3180293 274.687413,41.44 260.5,41.44 C246.312587,41.44 232.750479,47.3180293 223,57.6930848 C228.263548,63.2764166 234.680899,67.6278866 241.798572,70.44" id="Path" stroke="#8BB1F7" stroke-width="2"></path>
                    <path d="M259.995239,114.44004 C246.097635,114.425848 232.773522,120.011908 223,129.950089 C232.789757,139.864465 246.107767,145.44 260,145.44 C273.892233,145.44 287.210243,139.864465 297,129.950089 C287.224462,120.00909 273.89625,114.42275 259.995239,114.44004 Z" id="Path" stroke="#8BB1F7" stroke-width="2"></path>
                    <path d="M208,93.44 L250,93.44" id="Path" stroke="#8BB1F7" stroke-width="2"></path>
                    <path d="M270,93.44 L312,93.44" id="Path" stroke="#8BB1F7" stroke-width="2"></path>
                    <path d="M260,114.44 L260,145.44" id="Path" stroke="#8BB1F7" stroke-width="2"></path>
                    <path d="M260,145.44 C244.539677,145.44 232,122.155993 232,93.44" id="Path" stroke="#8BB1F7" stroke-width="2" stroke-dasharray="4"></path>
                    <path d="M260,41.44 L260,56.44" id="Path" stroke="#8BB1F7" stroke-width="2"></path>
                    <path d="M278.999973,75.3430826 C279.014131,66.7699043 273.360311,59.2644697 265.235098,57.0702373 C257.109886,54.8760048 248.555636,58.5445173 244.408791,66.0016538 C240.261946,73.4587902 241.564859,82.8301226 247.580882,88.8172425 C250.642489,92.2794525 252.335263,96.7775092 252.331261,101.44 L268.697325,101.44 C268.691023,96.7761979 270.385976,92.276792 273.452394,88.8172425 C277.006272,85.2719497 279.006593,80.4134979 278.999973,75.3430826 L278.999973,75.3430826 Z" id="Path" stroke="#8BB1F7" stroke-width="2" stroke-linecap="round" stroke-linejoin="round"></path>
                    <path d="M252,100.44 L252,106.897912 C252,111.063292 255.488357,114.44 259.791464,114.44 L261.208536,114.44 C265.511643,114.44 269,111.063292 269,106.897912 L269,100.699259 L252.00487,100.699259 C252.014609,100.609697 252,100.524848 252,100.44 Z" id="Path" stroke="#8BB1F7" stroke-width="2" stroke-linecap="round" stroke-linejoin="round"></path>
                    <path d="M252,104.44 L269,104.44" id="Path" stroke="#8BB1F7" stroke-width="2" stroke-linecap="round" stroke-linejoin="round"></path>
                    <path d="M252,107.44 L269,107.44" id="Path" stroke="#8BB1F7" stroke-width="2" stroke-linecap="round" stroke-linejoin="round"></path>
                    <path d="M253,110.44 L268,110.44" id="Path" stroke="#8BB1F7" stroke-width="2" stroke-linecap="round" stroke-linejoin="round"></path>
                    <path d="M260,62.44 C263.447814,62.44 266.754415,63.8096389 269.192388,66.2476118 C271.630361,68.6855848 273,71.9921856 273,75.44" id="Path" stroke="#8BB1F7" stroke-width="2" stroke-linecap="round" stroke-linejoin="round" stroke-dasharray="4"></path>
                    <path d="M260,88.44 C256.552186,88.44 253.245585,87.0703611 250.807612,84.6323882 C248.369639,82.1944152 247,78.8878144 247,75.44" id="Path" stroke="#8BB1F7" stroke-width="2" stroke-linecap="round" stroke-linejoin="round" stroke-dasharray="4"></path>
                    <path d="M247,75.44 C247,71.9921856 248.369639,68.6855848 250.807612,66.2476118 C253.245585,63.8096389 256.552186,62.44 260,62.44" id="Path" stroke="#8BB1F7" stroke-width="2" stroke-linecap="round" stroke-linejoin="round"></path>
                    <path d="M273,75.44 C273,82.6197017 267.179702,88.44 260,88.44" id="Path" stroke="#8BB1F7" stroke-width="2" stroke-linecap="round" stroke-linejoin="round"></path>
                    <rect id="Rectangle" fill="#8BB1F7" fill-rule="nonzero" x="226" y="160.44" width="3" height="13"></rect>
                    <rect id="Rectangle" fill="#8BB1F7" fill-rule="nonzero" x="232" y="165.44" width="3" height="8"></rect>
                    <rect id="Rectangle" fill="#8BB1F7" fill-rule="nonzero" x="239" y="169.44" width="3" height="4"></rect>
                    <rect id="Rectangle" fill="#8BB1F7" fill-rule="nonzero" x="245" y="156.44" width="3" height="17"></rect>
                    <rect id="Rectangle" fill="#8BB1F7" fill-rule="nonzero" x="252" y="167.44" width="3" height="6"></rect>
                    <rect id="Rectangle" stroke="#8BB1F7" stroke-width="2" x="262" y="154.44" width="2" height="1"></rect>
                    <path d="M269,154.44 L295,154.44" id="Path" stroke="#8BB1F7" stroke-width="2"></path>
                    <rect id="Rectangle" stroke="#8BB1F7" stroke-width="2" x="262" y="160.44" width="2" height="1"></rect>
                    <path d="M269,160.44 L295,160.44" id="Path" stroke="#8BB1F7" stroke-width="2"></path>
                    <rect id="Rectangle" stroke="#8BB1F7" stroke-width="2" x="262" y="166.44" width="2" height="1"></rect>
                    <path d="M269,166.44 L295,166.44" id="Path" stroke="#8BB1F7" stroke-width="2"></path>
                    <rect id="Rectangle" stroke="#8BB1F7" stroke-width="2" x="262" y="172.44" width="2" height="1"></rect>
                    <path d="M269,173.44 L295,173.44" id="Path" stroke="#8BB1F7" stroke-width="2"></path>
                    <path d="M157.987052,230.275378 L151.61874,178.44 L141.069451,178.44 C141.069451,178.44 139.146675,227.422055 155.535157,232.36306 C156.155256,232.544249 156.824291,232.400854 157.317278,231.981098 C157.810264,231.561341 158.061708,230.920988 157.987052,230.275378 Z" id="Path" fill="#0A3147" fill-rule="nonzero"></path>
                    <path d="M126,225.426729 C126,225.426729 130.212475,222.44 152.033093,257.222158 L158.6654,295.44 L161.979213,295.44 C161.979213,295.44 166.772073,264.485769 165.892134,254.15509 C165.194735,245.965215 150.661698,222.44 150.661698,222.44 L126,225.426729 Z" id="Path" fill="url(#linearGradient-4)" fill-rule="nonzero"></path>
                    <path d="M146.831273,222.908794 L132.898804,222.6089 C133.159404,219.476671 133.270401,217.206044 133.053234,217.034676 C132.314866,216.453928 129.120098,215.44 129.120098,215.44 C119.43445,226.83122 123.256589,235.161615 126.95808,239.502941 C128.29969,241.407031 131.248335,246.771805 132.893978,258.786615 L127.411718,296.44 L130.852608,296.44 C130.852608,296.44 145.648919,270.863307 147.545511,259.676777 C148.88712,251.608195 146.831273,222.908794 146.831273,222.908794 Z M132.937411,258.520042 L133.053234,257.701283 L133.053234,257.701283 L132.937411,258.520042 Z" id="Shape" fill="#00598A" fill-rule="nonzero"></path>
                    <path d="M148,230.236639 L126.241867,220.44 C121.768277,229.050327 124.87454,235.412403 127.899811,239.023957 C129.224261,240.937363 132.135191,246.328385 133.759786,258.401977 L133.612095,259.44 C134.422306,256.492249 134.851431,253.452084 134.888903,250.394373 C134.917488,240.454228 147.995236,230.236639 147.995236,230.231856 L148,230.236639 Z M133.797899,258.138884 L133.91224,257.316119 L133.91224,257.316119 L133.797899,258.138884 Z" id="Shape" fill="url(#linearGradient-5)" fill-rule="nonzero" opacity="0.49" style="mix-blend-mode: color-burn;"></path>
                    <path d="M150.135696,173.44 C150.135696,173.44 159.287342,192.595313 185,202.956379 L185,206.023139 C185,206.023139 148,223.664179 148,195.275146 C148.032785,188.219685 150.135696,187.3073 150.135696,173.44 Z" id="Path" fill="url(#linearGradient-6)" fill-rule="nonzero"></path>
                    <path d="M158.610123,184.816093 L158.610123,184.816093 C152.644323,178.49498 150.164159,173.44 150.164159,173.44 C150.164159,187.295804 148,188.22271 148,195.284392 C148,210.530554 158.906977,212.4847 169,211.051341 C152.989056,210.506665 160.194938,197.773659 162.354309,194.605935 C164.51368,191.438212 158.610123,184.816093 158.610123,184.816093 Z" id="Path" fill="url(#linearGradient-7)" fill-rule="nonzero" opacity="0.49" style="mix-blend-mode: color-burn;"></path>
                    <path d="M138.021939,170.44 C138.021939,170.44 124,197.51014 124,224.93221 C124,224.93221 133.998666,238.172419 157.428873,226.882097 C157.823343,226.6893 158.049759,226.265735 157.990703,225.83106 L151.363016,178.3632 L138.021939,170.44 Z" id="Path" fill="#DFDFDF" fill-rule="nonzero"></path>
                    <path d="M144,175.44 L144,231.296766 C143.991623,233.387129 142.912529,235.331027 141.133197,236.461075 C139.353864,237.591123 137.116497,237.753498 135.189236,236.892452 C127.99402,233.68947 119,225.929864 119,207.059915 L144,175.44 Z" id="Path" fill="#0A4166" fill-rule="nonzero"></path>
                    <path d="M225.66042,200.586401 L222.867583,202.343761 C222.353585,202.667781 221.768125,202.863853 221.161116,202.91526 L212.441311,203.653447 L206,210.44 L222.117699,206.387118 C222.720471,206.237513 223.351181,206.237513 223.953953,206.387118 L226.741983,207.068155 C226.961373,207.12255 227.192716,207.104147 227.400535,207.015767 L237.865262,202.524736 C237.959804,202.473351 238.012434,202.369408 237.997483,202.263604 C237.982533,202.1578 237.903115,202.072173 237.797965,202.048487 L226.357427,200.453051 C226.116487,200.414572 225.869577,200.461811 225.66042,200.586401 L225.66042,200.586401 Z" id="Path" fill="#C0D0D8" fill-rule="nonzero"></path>
                    <path d="M227.57321,202.44 L223.953322,205.453393 L217.986164,206.373036 L215.327809,204.529286 L210.09594,206.315 L206,210.44 L221.804014,206.640893 C222.395078,206.500839 223.013466,206.500839 223.604531,206.640893 L226.3383,207.279286 C226.553959,207.328539 226.780701,207.309728 226.984035,207.225714 L237,203.118571 L227.57321,202.44 Z" id="Path" fill="url(#linearGradient-8)" fill-rule="nonzero" opacity="0.49" style="mix-blend-mode: color-burn;"></path>
                    <path d="M187.045703,205.997912 C187.045703,205.997912 127.370102,210.995131 120.583166,211.988976 C110.683176,213.435417 106.386685,227.63853 124.219025,227.437895 C136.500145,227.297917 200.020726,213.080805 212.748605,209.506697 C214.561772,209.019597 215.863522,207.460958 215.994738,205.619971 C216.056523,204.439489 215.590753,203.403651 213.718168,203.440979 C209.44544,203.5203 187.045703,205.997912 187.045703,205.997912 Z" id="Path" fill="#39CE9C" fill-rule="nonzero"></path>
                    <g id="Group" opacity="0.49" style="mix-blend-mode: color-burn;" transform="translate(112.000000, 209.440000)" fill="url(#linearGradient-9)" fill-rule="nonzero">
                        <path d="M23.3406154,5.92615385 C22.3247692,1.61538462 28.7250769,0.54 30.9284615,0.3 C20.3264615,1.22307692 11.3746154,2.07230769 8.99,2.41846154 C-0.944307692,3.84923077 -5.25569231,17.8984615 12.6384615,17.7 C14.8126154,17.6123363 16.9798013,17.4043037 19.1293846,17.0769231 L24.5710769,13.6846154 C24.5710769,13.6846154 24.5615385,11.1184615 23.3406154,5.92615385 Z" id="Path"></path>
                    </g>
                    <path d="M170.14173,206.864528 C158.666082,208.817358 158,221.430566 158,221.44 C168.509828,219.28434 179.74759,216.822075 189.401027,214.605094 C189.324903,214.605094 180.451734,216.128679 180.237636,212.944717 C180.023538,209.760755 196,205.19 196,205.19 L196,204.44 C190.871166,204.982453 186.651058,205.449434 186.651058,205.449434 C186.651058,205.449434 179.619131,206.043774 170.14173,206.864528 Z" id="Path" fill="url(#linearGradient-10)" fill-rule="nonzero" opacity="0.49" style="mix-blend-mode: color-burn;"></path>
                    <path d="M133.15897,215.44 L136.85983,222.627319 C137.116041,223.125998 137.014656,223.726788 136.607728,224.121231 L132.392579,228.203939 C132.135407,228.458065 131.73326,228.513398 131.41275,228.338758 C131.09224,228.164118 130.933584,227.803214 131.026185,227.459417 C131.260889,226.52745 131.643568,225.636135 132.160645,224.817092 C132.829231,223.80694 133.07272,222.588445 132.841321,221.410779 L132.599303,220.252633 L133.15897,215.44 Z" id="Path" fill="#F9AA8F" fill-rule="nonzero"></path>
                    <path d="M186.03211,202.520646 C186.03211,202.520646 187.53211,202.700612 190.711009,199.614857 C190.940272,199.394119 191.308919,199.380699 191.555046,199.584131 L197,204.074497 C197,204.074497 197,205.435214 195.986239,205.044557 C195.348624,204.803139 193.761468,204.166675 192.66055,203.727734 C191.967248,203.453698 191.178475,203.515779 190.541284,203.894532 C189.247706,204.662678 187.013761,205.821482 186,205.3167 L186.03211,202.520646 Z" id="Path" fill="#F9AA8F" fill-rule="nonzero"></path>
                    <polygon id="Path" fill="#F9AA8F" fill-rule="nonzero" points="138 170.312812 145.019486 161.44 149.990647 161.44 150 177.44"></polygon>
                    <path d="M150,168.242095 C150,168.242095 146.691143,167.939418 146.668196,170.756647 C146.64525,173.573877 145.126205,174.44 145.126205,174.44 L140,169.676321 L142.409362,166.44 C144.826314,167.455045 147.390116,168.063718 150,168.242095 L150,168.242095 Z" id="Path" fill="url(#linearGradient-11)" fill-rule="nonzero" opacity="0.49" style="mix-blend-mode: color-burn;"></path>
                    <path d="M151,178.44 C151,178.44 147.111782,176.533261 145.50642,173.025445 C143.901057,169.517628 139.654456,169.44 139.654456,169.44 L138,171.438922 L143.581949,175.61628" id="Path" fill="#DFDFDF" fill-rule="nonzero"></path>
                    <path d="M127.766202,204.37476 L132.278472,214.991195 L131.754558,219.668101 C126.241659,222.88377 121.748268,223.096571 118.236626,221.356327 C118.203587,221.356327 118.165827,221.356327 118.137507,221.285393 C110.009757,217.199603 103.505668,208.124797 106.93707,204.370031 L137.730013,170.44 C139.735991,170.44 141.104776,170.974368 141.907167,171.858677 C147.09911,177.533386 132.306792,198.255532 128.601633,203.244547 C128.077718,203.972802 127.766202,204.37476 127.766202,204.37476 Z" id="Path" fill="#2F5C63" fill-rule="nonzero"></path>
                    <path d="M162.837879,157.772146 L162.208528,157.00545 C161.606317,156.26994 161.30747,155.334088 161.372524,154.387462 L161.907943,146.44 C148.325229,146.44 145,162.998771 145,162.998771 L149.99254,167.44 C160.588184,167.44 161.63084,162.297524 161.438278,159.567337 C162.123127,159.563692 162.730332,159.128222 162.950599,158.482743 C163.045156,158.243045 163.002031,157.971184 162.837879,157.772146 Z" id="Path" fill="#F9AA8F" fill-rule="nonzero"></path>
                    <path d="M159.196027,148.44 L154.491375,149.256523 C154.24046,149.419827 153.995818,149.589536 153.757449,149.765648 L153,168.44 C154.202369,168.333062 155.390032,168.094747 156.542603,167.729145 C156.768427,165.903977 155.56874,157.335293 158.27862,156.201768 C161.186095,155.005802 162,151.619635 162,151.619635 L159.196027,148.44 Z" id="Path" fill="url(#linearGradient-12)" fill-rule="nonzero" opacity="0.49" style="mix-blend-mode: color-burn;"></path>
                    <polygon id="Path" fill="#142B2E" fill-rule="nonzero" points="126 303.44 138 303.44 130.932959 299.238446 133.153754 292.44 127.16098 292.44"></polygon>
                    <polygon id="Path" fill="#142B2E" fill-rule="nonzero" points="157.674595 302.44 170 302.44 161.731532 297.617317 162.064144 291.44 157 291.654135"></polygon>
                    <path d="M156.531263,191.125946 C151.728183,182.385699 151.98454,182.115879 151.549216,178.984037 C151.113891,175.852196 145,187.088279 145,191.125946 C145,195.163612 147.578089,198.44 150.760795,198.44 C153.943501,198.44 158.475713,194.672154 156.531263,191.125946 Z" id="Path" fill="#DFDFDF" fill-rule="nonzero"></path>
                    <path d="M164.606791,148.342776 C164.87746,148.601166 165.020429,148.965448 164.997637,149.338647 C164.974845,149.711845 164.788605,150.056086 164.488497,150.279728 C162.71408,151.602524 160.087943,152.485963 156.586427,153.624513 C152.801004,154.862272 156.671599,173.310558 153.406671,170.055534 C144.827957,161.490427 145.23489,169.110679 138,161.896715 C138,161.896715 141.392685,157.791321 141.392685,153.459163 C141.392685,143.131903 150.562872,135.147882 164.606791,148.342776 Z" id="Path" fill="#071C2A" fill-rule="nonzero"></path>
                    <path d="M161.445512,160.390895 C162.091891,160.400868 162.690823,160.081125 163,159.561023 C162.542301,159.852111 161.935373,159.852111 161.477673,159.561023 C160.754032,159.114169 160.941643,160.017698 161.450872,160.44 L161.445512,160.390895 Z" id="Path" fill="url(#linearGradient-13)" fill-rule="nonzero" opacity="0.49" style="mix-blend-mode: color-burn;"></path>
                    <path d="M148.688559,198.932311 C143.120451,200.146552 143.391465,203.279478 143.120451,205.128645 C142.849437,206.977813 143.120451,219.44 143.120451,219.44 C143.120451,219.44 143.46045,211.389863 149.846528,209.600944 C154.739565,208.210592 155.08942,205.003514 154.985941,203.576086 L154.074349,197.44 C153.527393,197.694898 152.167395,198.172252 148.688559,198.932311 Z" id="Path" fill="url(#linearGradient-14)" fill-rule="nonzero" opacity="0.49" style="mix-blend-mode: color-burn;"></path>
                    <path d="M126.985331,222.44 C128.920625,221.916212 130.773591,221.10446 132.487229,220.029716 L133,215.262175 L128.5837,204.44 C128.5837,204.44 124.458432,212.861532 116.000015,210.870637 C116.000015,210.870637 115.9492,216.067209 121.74213,216.448034 C127.535059,216.828859 129.923372,221.446963 126.985331,222.44 Z" id="Path" fill="url(#linearGradient-15)" fill-rule="nonzero" opacity="0.49" style="mix-blend-mode: color-burn;"></path>
                    <path d="M313.204476,152.566271 C313.204476,152.566271 310.992949,150.836526 304.889707,151.473556 C298.786466,152.110585 293.453909,148.971935 295.411733,151.33406 C297.369557,153.696185 301.184681,153.561339 301.184681,153.561339 C301.184681,153.561339 305.579015,159.759592 310.552558,158.183292 C315.526101,156.606992 316,156.132707 316,156.132707" id="Path" fill="#C17768" fill-rule="nonzero"></path>
                    <path d="M375,158.317795 C375,158.317795 363.854698,164.261629 330.499349,156.195342 C330.499349,156.195342 315.112957,153.091072 312.814712,152.508721 C310.516467,151.92637 310.22741,155.194275 312.956872,156.686249 C315.686333,158.178224 351.861178,178.213995 370.583579,176.312931" id="Path" fill="#633A30" fill-rule="nonzero"></path>
                    <path d="M348.252166,165.360417 C344.416998,159.863941 335,157.44 335,157.44 L335,157.44 C364.875907,163.987481 375,158.614096 375,158.614096 L370.635683,176.315494 C365.287989,176.855199 358.502693,175.591152 351.492625,173.474938 C345.161555,170.951577 352.096699,170.852158 348.252166,165.360417 Z" id="Path" fill="url(#linearGradient-16)" fill-rule="nonzero" opacity="0.49" style="mix-blend-mode: color-burn;"></path>
                    <path d="M364.892937,160.44 C364.892937,160.44 361.821735,163.889793 363.503253,170.682301 C365.18477,177.474809 365.708218,175.202881 366.185343,182.973063 C366.662468,190.743245 374,177.675 374,177.675" id="Path" fill="#633A30" fill-rule="nonzero"></path>
                    <polygon id="Path" fill="#C17768" fill-rule="nonzero" points="330.235226 283.44 327 295.070919 328.640788 295.44 335 284.51325"></polygon>
                    <polygon id="Path" fill="#2B1915" fill-rule="nonzero" points="329 292.94 326.655252 298.44 313 296.897944 326.873476 292.44"></polygon>
                    <path d="M422,155.435078 C422,155.435078 422.887263,144.44 429.912238,144.44 C434.465553,144.44 437.322344,151.586309 432.49115,151.586309 C432.49115,151.586309 426.899445,151.315615 425.456424,155.44 L422,155.435078 Z" id="Path" fill="#C17768" fill-rule="nonzero"></path>
                    <path d="M368.193802,209.44 C368.193802,209.44 364.099496,241.530847 393.54845,293.44 L402,293.188475 L392.398101,255.11322 L396.652047,210.189831 L368.193802,209.44 Z" id="Path" fill="url(#linearGradient-17)" fill-rule="nonzero"></path>
                    <path d="M396.951255,210.075275 C396.951255,210.075275 399.597062,233.307506 365.903322,244.243642 L338.060703,286.44 L330,283.790669 C330,283.790669 347.377928,232.498119 371.052689,209.44 L396.951255,210.075275 Z" id="Path" fill="#027F8A" fill-rule="nonzero"></path>
                    <path d="M376.744206,226.120912 C376.314059,215.199734 367.370796,213.400114 367.328254,213.395366 L367.328254,213.395366 L375.297779,209.44 L396.951632,209.962317 C396.951632,209.962317 399.584505,233.404862 366,244.44 L366,244.44 C366,244.44 377.174352,237.070579 376.744206,226.120912 Z" id="Path" fill="url(#linearGradient-18)" fill-rule="nonzero"></path>
                    <path d="M374,157.367434 C374,157.367434 369.550356,157.674071 369.550356,146.44 L365,152.015221 L366.149034,167.44 L374,157.367434 Z" id="Path" fill="#C17768" fill-rule="nonzero"></path>
                    <path d="M355.72831,146.185601 L359.893358,142.610151 C360.459459,142.124551 360.920051,141.528302 361.246761,140.858133 L363.057652,137.139855 L363.391237,136.44 L375,146.376038 L365.626257,159.44 L357.953799,156.283511 C357.040566,155.904299 356.322585,155.168048 355.96696,154.246111 C355.611335,153.324174 355.649086,152.296969 356.071426,151.403569 L356.390714,150.727518 L355.251759,148.685084 C354.783061,147.846681 354.983925,146.793163 355.72831,146.185601 Z" id="Path" fill="#C17768" fill-rule="nonzero"></path>
                    <path d="M361.500807,142.439422 C363.831922,144.025905 367.167985,144.963574 372,144.128115 L364.162316,138.06215 L362.941693,137.44 L361.10617,141.061803 C360.870604,141.552559 361.037835,142.136336 361.500807,142.439422 L361.500807,142.439422 Z" id="Path" fill="url(#linearGradient-19)" fill-rule="nonzero" opacity="0.49" style="mix-blend-mode: color-burn;"></path>
                    <polygon id="Path" fill="#2B1915" fill-rule="nonzero" points="403.779313 298.44 405 302.44 394 302.44 402.286851 298.44"></polygon>
                    <polygon id="Path" fill="#C17768" fill-rule="nonzero" points="402.506912 292.44 404 298.44 402.506912 298.44 398 292.44"></polygon>
                    <path d="M361.85463,210.901047 C366.27106,219.088088 396.99467,210.505745 396.99467,210.505745 C397.065118,203.253547 396.437024,196.011324 395.119004,188.878429 C394.723212,186.674438 394.208898,184.493171 393.578278,182.344037 C387.214409,160.035659 374.084742,157.44 374.084742,157.44 L365.878701,167.775009 C369.390791,208.991214 357.854484,203.480797 361.85463,210.901047 Z" id="Path" fill="#633A30" fill-rule="nonzero"></path>
                    <path d="M374.083501,201.692591 C367.558603,198.770019 393.026288,197.361092 383.657818,187.503359 C374.289348,177.645627 377.013242,168.44 377.013242,168.44 L391.69067,175.984426 C392.36566,177.693226 392.997565,179.554343 393.576811,181.577296 C394.207051,183.718921 394.721608,185.892537 395.118276,188.088826 C396.43571,195.211296 397.0641,202.442848 396.994842,209.684447 C396.994842,209.684447 386.276394,212.673658 376.587185,213.44 C387.549778,212.173869 380.608398,204.615164 374.083501,201.692591 Z" id="Path" fill="url(#linearGradient-20)" fill-rule="nonzero" opacity="0.49" style="mix-blend-mode: color-burn;"></path>
                    <path d="M390.257622,165.363724 C408.489987,181.727943 422.716579,153.44 422.716579,153.44 L426,153.501806 C415.272596,190.309411 389.596248,185.198564 389.596248,185.198564 L389.596248,185.198564 C383.331828,185.189342 377.984444,180.60846 376.931625,174.349306 L374,156.977181 C374,156.977181 382.142883,157.124564 390.257622,165.363724 Z" id="Path" fill="#633A30" fill-rule="nonzero"></path>
                    <path d="M399,184.44 C399.052316,184.44 408.107803,180.669284 402.947507,179.528642 C397.787212,178.388001 409.572662,173.990403 412.302625,170.19612 C415.032588,166.401837 412.302625,166.397123 412.302625,166.397123 L412.302625,166.397123 C418.937291,161.415065 423.036991,153.44 423.036991,153.44 L426,154.698477 C419.298749,175.908755 407.384886,182.531075 399,184.44 Z" id="Path" fill="url(#linearGradient-21)" fill-rule="nonzero" opacity="0.49" style="mix-blend-mode: color-burn;"></path>
                    <path d="M416.421244,121.118951 C416.421244,121.118951 414.731446,143.183981 437.420307,149.228742 C460.109167,155.273503 459.999995,176.290963 459.999995,176.290963 C459.999995,176.290963 449.187187,171.133333 442.798231,179.617705 C436.409276,188.102077 435.080221,187.427291 435.080221,187.427291 C435.080221,187.427291 438.094327,167.216743 415.310534,162.549867 C392.526741,157.88299 389,123.855845 389,123.855845 C389,123.855845 395.170611,133.477444 403.301577,124.544788 C411.432543,115.612131 416.421244,121.118951 416.421244,121.118951 Z" id="Path" fill="#3D6FD3" fill-rule="nonzero"></path>
                    <path d="M410.044425,143.83629 C428.156971,144.470529 439.083869,149.248787 439.917875,149.53491 C460.098945,156.420941 459.999995,176.172978 459.999995,176.172978 C459.999995,176.172978 449.266286,170.960767 442.924068,179.534926 C436.581849,188.109084 435.262517,187.427157 435.262517,187.427157 C435.262517,187.427157 438.254574,167.00273 415.637451,162.286466 C397.303446,158.47149 391.531368,135.142914 390,126.44 C391.220382,132.36275 395.913435,143.340343 410.044425,143.83629 Z" id="Path" fill="url(#linearGradient-22)" fill-rule="nonzero" opacity="0.49" style="mix-blend-mode: color-burn;"></path>
                    <path d="M355.142924,149.534391 C355.785277,150.778443 356.758886,151.817801 357.954681,152.536028 C359.960401,153.748953 362.59408,154.560716 364.834113,149.44 L366.708618,150.855866 C366.708618,150.855866 368.967396,158.374116 360.907026,164.013983 C352.846656,169.653851 347.316867,164.641684 351.351738,157.354692 C355.38661,150.067701 355.142924,149.534391 355.142924,149.534391 Z" id="Path" fill="#071C2A" fill-rule="nonzero"></path>
                    <path d="M367.072844,151.083356 C367.072844,151.083356 366.081586,148.301793 367.269226,145.888586 C368.456865,143.475379 371.524155,144.245149 371.612995,147.168389 C371.70651,150.186078 369.349933,149.812999 369.349933,149.812999 C369.349933,149.812999 370.17754,153.411558 370.425355,153.439893 C370.67317,153.468228 375.101102,147.843709 374.998235,146.445843 C374.895369,145.047978 366.114316,137.44 366.114316,137.44 L360.227551,137.525005 C359.615799,139.328261 360.267538,141.322339 361.821981,142.403367 C364.519887,144.410438 366.371482,146.932263 365.160464,149.808276" id="Path" fill="#071C2A" fill-rule="nonzero"></path>
                    <path d="M374.319826,147.342151 C374.420319,147.420728 374.548098,147.454104 374.673446,147.434517 C374.798795,147.414931 374.910788,147.344088 374.98338,147.238466 C375.725817,146.069652 377.373101,142.426535 373.698034,137.049048 C367.489399,127.967176 364.635654,134.650152 362,137.327113 L374.319826,147.342151 Z" id="Path" fill="#343A19" fill-rule="nonzero"></path>
                    <path d="M362.140669,136.597448 L355.589606,132.499077 C355.452045,132.413984 355.271021,132.421422 355.142083,132.517465 C355.013145,132.613508 354.965965,132.776054 355.025446,132.919307 C356.139175,135.553651 360.005616,142.44 370,142.44 L362.140669,136.597448 Z" id="Path" fill="#646D31" fill-rule="nonzero"></path>
                    <path d="M377.228332,181.44 C377.228332,181.44 365.806077,175.637883 366.002505,167.91116 C366.198932,160.184438 369.931053,153.787958 374.409598,153.457756 C379.104214,153.113403 377.847078,157.891894 377.847078,157.891894 L374.409598,161.401468 L376.187266,169.69425" id="Path" fill="#633A30" fill-rule="nonzero"></path>
                    <path d="M372.931011,166.44 C372.931011,166.44 369.24684,161.479223 372.056142,158.457962 C374.865444,155.436701 378.739171,155.822698 375.881265,153.44 C378.797495,154.111921 377.854581,157.833695 377.854581,157.833695 C377.854581,157.833695 370.607748,156.732889 372.931011,166.44 Z" id="Path" fill="url(#linearGradient-23)" fill-rule="nonzero" opacity="0.49" style="mix-blend-mode: color-burn;"></path>
                    <path d="M427.387365,144.059655 C430.52118,142.289566 433.107031,144.874381 433.107031,144.874381 L435,148.176931 C433.188546,149.423267 428.967858,145.829744 426.685426,145.950983 C424.402994,146.072222 424.253549,145.829744 427.387365,144.059655 Z" id="Path" fill="#C17768" fill-rule="nonzero"></path>
                </g>
            </g>
        </g>
    </g>
</svg>