<svg width="460" height="246" xmlns="http://www.w3.org/2000/svg"><defs><linearGradient x1="49.992%" y1="100%" x2="49.992%" y2="-.078%" id="a"><stop stop-color="gray" stop-opacity=".25" offset="0%"/><stop stop-color="gray" stop-opacity=".12" offset="54%"/><stop stop-color="gray" stop-opacity=".1" offset="100%"/></linearGradient></defs><g fill="none" fill-rule="evenodd"><path d="M424.744 194.434a442.382 442.382 0 0 1-1.533 3.272c-.795 1.672-1.58 3.31-2.355 4.918-.344.711-.689 1.41-1.025 2.109a655.117 655.117 0 0 1-10.359 20.293 32.337 32.337 0 0 1-28.19 17.114l-66.993.73h-.707l-5.743.061-4.912.053-15.064.164h-.61l-7.669.084h-.234l-47.269.513-42.193.442-4.908.053-30.482.332h-.035l-19.77.212h-.211l-62.51.677-18.7.203a38.87 38.87 0 0 1-11.782-1.69 38.16 38.16 0 0 1-17.268-10.944c-8.032-8.857-13.885-19.192-17.817-30.406a104.078 104.078 0 0 1-1.59-4.918C-8.795 151.65 7.797 92.23 37.66 52.466a152.821 152.821 0 0 1 3.817-4.865l.03-.035C50.693 36.28 60.99 26.852 71.96 20.148c19.438-11.9 40.974-15.252 62.156-5.262 17.923 8.455 34.657 12.43 50.878 13.51 1.64.106 3.278.185 4.908.234 37.21 1.172 72.083-12.25 113.035-20.912 1.63-.345 3.264-.686 4.912-1.008C337.062.89 369.47-2.18 408.01 4.273c4.004.655 7.955 1.6 11.821 2.83 1.7.548 3.337 1.138 4.913 1.769 18.395 7.491 28.427 21.332 32.69 38.676.404 1.61.753 3.247 1.047 4.913 7.559 41.718-14.578 100.895-33.737 141.973z" fill="#3C83E9" fill-rule="nonzero" opacity=".1"/><g opacity=".1" fill="#3C83E9" fill-rule="nonzero"><path d="M71.526 19.376v224.722l-18.695.203a38.95 38.95 0 0 1-11.778-1.685v-195.9h.031c9.182-11.267 19.476-20.668 30.442-27.34z"/><path d="M457.956 51.601H37.237a152.444 152.444 0 0 1 3.816-4.85v-.035H456.91a69.333 69.333 0 0 1 1.047 4.885z"/><path d="M424.206 8.136v188.29h-1.532a1048.04 1048.04 0 0 1-2.354 4.903c-.345.71-.69 1.407-1.025 2.104V6.355a69.67 69.67 0 0 1 4.911 1.781zM307.345 5.962v235.583l-4.91.053V6.968c1.629-.344 3.263-.684 4.91-1.006zM189.433 27.82v215.003l-4.906.053V27.586c1.638.107 3.277.168 4.906.234z"/><path d="M422.674 196.43c-.795 1.667-1.58 3.301-2.354 4.904H5.992a103.595 103.595 0 0 1-1.59-4.904h418.272z"/></g><path fill="#3F3D56" fill-rule="nonzero" d="M94 118.667h8v25h-8zM319 115.667h8v27h-8z"/><path fill="#65617D" fill-rule="nonzero" d="M381 236.007v5.629l-67.03.606-.714.013-25.476.23-.609.008-7.743.065h-.23l-47.2.429-77.483.705h-.066l-19.7.182-.212.005-87.537.788v-6.495l20.583-12.124 41.297-.338.883-.004.291-.004.883-.013 19.828-.16.887-.005.282-.004.882-.004 6.358-.052.168-.005 15.685-.13h.128l122.393-1.013 2.996-.021h.3l2.286-.022 16.611-.134.883-.013.816-.009h.424l5.166-.039 1.024-.013 1.372-.009 4.302-.039 6.826-.056.882-.009 1.535-.008h.287l32.963-.277z"/><path fill="#000" fill-rule="nonzero" opacity=".2" d="M381 236.007v5.629l-67.03.606-.714.013-25.476.23-.609.008-7.743.065h-.23l-47.2.429-77.483.705h-.066l-19.7.182-.212.005-87.537.788v-6.495l20.583-12.124 41.297-.338.883-.004.291-.004.883-.013 19.828-.16.887-.005.282-.004.882-.004 6.358-.052.168-.005 15.685-.13h.128l122.393-1.013 2.996-.021h.3l2.286-.022 16.611-.134.883-.013.816-.009h.424l5.166-.039 1.024-.013 1.372-.009 4.302-.039 6.826-.056.882-.009 1.535-.008h.287l32.963-.277z"/><path d="M131 213.667v10.929a2.736 2.736 0 0 1-1.558 2.472c-.348.169-.727.26-1.113.268l-15.538.33a2.666 2.666 0 0 1-1.202-.254 2.732 2.732 0 0 1-1.589-2.486v-11.26h21z" fill="#3F3D56" fill-rule="nonzero"/><path d="M131 213.667v10.929a2.736 2.736 0 0 1-1.558 2.472c-.348.169-.727.26-1.113.268l-15.538.33a2.666 2.666 0 0 1-1.202-.254 2.732 2.732 0 0 1-1.589-2.486v-11.26h21z" fill="#000" fill-rule="nonzero" opacity=".1"/><path d="M132 213.667v10.929a2.736 2.736 0 0 1-1.558 2.472c-.348.169-.727.26-1.113.268l-15.538.33a2.666 2.666 0 0 1-1.202-.254 2.732 2.732 0 0 1-1.589-2.486v-11.26h21zM301 213.667h21v14h-21z" fill="#3F3D56" fill-rule="nonzero"/><path fill="#000" fill-rule="nonzero" opacity=".1" d="M301 213.667h21v14h-21z"/><path fill="#3F3D56" fill-rule="nonzero" d="M300 213.667h21v14h-21z"/><path fill="#000" fill-rule="nonzero" opacity=".1" d="M102 116.667v3l-8-.257v-2.743z"/><path d="M156.982 46.338l-10.067 72.684a1.899 1.899 0 0 1-1.927 1.644l-80.607-2.1-1.53-.04a1.892 1.892 0 0 1-1.397-.668 1.912 1.912 0 0 1-.437-1.49L72.318 40.28a1.898 1.898 0 0 1 2.002-1.609l80.898 5.505c.527.03 1.018.282 1.353.692.335.411.484.944.41 1.47z" fill="#65617D" fill-rule="nonzero"/><path fill="#3C83E9" fill-rule="nonzero" d="M77.504 44.667L69 111.319l73.91 2.348L152 49.362z"/><rect fill="#65617D" fill-rule="nonzero" x="170" y="41.667" width="90" height="78" rx="5.33"/><path fill="#3C83E9" fill-rule="nonzero" d="M174 48.667h82v64h-82z"/><path fill="#000" fill-rule="nonzero" opacity=".1" d="M327 116.667v1.813l-8 .187v-2z"/><path d="M364.997 115.498c.024.37-.103.736-.352 1.01a1.348 1.348 0 0 1-.966.443l-82.23 1.715a1.357 1.357 0 0 1-1.375-1.236l-7.068-74.13a1.373 1.373 0 0 1 .324-1.023c.243-.282.59-.452.959-.47l81.607-4.094.878-.044a1.353 1.353 0 0 1 1.415 1.24l6.808 76.589z" fill="#65617D" fill-rule="nonzero"/><path fill="#3C83E9" fill-rule="nonzero" d="M278 45.356l74.692-3.69L359 108.898l-74.102 1.77z"/><path d="M364.997 114.218c.024.37-.102.734-.348 1.007-.245.273-.59.433-.955.442L356 36.713l.868-.044a1.34 1.34 0 0 1 1.399 1.236l6.73 76.313zM74 38.672l-9.703 79.995-1.492-.04a1.827 1.827 0 0 1-1.362-.668 1.95 1.95 0 0 1-.427-1.493l11.02-76.179c.145-.985 1-1.689 1.964-1.615zM94 135.667h8v8h-8zM132 213.667v2.393l-21 .607v-3z" fill="#000" fill-rule="nonzero" opacity=".1"/><path d="M168 138.41v74.261a1.765 1.765 0 0 1-1.698 1.744l-84.538 2.252h-.022A1.765 1.765 0 0 1 80 214.923V138.41a1.765 1.765 0 0 1 1.742-1.744h84.516c.957.012 1.73.785 1.742 1.744z" fill="#65617D" fill-rule="nonzero"/><path d="M82 136.667v80h-.025c-1.085-.012-1.962-.786-1.975-1.744V138.41c.013-.959.89-1.732 1.975-1.744H82z" fill="#000" fill-rule="nonzero" opacity=".1"/><path fill="#D4DFEC" fill-rule="nonzero" d="M86 141.667h78v65.24l-78 1.76z"/><path fill="#000" fill-rule="nonzero" opacity=".1" d="M319 135.667h8v8h-8zM321 213.667v3l-21-.59v-2.41z"/><path d="M348 138.41v76.513a1.765 1.765 0 0 1-1.764 1.744l-84.538-2.252a1.765 1.765 0 0 1-1.698-1.744v-74.26a1.765 1.765 0 0 1 1.742-1.744h84.498a1.765 1.765 0 0 1 1.76 1.744z" fill="#65617D" fill-rule="nonzero"/><path d="M348 138.41v76.513c-.014.966-.905 1.744-2 1.744v-80c1.095 0 1.986.777 2 1.744z" fill="#000" fill-rule="nonzero" opacity=".1"/><path fill="#D4DFEC" fill-rule="nonzero" d="M342 141.667h-78v65.24l78 1.76z"/><path d="M258 138.41v74.261a1.765 1.765 0 0 1-1.698 1.744l-84.538 2.252a1.765 1.765 0 0 1-1.764-1.744V138.41a1.765 1.765 0 0 1 1.742-1.744h84.516c.957.012 1.73.785 1.742 1.744z" fill="#65617D" fill-rule="nonzero"/><path fill="#D4DFEC" fill-rule="nonzero" d="M175 141.667h78v65.24l-78 1.76z"/><path fill="#000" fill-rule="nonzero" opacity=".1" d="M381 235.667v5.85l-67.03.63-.714.013-25.476.239-.609.009-7.743.067h-.23l-47.2.446-77.483.733h-.066l-19.7.19-.212.004-87.537.819v-6.75l89.35-.599h.212l18.086-.126h.084l124.899-.841h.128l.075-.005h.207l2.114-.013h.644l32.866-.225 1.941-.01.433-.004z"/><circle fill="#FBBEBE" fill-rule="nonzero" cx="215.5" cy="120.167" r="22.5"/><path d="M134 244.512c0-.049.026-.102.044-.155.442-1.588 1.228-4.274 1.815-6.42.075-.265.145-.526.212-.774.649-2.42 1.911-8.088 2.613-11.623.248-1.243.442-2.212.482-2.699.088-.747 1.417-3.946 2.922-7.623 1.055-2.584 2.208-5.406 3.05-7.787a27.2 27.2 0 0 0 1.295-4.358c.066-.31.066-.631 0-.942a6.512 6.512 0 0 1-.212-1.549c-.102-2.743.715-7.078 1.978-8.897 1.545-2.212 2.648-10.468 2.648-10.468s2.287.332 2.65-1.562c.038-.204.053-.412.044-.62-.001-.164-.015-.328-.04-.49-.393-2.761 6.499-5.699 10.375-6.331.438-.076.88-.117 1.325-.124a12.005 12.005 0 0 0 2.759-.637c.412-.127.853-.275 1.324-.443 1.625-.548 3.568-1.274 5.63-2.07 7.752-3.013 17.138-7.08 17.138-7.08.067-.314.142-.614.225-.91a12.252 12.252 0 0 1 7.219-8.376v-.885c0-1.526-.066-3.097-.133-4.663 0-.306-.026-.61-.044-.916v-.27-.23c0-.31-.03-.62-.048-.925l-.08-.062a7.254 7.254 0 0 1-1.722-1.858 6.762 6.762 0 0 1-.626-1.327c-.552-1.5-.68-3.172-1.051-4.756l-.08-.328a37.214 37.214 0 0 0-1.766-4.68c-.975-2.399-1.726-4.868-2.472-7.367-.453-1.513-.911-3.03-1.373-4.549l-.698-2.318c-.132-.442-.265-.885-.366-1.327a5.882 5.882 0 0 1-.115-.62 4.433 4.433 0 0 1 .106-2.04c.172-.451.366-.894.583-1.327.092-.196.166-.4.22-.61a1.33 1.33 0 0 0 .036-.142c.031-.157.048-.317.048-.477a8.184 8.184 0 0 0-.23-1.722.031.031 0 0 1 0-.022 11.296 11.296 0 0 1-.181-1.447 12.61 12.61 0 0 1 1.533-6.888l.084-.16c.243-.427.515-.838.812-1.23.137-.185.278-.362.442-.54-.619.594-1.634.333-2.208-.304a1.597 1.597 0 0 1-.243-.332 1.687 1.687 0 0 1-.101-.2c-.022-.052-.04-.11-.058-.167-.309-1.084.23-2.24.936-3.12a8.167 8.167 0 0 1 2.535-2.08 7.55 7.55 0 0 1 1.342-.562v.001c.236-.078.476-.143.72-.195l-1.639-.15-.662-.062a6.401 6.401 0 0 1 5.74-4.827h.476c.232.004.464.023.694.058a1.965 1.965 0 0 1-1.17-1.916 6.353 6.353 0 0 0 4.057 1.354h.168a13.3 13.3 0 0 1-.15-1.447 14.716 14.716 0 0 1 0-1.973 3.721 3.721 0 0 0 2.993 1l-.918-1.284a4.184 4.184 0 0 0 2.896.907l.212-.022c.177-.018.353-.052.525-.101h.04a4.464 4.464 0 0 1-.234-.332l-.027-.053c-.183-.29-.331-.6-.441-.925a2.92 2.92 0 0 1-.106-.385 3.879 3.879 0 0 1 .199-2.411c1.426 1.194 2.988 2.827 4.856 1.593 1.868-1.235 1.93-3.5 4.856-3.27a4.504 4.504 0 0 1 3.713 2.708 2.976 2.976 0 0 1 3.387-.775 3.032 3.032 0 0 1 1.713 3.049c1.214-.306 2.52-.606 3.686-.146 1.166.46 1.916 1.95 1.254 2.946a.633.633 0 0 1-.062.089c-.543.703-1.744 1.088-1.616 1.973l.186.133.574.416a114.544 114.544 0 0 1 6.578 5.132c1.095.92 2.26 2.026 2.336 3.464a3.83 3.83 0 0 1-.106 1.049c-.071.345-.168.69-.243 1.035a8.65 8.65 0 0 0-.15 2.677c.03.26.07.517.119.779.675 3.42 3.404 6.242 3.673 9.733v.248c.016.373.006.747-.03 1.12-.204 2.123-1.184 4.163-1.979 6.193-.048.124-.097.248-.141.372-1.532 3.982-2.415 8.225-3.09 12.459a44.442 44.442 0 0 1-.883 4.464 11.837 11.837 0 0 1-2.248 4.615c-.43.51-.93.956-1.483 1.327-.373.239-.764.448-1.17.624v.026c.049.27.088.54.137.81.026.142.048.283.075.442a.062.062 0 0 0 0 .027c.37 2.093.795 4.141 1.24 6.088l.226.969c5.563 2.013 6.22 6.136 6.26 7.716.016.21.016.422 0 .633 0 0 8.388.22 11.7 2.654a8.973 8.973 0 0 0 1.99 1.018c1.336.505 2.7.932 4.085 1.278.71.186 1.452.368 2.207.545 1.325.305 2.729.601 4.084.884 3.616.73 7.02 1.328 8.746 1.77 4.12 1.044 13.54 10.097 13.54 10.097s1.104 9.131 2.208 10.463c1.104 1.332 3.09 6.013 3.09 6.013l7.303 13.012 3.09 5.473h1.987c.274 0 .813.39 1.417.929a31.964 31.964 0 0 1 1.62 1.584l.848.907.53.588s3.21.08 4.08 2.624c2.613-.075 5.823.097 8.07 1.106.307.135.602.295.883.478a3.84 3.84 0 0 1 1.824 2.504c.044.21.071.423.079.637v.752c-.159 3.35-2.336 6.137-4.335 8.013l.14.252s-.065.16-.193.442c-.036.084-.08.177-.129.283-.26.558-.675 1.394-1.218 2.372a28.008 28.008 0 0 1-4.225 5.827l-.128.133-25.492.234-.075-.088-4.945-5.911-2.46-2.938-.074-.093-.07.703-.24 2.345-.573 5.668-.031.283v.075l-.066.655.048-.655h-.128l-47.24.443-77.535.858v.372h-.062v-.372l-19.757.212-.212.005z" fill="url(#a)" fill-rule="nonzero"/><path d="M238 167.309s-43.91 5.305-39.718 0c1.518-1.919 1.938-7.604 1.854-14.08a166.587 166.587 0 0 0-.199-6.035c-.485-9.726-1.655-19.231-1.655-19.231s38.394-18.126 33.981-3.758c-1.765 5.805-1.187 13.957.154 21.61.393 2.232.848 4.42 1.324 6.498A152.583 152.583 0 0 0 238 167.31z" fill="#FBBEBE" fill-rule="nonzero"/><path d="M238 167.36s-43.91 5.19-39.718 0c1.518-1.876 1.938-7.437 1.854-13.771 6.694-2.802 15.212-.714 15.212-.714 8.967-1.75 14.717-1.41 18.393-.181A146.708 146.708 0 0 0 238 167.36z" fill="#000" fill-rule="nonzero" opacity=".1"/><path d="M154.82 244.667v-.373l77.505-.847 47.22-.443h.133l-.048.656.066-.656h.084v-.076l.604-5.965.23-2.257.07-.705.062-.59 2.728-9.14 2.727-9.128 2.295-7.685L292 195.714s-1.986-4.656-3.09-5.987c-1.103-1.33-2.206-10.422-2.206-10.422s-9.418-9.016-13.535-10.054c-1.726-.443-5.133-1.033-8.752-1.774a123.55 123.55 0 0 1-4.082-.887 90.237 90.237 0 0 1-2.206-.536 38.657 38.657 0 0 1-4.083-1.269 9.119 9.119 0 0 1-1.986-1.015c-3.243-2.39-11.372-2.661-11.686-2.661V161.038a4.573 4.573 0 0 0 0-.56c0-.177 0-.385-.04-.62 0-.071 0-.146-.03-.222a6.12 6.12 0 0 0-.089-.505 2.227 2.227 0 0 0-.053-.235 7.657 7.657 0 0 0-.551-1.548c-.031-.071-.07-.147-.106-.218a8.098 8.098 0 0 0-.936-1.397 8.66 8.66 0 0 0-1.2-1.17c-.12-.093-.243-.191-.37-.28a2.061 2.061 0 0 0-.226-.16l-.393-.257-.366-.212c-.322-.178-.662-.35-1.033-.515a6.841 6.841 0 0 0-.362-.15 45.674 45.674 0 0 0-.48-.187h-.027l-.331-.133c-.252-.084-.508-.16-.777-.235l-.41-.107-.442-.102-.44-.093a19.476 19.476 0 0 0-1.409-.23l-.503-.062-.516-.054-.534-.044-.76-.044-.882-.031c-3.893 0-7.774.414-11.58 1.237a31.743 31.743 0 0 0-8.059-.745h-.384l-.44.027h-.283l-.57.053c-.19 0-.384.04-.573.066-.19.027-.389.05-.579.08l-.29.049a27.26 27.26 0 0 0-.883.164c-.098.018-.195.04-.292.067a15.07 15.07 0 0 0-1.147.301c-.19.053-.38.115-.57.182-.097.027-.19.062-.282.097l-.282.102-.278.111-.331.133a9.948 9.948 0 0 0-.495.227c-.092.04-.185.084-.273.133-.089.048-.181.088-.265.137a12.247 12.247 0 0 0-2.74 1.943l-.226.217-.22.226c-.075.076-.146.155-.217.235-.287.316-.555.65-.803.998a6.58 6.58 0 0 0-.203.284c-.28.415-.533.847-.759 1.295-.057.106-.11.217-.163.324-.36.749-.656 1.528-.883 2.328-.082.296-.157.591-.225.887 0 0-9.343 4.142-17.092 7.14-2.061.798-4.003 1.521-5.627 2.067-.472.16-.914.306-1.324.443-.89.324-1.817.538-2.758.639a8.64 8.64 0 0 0-1.324.124c-3.562.581-9.665 3.104-10.332 5.637-.054.202-.069.413-.044.62v.05c.442 3.104-2.648 2.66-2.648 2.66s-1.103 8.205-2.648 10.422c-1.116 1.597-1.88 5.158-1.977 7.846-.055.837.01 1.678.194 2.497v.062c.177.594-.247 2.217-.966 4.297-.781 2.284-1.92 5.123-3.014 7.801-1.65 4.045-3.204 7.717-3.301 8.524-.04.36-.155 1.002-.314 1.832-.644 3.38-2.074 9.814-2.78 12.417a475.322 475.322 0 0 1-1.814 6.431c0 .053-.03.106-.044.155l19.784-.195v.373h.062-.026z" fill="#3C83E9" fill-rule="nonzero"/><path d="M162 192.667s25.006 13.466 34 11.868l-34-11.868zM213 187.667s24.684 7.83 32.912 8.917c8.228 1.088-32.912-8.917-32.912-8.917zM240 161.794c-12.715 2.452-36.653 1.924-47 1.552 3.792-14.235 22.286-9.395 22.286-9.395 22.89-4.785 24.644 5.143 24.714 7.843z" fill="#000" fill-rule="nonzero" opacity=".1"/><path d="M240 159.794c-12.715 2.452-36.653 1.924-47 1.552 3.792-14.235 22.286-9.395 22.286-9.395 22.89-4.785 24.644 5.143 24.714 7.843z" fill="#3C83E9" fill-rule="nonzero"/><path d="M308 221.061s14.704-2.326 14.992 4.319c.289 6.644-7.498 11.287-7.498 11.287L308 221.06z" fill="#FBBEBE" fill-rule="nonzero"/><path d="M231.83 145.775c-.643.29-1.3.546-1.967.768-4.711 1.642-9.462 3.298-14.422 3.898-4.96.6-10.165.07-14.491-2.428a12.56 12.56 0 0 1-1.311-.86c-.48-9.712-1.639-19.204-1.639-19.204s38.02-18.099 33.65-3.752c-1.74 5.796-1.15 13.937.18 21.578z" fill="#000" fill-rule="nonzero" opacity=".1"/><path d="M208.73 84.396a4.199 4.199 0 0 1-3.68-.772l.92 1.275a3.754 3.754 0 0 1-3-.993 14.992 14.992 0 0 0 .142 3.42 6.436 6.436 0 0 1-4.23-1.324 1.95 1.95 0 0 0 1.168 1.901 6.343 6.343 0 0 0-6.901 4.725l2.31.211a8.175 8.175 0 0 0-4.62 2.81c-.707.883-1.247 2.012-.937 3.089.31 1.076 1.805 1.764 2.619.997a12.3 12.3 0 0 0-2.7 10.053c.21.755.28 1.541.204 2.32-.146.729-.606 1.36-.836 2.07-.442 1.288-.022 2.686.372 3.97l2.075 6.802c.752 2.458 1.5 4.92 2.482 7.297a36.146 36.146 0 0 1 1.77 4.636c.557 2.136.579 4.474 1.769 6.34a8.81 8.81 0 0 0 3.176 2.792c4.376 2.497 9.662 3.026 14.67 2.426 5.008-.6 9.813-2.254 14.577-3.895a13.734 13.734 0 0 0 3.026-1.323c3.296-2.153 4.03-6.556 4.645-10.433.686-4.324 1.602-8.638 3.225-12.705.965-2.422 2.212-4.88 2-7.473-.27-3.446-3.004-6.238-3.68-9.626a8.359 8.359 0 0 1 .03-3.428 7.77 7.77 0 0 0 .35-2.073c-.075-1.42-1.243-2.515-2.34-3.428a107.684 107.684 0 0 0-7.37-5.62c-.13-.883 1.074-1.262 1.618-1.959.77-.984-.026-2.545-1.194-3.004-1.168-.459-2.478-.159-3.694.145a2.906 2.906 0 0 0-1.713-3.025 2.921 2.921 0 0 0-3.397.771 4.512 4.512 0 0 0-3.725-2.682c-2.933-.23-2.99 2.007-4.866 3.238-1.876 1.23-3.424-.393-4.867-1.575a4.084 4.084 0 0 0 .602 4.05z" fill="#3F3D56" fill-rule="nonzero"/><path d="M319 234.248s-.393.931-1.118 2.278a30.277 30.277 0 0 1-3.976 5.78l-.12.128h-.715l-25.51.233h-.609l-.075-.088-4.948-5.833-1.864-2.2-.076-.091-.159-.185-.088-.105-.115-.136-3.627-4.275 1.325-5.486 2.258-9.244.057-.223.442-1.756.314-1.317 1.051-4.292 3.605-14.77 6.406 3.292 6.755 11.85 3.628 6.365h1.988c.375 0 1.237.72 2.103 1.55.309.293.618.605.883.877.787.808 1.41 1.501 1.41 1.501s3.22.07 4.086 2.59c.045.122.082.246.11.373.288.99.662 1.953 1.118 2.879.57 1.233 1.286 2.633 2.01 4.034a221.715 221.715 0 0 0 3.221 5.898l.062.11.168.263z" fill="#3C83E9" fill-rule="nonzero"/><path d="M280.988 214.764l-.044.627v.043l-.075 1.008-.588 8.107-.711 9.768-.204 2.75-.442 5.887v.075l-47.278.438-77.584.832v.368H154v-.491l.199-6.29.38-12.29.327-10.42.03-1.038a4.596 4.596 0 0 1 1.557-3.303 4.679 4.679 0 0 1 3.49-1.152c2.085.176 4.794.39 8.033.618l1.325.096c18.704 1.288 53.27 2.952 88.15.876.733-.04 1.47-.083 2.209-.135 5.408-.338 10.812-.771 16.162-1.314a4.678 4.678 0 0 1 3.721 1.273 4.59 4.59 0 0 1 1.405 3.645v.022z" fill="#000" fill-rule="nonzero" opacity=".1"/><path d="M154 244.649v-.376l77.63-.856 47.298-.448h.133v-.076l.442-6.019.19-2.687.725-10.126.57-8.017v-.197c.026-.37.01-.74-.049-1.106a.136.136 0 0 0 0-.045 4.685 4.685 0 0 0-.884-2.078 4.632 4.632 0 0 0-4.164-1.791c-5.353.555-10.759.999-16.17 1.343-.738.054-1.476.099-2.21.14-34.894 2.1-69.474.398-88.186-.896l-1.326-.099c-3.24-.233-5.95-.448-8.036-.631-2.377-.204-4.522 1.445-4.968 3.82a4.989 4.989 0 0 0-.08.734l-.3 9.925-.412 12.57-.194 6.432v.502l-.009-.018z" fill="#3F3D56" fill-rule="nonzero"/><path d="M280.993 217.822l-.543 6.811-.808 10.152-.204 2.542-.441 5.691-.027.285v.075l-.066.658.049-.658h-.128l-47.254.444-77.571.845v-.125l.216-6.38.442-12.467.283-8.286a2.829 2.829 0 0 1 1.351-2.333 2.747 2.747 0 0 1 1.67-.4c.927.076 2.066.164 3.395.262 2.16.16 4.823.347 7.923.542 5.741.365 12.944.756 21.198 1.075 22.964.89 53.966 1.187 83.414-1.408 1.324-.115 2.694-.244 4.032-.373a2.75 2.75 0 0 1 1.916.533c.385.28.69.657.884 1.093.045.087.082.177.11.271.133.368.187.76.159 1.15zM132 223.667v1.343c0 .997-.606 1.905-1.558 2.332l-17.853.325c-.97-.42-1.59-1.337-1.589-2.346v-1.263l21-.391z" fill="#000" fill-rule="nonzero" opacity=".1"/><path fill="#3F3D56" fill-rule="nonzero" d="M132 228.253l-23 .414v-3.587l23-.413z"/><path fill="#000" fill-rule="nonzero" opacity=".1" d="M132 228.253l-23 .414v-3.587l23-.413z"/><path fill="#3F3D56" fill-rule="nonzero" d="M133 228.253l-23 .414v-3.587l23-.413z"/><g opacity=".1" fill="#000" fill-rule="nonzero"><path d="M209.221 82.72a4.296 4.296 0 0 1-.838-1.916 4.173 4.173 0 0 0 .186 2.03c.22-.02.439-.058.652-.114zM203.588 85.652a15.44 15.44 0 0 1-.164-1.634v1.638l.164-.004zM239.738 100.387c.024-.394.077-.785.16-1.17.209-.672.328-1.368.354-2.071a2.709 2.709 0 0 0-.071-.468c-.075.406-.195.812-.284 1.214a8.414 8.414 0 0 0-.16 2.495zM230.512 86.743l.483.348a8.731 8.731 0 0 0 1.14-.98c.34-.468.404-1.08.169-1.607-.045.1-.101.196-.169.282-.545.698-1.752 1.082-1.623 1.957zM194.065 90.99c-.161.322-.29.66-.386 1.007a8.077 8.077 0 0 1 2.218-.834l-1.832-.173zM200.182 86.186a6.58 6.58 0 0 1-.834-.543c-.011.175.002.35.04.521.265-.012.53-.005.794.022zM243.548 112.203c-.182 2.141-1.185 4.203-1.996 6.235-1.628 4.07-2.546 8.39-3.234 12.72-.616 3.882-1.33 8.289-4.657 10.44-.95.565-1.968 1.01-3.03 1.324-4.781 1.647-9.602 3.298-14.637 3.899-5.034.6-10.317.075-14.708-2.424a8.859 8.859 0 0 1-3.184-2.795c-1.185-1.868-1.207-4.208-1.775-6.345a36.2 36.2 0 0 0-1.774-4.646c-.98-2.375-1.734-4.857-2.484-7.299-.695-2.27-1.388-4.54-2.08-6.813a12.674 12.674 0 0 1-.506-2.097c-.173 1.13.165 2.313.506 3.422a3128.57 3128.57 0 0 0 2.08 6.813c.75 2.46 1.504 4.923 2.484 7.299a36.2 36.2 0 0 1 1.774 4.645c.56 2.137.581 4.478 1.775 6.345a8.859 8.859 0 0 0 3.184 2.795c4.391 2.5 9.687 3.025 14.708 2.425 5.021-.6 9.838-2.252 14.637-3.9a13.337 13.337 0 0 0 3.03-1.324c3.304-2.15 4.04-6.557 4.657-10.438.688-4.332 1.606-8.65 3.234-12.722.967-2.42 2.217-4.879 2.004-7.48 0-.026-.008-.053-.008-.08zM190.46 110.494v-.049c.08-.778.01-1.565-.205-2.318a11.69 11.69 0 0 1-.173-1.466c-.05.934.007 1.87.173 2.79.071.345.151.694.204 1.043zM191.812 99.693a12.25 12.25 0 0 1 1.158-1.62c-.812.773-2.311.084-2.626-.99-.116.435-.116.891 0 1.325.222.66.783 1.15 1.468 1.285z"/></g><path d="M302.5 213.667s1.125 4.901 0 9.164c-1.125 4.262 0-9.164 0-9.164zM307.901 219.667s.448 6.703-.562 7.892c-1.01 1.19.562-7.892.562-7.892z" fill="#000" fill-rule="nonzero" opacity=".1"/><path d="M88 151.667l45-1M88 157.662l45-.99M88 162.667l45-1" stroke="#3C83E9" stroke-width="2"/></g></svg>