<svg width="459" height="394" xmlns="http://www.w3.org/2000/svg"><defs><linearGradient x1="50%" y1="99.986%" x2="50%" y2="0%" id="a"><stop stop-color="gray" stop-opacity=".25" offset="0%"/><stop stop-color="gray" stop-opacity=".12" offset="54%"/><stop stop-color="gray" stop-opacity=".1" offset="100%"/></linearGradient><linearGradient x1="50%" y1="99.986%" x2="50%" y2="0%" id="b"><stop stop-color="gray" stop-opacity=".25" offset="0%"/><stop stop-color="gray" stop-opacity=".12" offset="54%"/><stop stop-color="gray" stop-opacity=".1" offset="100%"/></linearGradient><linearGradient x1="50%" y1="100%" x2="50%" y2="0%" id="c"><stop stop-color="gray" stop-opacity=".25" offset="0%"/><stop stop-color="gray" stop-opacity=".12" offset="54%"/><stop stop-color="gray" stop-opacity=".1" offset="100%"/></linearGradient><linearGradient x1="50%" y1="99.986%" x2="50%" y2="0%" id="d"><stop stop-color="gray" stop-opacity=".25" offset="0%"/><stop stop-color="gray" stop-opacity=".12" offset="54%"/><stop stop-color="gray" stop-opacity=".1" offset="100%"/></linearGradient><linearGradient x1="50.008%" y1="100.001%" x2="50.008%" y2=".012%" id="e"><stop stop-color="gray" stop-opacity=".25" offset="0%"/><stop stop-color="gray" stop-opacity=".12" offset="54%"/><stop stop-color="gray" stop-opacity=".1" offset="100%"/></linearGradient></defs><g transform="translate(-1)" fill="none" fill-rule="evenodd"><ellipse fill="#3C83E9" fill-rule="nonzero" opacity=".1" cx="218" cy="377" rx="57" ry="13"/><path d="M129.215 26.15c13.978-12.401 35.92-14.948 55.894-13.956 62.733 3.115 119.35 33.294 168.343 67.438 17.707 12.363 35.193 25.686 46.702 42.705 23.449 34.654 16.48 82.659-16.103 111.207-11.083 9.712-24.521 17.172-38.318 23.76-24.53 11.733-50.998 21.159-78.84 23.849-19.85 1.908-39.95.358-59.69-2.314-55.143-7.45-109.271-23.935-154.642-52.14-19.917-12.378-38.652-27.747-46.855-47.78-8.202-20.035-2.952-45.353 17.367-57.197 8.403-4.9 18.448-7.112 28.287-9.187 14.48-3.058 29.191-6.072 42.256-12.292 13.495-6.42 29.478-18.837 26.798-33.047-2.862-15.25-5.159-28.643 8.8-41.045z" fill="#3C83E9" fill-rule="nonzero" opacity=".1"/><path d="M110 97.911l-9.426 3.694L86.792 107a89.235 89.235 0 0 0-2.235-3.878c-3.265-5.477-8.67-13.999-13.476-21.488C65.667 73.175 61 66.064 61 66.064l3.38-.969L91.948 57 110 97.911z" fill="#E6ECF8" fill-rule="nonzero"/><path d="M110 97.926l-9.297 3.602a70.067 70.067 0 0 1-15.8 1.456c-3.22-5.341-8.551-13.65-13.292-20.954L65 65.894 92.194 58 110 97.926z" fill="#000" fill-rule="nonzero" opacity=".1"/><path d="M117 95.036s-14.66 8.63-36.551 6.676L63 59.37l8.365-1.43L100.275 53l16.394 41.21.331.826z" fill="#3C83E9" fill-rule="nonzero"/><path d="M116 94.895a67.348 67.348 0 0 1-11.39-.33c-4.323-.518-8.67-1.58-12.379-3.538a37.442 37.442 0 0 1-8.094-5.541C78.094 79.954 74.357 72.038 71 58.022L99.73 53 116 94.895z" fill="#000" fill-rule="nonzero" opacity=".1"/><path d="M128 91.777s-10.814 2.091-21.806.804c-4.35-.506-8.725-1.547-12.457-3.453a38.04 38.04 0 0 1-8.146-5.408C78.07 77.034 74.091 66.79 70 46.1c0 0 17.963 4.259 35.72-5.1-.024.019 5.965 36.924 22.28 50.777z" fill="#F9FAFB" fill-rule="nonzero"/><path d="M106 93c-4.434-.513-8.893-1.567-12.698-3.498A38.793 38.793 0 0 1 85 84.025C91.53 83.503 92.467 80 92.467 80 97.287 87.528 106 93 106 93z" fill="#000" fill-rule="nonzero" opacity=".1"/><path d="M80 53.785S94.375 53 98.387 50L99 51.89S89.5 55.95 80 56v-2.215zM79 63.888s14.036-.765 24.639-5.888l.361.822S95.58 63.732 79 65v-1.112zM81 67.892s14.04-.77 24.643-5.892l.357.818S97.584 67.73 81 69v-1.108zM81 70.888s14.036-.765 24.639-5.888l.361.822S97.58 70.732 81 72v-1.112zM82 74.892s14.04-.77 24.643-5.892l.357.818S98.584 74.73 82 76v-1.108zM83 78.888s14.036-.765 24.639-5.888l.361.822S99.58 78.732 83 80v-1.112z" fill="#3C83E9" fill-rule="nonzero" opacity=".3"/><path fill="#464A5F" fill-rule="nonzero" d="M459.333 136.756l.579.244.088-.528-.382-.472-.618.057z"/><path fill="#000" fill-rule="nonzero" opacity=".1" d="M459.333 136.756l.579.244.088-.528-.382-.472-.618.057z"/><path fill="#9C9CA1" fill-rule="nonzero" d="M459.491 136l.509.396-.35.604-.5-.108-.15-.207z"/><path fill="#000" fill-rule="nonzero" opacity=".1" d="M459.491 136l.509.396-.35.604-.5-.108-.15-.207z"/><path d="M406.093 99l-22.6 31.18a2.605 2.605 0 0 0 .593 3.641l48.243 34.683a2.65 2.65 0 0 0 3.672-.574L459 136.67 406.093 99z" fill="#9C9CA1" fill-rule="nonzero"/><path d="M406.093 99l-22.6 31.18a2.605 2.605 0 0 0 .593 3.641l48.243 34.683a2.65 2.65 0 0 0 3.672-.574L459 136.67 406.093 99z" fill="#000" fill-rule="nonzero" opacity=".1"/><path d="M406.097 99l-22.604 31.184a2.6 2.6 0 0 0 .593 3.638l48.238 34.683a2.65 2.65 0 0 0 3.673-.578L459 136.666 406.097 99z" fill="#9C9CA1" fill-rule="nonzero"/><path d="M407 79.58l.593 18.955L460 136l-.496-19.289a2.758 2.758 0 0 0-1.175-2.19l-50.445-35.412a.556.556 0 0 0-.883.47z" fill="#464A5F" fill-rule="nonzero"/><path d="M407 79.58l.593 18.955L460 136l-.496-19.289a2.758 2.758 0 0 0-1.175-2.19l-50.445-35.412a.556.556 0 0 0-.883.47z" fill="#000" fill-rule="nonzero" opacity=".1"/><path d="M406 79.559l.592 18.972L459 136l-.51-19.29a2.764 2.764 0 0 0-1.18-2.192L406.87 79.102a.55.55 0 0 0-.869.457z" fill="#464A5F" fill-rule="nonzero"/><g opacity=".1" fill="#000" fill-rule="nonzero"><path d="M408.468 108.241l-1.356 1.893a.517.517 0 0 0 .12.719l1.91 1.42c.23.168.553.122.725-.105l1.37-1.779a.512.512 0 0 0-.09-.724l-1.948-1.523a.524.524 0 0 0-.73.1zM412.002 110.758l-1.356 1.893a.517.517 0 0 0 .119.719l1.91 1.42c.23.168.554.122.726-.105l1.37-1.779a.512.512 0 0 0-.09-.724l-1.93-1.518a.524.524 0 0 0-.75.094zM415.712 113.398l-1.356 1.893a.517.517 0 0 0 .119.719l1.91 1.42c.23.168.554.122.726-.105l1.37-1.779a.517.517 0 0 0-.09-.724l-1.949-1.518a.524.524 0 0 0-.73.094zM419.465 116.071l-1.356 1.893a.517.517 0 0 0 .114.719l1.91 1.42c.23.168.554.122.726-.105l1.37-1.779a.517.517 0 0 0-.09-.724l-1.949-1.518a.524.524 0 0 0-.725.094zM423.218 118.745l-1.356 1.892a.517.517 0 0 0 .114.72l1.91 1.418c.231.17.557.123.73-.104l1.371-1.779a.517.517 0 0 0-.09-.723l-1.949-1.52a.524.524 0 0 0-.73.096zM427.138 121.181l-1.681 2.366a.245.245 0 0 0 .053.336l2.387 1.731a.245.245 0 0 0 .339-.047l1.705-2.214a.24.24 0 0 0-.043-.336l-2.388-1.893a.25.25 0 0 0-.372.057zM430.89 123.854l-1.68 2.366a.245.245 0 0 0 .053.336l2.387 1.731a.245.245 0 0 0 .339-.047l1.705-2.214a.24.24 0 0 0-.043-.336l-2.388-1.893a.25.25 0 0 0-.372.057zM434.214 126.22l-1.686 2.365a.24.24 0 0 0 .058.336l2.387 1.732a.25.25 0 0 0 .344-.047l1.705-2.21a.244.244 0 0 0-.043-.34l-2.388-1.893a.245.245 0 0 0-.377.057zM437.934 128.87l-1.681 2.365a.235.235 0 0 0 .052.336l2.388 1.731a.25.25 0 0 0 .343-.047l1.705-2.21a.244.244 0 0 0-.043-.34l-2.387-1.869a.245.245 0 0 0-.377.033zM441.524 131.438l-1.68 2.366a.24.24 0 0 0 .057.336l2.387 1.736c.108.078.26.055.34-.052l1.704-2.21a.244.244 0 0 0-.043-.34l-2.388-1.869a.25.25 0 0 0-.377.033zM445.139 134.003l-1.681 2.365a.245.245 0 0 0 .052.336l2.388 1.732a.245.245 0 0 0 .339-.048l1.704-2.214a.24.24 0 0 0-.043-.336l-2.387-1.869a.245.245 0 0 0-.372.034zM448.744 136.572l-1.686 2.365a.24.24 0 0 0 .057.336l2.388 1.736a.25.25 0 0 0 .344-.052l1.704-2.209a.244.244 0 0 0-.043-.34l-2.387-1.893a.245.245 0 0 0-.377.057zM406 111.638l-1.351 1.893a.517.517 0 0 0 .114.719l1.91 1.42c.232.166.555.12.73-.105l1.371-1.779a.517.517 0 0 0-.09-.724l-1.949-1.523a.533.533 0 0 0-.735.1zM400.614 119.066l-1.351 1.893a.517.517 0 0 0 .114.719l1.91 1.42c.23.167.554.123.73-.1l1.371-1.78a.517.517 0 0 0-.09-.723l-1.949-1.523a.528.528 0 0 0-.735.094zM409.533 114.155l-1.356 1.893a.517.517 0 0 0 .115.719l1.91 1.42c.232.166.555.12.73-.105l1.37-1.779a.517.517 0 0 0-.09-.724l-1.948-1.523a.528.528 0 0 0-.73.1zM413.243 116.814l-1.351 1.893a.517.517 0 0 0 .114.719l1.91 1.42c.231.167.554.123.73-.1l1.371-1.78a.517.517 0 0 0-.09-.723l-1.949-1.523a.528.528 0 0 0-.735.094zM416.996 119.473l-1.351 1.893a.517.517 0 0 0 .114.719l1.91 1.42c.231.167.554.123.73-.1l1.371-1.784a.513.513 0 0 0-.09-.72l-1.949-1.523a.528.528 0 0 0-.735.095zM404.233 121.465l-1.351 1.892a.517.517 0 0 0 .114.72l1.91 1.419c.231.168.554.124.73-.1l1.371-1.783a.513.513 0 0 0-.09-.72l-1.949-1.523a.528.528 0 0 0-.735.095zM407.943 124.105l-1.351 1.892a.517.517 0 0 0 .114.72l1.91 1.419c.232.167.556.12.73-.104l1.371-1.78a.517.517 0 0 0-.09-.723l-1.949-1.523a.533.533 0 0 0-.735.099zM411.696 126.778l-1.351 1.893a.517.517 0 0 0 .114.719l1.91 1.419c.232.167.556.12.73-.104l1.371-1.779a.517.517 0 0 0-.095-.724l-1.944-1.523a.528.528 0 0 0-.735.1zM420.75 122.146l-1.352 1.893a.517.517 0 0 0 .114.719l1.91 1.42c.231.167.554.123.73-.1l1.371-1.784a.513.513 0 0 0-.09-.719l-1.93-1.557a.529.529 0 0 0-.754.128zM424.502 124.815l-1.351 1.892a.517.517 0 0 0 .114.72l1.91 1.419c.231.167.554.123.73-.1l1.371-1.783a.513.513 0 0 0-.09-.72l-1.949-1.523a.528.528 0 0 0-.735.095zM428.427 127.251l-1.686 2.366a.24.24 0 0 0 .058.336l2.387 1.731a.25.25 0 0 0 .344-.047l1.705-2.21a.244.244 0 0 0-.043-.34l-2.388-1.893a.245.245 0 0 0-.377.057zM431.745 129.617l-1.68 2.365a.24.24 0 0 0 .057.336l2.387 1.732a.24.24 0 0 0 .34-.047l1.704-2.21a.244.244 0 0 0-.043-.34l-2.387-1.893a.25.25 0 0 0-.378.057zM435.47 132.266l-1.686 2.366a.24.24 0 0 0 .058.336l2.387 1.731a.24.24 0 0 0 .339-.047l1.705-2.21a.244.244 0 0 0-.043-.34l-2.388-1.869a.245.245 0 0 0-.372.033zM439.07 134.835l-1.68 2.366a.245.245 0 0 0 .052.336l2.387 1.731a.245.245 0 0 0 .34-.047l1.704-2.214a.24.24 0 0 0-.043-.336l-2.388-1.893a.25.25 0 0 0-.372.057zM410.684 120.33l-1.356 1.892a.517.517 0 0 0 .114.72l1.91 1.418c.232.17.557.123.73-.104l1.371-1.779a.517.517 0 0 0-.09-.723l-1.92-1.529a.524.524 0 0 0-.76.104zM414.437 123.003l-1.356 1.892a.517.517 0 0 0 .114.72l1.91 1.419c.232.169.557.122.73-.105l1.371-1.778a.517.517 0 0 0-.09-.724l-1.949-1.519a.524.524 0 0 0-.73.095zM418.185 125.676l-1.351 1.892a.517.517 0 0 0 .114.72l1.91 1.419c.232.169.557.123.73-.104l1.371-1.78a.522.522 0 0 0-.09-.723l-1.949-1.519a.528.528 0 0 0-.735.095zM421.948 128.349l-1.352 1.892a.517.517 0 0 0 .115.72l1.91 1.419c.231.169.557.123.73-.104l1.37-1.78a.517.517 0 0 0-.09-.723l-1.948-1.519a.528.528 0 0 0-.735.095zM425.863 130.785l-1.68 2.366a.235.235 0 0 0 .052.336l2.387 1.731a.25.25 0 0 0 .344-.047l1.704-2.214a.24.24 0 0 0-.043-.336l-2.387-1.869a.245.245 0 0 0-.377.033zM429.186 133.151l-1.685 2.366a.24.24 0 0 0 .057.335l2.387 1.732a.25.25 0 0 0 .344-.047l1.7-2.21a.235.235 0 0 0-.043-.34l-2.387-1.87a.24.24 0 0 0-.373.034zM432.93 135.8l-1.686 2.366a.24.24 0 0 0 .057.336l2.388 1.732a.25.25 0 0 0 .344-.048l1.704-2.21a.244.244 0 0 0-.043-.34l-2.387-1.892a.24.24 0 0 0-.377.056zM436.506 138.37l-1.68 2.365a.25.25 0 0 0 .052.34l2.387 1.732a.25.25 0 0 0 .34-.047l1.704-2.214a.24.24 0 0 0-.043-.336l-2.388-1.893a.25.25 0 0 0-.372.052zM442.675 137.4l-1.686 2.365a.24.24 0 0 0 .058.336l2.387 1.732a.245.245 0 0 0 .344-.048l1.704-2.21a.244.244 0 0 0-.043-.34l-2.387-1.869a.25.25 0 0 0-.377.034zM446.299 139.969l-1.68 2.365a.25.25 0 0 0 .052.34l2.387 1.732a.25.25 0 0 0 .34-.047l1.704-2.214a.24.24 0 0 0-.043-.336l-2.388-1.892a.25.25 0 0 0-.372.052zM430.117 139.647l-1.585 2.21a.32.32 0 0 0 .076.449l2.235 1.637a.327.327 0 0 0 .477-.062l1.605-2.081a.32.32 0 0 0-.058-.474l-2.258-1.769a.332.332 0 0 0-.492.09zM433.722 142.211l-1.585 2.214a.32.32 0 0 0 .072.45l2.239 1.637a.336.336 0 0 0 .477-.066l1.605-2.082a.324.324 0 0 0-.058-.473l-2.263-1.765a.327.327 0 0 0-.487.085zM437.322 144.775l-1.585 2.215a.324.324 0 0 0 .077.473l2.239 1.637a.327.327 0 0 0 .477-.062l1.605-2.086a.315.315 0 0 0-.058-.45l-2.258-1.77a.336.336 0 0 0-.497.043zM440.975 147.274l-1.68 2.365a.245.245 0 0 0 .057.34l2.387 1.732a.245.245 0 0 0 .339-.047l1.705-2.214a.24.24 0 0 0-.043-.336l-2.388-1.892a.25.25 0 0 0-.377.052zM403.326 115.149l-1.432 2.03a.517.517 0 0 0 .124.723l5.605 3.956c.23.161.547.113.716-.11l1.528-1.972a.512.512 0 0 0-.114-.738l-5.697-4.012a.524.524 0 0 0-.73.123zM440.04 140.972l-1.763 2.483a.24.24 0 0 0 .058.336l6.059 4.258a.25.25 0 0 0 .339-.052l1.862-2.412a.24.24 0 0 0-.053-.346l-6.159-4.338a.245.245 0 0 0-.344.07zM415.516 129.238l-1.686 2.31a.25.25 0 0 0 .053.34l13.13 9.595a.25.25 0 0 0 .34-.048l1.852-2.408a.24.24 0 0 0-.052-.345l-13.284-9.496a.245.245 0 0 0-.353.052z"/></g><path d="M407.677 106.233l-1.565 2.182a.596.596 0 0 0 .132.829l2.205 1.637a.61.61 0 0 0 .843-.115l1.581-2.051a.59.59 0 0 0-.105-.835l-2.248-1.756a.605.605 0 0 0-.843.109zM411.679 109.23l-1.567 2.184a.596.596 0 0 0 .133.83l2.206 1.637a.606.606 0 0 0 .839-.115l1.583-2.052a.59.59 0 0 0-.105-.835l-2.25-1.758a.606.606 0 0 0-.839.11zM415.666 112.24l-1.554 2.18a.596.596 0 0 0 .132.829l2.205 1.636a.616.616 0 0 0 .843-.12l1.581-2.05a.59.59 0 0 0-.105-.835l-2.248-1.755a.61.61 0 0 0-.854.114zM418.677 115.236l-1.565 2.183a.596.596 0 0 0 .132.829l2.205 1.637a.616.616 0 0 0 .843-.12l1.581-2.052a.59.59 0 0 0-.105-.835l-2.248-1.756a.605.605 0 0 0-.843.114zM422.672 117.235l-1.56 2.183a.596.596 0 0 0 .133.83l2.205 1.637a.616.616 0 0 0 .843-.12l1.582-2.053a.596.596 0 0 0-.105-.835l-2.249-1.757a.616.616 0 0 0-.849.115zM426.884 120.13l-1.833 2.57a.26.26 0 0 0 .057.366l2.604 1.882a.273.273 0 0 0 .375-.052l1.859-2.406a.26.26 0 0 0-.047-.366l-2.604-2.057a.273.273 0 0 0-.411.062zM430.885 123.126l-1.832 2.571a.26.26 0 0 0 .057.37l2.603 1.883a.278.278 0 0 0 .374-.052l1.859-2.407a.26.26 0 0 0-.047-.365l-2.603-2.057a.273.273 0 0 0-.41.057z" fill="#464A5F" fill-rule="nonzero"/><path d="M433.886 124.132l-1.837 2.57a.26.26 0 0 0 .062.365l2.602 1.88a.273.273 0 0 0 .375-.05l1.858-2.406a.26.26 0 0 0-.047-.365l-2.602-2.056a.268.268 0 0 0-.411.062zM436.886 127.13l-1.837 2.57a.26.26 0 0 0 .062.366l2.602 1.882a.273.273 0 0 0 .375-.052l1.858-2.406a.26.26 0 0 0-.047-.366l-2.602-2.057a.273.273 0 0 0-.411.062zM440.884 130.11l-1.835 2.58a.266.266 0 0 0 .057.367l2.607 1.889a.263.263 0 0 0 .37-.052l1.862-2.41a.266.266 0 0 0-.047-.371l-2.607-2.039a.273.273 0 0 0-.407.037zM444.885 133.13l-1.832 2.57a.255.255 0 0 0 .057.366l2.603 1.882a.273.273 0 0 0 .374-.052l1.859-2.406a.26.26 0 0 0-.047-.366l-2.603-2.057a.273.273 0 0 0-.411.062z" fill="#464A5F" fill-rule="nonzero"/><path d="M447.887 135.113l-1.838 2.58a.262.262 0 0 0 .062.366l2.604 1.889a.267.267 0 0 0 .37-.052l1.858-2.41a.261.261 0 0 0-.047-.37l-2.603-2.039a.267.267 0 0 0-.406.036zM405.672 110.235l-1.56 2.183a.596.596 0 0 0 .133.83l2.205 1.637a.616.616 0 0 0 .843-.12l1.582-2.053a.596.596 0 0 0-.105-.835l-2.249-1.757a.616.616 0 0 0-.849.115zM399.674 117.233l-1.566 2.182a.601.601 0 0 0 .138.83l2.206 1.636a.605.605 0 0 0 .838-.115l1.588-2.056a.59.59 0 0 0-.11-.83l-2.245-1.756a.61.61 0 0 0-.849.11zM408.672 113.235l-1.56 2.183a.596.596 0 0 0 .133.83l2.205 1.637a.616.616 0 0 0 .843-.12l1.582-2.053a.596.596 0 0 0-.105-.835l-2.249-1.757a.616.616 0 0 0-.849.115zM412.673 115.25l-1.56 2.175a.593.593 0 0 0 .132.827l2.206 1.63a.612.612 0 0 0 .843-.119l1.583-2.044a.598.598 0 0 0-.104-.832l-2.229-1.757a.613.613 0 0 0-.871.12zM416.673 118.233l-1.56 2.183a.596.596 0 0 0 .132.83l2.206 1.637a.611.611 0 0 0 .843-.12l1.583-2.052a.601.601 0 0 0-.104-.835l-2.25-1.752a.611.611 0 0 0-.85.11zM403.673 120.233l-1.56 2.183a.596.596 0 0 0 .132.83l2.206 1.637a.61.61 0 0 0 .843-.12l1.583-2.052a.596.596 0 0 0-.11-.835l-2.245-1.752a.611.611 0 0 0-.849.11zM407.673 123.24l-1.561 2.183a.59.59 0 0 0 .132.825l2.206 1.637a.611.611 0 0 0 .839-.12l1.588-2.052a.596.596 0 0 0-.11-.835l-2.245-1.758a.611.611 0 0 0-.85.12zM411.674 125.256l-1.566 2.176a.593.593 0 0 0 .138.822l2.205 1.631a.612.612 0 0 0 .838-.12l1.588-2.045c.2-.26.15-.63-.11-.832l-2.217-1.757a.613.613 0 0 0-.876.125zM420.673 121.264l-1.56 2.168a.59.59 0 0 0 .132.825l2.206 1.626c.267.194.643.141.843-.119l1.583-2.039a.59.59 0 0 0-.11-.83l-2.195-1.75a.614.614 0 0 0-.899.119zM424.673 124.233l-1.56 2.183a.596.596 0 0 0 .132.83l2.206 1.637c.265.195.64.141.838-.12l1.588-2.052a.596.596 0 0 0-.11-.835l-2.245-1.752a.61.61 0 0 0-.849.11z" fill="#464A5F" fill-rule="nonzero"/><path d="M427.886 126.116l-1.837 2.578a.261.261 0 0 0 .062.366l2.602 1.888a.272.272 0 0 0 .375-.052l1.857-2.413a.256.256 0 0 0-.052-.366l-2.601-2.037a.262.262 0 0 0-.406.036zM431.884 128.113l-1.835 2.58a.266.266 0 0 0 .057.366l2.607 1.889a.268.268 0 0 0 .37-.052l1.862-2.41a.266.266 0 0 0-.047-.37l-2.607-2.039a.268.268 0 0 0-.407.036zM435.884 131.113l-1.835 2.58a.266.266 0 0 0 .057.366l2.607 1.889a.268.268 0 0 0 .37-.052l1.862-2.41a.266.266 0 0 0-.047-.37l-2.607-2.039a.268.268 0 0 0-.407.036zM438.885 134.11l-1.834 2.58a.261.261 0 0 0 .057.366l2.606 1.894c.118.083.28.06.37-.052l1.861-2.414a.266.266 0 0 0-.047-.372l-2.606-2.038a.273.273 0 0 0-.407.037zM409.672 119.233l-1.56 2.183a.596.596 0 0 0 .133.83l2.205 1.637a.61.61 0 0 0 .843-.12l1.582-2.052a.596.596 0 0 0-.105-.835l-2.249-1.752a.61.61 0 0 0-.849.11zM414.672 122.233l-1.56 2.183a.596.596 0 0 0 .133.83l2.205 1.637a.61.61 0 0 0 .843-.12l1.582-2.052a.596.596 0 0 0-.105-.835l-2.249-1.752a.61.61 0 0 0-.849.11z" fill="#464A5F" fill-rule="nonzero"/><path d="M417.672 124.235l-1.56 2.183a.596.596 0 0 0 .133.83l2.205 1.637a.616.616 0 0 0 .843-.12l1.582-2.053a.596.596 0 0 0-.105-.835l-2.249-1.757a.616.616 0 0 0-.849.115zM421.672 127.235l-1.56 2.183a.596.596 0 0 0 .133.83l2.205 1.637a.616.616 0 0 0 .843-.12l1.582-2.053a.596.596 0 0 0-.105-.835l-2.249-1.757a.616.616 0 0 0-.849.115zM425.886 130.13l-1.837 2.57a.26.26 0 0 0 .062.366l2.602 1.882a.273.273 0 0 0 .375-.052l1.858-2.406a.26.26 0 0 0-.047-.366l-2.602-2.057a.273.273 0 0 0-.411.062z" fill="#464A5F" fill-rule="nonzero"/><path d="M428.883 132.13l-1.834 2.57a.26.26 0 0 0 .062.366l2.605 1.882a.268.268 0 0 0 .37-.051l1.86-2.407a.26.26 0 0 0-.047-.365l-2.605-2.058a.273.273 0 0 0-.411.062zM432.887 134.129l-1.838 2.572a.26.26 0 0 0 .062.365l2.604 1.882a.268.268 0 0 0 .37-.051l1.858-2.407a.255.255 0 0 0-.046-.366l-2.604-2.057a.268.268 0 0 0-.406.062zM435.884 137.126l-1.835 2.571a.265.265 0 0 0 .057.366l2.607 1.887c.119.085.284.06.37-.057l1.862-2.401a.265.265 0 0 0-.047-.37l-2.607-2.058a.274.274 0 0 0-.407.062zM442.886 136.12l-1.837 2.576a.261.261 0 0 0 .062.366l2.602 1.886a.272.272 0 0 0 .375-.052l1.857-2.406a.266.266 0 0 0-.047-.371l-2.601-2.036a.262.262 0 0 0-.411.036zM445.884 139.126l-1.835 2.571a.265.265 0 0 0 .057.366l2.607 1.887c.119.085.284.06.37-.057l1.862-2.401a.265.265 0 0 0-.047-.37l-2.607-2.058a.274.274 0 0 0-.407.062zM429.817 138.173l-1.748 2.445a.353.353 0 0 0 .079.496l2.47 1.808a.371.371 0 0 0 .527-.073l1.77-2.299a.358.358 0 0 0-.063-.522l-2.492-1.949a.371.371 0 0 0-.543.094zM433.816 141.164l-1.74 2.432a.362.362 0 0 0 .08.52l2.464 1.801a.36.36 0 0 0 .526-.073l1.771-2.29a.357.357 0 0 0-.068-.52l-2.486-1.942a.365.365 0 0 0-.547.072z" fill="#464A5F" fill-rule="nonzero"/><path d="M436.814 143.173l-1.75 2.444a.358.358 0 0 0 .085.496l2.466 1.806a.366.366 0 0 0 .527-.073l1.77-2.297a.353.353 0 0 0-.063-.522l-2.492-1.948a.371.371 0 0 0-.543.094zM440.884 146.126l-1.835 2.571a.265.265 0 0 0 .057.366l2.607 1.887c.119.085.284.06.37-.057l1.862-2.401a.265.265 0 0 0-.047-.37l-2.607-2.058a.274.274 0 0 0-.407.062zM402.494 114.222l-1.4 2.022a.522.522 0 0 0 .121.72l5.482 3.94a.51.51 0 0 0 .704-.108l1.493-1.965a.518.518 0 0 0-.112-.735l-5.565-3.997a.51.51 0 0 0-.723.123zM439.718 140.11l-1.675 2.403a.235.235 0 0 0 .054.325l5.761 4.12a.23.23 0 0 0 .318-.05l1.775-2.335a.235.235 0 0 0-.05-.335l-5.856-4.197a.23.23 0 0 0-.327.068zM415.687 128.105l-1.643 2.423a.276.276 0 0 0 .05.357l12.732 10.067a.226.226 0 0 0 .328-.055l1.796-2.526a.267.267 0 0 0-.05-.363l-12.88-9.957a.224.224 0 0 0-.177-.048.234.234 0 0 0-.156.102z" fill="#464A5F" fill-rule="nonzero"/><path d="M406.81 130.562l-7.552 10.23a1.307 1.307 0 0 0 .29 1.843l19.492 14.106a1.381 1.381 0 0 0 1.902-.285l7.795-10.453a1.304 1.304 0 0 0-.301-1.862l-19.734-13.897a1.378 1.378 0 0 0-1.893.318z" fill="#000" fill-rule="nonzero" opacity=".1"/><path d="M406.812 130.562l-7.557 10.224c-.433.592-.301 1.414.296 1.849l19.492 14.106a1.381 1.381 0 0 0 1.902-.285l7.795-10.453a1.309 1.309 0 0 0-.306-1.862l-19.73-13.897a1.378 1.378 0 0 0-1.892.318z" fill="#939498" fill-rule="nonzero"/><path d="M408 82.569l.322 16.284L457 134l-.432-16.13a2.831 2.831 0 0 0-1.142-2.215L408.874 82.1a.553.553 0 0 0-.58-.034.562.562 0 0 0-.294.503z" fill="#3C83E9" fill-rule="nonzero"/><path d="M2.772 167.79l19.004-13.63a2.91 2.91 0 0 1 4.058.666l21.942 30.521a2.91 2.91 0 0 1-.667 4.064L28.105 203.04a2.91 2.91 0 0 1-4.058-.666L2.105 171.853a2.91 2.91 0 0 1 .664-4.062l.003-.001z" fill="#3A3768" fill-rule="nonzero"/><path d="M4.898 170.855l19.39-13.906a.18.18 0 0 1 .25.041l4.77 6.636a.18.18 0 0 1-.04.251l-19.39 13.906a.18.18 0 0 1-.25-.041l-4.771-6.636a.18.18 0 0 1 .04-.251z" fill="#000" fill-rule="nonzero" opacity=".1"/><path d="M7.7 169.046l13.942-9.999a3.35 3.35 0 0 1 4.672.767l.908 1.263a3.35 3.35 0 0 1-.765 4.675l-.003.002-13.942 10a3.35 3.35 0 0 1-4.672-.768l-.908-1.263a3.35 3.35 0 0 1 .765-4.675l.003-.002z" fill="#E6E8EC" fill-rule="nonzero"/><path d="M13.626 179.472l1.657-1.188a1.39 1.39 0 0 1 1.938.318l1.502 2.089a1.39 1.39 0 0 1-.317 1.94h-.002l-1.656 1.188a1.39 1.39 0 0 1-1.939-.318l-1.501-2.088a1.39 1.39 0 0 1 .317-1.94l.001-.001zM17.61 175.85l1.643-1.176a1.39 1.39 0 0 1 1.938.32l1.487 2.075a1.39 1.39 0 0 1-.321 1.94l-1.643 1.175a1.39 1.39 0 0 1-1.939-.32l-1.487-2.074a1.39 1.39 0 0 1 .32-1.94h.002zM23.194 172.609l1.656-1.188a1.39 1.39 0 0 1 1.939.318l1.501 2.088a1.39 1.39 0 0 1-.317 1.94l-.001.001-1.657 1.188a1.39 1.39 0 0 1-1.938-.318l-1.502-2.089a1.39 1.39 0 0 1 .319-1.94zM28.21 169.156l1.33-.955a1.59 1.59 0 0 1 2.218.364l1.268 1.763a1.59 1.59 0 0 1-.365 2.22l-1.33.955a1.59 1.59 0 0 1-2.218-.364l-1.268-1.763a1.59 1.59 0 0 1 .363-2.22h.001zM17.057 184.253l1.656-1.188a1.39 1.39 0 0 1 1.939.319l1.501 2.088a1.39 1.39 0 0 1-.317 1.94h-.001l-1.657 1.189a1.39 1.39 0 0 1-1.938-.318l-1.502-2.089a1.39 1.39 0 0 1 .318-1.94zM21.846 180.818l1.656-1.188a1.39 1.39 0 0 1 1.939.319l1.501 2.088a1.39 1.39 0 0 1-.317 1.94h-.001l-1.656 1.189a1.39 1.39 0 0 1-1.94-.318l-1.5-2.089a1.39 1.39 0 0 1 .317-1.94h.001zM26.626 177.386l1.657-1.188a1.39 1.39 0 0 1 1.938.318l1.502 2.089a1.39 1.39 0 0 1-.319 1.94l-1.656 1.188a1.39 1.39 0 0 1-1.939-.318l-1.501-2.088a1.39 1.39 0 0 1 .317-1.94l.001-.001zM20.855 189.524l1.656-1.188a1.39 1.39 0 0 1 1.939.318l1.501 2.089a1.39 1.39 0 0 1-.318 1.94l-1.656 1.188a1.39 1.39 0 0 1-1.94-.318l-1.5-2.088a1.39 1.39 0 0 1 .317-1.94l.001-.001zM25.635 186.092l1.657-1.188a1.39 1.39 0 0 1 1.938.318l1.502 2.088a1.39 1.39 0 0 1-.317 1.94l-.002.001-1.656 1.188a1.39 1.39 0 0 1-1.939-.318l-1.501-2.088a1.39 1.39 0 0 1 .317-1.94l.001-.001zM30.423 182.665l1.656-1.188a1.39 1.39 0 0 1 1.939.319l1.5 2.088a1.39 1.39 0 0 1-.316 1.94H35.2l-1.656 1.189a1.39 1.39 0 0 1-1.939-.318l-1.501-2.089a1.39 1.39 0 0 1 .317-1.94h.002zM34.212 187.939l1.656-1.188a1.39 1.39 0 0 1 1.939.318l1.501 2.088a1.39 1.39 0 0 1-.317 1.94l-.001.001-1.656 1.188a1.39 1.39 0 0 1-1.94-.318l-1.5-2.088a1.39 1.39 0 0 1 .317-1.94l.001-.001zM31.087 174.327l2.437-1.747a.91.91 0 0 1 1.27.208l2.06 2.868a.91.91 0 0 1-.207 1.27l-2.437 1.748a.91.91 0 0 1-1.27-.208l-2.061-2.868a.91.91 0 0 1 .208-1.27zM25.284 194.337l5.155-3.697a2.18 2.18 0 0 1 3.04.499l.58.805a2.18 2.18 0 0 1-.498 3.043l-.002.001-5.155 3.697a2.18 2.18 0 0 1-3.04-.499l-.58-.805a2.18 2.18 0 0 1 .5-3.044zM35.381 179.102l.925-.663a2.07 2.07 0 0 1 2.887.474l4.499 6.258a2.07 2.07 0 0 1-.475 2.89l-.924.663a2.07 2.07 0 0 1-2.887-.474l-4.5-6.258a2.07 2.07 0 0 1 .473-2.889l.002-.001z" fill="#000" fill-rule="nonzero" opacity=".1"/><path fill="#3C83E9" fill-rule="nonzero" d="M25.821 164.581l1.715-1.23-1.715 1.23zM23.311 166.38l1.715-1.23zM20.802 168.177l1.714-1.23-1.714 1.23zM18.295 169.979l1.714-1.23z"/><g opacity=".1" fill="#000" fill-rule="nonzero"><path d="M303.143 32.416h-29.441a1.544 1.544 0 0 0-1.537 1.541v18.668c.003.85.688 1.54 1.537 1.546h23.1s.599 3.181-1.367 3.526c0 0 4.403.317 3.634-3.526h4.074a1.548 1.548 0 0 0 1.541-1.546V33.957a1.548 1.548 0 0 0-1.541-1.541z"/><g opacity=".2" transform="translate(276.243 37.2)"><rect x=".259" y=".165" width="23.845" height="1.456" rx=".728"/><rect x=".259" y="6.68" width="23.845" height="1.456" rx=".728"/><rect x=".259" y="9.937" width="19.998" height="1.456" rx=".728"/><rect x=".259" y="3.423" width="10.338" height="1.456" rx=".728"/></g></g><path d="M303.431 33h-29.867c-.862 0-1.561.682-1.564 1.524v18.444c-.003.407.161.798.455 1.087.293.289.693.451 1.11.451h23.437s.608 3.151-1.387 3.488c0 0 4.463.313 3.683-3.488h4.143c.86-.003 1.556-.683 1.559-1.524V34.515c-.008-.84-.709-1.518-1.569-1.515z" fill="#F9FAFB" fill-rule="nonzero"/><g opacity=".2" transform="translate(277 37)" fill="#3C83E9" fill-rule="nonzero"><rect x=".042" y=".04" width="23.802" height="1.54" rx=".77"/><rect x=".042" y="6.93" width="23.802" height="1.54" rx=".77"/><rect x=".042" y="10.37" width="19.962" height="1.54" rx=".77"/><rect x=".042" y="3.485" width="10.32" height="1.54" rx=".77"/></g><g opacity=".1" fill="#000" fill-rule="nonzero"><path d="M331.781.3h-35.762a1.87 1.87 0 0 0-1.867 1.908v22.606c0 1.034.835 1.872 1.867 1.875h28.057s.724 3.863-1.662 4.292c0 0 5.348.381 4.41-4.292h4.957a1.878 1.878 0 0 0 1.871-1.875V2.208A1.876 1.876 0 0 0 331.781.3z"/><g opacity=".2" transform="translate(299.238 6.2)"><rect x=".181" y=".119" width="28.971" height="1.769" rx=".885"/><rect x=".181" y="8.022" width="23.905" height="1.769" rx=".885"/><rect x=".181" y="4.073" width="17.21" height="1.769" rx=".885"/></g></g><path d="M332.105 0H295.89A1.895 1.895 0 0 0 294 1.894v22.87a1.895 1.895 0 0 0 1.89 1.89h28.413s.733 3.904-1.683 4.338c0 0 5.415.39 4.47-4.338h5.015a1.9 1.9 0 0 0 1.895-1.89V1.895A1.9 1.9 0 0 0 332.105 0z" fill="#F9FAFB" fill-rule="nonzero"/><g opacity=".2" transform="translate(300 5)" fill="#3C83E9" fill-rule="nonzero"><rect x=".174" y=".286" width="29.439" height="1.767" rx=".883"/><rect x=".174" y="8.176" width="24.29" height="1.767" rx=".883"/><rect x=".174" y="4.229" width="17.487" height="1.767" rx=".883"/></g><path d="M97.862 246.249l32.912-12.054a3.182 3.182 0 0 1 2.395.082 3.088 3.088 0 0 1 1.632 1.721c.605 1.587-.216 3.354-1.834 3.948L100.055 252 93 251.306l4.862-5.057z" fill="#BE8B87" fill-rule="nonzero"/><path d="M133.806 235.581a3.16 3.16 0 0 1-1.834 4.057l-32.912 12.37-5.293-.536-.767.815 7.055.713 32.912-12.371a3.155 3.155 0 0 0 1.834-4.052A3.135 3.135 0 0 0 133.52 235c.115.183.211.378.286.581z" fill="#FFF" fill-rule="nonzero" opacity=".1"/><path fill="#EFC8C4" fill-rule="nonzero" d="M97.824 247l2.176 5-5.743-.496-1.257-.108 1.714-1.563z"/><path d="M94.61 250c.126.102.232.23.312.376a.584.584 0 0 1 0 .584 1.26 1.26 0 0 1-.293.233 1.098 1.098 0 0 0-.452.807L93 251.871 94.61 250z" fill="#727A9C" fill-rule="nonzero"/><path transform="rotate(-14.452 1029.001 -1034.394)" d="M4.513.851l10.867.04.128 35.074-10.867-.04z" opacity=".5" fill="url(#a)" fill-rule="nonzero"/><path fill="#F9FAFB" fill-rule="nonzero" d="M295.55 223.307l9.825-2.529 8.595 33.306-9.825 2.53z"/><path fill="#F7B643" fill-rule="nonzero" d="M297.13 223.46l6.946-1.788 1.79 6.937-6.945 1.788z"/><path fill="#F7B643" fill-rule="nonzero" opacity=".5" d="M299.022 230.468l6.929-1.804 1.806 6.921-6.93 1.804z"/><path fill="#F7B643" fill-rule="nonzero" opacity=".3" d="M301.2 238.824l6.93-1.804 1.806 6.92-6.93 1.805z"/><path transform="rotate(-32.95 535.993 -352.371)" d="M9.439.27l10.578.032.106 34.373-10.578-.032z" opacity=".5" fill="url(#b)" fill-rule="nonzero"/><path fill="#F9FAFB" fill-rule="nonzero" d="M286.214 229.758l8.5-5.503 18.627 28.705-8.5 5.503z"/><path fill="#F97878" fill-rule="nonzero" d="M287.768 229.413l6.009-3.89 3.895 6.001-6.01 3.89z"/><path fill="#F97878" fill-rule="nonzero" opacity=".5" d="M292.473 236.654l6.009-3.89 3.894 6.002-6.009 3.89z"/><path fill="#F97878" fill-rule="nonzero" opacity=".3" d="M297.176 243.902l6.009-3.89 3.895 6.002-6.01 3.89z"/><path transform="rotate(-44.65 433.353 -212.039)" d="M11.054-.989h10.802V34.21H11.054z" opacity=".5" fill="url(#c)" fill-rule="nonzero"/><path fill="#F9FAFB" fill-rule="nonzero" d="M282.112 235.258l7.206-7.11 24.07 24.336-7.206 7.11z"/><path fill="#73B53B" fill-rule="nonzero" d="M283.561 234.612l5.095-5.026 5.032 5.088-5.094 5.027z"/><path fill="#73B53B" fill-rule="nonzero" opacity=".5" d="M289.635 240.753l5.094-5.027 5.033 5.089-5.095 5.026z"/><path fill="#73B53B" fill-rule="nonzero" opacity=".3" d="M295.705 246.895l5.094-5.027 5.033 5.088-5.095 5.027z"/><path transform="rotate(-51.85 393.536 -155.377)" d="M12.84-1.663l10.679-.131-.428 34.586-10.68.132z" opacity=".5" fill="url(#d)" fill-rule="nonzero"/><path fill="#FFF" fill-rule="nonzero" d="M280.192 239.622l6.257-7.955 26.933 21.13-6.257 7.956z"/><path fill="#3C83E9" fill-rule="nonzero" d="M281.547 238.798l4.423-5.625 5.631 4.419-4.423 5.624z"/><path fill="#3C83E9" fill-rule="nonzero" opacity=".5" d="M288.343 244.132l4.423-5.625 5.631 4.419-4.423 5.624z"/><path fill="#3C83E9" fill-rule="nonzero" opacity=".3" d="M295.146 249.462l4.424-5.624 5.631 4.418-4.423 5.624z"/><path d="M394.937 268.647a7 7 0 1 0-5.873 12.708 7 7 0 0 0 5.873-12.708zm-4.764 10.29a4.338 4.338 0 1 1 3.642-7.875 4.338 4.338 0 0 1-3.642 7.874z" fill="#F0CBC6" fill-rule="nonzero"/><path d="M386.661 249l-13.755 9.798a6.846 6.846 0 0 0-2.906 5.58c0 3.52 1.585 8.805 9.169 13.576a6.789 6.789 0 0 0 7.425-.121l13.406-9.08L386.661 249z" fill="#F0CBC6" fill-rule="nonzero"/><path d="M401.043 267.416c-2.16 1.856-7.284-.862-11.45-6.066-4.168-5.205-5.799-10.918-3.638-12.769 2.16-1.851 7.293.867 11.46 6.067.263.334.525.669.764 1.003l.272.383a20.238 20.238 0 0 1 3.338 6.992c.047.233.093.46.122.683.248 1.643-.015 2.985-.868 3.707z" fill="#F0CBC6" fill-rule="nonzero"/><ellipse fill="#F9FAFB" fill-rule="nonzero" transform="rotate(-39.63 393.9 258.85)" cx="393.899" cy="258.851" rx="4.191" ry="9.763"/><path d="M400.659 264.988c-.034.063-.072.12-.105.178-.097.136-.21.259-.339.365-1.083.907-3.077.451-5.247-.96l-.225-.154a17.758 17.758 0 0 1-2.022-1.642 21.961 21.961 0 0 1-1.937-2.079 17.589 17.589 0 0 1-1.14-1.507 18.825 18.825 0 0 1-1.36-2.276.779.779 0 0 1-.047-.086c-1.432-2.828-1.675-5.339-.444-6.361 1.78-1.484 6.001.696 9.431 4.863.41.48.792 1.003 1.135 1.512.077.101.148.207.215.312 2.118 3.154 2.958 6.27 2.085 7.835z" fill="#000" fill-rule="nonzero" opacity=".1"/><path d="M402 264.32a3.053 3.053 0 0 1-1.547 1.487l-.217.077c-.154.049-.312.08-.472.097a3.846 3.846 0 0 1-1.656-.198c-2.226-.719-3.254-.705-3.721-.483a17.618 17.618 0 0 1-2-1.65 21.937 21.937 0 0 1-1.915-2.09 17.657 17.657 0 0 1-1.128-1.515c-.5-.729-.95-1.493-1.344-2.287 2.25.917 6.637 2.538 8.113 1.848a4.663 4.663 0 0 0 1.698-1.68l.147-.231.06-.101c.119-.198.237-.391.34-.594 1.906 2.543 3.166 5.159 3.642 7.32z" fill="#000" fill-rule="nonzero" opacity=".1"/><path d="M402 264.98c-.33.902-1.016 1.598-1.87 1.9-.153.05-.31.084-.468.1a3.634 3.634 0 0 1-1.641-.206c-1.595-.54-2.572-.686-3.161-.64-.182.006-.36.047-.529.12a17.695 17.695 0 0 1-1.982-1.722 22.512 22.512 0 0 1-1.899-2.182 18.4 18.4 0 0 1-1.117-1.582A19.702 19.702 0 0 1 388 258.38c.098.046.196.091.309.131 2.305.978 6.336 2.484 7.734 1.804a4.775 4.775 0 0 0 1.688-1.768l.145-.242.06-.106a11.908 11.908 0 0 0 .608-1.199 21.435 21.435 0 0 1 3.33 7.27c.051.242.098.478.126.71z" fill="#000" fill-rule="nonzero" opacity=".1"/><path d="M408.345 249.278a6.987 6.987 0 0 1-1.82 1.033c-2.636 1.085-4.111 3.883-3.502 6.646l.03.122c.801 3.347.452 8.025-2.293 8.804-.16.049-.325.082-.492.098a4.134 4.134 0 0 1-1.727-.2c-2.321-.726-3.394-.711-3.88-.487a18.258 18.258 0 0 1-2.086-1.667 22.433 22.433 0 0 1-1.997-2.11 17.88 17.88 0 0 1-1.176-1.53 19.045 19.045 0 0 1-1.402-2.309c2.346.926 6.921 2.563 8.46 1.871a4.815 4.815 0 0 0 1.776-1.71l.153-.234.064-.102a11.709 11.709 0 0 0 1.756-5.462c.182-2.631 1.358-7.202 7.457-5.77.646.15 1.148.652 1.292 1.293a1.701 1.701 0 0 1-.613 1.714z" fill="#59393C" fill-rule="nonzero"/><path d="M338.624 374.025s-19.765-1.174-17.433 12.47c0 0-.467 2.409 1.753 3.505 0 0 .038-1.013 2.03-.668a9.186 9.186 0 0 0 2.145.102 4.477 4.477 0 0 0 2.628-1.069s5.553-2.26 7.718-11.204c0 0 1.594-1.952 1.533-2.454l-3.338 1.404s1.141 2.372.243 4.338c0 0-.107-4.25-.748-4.144-.13 0-1.734.824-1.734.824s1.964 4.145.468 7.129c0 0 .565-5.066-1.094-6.83l-2.338 1.35s2.29 4.264.739 7.74c0 0 .397-5.332-1.23-7.413l-2.127 1.634s2.15 4.205.837 7.087c0 0-.168-6.212-1.3-6.681 0 0-1.87 1.616-2.145 2.302 0 0 1.477 3.049.56 4.66 0 0-.56-4.144-1.023-4.144 0 0-1.87 2.763-2.043 4.605 0 0 .08-2.8 1.594-4.886-1.07.198-2.056.7-2.838 1.446 0 0 .29-1.939 3.296-2.105 0 0 1.533-2.081 1.945-2.21 0 0-2.992-.244-4.806.548 0 0 1.594-1.842 5.353-1l2.099-1.69s-3.936-.529-5.61.06c0 0 1.926-1.62 6.176-.46l2.29-1.345s-3.361-.713-5.362-.46c0 0 2.113-1.124 6.03.092l1.637-.723s-2.464-.46-3.184-.553c-.72-.092-.757-.271-.757-.271a8.657 8.657 0 0 1 4.624.506s3.473-1.275 3.412-1.492z" fill="#3C83E9" fill-rule="nonzero"/><ellipse fill="#3C83E9" fill-rule="nonzero" opacity=".1" cx="324.5" cy="391.5" rx="14.5" ry="2.5"/><path d="M377.782 337.014s-10.978-.662-9.674 7.014a1.87 1.87 0 0 0 .976 1.972s0-.565 1.124-.372a5.14 5.14 0 0 0 1.194.055 2.495 2.495 0 0 0 1.46-.602s3.087-1.269 4.285-6.306c0 0 .889-1.094.852-1.38l-1.843.791s.631 1.333.134 2.441c0 0-.06-2.395-.415-2.335-.074 0-.963.46-.963.46s1.092 2.325.267 4.012c0 0 .314-2.863-.608-3.842l-1.304.74s1.272 2.399.41 4.357c0 0 .222-3.001-.681-4.173l-1.184.919s1.197 2.362.46 3.985c0 0-.092-3.493-.723-3.76-.448.379-.847.81-1.189 1.287 0 0 .816 1.714.31 2.62 0 0-.31-2.33-.568-2.34 0 0-1.032 1.545-1.138 2.602.05-.981.357-1.932.89-2.758a3.121 3.121 0 0 0-1.58.814s.16-1.09 1.842-1.186c0 0 .853-1.172 1.078-1.241 0 0-1.663-.138-2.667.308 0 0 .884-1.03 2.971-.56l1.17-.952s-2.188-.3-3.118.032c0 0 1.068-.92 3.432-.248l1.271-.759c-.978-.213-1.98-.3-2.98-.257 0 0 1.174-.63 3.354.055l.92-.41s-1.381-.266-1.768-.307c-.387-.041-.42-.156-.42-.156a4.746 4.746 0 0 1 2.567.285s1.893-.685 1.856-.805z" fill="#3C83E9" fill-rule="nonzero"/><ellipse fill="#3C83E9" fill-rule="nonzero" opacity=".1" cx="370" cy="347.5" rx="8" ry="1.5"/><path d="M310.702 343.02s-14.243-.884-12.565 9.351a2.516 2.516 0 0 0 1.268 2.629s.025-.756 1.485-.507a6.57 6.57 0 0 0 1.544.076 3.23 3.23 0 0 0 1.896-.802s4.005-1.695 5.56-8.409c0 0 1.153-1.461 1.109-1.837l-2.406 1.05s.822 1.782.173 3.259c0 0-.074-3.192-.54-3.116-.094 0-1.247.614-1.247.614s1.416 3.1.347 5.349c0 0 .405-3.816-.788-5.126l-1.693 1.015s1.654 3.197.53 5.81c0 0 .287-4.003-.886-5.581l-1.535 1.222s1.555 3.152.61 5.319c0 0-.125-4.659-.941-5.014 0 0-1.342 1.213-1.545 1.715 0 0 1.064 2.284.401 3.496 0 0-.401-3.105-.733-3.12 0 0-1.336 2.03-1.485 3.466a7.595 7.595 0 0 1 1.149-3.664c-.77.15-1.481.527-2.045 1.086 0 0 .208-1.457 2.376-1.584 0 0 1.104-1.557 1.401-1.654 0 0-2.158-.183-3.465.411 0 0 1.149-1.375 3.861-.75l1.515-1.264s-2.841-.401-4.044.04c0 0 1.386-1.213 4.455-.33l1.649-1.015s-2.421-.507-3.867-.34c0 0 1.525-.842 4.347.072l1.183-.543s-1.777-.36-2.297-.417c-.52-.055-.545-.203-.545-.203a6.014 6.014 0 0 1 3.332.381s2.48-.923 2.436-1.086z" fill="#3C83E9" fill-rule="nonzero"/><ellipse fill="#3C83E9" fill-rule="nonzero" opacity=".1" cx="301" cy="356" rx="10" ry="2"/><path d="M281.686 141.036s.748-2.232-.298-3.388l-2.17-2.39-11.04-15.94s-2.688-3.174-2.242-5.047c.446-1.873-2.54-3.894-2.54-3.894s1.623-2.002.673-3.197c-.95-1.195-2.468-3.03-2.468-3.68 0-.65-5.736-9.079-13.21-11.133l.23-.168c-.432-.096-.87-.167-1.31-.215-5.41-.592-7.968-.898-12.62-2.867l-.25.263-.642-.263a91.052 91.052 0 0 1-4.532-2.088 294.922 294.922 0 0 1-5.914-2.991 15.67 15.67 0 0 1-2.88-5.3 9.654 9.654 0 0 1-.22-.74 16.34 16.34 0 0 0 8.361-14.16 15.929 15.929 0 0 0-2.198-8.09c-.091-.157-.197-.305-.293-.477.034-.038.067-.072.096-.11.099-.13.188-.268.269-.41.155-.29.288-.59.398-.9.058-.152.11-.305.163-.477.217-.626.433-1.252.653-1.878l.648-1.878c.435-1.131.702-2.319.792-3.526a4.549 4.549 0 0 0-.182-1.51 3.543 3.543 0 0 0-.509-1.032c-1.094-1.54-3.442-2.184-3.946-3.986a3.33 3.33 0 0 1-.1-.874v-.956-.234-.144a3.051 3.051 0 0 0-.14-.812c0-.033 0-.067-.033-.096a3.39 3.39 0 0 0-.163-.382 3.146 3.146 0 0 0-.274-.435 6.301 6.301 0 0 0-3.307-2.102 13.083 13.083 0 0 0-8.938.573 2.923 2.923 0 0 1-1.258.373c-.71 0-1.258-.583-1.872-.927-1.978-1.113-4.455.067-6.356 1.3a9.734 9.734 0 0 0-2.53 2.112c-.623.822-.96 1.806-1.55 2.657-1.824 2.7-5.462 3.57-8.098 5.547-2.851 2.141-4.44 5.587-4.834 9.051-.393 3.464.312 6.972 1.373 10.307.114.371.247.737.399 1.094-.408 4.602 1.507 10.46 1.78 11.469.452 1.658-5.376 6.924-5.376 6.924L165.29 99.467s-.072-.444-2.371-.281c-2.3.162-6.61 5.356-6.61 5.356l.345.029c-.22.253-.345.406-.345.406l.936.077c-2.784 2.389-6.068 5.256-7.772 6.933-.48.45-.864.836-1.142 1.137-2.4 2.595-.821 9.739-.821 9.739s-.375 4.396 6.576 4.974c0 0 8.07 1.587 12.03 0 3.96-1.586 11.482-1.983 11.482-1.983s-3.077 10.279-2.88 13.309c.196 3.03-2.055 13.795-2.055 13.795l-6.874 35.968s-6.432 12.5 12.96 14.335v.583s.48.072 1.234.153c-.033.411-.067.841-.1 1.286-.25 3.154-.519 6.948-.39 7.359a3.397 3.397 0 0 0 1.2 1.371l.75 6.346s.744 5.467 1.44 7.063 2.4 5.848 2.093 7.22c-.308 1.371 1.118 5.91 1.118 5.91s.672 4.402.898 5.482c.225 1.08 0 11.827 0 11.827a20.63 20.63 0 0 0 4.411 1.577c.043.172.086.353.134.535a778.765 778.765 0 0 0 2.237 8.912c.893 3.46 2.837 9.518 2.837 9.518s.221 7.866 1.565 9.38c1.344 1.515 1.047 16.372 6.72 25.456 4.076 6.522 9.073 18.87 11.569 25.326-.091 2.915-.23 6.097-.432 8.816a6.319 6.319 0 0 0-1.555 2.8c-.672 3.245-4.853 8.721-4.853 8.721s-4.258 3.536-6.053 4.043c-.325.11-.63.271-.903.478-1.843 1.304-4.008 4.745.38 6.097 1.68.516 4.075.478 6.677.09-.037.45-.037.903 0 1.353 0 0-2.242 5.481-3.217 7.574-.355.765-1.152 1.864-1.857 3.025-1.239 2.036-2.194 4.258 0 5.199.672.287 12.255-.215 16.138 1.008 3.883 1.223 6.648-2.814 6.648-2.814s.298-4.11 1.196-5.84c.508-.989.148-3.158-.255-4.85a33.164 33.164 0 0 0-.643-2.284 68.898 68.898 0 0 1-.96-10.422l5.717-4.148a5.11 5.11 0 0 0 2.006-5.375l-.192-.76c-.888-3.47-2.28-8.224-3.753-10.513a9.86 9.86 0 0 1 .96-2.442c1.79-2.595 5.083-18.679 5.904-21.135.246-.852.444-1.717.595-2.59 1.032-5.065 2.597-17.394.058-23.1l-1.301-13.934s-.744-10.67.077-14.78c.441-2.658.727-5.34.854-8.032v-.191l7.743.377V218.93l.677-12.644.067-1.28a8.19 8.19 0 0 0 1.046.286c1.47-.932 1.839-3.201 1.772-5.528a23.11 23.11 0 0 0-.26-3.728 9.036 9.036 0 0 0 2.501-4.377l16.21-14.584.068-.129c.365-.73 2.203-4.42 2.909-6.365.648-1.797.22-11.468.053-14.68 1.06.091 2.347.192 3.571.254 1.863.1 3.567.11 4.104-.12 1.35-.578 3.063-4.62 4.407-7.067 1.344-2.447-.883-7.932-.883-7.932zM196.895 84.51s.379-3.589.422-8.019l2.4-.793c.365.34.74.664 1.133.956.064.318.122.653.173 1.003.417 2.695.59 5.883-.096 8.755-.115.08-3.288 2.217-4.061 4.5-.408 1.22-1.656 1.74-2.76 1.965a8.645 8.645 0 0 1-1.892.148l-2.942.478 7.623-8.993zm15.975 172.222c-.101-.272-.188-.516-.27-.731l.207-.124v-1.659c.02.646.034 1.51.063 2.495v.019z" fill="url(#e)" fill-rule="nonzero"/><path d="M239 96.75s-8.023 10.37-14.448 18.544c-4.142 5.263-7.609 9.63-7.87 9.701-.26.013-.522 0-.78-.038-3.234-.289-15.518-2.022-21.106-2.821l-2.796-.4s.176-4.891.918-10.823c.88-7.116 2.577-15.724 5.735-19.161a9.8 9.8 0 0 0 2.03-3.5c1.123-3.226.952-7.078.505-10.25a39.042 39.042 0 0 0-1.46-6.259s20.387-12.166 19.313-1.083a21.327 21.327 0 0 0 .746 8.44c1.541 5.016 4.623 7.221 4.623 7.221l.085.063L239 96.749z" fill="#FFB9B9" fill-rule="nonzero"/><path d="M221 78.668c-5.805 3.467-13.197 3.037-18.543-1.078-.313-2.051-.8-4.073-1.457-6.044 0 0 20.346-11.748 19.274-1.046a19.956 19.956 0 0 0 .726 8.168z" fill="#000" fill-rule="nonzero" opacity=".1"/><path d="M228 64.488c.006 8.293-6.144 15.301-14.368 16.373-8.223 1.07-15.964-4.128-18.082-12.146-2.118-8.017 2.044-16.361 9.723-19.492 7.68-3.13 16.489-.074 20.58 7.139A16.512 16.512 0 0 1 228 64.488z" fill="#FFB9B9" fill-rule="nonzero"/><path d="M226 56.175c-.057.1-.12.196-.189.288-1.093 1.45-3.21 1.686-5.049 1.535-2.171-.185-4.575-.945-5.503-2.862-.856-1.775-.62-3.678-2.975-3.943-2.04-.231-4.778-1.624-6.77-.826-1.572.638-2.201 2.498-2.346 4.16-.145 1.662 0 3.423-.793 4.901-.75 1.393-2.21 2.319-2.97 3.707-.851 1.568-.672 3.456-.45 5.222.223 1.766.45 3.636-.338 5.237-.068.14-.146.276-.232.406-3.746-4.81-4.44-11.254-1.798-16.718 2.642-5.463 8.179-9.037 14.362-9.27 6.184-.233 11.986 2.914 15.051 8.163z" fill="#000" fill-rule="nonzero" opacity=".1"/><path d="M214.918 54.004c.907 1.97 3.253 2.744 5.373 2.928 1.793.16 3.861-.082 4.928-1.573.351-.55.617-1.152.788-1.785l1.237-3.794c.652-2.008 1.265-4.355.1-6.121-1.044-1.554-3.277-2.202-3.754-4.026-.222-.847 0-1.752-.118-2.618-.274-1.786-2.006-2.947-3.691-3.48a11.73 11.73 0 0 0-8.498.581 2.7 2.7 0 0 1-1.194.373c-.675 0-1.194-.586-1.78-.934-1.888-1.123-4.248.068-6.037 1.311A9.346 9.346 0 0 0 199.864 37c-.59.828-.944 1.82-1.473 2.681-1.737 2.724-5.193 3.6-7.695 5.599-2.714 2.158-4.225 5.632-4.593 9.13-.368 3.5.293 7.037 1.298 10.405.173.664.435 1.301.78 1.892 1.019 1.587 3.049 2.264 4.04 3.87.798 1.293.873 3.103 2.087 3.998 1.44 1.06 3.611 0 4.376-1.66.765-1.66.547-3.566.33-5.371-.217-1.805-.392-3.745.44-5.352.736-1.423 2.17-2.371 2.898-3.799.77-1.514.637-3.32.774-5.022.137-1.704.755-3.605 2.294-4.259 1.931-.822 4.603.61 6.61.842 2.284.28 2.053 2.226 2.888 4.05z" fill="#B96B6B" fill-rule="nonzero"/><g opacity=".1" fill="#000" fill-rule="nonzero"><path d="M191.345 69.046c-1.019-1.6-3.095-2.275-4.137-3.856v-.038c.029.11.062.221.096.332.177.662.445 1.296.797 1.885 1.042 1.58 3.118 2.255 4.132 3.855.058.092.116.188.17.29-.287-.85-.64-1.675-1.058-2.468zM223.424 38.231c.14.491.405.937.768 1.297.043-.576.043-1.155 0-1.73a3.342 3.342 0 0 0-.83-1.702 8.992 8.992 0 0 0 .062 2.135zM211.587 48.51c-2.037-.23-4.775-1.657-6.759-.838-1.574.65-2.201 2.545-2.341 4.241-.14 1.697 0 3.494-.797 5.003-.743 1.421-2.206 2.366-2.959 3.783-.854 1.6-.671 3.528-.449 5.33.222 1.802.444 3.71-.338 5.35-.782 1.638-3.007 2.708-4.48 1.652a2.99 2.99 0 0 1-.864-1.036c.483 1.162.729 2.487 1.738 3.21 1.472 1.055 3.693 0 4.475-1.653.782-1.653.56-3.552.338-5.35-.222-1.797-.4-3.73.449-5.33.753-1.417 2.22-2.361 2.964-3.783.787-1.508.652-3.306.792-5.002.14-1.697.772-3.59 2.346-4.241 1.975-.82 4.707.607 6.759.838.68.03 1.312.359 1.728.897-.488-1.49-.666-2.844-2.602-3.07zM228.131 44.41a4.57 4.57 0 0 0-.222-.29c.125 1.37-.304 2.868-.753 4.213l-1.26 3.778a6.193 6.193 0 0 1-.811 1.778c-1.086 1.48-3.206 1.72-5.04 1.566-1.98-.168-4.157-.828-5.219-2.448.159.582.359 1.153.599 1.706.927 1.962 3.326 2.733 5.494 2.916 1.834.159 3.949-.082 5.04-1.566.359-.548.631-1.148.806-1.779.42-1.257.845-2.515 1.265-3.778.666-2 1.293-4.357.101-6.096z"/></g><path d="M191.085 55.186l1.4-.471a4.67 4.67 0 0 1 5.921 2.918l4.353 12.77a4.67 4.67 0 0 1-2.92 5.927l-1.4.468a4.67 4.67 0 0 1-5.923-2.918l-4.352-12.77a4.67 4.67 0 0 1 2.92-5.927z" fill="#464A5F" fill-rule="nonzero"/><path d="M190.699 55.187l1.399-.472a4.67 4.67 0 0 1 5.922 2.918l4.352 12.77a4.67 4.67 0 0 1-2.92 5.927l-1.4.468a4.67 4.67 0 0 1-5.922-2.918l-4.353-12.77a4.67 4.67 0 0 1 2.92-5.927z" fill="#9C9CA1" fill-rule="nonzero"/><circle fill="#939498" fill-rule="nonzero" cx="193" cy="61" r="2"/><path d="M193 257.233s2.057 8.772 2.91 12.224c.854 3.451 2.698 9.494 2.698 9.494s.213 7.835 1.486 9.346c1.274 1.51.996 16.326 6.387 25.385 5.392 9.059 12.49 29.415 12.49 29.415l.944 6.903L229 339.287l-7.547-39.201s-4.396-15.89-3.052-20.853c1.344-4.962-5.604-24.233-5.604-24.233L193 257.233z" fill="#FFB9B9" fill-rule="nonzero"/><path d="M229 339.282L219.915 350l-.943-6.903s-7.076-20.351-12.49-29.415c-5.416-9.064-5.11-23.87-6.388-25.38-1.278-1.511-1.486-9.351-1.486-9.351s-1.844-6.043-2.698-9.494c-.51-2.06-1.448-6.034-2.122-8.883a153.056 153.056 0 0 1-.788-3.346L212.811 255s.222.607.571 1.635c1.637 4.757 6.132 18.515 5.033 22.598-1.349 4.962 3.057 20.853 3.057 20.853L229 339.282z" fill="#000" fill-rule="nonzero" opacity=".05"/><path d="M231.914 357.349l-8.072 6.124c-3.9 4.234-15.355 7.735-20.355 6.13-4.242-1.368-2.15-4.85-.365-6.168.26-.21.554-.374.869-.485 1.732-.514 5.85-4.088 5.85-4.088s4.04-5.543 4.687-8.825c.648-3.283 5.279-5.984 5.279-5.984s6.204-6.125 9.021-4.888c1.838.815 3.738 7.453 4.842 11.958l.182.77a5.29 5.29 0 0 1-1.938 5.456z" fill="#C7C0D9" fill-rule="nonzero"/><path d="M231.921 357.254l-8.073 6.17c-3.902 4.265-15.36 7.793-20.36 6.176-4.244-1.378-2.151-4.886-.365-6.215 1.723 2.74 8.015 2.247 8.015 2.247l11.193-5.07L233.673 351l.182.777c.486 2.055-.274 4.207-1.934 5.477z" fill="#000" fill-rule="nonzero" opacity=".1"/><path d="M219.25 343.097s-7.072-20.355-12.48-29.413c-5.407-9.06-5.105-23.873-6.383-25.384-1.277-1.51-1.49-9.346-1.49-9.346s-1.843-6.042-2.692-9.493c-.513-2.066-1.452-6.033-2.126-8.882-.471-1.912-.787-3.347-.787-3.347l18.561-2.093-.052-.139L192 257.232s.33 1.435.787 3.347c.67 2.868 1.613 6.816 2.122 8.882.849 3.451 2.692 9.493 2.692 9.493s.212 7.835 1.49 9.346c1.277 1.51.99 16.325 6.383 25.384 5.394 9.058 12.48 29.413 12.48 29.413l.943 6.903 1.103-1.3-.75-5.603z" fill="#000" fill-rule="nonzero" opacity=".05"/><path fill="#CAA8B1" fill-rule="nonzero" d="M244 128h23v26h-23z"/><path d="M267.653 171.009c-.68 1.95-2.453 5.65-2.807 6.382a1.542 1.542 0 0 1-.062.135l-16.16 15.113-.388.361-.101-.332c-.853-2.888-6.932-23.368-7.665-24.485-.585-.88-.302-4.495-.12-6.314.067-.645.12-1.06.12-1.06l-.47-14.188 2.395-4.621 22.187 7.056 3.11 6.137s.718 13.64-.039 15.816z" fill="#CAA8B1" fill-rule="nonzero"/><path d="M266 177.218c-.038.092-.062.136-.062.136l-16.02 15.281-.476.03-5.471.335L240 160s.65.608 1.734 1.523c3.153 2.662 9.974 7.942 15.199 8.638 5.139.687 7.937 4.862 9.067 7.057z"/><path d="M266 177.218c-.038.092-.062.136-.062.136l-16.02 15.281-.476.03-5.471.335L240 160s.65.608 1.734 1.523c3.153 2.662 9.974 7.942 15.199 8.638 5.139.687 7.937 4.862 9.067 7.057zM268 168.923s-3.378-.316-4.826-1.596C261.726 166.047 258 164 258 164l5.28 5.6s4.01 1.253 4.72-.677z" fill="#000" fill-rule="nonzero" opacity=".1"/><path d="M254 173s.33 5.942 4.005 6c3.674.058-4.005-6-4.005-6zM257 172s3.213 5.68 4.756 4.932C263.3 176.185 257 172 257 172z" fill="#000" fill-rule="nonzero" opacity=".1"/><path d="M182.349 125.038l-3.756 1.353s-7.23.386-11.034 1.925c-3.804 1.539-11.559 0-11.559 0s13.497-17.137 13.711-17.202C169.926 111.05 184 106 184 106l-1.651 19.038z" fill="#CBCDDA" fill-rule="nonzero"/><path d="M182.349 125.038l-3.756 1.353s-7.23.386-11.034 1.925c-3.804 1.539-11.559 0-11.559 0s13.497-17.137 13.711-17.202C169.926 111.05 184 106 184 106l-1.651 19.038z" fill="#000" fill-rule="nonzero" opacity=".03"/><path d="M236.211 316.434c-.774 2.458-3.879 18.562-5.572 21.158-1.693 2.597-3.667 17.544-3.667 17.544l-.38.274-.821.59s-12.143-.576-10.736-2.813a6.63 6.63 0 0 0 .53-2.093c.938-6.076 1.023-22.238 1.023-22.238l.14-25.636s3.19-8.27.985-14.366a32.538 32.538 0 0 1-1.974-11.26s.352-5.924-1.2-8.305c-1.258-1.92-1.497-12.134-1.539-15.887v-1.392l1.97-3.01 21.574 1.517s-.047 1.78-.178 4.09a70.814 70.814 0 0 1-.807 8.04c-.774 4.113-.07 14.797-.07 14.797l1.2 13.92c2.838 6.734.3 22.617-.478 25.07z" fill="#FFB9B9" fill-rule="nonzero"/><path d="M213 256.595v.159c-8.054 4.912-15.485 4.651-20.188 3.67-.486-1.86-.812-3.256-.812-3.256L212.426 255s.214.586.574 1.595z" fill="#000" fill-rule="nonzero" opacity=".05"/><path d="M245 200.27l-.29 5.616-.64 12.68-31.199 5.14v31.898c-13.214 8.53-24.681 2.02-24.681 2.02s.213-10.776 0-11.863c-.214-1.086-.86-5.496-.86-5.496s-1.357-4.558-1.067-5.928c.29-1.37-1.363-5.64-2.003-7.213-.641-1.572-1.353-7.082-1.353-7.082l-.731-6.39a3.355 3.355 0 0 1-1.144-1.38c-.123-.41.133-4.213.37-7.377.18-2.346.347-4.327.347-4.327L210.878 195 245 200.27z" fill="#4C4C78" fill-rule="nonzero"/><path d="M213 228.43V253c-.732-.34-1.749-1.186-1.85-3.25-.16-3.27-.487-11.015-1.07-14.497-.583-3.482 2.224-7.253 2.224-7.253l.696.43z" fill="#000" fill-rule="nonzero" opacity=".05"/><path d="M194 218s1.377 3.855 5.87 4.88c4.494 1.026-5.87-4.88-5.87-4.88zM189 224s10.488 2.088 13 1.997M193 232s5.715.104 9-2M192 248s14.286-5.254 16-8M195 256c.47-.074 12.938-7.927 14-10M237 252.353s-.048 1.588-.182 3.647L213 254.926v-1.242l2.008-2.684L237 252.353zM217 222.799s12.177-3.143 14.74-1.12c2.565 2.024-14.74 1.12-14.74 1.12zM205 202s2.438 22.454 4.451 23.938C211.465 227.42 220 202 220 202h-15z" fill="#000" fill-rule="nonzero" opacity=".1"/><path d="M205 201s2.443 22.454 4.451 23.938C211.46 226.42 220 201 220 201h-15z" fill="#4C4C78" fill-rule="nonzero"/><path d="M245 200.32l-.291 5.68a20.454 20.454 0 0 1-6.176-3.633 2.647 2.647 0 0 0-.301-.233c-2.45-1.785-5.656-1.128-7.748-.374-.741.266-1.462.591-2.154.972 0 0-31.759 1.1-31.759.219 0-.647-4.494.34-7.518 1.191-.81.216-1.607.478-2.388.783-1.146.487-3.95.273-5.565.083h-.1c.182-2.373.349-4.377.349-4.377L210.662 195 245 200.32z" fill="#000" fill-rule="nonzero" opacity=".1"/><path d="M246.273 205a8.195 8.195 0 0 1-1.014-.294 20.423 20.423 0 0 1-6.285-3.623 4.577 4.577 0 0 0-.303-.232c-2.465-1.763-5.69-1.117-7.794-.366-.747.262-1.472.584-2.167.964 0 0-31.95 1.089-31.95.217 0-.641-4.521.337-7.563 1.18-.814.215-1.615.473-2.402.771-1.154.482-3.974.27-5.599.087-.71-.087-1.196-.16-1.196-.16v-.245l1.58-40.2 4.551-35.8 1.668-15.004 5.406-2.64 5.434-2.655c.606.845 1.302 1.62 2.076 2.313 2.763 2.51 8.14 5.642 15.32 1.407a22.014 22.014 0 0 0 2.267-1.542c2.45-1.894 4.752.246 6.867 4.862 8.265 17.982 13.66 73.489 13.66 73.489l8.17 5.3s.278 1.045.547 2.534c.548 3.089 1.029 8.12-1.273 9.637z" fill="#000" fill-rule="nonzero" opacity=".1"/><path d="M246.27 206a7.536 7.536 0 0 1-1.014-.29 20.654 20.654 0 0 1-6.287-3.623 3.366 3.366 0 0 0-.303-.231c-2.465-1.764-5.69-1.118-7.796-.371a14.88 14.88 0 0 0-2.167.964s-31.938 1.113-31.938.221c0-.645-4.523.333-7.566 1.176-.814.216-1.616.475-2.403.776-1.153.482-3.975.27-5.6.082-.71-.082-1.196-.154-1.196-.154v-.251l1.581-40.196 4.552-35.807 1.668-15.005 5.407-2.64 5.436-2.651a14.043 14.043 0 0 0 2.076 2.308c2.764 2.515 8.142 5.647 15.323 1.412a22.106 22.106 0 0 0 2.268-1.547c2.452-1.894 4.754.25 6.869 4.862 8.262 17.978 13.66 73.493 13.66 73.493l8.17 5.3s.279 1.046.548 2.53c.533 3.098 1.014 8.124-1.288 9.642z" fill="#FFF" fill-rule="nonzero"/><path d="M248 195.832c-2.145 2.671-5.706 4.387-8.962 5.457a39.706 39.706 0 0 1-7.37 1.711l-.486-2.06c-1.188-4.697-4.187-16.247-5.91-20.548-2.193-5.457-2.78-11.784-2.78-11.784a60.897 60.897 0 0 0-3.241-16.964c-1.412-4.043-2.208-15.517-2.659-26.852a771.62 771.62 0 0 1-.398-12.878c-.18-8.158-.194-14.255-.194-14.255l2.625-4.1a8.307 8.307 0 0 1 1.189-5.257A13.566 13.566 0 0 1 222.492 85c1.029.54 1.975 1.042 2.868 1.5l14.799 10.289s-8.186 10.293-14.741 18.407c8.34 17.83 13.79 72.885 13.79 72.885l8.249 5.257s.271 1.06.543 2.494z" fill="#000" fill-rule="nonzero" opacity=".1"/><path d="M245.805 167.921c-.439 8.336 4.929 22.283 4.929 22.283C249.866 200.126 232.6 202 232.6 202s-4.21-17.111-6.385-22.58c-2.175-5.467-2.759-11.79-2.759-11.79a61.327 61.327 0 0 0-3.226-16.963c-3.086-8.92-3.231-54.01-3.231-54.01l2.614-4.097a8.352 8.352 0 0 1 1.177-5.257A13.63 13.63 0 0 1 223.457 84c2.224 1.18 4.11 2.16 5.744 2.983 1.635.822 3.13 1.529 4.403 2.083 4.514 1.95 6.997 2.252 12.25 2.844.428.045.853.117 1.272.215 7.567 1.716 13.475 10.654 13.475 11.266 0 .612 1.47 2.485 2.41 3.666.941 1.18-.655 3.183-.655 3.183s2.893 2.017 2.469 3.886c-.424 1.869 2.175 5.033 2.175 5.033l-16.252 12.222s-4.509 28.195-4.943 36.54z" fill="#CBCDDA" fill-rule="nonzero"/><circle fill="#767D9F" fill-rule="nonzero" cx="219" cy="105" r="1"/><circle fill="#767D9F" fill-rule="nonzero" cx="219" cy="117" r="1"/><circle fill="#767D9F" fill-rule="nonzero" cx="222" cy="145" r="1"/><circle fill="#767D9F" fill-rule="nonzero" cx="224" cy="160" r="1"/><circle fill="#767D9F" fill-rule="nonzero" cx="227" cy="175" r="1"/><circle fill="#767D9F" fill-rule="nonzero" cx="221" cy="131" r="1"/><path d="M229 88.078c-1.155 1.618-4.124 3.922-4.334 3.922-.78 0-2.663-2.319-3.666-3.618A13.869 13.869 0 0 1 223.534 85 193.994 193.994 0 0 0 229 88.078z" fill="#000" fill-rule="nonzero" opacity=".1"/><path d="M229 87.057c-1.155 1.611-4.124 3.943-4.334 3.943-.78 0-2.663-2.317-3.666-3.615A13.828 13.828 0 0 1 223.534 84 299.56 299.56 0 0 0 229 87.057z" fill="#CBCDDA" fill-rule="nonzero"/><path d="M204.254 101.237s-2.114 5.203-4.159 8.997a16.628 16.628 0 0 1-2.226 3.396c-1.177 1.207-2.334 4.839-3.226 8.11a98.958 98.958 0 0 0-1.4 6.012c-1.195 1.878-1.195 25.15-1.195 25.15 2.04 8.94-1.685 34.3-1.685 34.3l-1.097 12.312-.336 3.707-.061.705c-.789.033-1.55.057-2.278.067a50.986 50.986 0 0 1-5.415-.197 27.048 27.048 0 0 1-1.176-.124l1.536-39.962 4.42-35.598 1.62-14.918 5.251-2.625c.864-7.08 2.53-15.646 5.63-19.066a9.784 9.784 0 0 0 1.993-3.483c.401-.362.82-.702 1.256-1.02 0 0 .541 1.068 1.18 2.347.687 1.375 1.49 2.994 1.868 3.833.765 1.571-.5 8.057-.5 8.057z" fill="#000" fill-rule="nonzero" opacity=".1"/><path d="M203.255 101.216s-4.145 10.02-6.504 12.396c-2.358 2.376-4.72 14.125-4.72 14.125-1.217 1.878-1.217 25.155-1.217 25.155 2.072 8.941-1.717 34.307-1.717 34.307l-1.54 16.722c-28.359 1.323-20.581-14.484-20.581-14.484l6.58-35.936s2.182-10.762 1.968-13.79c-.214-3.028 2.734-13.296 2.734-13.296s-5.201-27.245-4.664-28.486c.537-1.24 18.665-4.312 18.665-4.312.607.02 1.215-.03 1.811-.149 1.056-.22 2.249-.742 2.639-1.96.756-2.328 3.903-4.508 3.903-4.508s.547 1.068 1.198 2.353a343.633 343.633 0 0 1 1.93 3.833c.794 1.543-.485 8.03-.485 8.03z" fill="#CBCDDA" fill-rule="nonzero"/><path d="M202 90.333C199.092 92.87 195.968 102 195.968 102L194 94.422c1.092-.22 2.327-.738 2.73-1.947.783-2.31 4.04-4.475 4.04-4.475l1.23 2.333z" fill="#000" fill-rule="nonzero" opacity=".1"/><path d="M202 89.337c-2.908 2.536-6.032 11.663-6.032 11.663L194 93.424c1.092-.219 2.327-.737 2.73-1.946.783-2.313 4.04-4.478 4.04-4.478l1.23 2.337z" fill="#CBCDDA" fill-rule="nonzero"/><path d="M169 191.208s.384 4.78 9.49 1.83c9.105-2.949-9.49-1.83-9.49-1.83z" fill="#000" fill-rule="nonzero" opacity=".1"/><path d="M280.578 148.763c-1.32 2.444-3.007 6.475-4.324 7.049-.53.23-2.203.22-4.03.124-2.736-.143-5.797-.478-5.797-.478s6.888-14.705-2.5-18.45h-8.497l-5.43-5.556L264.297 118l2.13 1.224 10.851 15.872s1.102 1.22 2.13 2.391c1.029 1.172.288 3.381.288 3.381s2.203 5.452.882 7.895z" fill="#CBCDDA" fill-rule="nonzero"/><path d="M229.897 132.55S233.94 100.765 246 92.092a10.943 10.943 0 0 0-1.258-.215c-5.21-.595-7.654-.897-12.156-2.877a31.681 31.681 0 0 0-8.535 23.491c.885 16.229 0 20.016 0 20.016h1.435c2.574 5.226 13.5 26.934 19.567 31.493l.646-5.523s-15.75-18.218-17.113-25.97l1.311.043z" fill="#000" fill-rule="nonzero" opacity=".1"/><path d="M231.897 132.53S235.94 100.736 248 92.067a9.993 9.993 0 0 0-1.258-.215c-5.21-.595-7.654-.897-12.156-2.853a31.684 31.684 0 0 0-8.535 23.493c.885 16.23 0 20.017 0 20.017h1.435c2.574 5.226 13.5 26.93 19.567 31.49l.646-5.518s-15.75-18.22-17.108-25.972l1.306.02z" fill="#000" fill-rule="nonzero" opacity=".1"/><path d="M225 131.614s13.361 27.252 20.347 32.386l.653-5.482S227.264 137.23 228.681 131l-3.681.614z" fill="#6E6D84" fill-rule="nonzero"/><path d="M247 93.014C234.95 101.58 230.913 133 230.913 133h-5.862s.884-3.743 0-19.782A31.122 31.122 0 0 1 233.579 90c4.472 1.933 6.933 2.232 12.136 2.82.432.037.861.101 1.285.194z" fill="#6E6D84" fill-rule="nonzero"/><path fill="#000" fill-rule="nonzero" opacity=".1" d="M239.406 165L239 186.182l4 1.818zM248 117c2.457-.573 8.759-2.605 8.996-4.62.236-2.013-8.996 4.62-8.996 4.62zM249.083 121s7.623-3.359 8.826-4.696c1.204-1.338-9.974 2.016-8.826 4.696zM192.893 99s-3.205 6.302-1.275 6.96c1.93.657 1.275-6.96 1.275-6.96zM220 173s-28.106 16.048-22.179 16.966C203.748 190.883 220 173 220 173zM236 207s7.28 1.52 6.992 4"/><path d="M270 143.564l-.324 8.389s-2.042 3.554-3.53 4.003c-.18.04-.365.052-.55.039-2.923-.158-13.962-3.392-14.95-5.227-1.078-1.992-17.384-9.158-17.384-9.158s-13.72-20.863-3.444-25.927 9.794 19.674 9.794 19.674 9.312 1.4 10.495 2.154c.992.65 10.147.196 12.88.043l.711-.024 2.905.535 3.397 5.499z" fill="#FFB9B9" fill-rule="nonzero"/><path d="M270 142.88l-.323 8.176s-2.03 3.464-3.512 3.901c-.179.039-.363.051-.545.038l-.29-.033s6.644-14.21-2.33-17.939l.73-.023 2.891.521 3.379 5.36z" fill="#000" fill-rule="nonzero" opacity=".1"/><path d="M272.15 156c-2.686-.146-5.699-.487-5.699-.487s6.774-14.958-2.451-18.788l7.23-.725c9.047 6.092 2.787 17.12.92 20z" fill="#000" fill-rule="nonzero" opacity=".1"/><path d="M272.14 156a114.238 114.238 0 0 1-5.693-.487s6.775-14.982-2.447-18.797l7.235-.716c9.044 6.076 2.777 17.116.905 20z" fill="#CBCDDA" fill-rule="nonzero"/><path d="M164 102.638l20.594-18.57s5.54-5.265 5.114-6.912c-.425-1.646-5.043-16.273 2.697-17.135 7.74-.861 5.194 24.477 5.194 24.477L175.51 112 164 102.638z" fill="#FFB9B9" fill-rule="nonzero"/><path d="M150.495 122.066s-1.535-7.022.802-9.573c2.337-2.551 12.94-11.493 12.94-11.493s5.321 8.017 14.763 6.848l-10.574 13.723s-4.68 5.961-11.478 5.39c-6.798-.57-6.453-4.895-6.453-4.895z" fill="#000" fill-rule="nonzero" opacity=".1"/><path d="M149.486 123.068s-1.51-7.021.792-9.577S162.99 102 162.99 102s8.91 8.865 14.01 9.93l-9.913 10.638s-4.599 5.96-11.28 5.394c-6.68-.566-6.321-4.894-6.321-4.894z" fill="#CBCDDA" fill-rule="nonzero"/><path d="M167 106l-9-.8s4.014-5.008 6.156-5.165c2.141-.158 2.206.272 2.206.272l-2.84 2.525L167 106z" fill="#000" fill-rule="nonzero" opacity=".1"/><path d="M167 106l-9-.8s4.014-5.008 6.156-5.165c2.141-.158 2.206.272 2.206.272l-2.84 2.525L167 106z" fill="#CBCDDA" fill-rule="nonzero"/><path d="M169.325 108s-2.428 8.434 5.989 9l2.686-8.181s-5.45 1.047-8.675-.819z" fill="#000" fill-rule="nonzero" opacity=".1"/><path d="M170.332 108s-2.453 8.41 5.982 9l2.686-8.196s-5.444 1.062-8.668-.804z" fill="#CBCDDA" fill-rule="nonzero"/><path d="M236.706 291.37l-1.197-13.922s-.702-10.686.07-14.8c.42-2.662.69-5.347.809-8.04.126-2.31.177-4.091.177-4.091L215.056 249l-.056.086 20.312 1.44s-.051 1.782-.177 4.09a73.26 73.26 0 0 1-.805 8.042c-.776 4.114-.075 14.8-.075 14.8l1.202 13.921c2.806 6.721.276 22.602-.495 25.055-.772 2.453-3.872 18.563-5.56 21.16-1.688 2.598-3.67 17.537-3.67 17.537l-1.1.797 1.165.072 1.201-.869s1.964-14.944 3.652-17.546c1.688-2.602 4.788-18.722 5.56-21.16.772-2.44 3.31-18.34.496-25.055z" fill="#000" fill-rule="nonzero" opacity=".1"/><path fill="#4C4C78" fill-rule="nonzero" d="M239.623 216l4.377 2.757V255l-31.807-1.646L210 226.728l5.213-6.518z"/><path d="M216 237s13.793 11.27 18 12M228 355.267a6.4 6.4 0 0 0-.41 1.143l-.885.59s-13.1-.58-11.583-2.818c.313-.662.506-1.37.572-2.093 3.061-.672 8.253 2.67 8.253 2.67l4.053.508z" fill="#000" fill-rule="nonzero" opacity=".1"/><path d="M227.763 379.225c-.84 1.71-1.12 5.768-1.12 5.768s-2.6 3.987-6.25 2.78c-3.65-1.208-14.535-.716-15.17-.995-2.049-.947-1.152-3.125 0-5.133.668-1.15 1.4-2.235 1.75-2.988.934-2.069 3.02-7.481 3.02-7.481-.28-4.418 2.95-8.192 2.95-8.192l1.401-9.262c2.366-2.414 8.775 1.999 8.775 1.999l3.734.502c-1.895 4.2.07 15.952.07 15.952s.308.985.602 2.25c.379 1.68.72 3.825.238 4.8z" fill="#C7C0D9" fill-rule="nonzero"/><path d="M227.764 378.945c-.84 1.764-1.12 5.952-1.12 5.952s-2.6 4.114-6.25 2.868-14.536-.738-15.17-1.026c-2.05-.977-1.153-3.225 0-5.297 4.943.283 16 .826 18.46-.147 3.156-1.246 3.865-5.55 3.832-7.295.388 1.725.729 3.938.248 4.945z" fill="#000" fill-rule="nonzero" opacity=".1"/><circle fill="#605B89" fill-rule="nonzero" cx="221" cy="365" r="1"/><circle fill="#605B89" fill-rule="nonzero" cx="213" cy="365" r="1"/><circle fill="#605B89" fill-rule="nonzero" cx="221" cy="369" r="1"/><circle fill="#605B89" fill-rule="nonzero" cx="212" cy="369" r="1"/><circle fill="#605B89" fill-rule="nonzero" cx="220" cy="378" r="1"/><circle fill="#605B89" fill-rule="nonzero" cx="212" cy="378" r="1"/><circle fill="#605B89" fill-rule="nonzero" cx="220" cy="376" r="1"/><circle fill="#605B89" fill-rule="nonzero" cx="212" cy="376" r="1"/><circle fill="#605B89" fill-rule="nonzero" cx="221" cy="373" r="1"/><circle fill="#605B89" fill-rule="nonzero" cx="213" cy="373" r="1"/><circle fill="#605B89" fill-rule="nonzero" cx="221" cy="371" r="1"/><circle fill="#605B89" fill-rule="nonzero" cx="213" cy="371" r="1"/><path d="M214 359s3.52 5.839 8 1.225" stroke="#000" opacity=".1"/><path d="M211.957 365s9.755 2.484 9.002 4.173c0 0-8.579-1.262-9.191 0-.612 1.262 8.437 2.444 8.437 2.444s-7.44 1.188-8.262 0c-.821-1.187 7.494 2.445 7.494 2.445s-7.494-.77-7.494 0 7.105 2.449 7.105 2.449-6.639-.716-7.105 0c-.467.715 6.61.993 6.74 2.121.132 1.128-7.683-.77-7.683 0S220.944 365 220.944 365" stroke="#605B89" opacity=".2"/><ellipse fill="#3C83E9" fill-rule="nonzero" opacity=".1" cx="30.5" cy="378.5" rx="14.5" ry="2.5"/><path d="M21 367.285s8.332-.247 10.841-1.95c2.51-1.704 12.814-3.723 13.439-1.006.624 2.718 12.52 13.594 3.114 13.668-9.406.075-21.854-1.396-24.363-2.852-2.509-1.457-3.031-7.86-3.031-7.86z" fill="#A8A8A8" fill-rule="nonzero"/><path d="M48.566 377.033c-9.406.076-21.855-1.434-24.359-2.929-1.908-1.137-2.67-5.217-2.929-7.104H21s.527 6.574 3.031 8.069c2.505 1.495 14.958 3 24.365 2.929 2.714-.024 3.651-.956 3.602-2.39-.37.88-1.41 1.41-3.432 1.425z" fill="#000" fill-rule="nonzero" opacity=".2"/></g></svg>