<svg width="516" height="378" xmlns="http://www.w3.org/2000/svg"><defs><linearGradient x1="50.061%" y1="100.017%" x2="50.061%" y2="-.038%" id="a"><stop stop-color="gray" stop-opacity=".25" offset="0%"/><stop stop-color="gray" stop-opacity=".12" offset="54%"/><stop stop-color="gray" stop-opacity=".1" offset="100%"/></linearGradient></defs><g transform="translate(-24 -23)" fill="none" fill-rule="evenodd"><path d="M326.398 75.263c-30.387-1.056-59.328-10.856-86.964-21.58-27.636-10.725-55.009-22.608-84.687-28.29-19.058-3.654-40.876-4.17-56.248 6.043-14.79 9.852-19.57 26.811-22.138 42.56-1.935 11.855-3.071 24.325 2.225 35.42 3.681 7.703 10.208 14.177 14.724 21.58 15.715 25.671 4.606 57.329-12.418 82.395-7.982 11.756-17.255 22.987-23.42 35.494-6.165 12.508-9.015 26.859-3.62 39.624 5.343 12.666 18.081 22.162 31.88 28.852 28.026 13.576 61.038 17.466 93.251 19.666 71.288 4.874 142.95 2.763 214.425.652 26.453-.784 53.018-1.576 79.04-5.663 14.45-2.27 29.368-5.873 39.857-14.543 13.32-11.039 16.62-29.734 7.695-43.573-14.968-23.218-56.342-28.988-66.817-53.904-5.757-13.713.155-28.993 8.526-41.71 17.955-27.29 48.046-51.226 49.628-82.419 1.09-21.42-13.376-42.874-35.744-53.012-23.443-10.626-55.957-9.289-73.245 8.3-17.818 18.07-49.117 25.037-75.95 24.108z" fill="#3C83E9" fill-rule="nonzero" opacity=".1"/><g opacity=".9" transform="translate(219 76)" fill-rule="nonzero"><rect fill="#3A3768" x="138.587" y="64.172" width="4.158" height="34.258" rx="2.079"/><rect fill="#3A3768" x=".418" y="37.336" width="2.332" height="11.279" rx="1.166"/><rect fill="#3A3768" x=".333" y="57.984" width="2.628" height="19.63" rx="1.314"/><rect fill="#3A3768" x=".375" y="84.482" width="2.501" height="19.799" rx="1.251"/><rect fill="#3A3768" x="1.741" y=".066" width="139.089" height="282.618" rx="38.99"/><rect fill="#E6E8EC" x="57.865" y="8.501" width="19.423" height="3.941" rx="1.97"/><ellipse fill="#E6E8EC" cx="82.463" cy="10.476" rx="2.238" ry="2.238"/></g><ellipse fill="#3C83E9" fill-rule="nonzero" opacity=".1" cx="136" cy="364.5" rx="94" ry="9.5"/><ellipse fill="#3C83E9" fill-rule="nonzero" opacity=".1" cx="345" cy="396.5" rx="44" ry="4.5"/><ellipse fill="#3C83E9" fill-rule="nonzero" opacity=".1" cx="496" cy="373.5" rx="44" ry="4.5"/><path d="M339.944 84H324.02v1.912c0 5.005-4.075 9.062-9.102 9.062h-50.81c-5.027 0-9.103-4.057-9.103-9.062V84h-14.954c-2.932 0-5.744 1.16-7.817 3.224A10.978 10.978 0 0 0 229 95.007v244.986a10.978 10.978 0 0 0 3.235 7.783 11.077 11.077 0 0 0 7.817 3.224h99.892c6.106 0 11.056-4.928 11.056-11.007V95.007C351 88.928 346.05 84 339.944 84zM408.25 64.05s-39.53-2.349-34.868 24.939c0 0-.939 4.823 3.512 7.011 0 0 .07-2.021 4.051-1.337 1.419.237 2.861.305 4.296.204a8.991 8.991 0 0 0 5.253-2.132s11.108-4.523 15.432-22.413c0 0 3.197-3.903 3.07-4.907l-6.67 2.807s2.276 4.741.469 8.681c0 0-.216-8.51-1.498-8.324-.263.037-3.47 1.641-3.47 1.641s3.925 8.256.94 14.26c0 0 1.122-10.176-2.188-13.663l-4.695 2.701s4.582 8.528 1.479 15.489c0 0 .793-10.674-2.465-14.832l-4.253 3.27s4.305 8.403 1.68 14.175c0 0-.347-12.423-2.605-13.361 0 0-3.723 3.237-4.291 4.56 0 0 2.948 6.105 1.122 9.324 0 0-1.122-8.279-2.042-8.325 0 0-3.71 5.485-4.094 9.25 0 0 .16-5.592 3.192-9.768 0 0-3.582.606-5.676 2.895 0 0 .578-3.876 6.573-4.218 0 0 3.066-4.162 3.887-4.412 0 0-5.985-.495-9.615 1.091 0 0 3.193-3.658 10.714-1.993l4.197-3.38s-7.878-1.06-11.22.11c0 0 3.85-3.237 12.356-.879l4.573-2.691s-6.718-1.43-10.723-.925c0 0 4.225-2.243 12.06.19l3.287-1.448s-4.925-.953-6.366-1.106c-1.441-.152-1.516-.54-1.516-.54a17.303 17.303 0 0 1 9.31 1.044s6.92-2.557 6.802-2.987zM366.649 51.024s-17.53-1.099-15.483 11.69c0 0-.41 2.26 1.56 3.286 0 0 .032-.96 1.799-.628.63.11 1.269.142 1.905.096a3.897 3.897 0 0 0 2.335-.998s4.931-2.12 6.85-10.506c0 0 1.421-1.827 1.384-2.298l-2.961 1.315s1.01 2.22.212 4.068c0 0-.092-3.987-.665-3.895-.115 0-1.536.772-1.536.772s1.74 3.866.425 6.682c0 0 .498-4.768-.97-6.404l-2.084 1.266s2.034 3.996.655 7.258c0 0 .355-5.003-1.094-6.95l-1.891 1.535s1.914 3.938.747 6.643c0 0-.152-5.823-1.153-6.264 0 0-1.656 1.515-1.905 2.139 0 0 1.305 2.878.493 4.37 0 0-.498-3.88-.922-3.9 0 0-1.647 2.571-1.818 4.317a9.594 9.594 0 0 1 1.416-4.576 4.88 4.88 0 0 0-2.519 1.358s.254-1.818 2.925-1.977c0 0 1.361-1.952 1.726-2.072 0 0-2.658-.23-4.268.513 0 0 1.417-1.712 4.757-.96l1.845-1.582s-3.497-.48-4.982.053c0 0 1.711-1.516 5.485-.413l2.03-1.262s-2.98-.666-4.757-.427c0 0 1.873-1.05 5.352.087l1.453-.677s-2.182-.446-2.823-.518c-.642-.072-.674-.254-.674-.254a7.28 7.28 0 0 1 4.101.48s3.1-1.166 3.05-1.367z" fill="#3C83E9" fill-rule="nonzero"/><ellipse fill="#3C83E9" fill-rule="nonzero" cx="43" cy="341" rx="19" ry="3"/><path d="M51.171 335.97a5.655 5.655 0 0 0 1.772-2.798c.226-1.113-.226-2.42-1.237-2.851-1.135-.46-2.348.368-3.266 1.2-.919.833-1.975 1.786-3.18 1.607 1.255-1.2 1.818-3.002 1.482-4.748a1.982 1.982 0 0 0-.416-.969c-.627-.706-1.772-.401-2.528.155-2.4 1.772-3.069 5.19-3.078 8.268-.244-1.113-.041-2.27-.046-3.388-.005-1.118-.305-2.42-1.218-3.011a3.552 3.552 0 0 0-1.846-.46c-1.08-.039-2.28.073-3.017.9-.923 1.027-.679 2.755.12 3.873.798 1.118 2.007 1.84 3.119 2.624a7.039 7.039 0 0 1 2.233 2.231c.068.126.124.26.166.397h6.76a18.815 18.815 0 0 0 4.18-3.03zM415.015 297s4.003 5.295-1.851 13.284c-5.854 7.99-10.676 14.734-8.723 19.716 0 0 8.83-14.837 16.016-15.048 7.186-.21 2.461-9.027-5.442-17.952z" fill="#3C83E9" fill-rule="nonzero"/><path d="M414.911 297c.352.512.631 1.071.829 1.66 7.091 8.327 10.868 16.1 4.048 16.292-6.347.183-13.967 11.53-15.788 14.393.058.223.13.442.215.655 0 0 8.931-14.837 16.2-15.048 7.27-.21 2.49-9.027-5.504-17.952z" fill="#000" fill-rule="nonzero" opacity=".1"/><path d="M422 303.307c0 2.049-.225 3.693-.5 3.693s-.5-1.655-.5-3.693c0-2.039.28-1.076.555-1.076s.445-.973.445 1.076zM425.048 305.514c-1.562 1.053-2.919 1.695-3.04 1.424-.12-.272 1.054-1.34 2.616-2.399 1.563-1.057.942-.282 1.063 0 .12.283.924-.083-.639.975z" fill="#FFD037" fill-rule="nonzero"/><path d="M392.982 297s-4.003 5.295 1.851 13.284c5.854 7.99 10.676 14.734 8.728 19.716 0 0-8.83-14.837-16.016-15.048-7.187-.21-2.467-9.027 5.437-17.952z" fill="#3C83E9" fill-rule="nonzero"/><path d="M393.089 297a6.477 6.477 0 0 0-.829 1.66c-7.091 8.327-10.868 16.1-4.053 16.292 6.352.183 13.967 11.53 15.793 14.393-.06.222-.132.44-.215.655 0 0-8.931-14.837-16.2-15.048-7.27-.21-2.49-9.027 5.504-17.952z" fill="#000" fill-rule="nonzero" opacity=".1"/><path d="M386 303.307c0 2.049.225 3.693.5 3.693s.5-1.655.5-3.693c0-2.039-.28-1.076-.555-1.076s-.445-.973-.445 1.076zM382.946 305.514c1.563 1.053 2.93 1.695 3.046 1.424.116-.272-1.053-1.34-2.62-2.399-1.568-1.057-.95-.282-1.066 0-.117.283-.91-.083.64.975z" fill="#FFD037" fill-rule="nonzero"/><path d="M387 329.006s11.292-.345 14.695-2.729c3.403-2.384 17.37-5.233 18.206-1.406.836 3.827 16.969 19.024 4.201 19.125-12.767.101-29.624-1.957-33.017-3.992-3.394-2.035-4.085-10.998-4.085-10.998z" fill="#A8A8A8" fill-rule="nonzero"/><path d="M424.345 342.677c-12.744.102-29.613-1.957-33.005-3.993-2.59-1.55-3.617-7.115-3.962-9.684H387s.714 8.967 4.111 11.003c3.397 2.036 20.261 4.095 33.005 3.993 3.677-.032 4.951-1.319 4.881-3.217-.513 1.154-1.913 1.875-4.652 1.898z" fill="#000" fill-rule="nonzero" opacity=".2"/><path fill="#3A3768" fill-rule="nonzero" opacity=".3" d="M299 252h37v37h-37zM245 203h37v37h-37zM248 299h37v37h-37z"/><path fill="#FFF" fill-rule="nonzero" d="M240 114h37v37h-37zM301.278 263.317l27.193-24.525 24.605 27.105-27.193 24.525zM298 158h37v37h-37zM252 199h37v37h-37z"/><path d="M480.94 366.76c2.143.263 4.366.445 6.42-.204.316-.094.68-.298.637-.605a.694.694 0 0 0-.147-.294 18.518 18.518 0 0 1-1.95-3.483.286.286 0 0 0-.117-.156.304.304 0 0 0-.208 0c-.944.232-1.766.81-2.71 1.055a4.1 4.1 0 0 1-1.472.106c-.425-.044-1.01-.378-1.393-.338.236 1.321.774 2.571.94 3.92zM521.288 363c1.378-.9 2.802-1.9 3.616-3.329a.538.538 0 0 0 .096-.284.58.58 0 0 0-.115-.279A11.632 11.632 0 0 0 521.95 356c-.609.423-1.16.92-1.64 1.482-.344.356-1.3.941-1.309 1.473 0 .32.363.667.533.9.23.334.46.677.657 1.019.106.207 1.199 2.072 1.098 2.126z" fill="#3C83E9" fill-rule="nonzero"/><path d="M489.968 370.764c.03.319-.06.637-.256.898-.152.142-.34.245-.545.3-3.014 1.02-6.483-.255-9.478.754-.62.207-1.203.503-1.824.7-.736.21-1.494.338-2.26.382a47.755 47.755 0 0 1-3.2.184 8.158 8.158 0 0 1-2.407-.198 2.892 2.892 0 0 1-1.848-1.386 1.281 1.281 0 0 1-.09-.987c.045-.116.111-.224.194-.319.205-.216.445-.399.71-.543l1.11-.678a7.555 7.555 0 0 1 1.677-.843c.436-.135.906-.193 1.346-.314 1.56-.45 2.744-1.602 3.848-2.724l1.507-1.521c.14-.168.318-.303.522-.395.207-.068.427-.09.644-.063a9.037 9.037 0 0 1 4.109 1.31c.317.22.657.41 1.014.566a3.799 3.799 0 0 0 2.843-.337c.39-.193.304-.314.474-.66.171-.345.56-.57.9-.25a.922.922 0 0 1 .214.385c.332 1.019.204 2.11.204 3.173a1.34 1.34 0 0 0 .066.493c.084.158.182.308.294.449a.695.695 0 0 1 .062.117c.187.481.245 1 .17 1.507z" fill="#514E7F" fill-rule="nonzero"/><path d="M489.97 370.586c.03.336-.06.672-.256.947-.152.15-.34.26-.545.317-3.014 1.075-6.484-.27-9.479.796-.62.217-1.204.53-1.824.738a9.89 9.89 0 0 1-2.261.403 45.296 45.296 0 0 1-3.2.194 7.747 7.747 0 0 1-2.407-.208 2.914 2.914 0 0 1-1.848-1.463 1.42 1.42 0 0 1-.09-1.042c.045-.122.111-.236.194-.336.18.369.308.852.417 1.027.304.53.823.901 1.422 1.018a3.61 3.61 0 0 0 1.284-.166c2.73-.677 5.63-.686 8.247-1.709a19.714 19.714 0 0 1 2.701-1.037 21.481 21.481 0 0 1 2.92-.236c1.54-.124 3.028-.588 4.55-.829.188.506.248 1.051.175 1.586z" fill="#464353" fill-rule="nonzero"/><path d="M527.974 363.083c-.142 1.108-.864 2.064-1.658 2.873a18.61 18.61 0 0 0-2.314 2.469c-.784 1.158-1.129 2.588-2.14 3.567a5.789 5.789 0 0 1-1.284.919 8.996 8.996 0 0 1-1.667.745c-1.507.46-3.131.363-4.723.252a4.3 4.3 0 0 1-1.492-.285 4.36 4.36 0 0 1-.633-.372 2.96 2.96 0 0 1-.945-.951.934.934 0 0 1-.09-.685c.095-.26.258-.492.473-.671a10.58 10.58 0 0 1 1.138-.998 6.705 6.705 0 0 0 1.483-1.269c.263-.388.456-.817.572-1.268a11.09 11.09 0 0 0 .415-2.413 7.408 7.408 0 0 1 .175-1.614c.24-.827.874-1.576.798-2.436a.61.61 0 0 1 .033-.368.593.593 0 0 1 .298-.179 5.508 5.508 0 0 1 1.549-.345 1.811 1.811 0 0 1 1.417.547c.221.258.363.616.689.731.156.032.317.032.472 0 .794-.078 1.64-.175 2.248-.676.589-.512.931-1.24.945-2.008 0-.285-.132-.584.316-.644.345-.046.614.303.789.533.69.785 1.206 1.701 1.516 2.69a.783.783 0 0 1 .288-.056c.41-.005.796.187 1.03.515.275.413.383.911.302 1.397z" fill="#514E7F" fill-rule="nonzero"/><path d="M528.977 362.914c-.142 1.125-.87 2.096-1.67 2.917a18.838 18.838 0 0 0-2.33 2.507c-.79 1.176-1.137 2.628-2.155 3.622-.386.369-.82.683-1.294.934a9.025 9.025 0 0 1-1.68.756c-1.517.467-3.153.37-4.756.257a4.3 4.3 0 0 1-1.503-.29 4.384 4.384 0 0 1-.638-.377 2.995 2.995 0 0 1-.951-.967c.306-.146.64-.224.98-.228.709.037 1.222.69 1.903.891.951.285 1.902-.383 2.897-.611.637-.145 1.312-.103 1.936-.304a4.798 4.798 0 0 0 1.427-.85 7.186 7.186 0 0 0 1.527-1.446c.362-.552.664-1.14.899-1.756a24.909 24.909 0 0 1 1.812-3.403c.102-.17.227-.327.371-.466.148-.136.333-.234.476-.355.651-.467.923-1.293 1.15-2.059.062-.237.148-.467.258-.686.413-.006.801.19 1.037.523.27.412.378.906.304 1.391z" fill="#464353" fill-rule="nonzero"/><path d="M461.227 263.001a6.79 6.79 0 0 1 1.865 2.248c.458.886 2.968 7.766 2.821 8.751.823-.858 4.088-.999 4.906-1.852.348-.358 2.227-2.149 2.506-2.563.279-.415 2.373-1.306 2.602-1.73.855-1.578-6.063-7.54-5.18-9.123a.395.395 0 0 0 .072-.245.379.379 0 0 0-.114-.188 11.003 11.003 0 0 0-2.003-1.414 3.276 3.276 0 0 1-1.527-1.885 6.564 6.564 0 0 0-1.77 1.235 129.32 129.32 0 0 0-3.74 3.43c-.484.471-1.407 1.07-1.631 1.725-.225.655.731 1.225 1.193 1.611z" fill="#A1616A" fill-rule="nonzero"/><path d="M472.006 260a20.67 20.67 0 0 0-3.058 2.487c-.888.868-1.728 1.877-1.95 3.102-.09.47-.075.967-.15 1.45-.317 2.102-2.153 3.646-2.96 5.631a9.585 9.585 0 0 0-.52 1.877 22.001 22.001 0 0 0-.368 3.689c0 1.201 1.161 2.027 1.595 3.149.361 1.111.619 2.253.77 3.411a41.387 41.387 0 0 0 1.93 6.335c1.596 4.379 6.765 16.486 8.36 20.869 4.886-1.22 17.895-4.022 22.219-6.57 1.444-.854-10.007-10.502-8.464-11.168a.778.778 0 0 0 .43-.324.737.737 0 0 0 0-.47c-1.54-6.705-6.368-12.2-8.554-18.77-.76-2.267-2.124-4.2-3.162-6.359-.944-1.952-1.44-4.106-2.559-5.96a3.988 3.988 0 0 0-.816-1.018 5.014 5.014 0 0 0-.906-.54c-.619-.328-1.214-.511-1.837-.821z" fill="#514E7F" fill-rule="nonzero"/><circle fill="#A1616A" fill-rule="nonzero" cx="461.5" cy="254.5" r="7.5"/><path d="M469 257.668a2.498 2.498 0 0 1 2.816-.405c.535.232.87.775.837 1.36l3.7.056a7.69 7.69 0 0 1 1.762.163 2.56 2.56 0 0 1 1.47.931c.047.06.098.13.172.145a.295.295 0 0 0 .171-.061 3.241 3.241 0 0 1 1.85-.335c2.007.13 3.866 1.145 5.438 2.407.29.195.515.472.648.796.13.424 0 .969.305 1.258 0 3.515 1.198 6.79 1.998 10.212.139.61.721 1.145 1.124 1.625.498.53.905 1.14 1.202 1.807.675 1.774-.259 3.855.402 5.639a9.09 9.09 0 0 0 1.277 2.025 5.24 5.24 0 0 1 1.087 2.617c.027.429-.028.857 0 1.29a7.91 7.91 0 0 0 .305 1.695c.268 1.03.555 2.059.85 3.083.463 1.658 1.11 3.45 2.586 4.335-3.566.61-7.32 1.202-10.72-.042a5.535 5.535 0 0 1-1.336-.675c-1.226-.88-1.818-2.389-2.345-3.809-.592-1.597-1.193-3.218-1.314-4.917a5.662 5.662 0 0 0-.221-1.607c-.347-.931-1.263-1.485-2.105-1.998a10.133 10.133 0 0 1-2.53-1.983 3.975 3.975 0 0 1-1.026-2.98c.065-.527.268-1.034.291-1.565a1.254 1.254 0 0 0-.721-1.29c-2.595-.792-3.834-3.884-4.412-6.552a21.045 21.045 0 0 1-.333-4.19l-.032-2.697a3.587 3.587 0 0 1-1.166-2.58c.042-.282.042-.57 0-.852a2.39 2.39 0 0 0-.592-.931 7.867 7.867 0 0 1-1.438-1.975zM460.536 267.235c-.086.834.109 1.686-.086 2.506-.076.314-.204.613-.3.922a5.283 5.283 0 0 0 .357 3.51 19.37 19.37 0 0 0 1.85 3.11c.244.332.444.693.593 1.074.124.4.2.813.229 1.23.188 1.667.49 3.32.907 4.948.362 1.419.832 2.852 1.797 3.976.176.246.44.42.742.488.218.008.435-.037.632-.129l1.968-.723a1.39 1.39 0 0 0 .475-.24c.18-.21.278-.474.276-.746.138-1.539-.338-3.064-.865-4.52-1.597-4.395-3.717-8.629-4.754-13.176-.29-1.271-.442-3.225-1.397-4.215-.395-.415-.262-.24-.732 0a6.027 6.027 0 0 0-.69.354 2.178 2.178 0 0 0-1.002 1.631z" fill="#464353" fill-rule="nonzero"/><path d="M466.489 274.944c.537 2.684 1.086 5.37 1.647 8.056l7.858-1.946c.063-.775-.376-1.494-.68-2.218-.718-1.697-.732-3.583-1.314-5.326-.44-1.328-1.202-2.55-1.613-3.887-.24-.775-.356-1.587-.591-2.366a17.465 17.465 0 0 0-.924-2.255 14.13 14.13 0 0 0-1.715-3.002c-1.007.355-2.077.765-2.649 1.619a3.297 3.297 0 0 0-.488 1.595c-.137 1.67.488 3.343.288 4.994-.21 1.578-.15 3.177.18 4.736z" fill="#3C83E9" fill-rule="nonzero"/><path d="M476.21 311.141c.423 1.603-.194 3.261-.693 4.854a37.336 37.336 0 0 0-1.545 7.31 5.998 5.998 0 0 1-.382 1.862c-.28.512-.587 1.01-.918 1.491-.763 1.332-.744 2.963-.58 4.486.109 1.006.274 2.008.472 3 .25 1.206.555 2.474.197 3.652.599-.13 1.008.634.985 1.244-.024.61-.24 1.262.052 1.798.744.265.753 1.276.73 2.054.01 1.357.183 2.708.513 4.025a633.831 633.831 0 0 0 3.58 15.973c2.727.839 5.91 1.71 8.51.55a1.663 1.663 0 0 0 1.079-1.071 1.909 1.909 0 0 0-.104-.825l-1.234-4.435a8.083 8.083 0 0 1-.442-3.26c.122-.825.47-1.71.075-2.432-.141-.247-.358-.466-.518-.68-.65-.932-.311-2.185-.254-3.322.018-.254 0-.51-.057-.759-.088-.29-.21-.57-.363-.834a12.615 12.615 0 0 1-1.413-6.335c.04-.281 0-.568-.113-.83a1.897 1.897 0 0 1-.207-.335.89.89 0 0 1 .066-.61 5.336 5.336 0 0 1-.994-.931 1.388 1.388 0 0 0 .235-2.152.722.722 0 0 0 .56-.512.712.712 0 0 0-.21-.723c-.16-.112-.368-.158-.472-.317-.174-.233-.033-.563.109-.815l.753-1.346c.56-.997.688-2.232 1.29-3.205a23.912 23.912 0 0 0 1.988-4.486l2.148-5.916 1.46 1.253c.488.368.897.829 1.201 1.356.208.518.338 1.065.386 1.62.537 3.215 2.586 6 3.344 9.173.106.718.339 1.411.688 2.05.147.184.28.38.396.586.107.314.163.643.164.974a4.528 4.528 0 0 0 1.936 3.26c.716.467 1.625.825 2.002 1.599.082.239.193.467.33.68.348.414 1.102.466 1.253.983.08.293-.076.638.094.894a.824.824 0 0 0 .353.26l2.105 1.044c2.355 1.16 3.542 3.82 5.28 5.772.6.63 1.13 1.324 1.578 2.068.749 1.323 1.097 2.986 2.355 3.839.338.175.646.401.914.67.4.518.254 1.244.287 1.896.033.653.542 1.426 1.168 1.23a4.448 4.448 0 0 0 0 2.408c2.748-.14 5.37-1.19 7.442-2.98.612-.532 1.205-1.207 1.21-2.009a.77.77 0 0 0-.09-.4 1.1 1.1 0 0 0-.47-.354c-1.964-1.053-2.558-3.494-3.542-5.478-.872-1.747-2.153-3.261-3.24-4.882-2.356-3.494-3.929-7.719-7.466-10.03-.777-.507-1.681-.96-2.068-1.798a14.22 14.22 0 0 1-.414-1.49 1.263 1.263 0 0 0-1.107-.932c.224-.755.31-1.544.254-2.33.02-.337-.02-.676-.117-1a4.714 4.714 0 0 0-.518-.988 9.491 9.491 0 0 1-1.333-5.124c.028-.932.193-1.864-.09-2.753-.141-.466-.386-.853-.56-1.286a7.937 7.937 0 0 1-.405-2.4l-.193-3.069a14.545 14.545 0 0 0-.4-3.032c-.655-2.38-1.282-12.354-3.5-13.477-2.219-1.123-6.005 6.55-8.478 6.703a11.415 11.415 0 0 0-3.24.615c-1.654.615-3.043 1.761-4.395 2.884l-4.578 3.801a16.679 16.679 0 0 1-2.84 2.026zM453.948 246.2a5.629 5.629 0 0 1 4.386-2.2c1.691 0 3.357.43 4.847 1.253.44.256.908.457 1.395.598.8.167 1.684-.058 2.405.334.958.521 1.14 1.85 1.056 2.96-.084 1.11-.284 2.324.288 3.276.2.272.385.557.553.85.179.597.16 1.238-.05 1.823-.331-.383-.642-.784-.931-1.2-.335-.378-.907-.637-1.316-.354-.41.282-.41.803-.428 1.267-.019.464-.14 1.023-.568 1.176a.918.918 0 0 1-.93-.382c-.73-.919-.437-2.391-1.158-3.31-.414-.525-1.098-.779-1.48-1.329-.297-.43-.371-.99-.632-1.434-.26-.445-.87-.808-1.279-.478-.138.138-.253.3-.34.478a1.928 1.928 0 0 1-2.325.717 4.021 4.021 0 0 0-1.01-.445c-.47-.027-.915.22-1.148.641a2.602 2.602 0 0 0-.303 1.368c0 .645.112 1.353-.25 1.879a1.904 1.904 0 0 1-.54.478c-.535.35-1.266.583-1.768.187a1.391 1.391 0 0 1-.395-1.272c.096-.456.222-.905.376-1.344.28-1.014-.083-2.157.224-3.113a9.878 9.878 0 0 1 1.32-2.424z" fill="#464353" fill-rule="nonzero"/><path d="M458.025 268.52c-.05.233-.025.474.073.691.099.149.233.273.391.362a8.349 8.349 0 0 0 3.692 1.146c.17.006.335.048.484.125.282.252.37.647.217.988a2.54 2.54 0 0 0-.232 1.048c.097.663.914.965 1.61 1.048a3.86 3.86 0 0 0 2.798-.52 4.134 4.134 0 0 0 1.155-1.664c1.9-4.174 2.566-8.812 4.49-12.986.148-.27.246-.564.29-.867a.848.848 0 0 0-.358-.802c-.357-.214-.913-.093-1.155-.422-.12-.172-.106-.4-.213-.576-.222-.38-.802-.333-1.203-.538-.31-.162-.527-.463-.87-.551a1.134 1.134 0 0 0-.909.375c-1.126 1.011-1.72 2.444-2.348 3.799a44.565 44.565 0 0 1-3.383 5.987c.15-.223-.716-1.916-1.054-1.98-.59-.116-1.353.88-1.672 1.256a7.796 7.796 0 0 0-1.803 4.081z" fill="#3C83E9" fill-rule="nonzero"/><path fill="#FFF" fill-rule="nonzero" d="M462 274h37v37h-37z"/><path d="M498.55 294.9a15.072 15.072 0 0 0-1.746 1.872 3.777 3.777 0 0 0-.803 2.41c.003.253.082.499.226.704a.583.583 0 0 0 .657.207.951.951 0 0 0 .321-.294c.34-.42.703-.823 1.086-1.205.142-.14.321-.29.51-.236.085.03.161.081.222.15.223.19.387.443.472.727a1.747 1.747 0 0 1-.5 1.403 3.64 3.64 0 0 0-.846 1.278.555.555 0 0 0 0 .41.66.66 0 0 0 .25.222c.94.522 2.058.596 3.056.202.656-.265 1.223-.728 1.889-.964a4.48 4.48 0 0 0 .836-.318c.385-.26.652-.666.741-1.129.083-.46.1-.928.052-1.393a16.194 16.194 0 0 0-1.138-5.255.628.628 0 0 0-.184-.28.637.637 0 0 0-.312-.092c-.826-.086-2.186-.52-2.984-.207-.28.155-.522.374-.704.641-.184.17-1.1.926-1.1 1.148z" fill="#A1616A" fill-rule="nonzero"/><path d="M497.606 293.943c0-.785-.983-2.67.571-2.805 0-.832-1.195-1.356-.978-2.235.076-.3.317-.538.355-.837.099-.856-1.46-1.318-1.205-2.141.094-.313.44-.505.515-.823.175-.739-1.162-1.07-1.186-1.828 0-.257.142-.5.132-.753 0-.322-.283-.566-.44-.841-.4-.716-.207-1.824-.944-2.189.472.038.657-.677.449-1.117-.208-.44-.614-.818-.614-1.304a2.05 2.05 0 0 0 0-.538c-.137-.468-.912-.5-1.04-.968a4.936 4.936 0 0 1 0-.528c-.047-.365-.425-.59-.78-.697a3.121 3.121 0 0 1-1.039-.364c-.227-.173-.472-.468-.732-.304-.09.051-.137.154-.208.233-.288.332-.841.187-1.21-.06-1.082-.725-1.616-2.03-1.852-3.301-.236-1.272-.222-2.586-.505-3.848a8.744 8.744 0 0 0-.345-1.15 5.924 5.924 0 0 1-.548-1.15c-.057-.734 1.483-.234 2.069-.16.57.053 1.132.158 1.682.314.585.218 1.157.466 1.715.743 2.363 1.024 5.16 1.15 7.04 2.866.62.566 1.139 1.305 1.937 1.557.368.073.73.167 1.087.28.893.417 1.03 1.586 1.517 2.432.152.223.286.458.401.701.093.29.136.594.128.898l.066 2.22c.109 3.741.222 7.449-.18 11.147-.132 1.215-.316 2.473.043 3.647.095.318.232.621.312.935.076.38.117.767.123 1.154l.052 1.436a.464.464 0 0 1-.071.332.476.476 0 0 1-.392.093c-2.027-.177-4.068-1.309-5.982-.626" fill="#464353" fill-rule="nonzero"/><path d="M460.531 288.497a.605.605 0 0 0-.222.179 1.49 1.49 0 0 0 0 1.818.61.61 0 0 1 .111.18.515.515 0 0 1-.055.304.984.984 0 0 0 .143 1.129c.143.116.337.174.43.327.16.26-.065.59-.028.895.046.399.53.596.923.645.321.074.66-.013.9-.233a.707.707 0 0 0 0-.792 2.157 2.157 0 0 0-.61-.592.911.911 0 0 0 .873-.82 1.257 1.257 0 0 0-.526-1.114c-.083-.068-.185-.135-.208-.242-.023-.108.088-.256.19-.359.461-.447.817-1.545-.051-1.791a2.202 2.202 0 0 0-.924.04c-.221.067-.221.197-.392.287-.17.09-.36.045-.554.139z" fill="#A1616A" fill-rule="nonzero"/><path d="M470 256c-.524.01-1.016.221-1.337.577-.33.463-.522.989-.558 1.531-.321 1.733-1.037 3.395-2.105 4.892M472 257c-.74.013-1.415.379-1.773.96a4.894 4.894 0 0 0-.449 1.627A8.475 8.475 0 0 1 468 263" fill="#000" fill-rule="nonzero" opacity=".1"/><path d="M168.277 286.993c.27 2.99-1.944 5.884-1.299 8.807.14.625.404 1.216.501 1.845.265 1.736-.751 3.382-1.721 4.834l-8.323 12.46a8.047 8.047 0 0 1-1.192 1.5c-1.596 1.418-3.98 1.29-6.073 1.721a10.318 10.318 0 0 0-4.064 1.835.273.273 0 0 0-.056.374 3.477 3.477 0 0 0 3.025 1.447c.218.294 0 .724-.302.946-.463.317-1.062.398-1.15 1.174-.032.268.022.54.153.775.335.525.858.895 1.457 1.031 2.88.9 5.998-.676 8.151-2.838 2.153-2.161 3.711-4.858 5.827-7.048 1.174-1.206 2.505-2.246 3.711-3.42 2.413-2.336 4.283-5.203 6.092-8.04a8.998 8.998 0 0 0 1.317-2.735c.223-.974.121-2 .38-2.966.335-1.258 1.244-2.265 1.996-3.31 1.48-2.073 2.463-4.613 2.268-7.167-.194-2.554-1.744-5.08-4.11-5.946a3.613 3.613 0 0 0-2.32-.146c-.97.307-1.684 1.125-2.347 1.892l-1.578 1.863c-.399.405-.714.888-.927 1.42a1.511 1.511 0 0 0 .324 1.584" fill="#FBBEBE" fill-rule="nonzero"/><path d="M168.277 286.993c.27 2.99-1.944 5.884-1.299 8.807.14.625.404 1.216.501 1.845.265 1.736-.751 3.382-1.721 4.834l-8.323 12.46a8.047 8.047 0 0 1-1.192 1.5c-1.596 1.418-3.98 1.29-6.073 1.721a10.318 10.318 0 0 0-4.064 1.835.273.273 0 0 0-.056.374 3.477 3.477 0 0 0 3.025 1.447c.218.294 0 .724-.302.946-.463.317-1.062.398-1.15 1.174-.032.268.022.54.153.775.335.525.858.895 1.457 1.031 2.88.9 5.998-.676 8.151-2.838 2.153-2.161 3.711-4.858 5.827-7.048 1.174-1.206 2.505-2.246 3.711-3.42 2.413-2.336 4.283-5.203 6.092-8.04a8.998 8.998 0 0 0 1.317-2.735c.223-.974.121-2 .38-2.966.335-1.258 1.244-2.265 1.996-3.31 1.48-2.073 2.463-4.613 2.268-7.167-.194-2.554-1.744-5.08-4.11-5.946a3.613 3.613 0 0 0-2.32-.146c-.97.307-1.684 1.125-2.347 1.892l-1.578 1.863c-.399.405-.714.888-.927 1.42a1.511 1.511 0 0 0 .324 1.584" fill="#000" fill-rule="nonzero" opacity=".05"/><path d="M104.375 299.793c.463 1.47.927 2.94 1.488 4.374a37.05 37.05 0 0 0 3.853 7.054 50.808 50.808 0 0 0 3.186 4.188c1.419 1.68 3.005 3.369 3.505 5.514.293 1.238.195 2.536.316 3.801.12 1.266.533 2.61 1.553 3.37a5.76 5.76 0 0 0 2.56.846c.64.103 1.442.135 1.776-.423.116-.227.177-.48.176-.735l.157-1.862c.033-.4.172-.93.57-.93.4 0 .604.516.928.753a1.003 1.003 0 0 0 1.391-.465c.208-.52.22-1.099.037-1.628a7.728 7.728 0 0 0-3.955-4.919 11.874 11.874 0 0 1-1.929-1.01 6.58 6.58 0 0 1-1.516-1.917c-3.506-5.793-7.03-11.632-9.506-17.919a13.293 13.293 0 0 1-.978-3.532c-.05-1.242 0-2.487.153-3.722a21.379 21.379 0 0 0-.612-6.645 5.236 5.236 0 0 0-.635-1.614c-1.016-1.554-3.413-1.782-4.925-.712a5.095 5.095 0 0 0-1.956 3.592c-.112 1.252.612 2.56.978 3.722 1.134 3.605 2.263 7.211 3.385 10.819z" fill="#A1616A" fill-rule="nonzero"/><path d="M104.375 299.793c.463 1.47.927 2.94 1.488 4.374a37.05 37.05 0 0 0 3.853 7.054 50.808 50.808 0 0 0 3.186 4.188c1.419 1.68 3.005 3.369 3.505 5.514.293 1.238.195 2.536.316 3.801.12 1.266.533 2.61 1.553 3.37a5.76 5.76 0 0 0 2.56.846c.64.103 1.442.135 1.776-.423.116-.227.177-.48.176-.735l.157-1.862c.033-.4.172-.93.57-.93.4 0 .604.516.928.753a1.003 1.003 0 0 0 1.391-.465c.208-.52.22-1.099.037-1.628a7.728 7.728 0 0 0-3.955-4.919 11.874 11.874 0 0 1-1.929-1.01 6.58 6.58 0 0 1-1.516-1.917c-3.506-5.793-7.03-11.632-9.506-17.919a13.293 13.293 0 0 1-.978-3.532c-.05-1.242 0-2.487.153-3.722a21.379 21.379 0 0 0-.612-6.645 5.236 5.236 0 0 0-.635-1.614c-1.016-1.554-3.413-1.782-4.925-.712a5.095 5.095 0 0 0-1.956 3.592c-.112 1.252.612 2.56.978 3.722 1.134 3.605 2.263 7.211 3.385 10.819z" fill="#000" fill-rule="nonzero" opacity=".05"/><path d="M175.444 355.454c-1.86 1.134-4.176 1.2-6.34.95-.347-.043-.76-.072-.983.199-.322.389.057.949.451 1.28a9.435 9.435 0 0 0 4.357 1.79c1.415.198 2.843.293 4.271.285 3.887.066 7.793.128 11.642-.432.223-.015.44-.078.636-.185.244-.176.413-.437.474-.73a2.91 2.91 0 0 0-1.015-2.773 8.543 8.543 0 0 0-2.715-1.457l-3.379-1.314c-.792-.309-2.07-1.13-2.928-1.063-1.595.104-3.128 2.662-4.47 3.45z" fill="#3F3D56" fill-rule="nonzero"/><path d="M183.757 363.406a8.095 8.095 0 0 1-5.52 2.052c-.516 0-1.237.097-1.237.612a.808.808 0 0 0 .148.428 5.078 5.078 0 0 0 2.854 2.227c1.128.267 2.293.34 3.446.216l3.371-.175c.638-.032 1.28-.064 1.912-.142.633-.078 1.321-.207 1.982-.309a26.525 26.525 0 0 1 4.91-.23 1.43 1.43 0 0 0 1.21-.322c.3-.377.124-.92.027-1.38-.203-.971 0-1.993-.19-2.973-.323-1.712-1.8-3.028-3.44-3.649-1.515-.575-4.203-1.233-5.64-.276-1.542 1.017-2.47 2.692-3.833 3.92z" fill="#3F3D56" fill-rule="nonzero"/><path d="M176.53 318.844c-1.405 1.84-2.81 3.965-2.482 6.238.187 1.226.876 2.307 1.382 3.444a24.174 24.174 0 0 1 1.405 4.836c.52 2.409 1.04 4.823 1.363 7.264a45.13 45.13 0 0 1 .304 8.34c-.042.671-.117 1.398-.585 1.864-.187.186-.431.34-.51.592a.997.997 0 0 0 .107.699 7.764 7.764 0 0 0 4.169 3.816 16.04 16.04 0 0 0 5.667 1.053 1.6 1.6 0 0 0 .759-.098c.26-.156.464-.39.585-.666 1.405-2.656.623-5.862.646-8.853 0-2.502.61-4.981.502-7.483-.09-2.004-.628-3.96-.825-5.96-.323-3.261.281-6.57.885-9.807.469-2.48.937-4.963 1.523-7.418a14.1 14.1 0 0 1 1.61-4.305c.657-1.03 1.547-1.892 2.296-2.861a12.936 12.936 0 0 0 2.567-9.491c-.047-.336-4.825 1.202-5.237 1.397a16.244 16.244 0 0 0-4.684 2.987c-1.105 1.044-1.971 2.442-2.94 3.616a300.787 300.787 0 0 0-4.038 4.995c-1.512 1.92-3.001 3.853-4.469 5.8z" fill="#464353" fill-rule="nonzero"/><path d="M176.53 318.844c-1.405 1.84-2.81 3.965-2.482 6.238.187 1.226.876 2.307 1.382 3.444a24.174 24.174 0 0 1 1.405 4.836c.52 2.409 1.04 4.823 1.363 7.264a45.13 45.13 0 0 1 .304 8.34c-.042.671-.117 1.398-.585 1.864-.187.186-.431.34-.51.592a.997.997 0 0 0 .107.699 7.764 7.764 0 0 0 4.169 3.816 16.04 16.04 0 0 0 5.667 1.053 1.6 1.6 0 0 0 .759-.098c.26-.156.464-.39.585-.666 1.405-2.656.623-5.862.646-8.853 0-2.502.61-4.981.502-7.483-.09-2.004-.628-3.96-.825-5.96-.323-3.261.281-6.57.885-9.807.469-2.48.937-4.963 1.523-7.418a14.1 14.1 0 0 1 1.61-4.305c.657-1.03 1.547-1.892 2.296-2.861a12.936 12.936 0 0 0 2.567-9.491c-.047-.336-4.825 1.202-5.237 1.397a16.244 16.244 0 0 0-4.684 2.987c-1.105 1.044-1.971 2.442-2.94 3.616a300.787 300.787 0 0 0-4.038 4.995c-1.512 1.92-3.001 3.853-4.469 5.8z" fill="#000" fill-rule="nonzero" opacity=".05"/><path d="M186.816 304.132c.298 1.434 1.679 2.53 1.716 3.996.033 1.171-.795 2.155-1.395 3.162a21.282 21.282 0 0 0-1.424 3.25 49.707 49.707 0 0 1-4.186 8.372c-.795 1.274-1.688 2.656-1.502 4.15.125.697.369 1.368.72 1.981l2.392 4.783a13.78 13.78 0 0 1 1.218 3.021c.21.91.228 1.874.35 2.773.376 2.933 1.739 5.884.93 8.727-.07.244-.326.539-.517.37.79 1.485 1.428 2.984 1.363 4.685-.028.885-.298 1.803.028 2.627.182.309.305.649.363 1.003 0 .239-.112.468-.135.707-.065.675.549 1.241 1.19 1.457.642.215 1.34.201 1.987.393 1.246.375 2.13 1.453 3.2 2.202a6.69 6.69 0 0 0 3.67 1.204.925.925 0 0 0 .54-.108c.189-.167.299-.407.302-.66a3.685 3.685 0 0 0-1.317-3.19 1.472 1.472 0 0 1-.465-.516 1.26 1.26 0 0 1-.046-.576c.195-2.63.148-5.272-.14-7.893a12.264 12.264 0 0 1-.12-2.51c.137-.69.204-1.391.2-2.094a10.744 10.744 0 0 0-.638-2c-.368-1.195-.265-2.478-.302-3.748a33.059 33.059 0 0 0-1.052-6.413 4.884 4.884 0 0 0-.99-2.314c-.498-.524-1.303-1.02-1.112-1.719.106-.258.264-.491.465-.684.469-.589.675-1.346.572-2.094.431.11.88-.101 1.07-.506a16.826 16.826 0 0 0 8.41-9.63 3.14 3.14 0 0 1 .376-.858c.359-.505.987-.726 1.54-1.007 1.74-.88 2.94-2.534 4.042-4.15a9.678 9.678 0 0 0 1.563-3.012c.15-.714.222-1.443.214-2.173l.098-3.748a2.165 2.165 0 0 0-.07-.735 1.874 1.874 0 0 0-.405-.6 7.209 7.209 0 0 0-3.972-2.155c-1.019-.182-2.06-.15-3.093-.234-2-.168-3.977-.791-5.982-.646-3.144.234-5.944 2.43-7.442 5.232-.549 1.003-1.098 1.846-2.214 1.878z" fill="#464353" fill-rule="nonzero"/><path d="M81.688 362.32c.671.249 1.384.34 2.09.268.05-.616.828-.752 1.405-.723a1.53 1.53 0 0 1 .827.194c.145.097.254.243.395.344.25.147.532.224.818.223l3.008.272c1.34.121 2.727.233 3.99-.281.252-.08.475-.239.64-.456.341-.519 0-1.266-.454-1.644-.454-.378-1.077-.553-1.55-.94-1.045-.85-1.185-2.425-1.74-3.705a10.743 10.743 0 0 0-1.436-2.226 8.29 8.29 0 0 0-1.422-1.551c-1.204-.931-2.595-.912-4.008-1.043-1-.097-1.94-.16-2.658.786-.886 1.173-.532 3.54-.477 4.94a37.65 37.65 0 0 0 .572 5.543z" fill="#514E7F" fill-rule="nonzero"/><path d="M81.688 362.32c.671.249 1.384.34 2.09.268.05-.616.828-.752 1.405-.723a1.53 1.53 0 0 1 .827.194c.145.097.254.243.395.344.25.147.532.224.818.223l3.008.272c1.34.121 2.727.233 3.99-.281.252-.08.475-.239.64-.456.341-.519 0-1.266-.454-1.644-.454-.378-1.077-.553-1.55-.94-1.045-.85-1.185-2.425-1.74-3.705a10.743 10.743 0 0 0-1.436-2.226 8.29 8.29 0 0 0-1.422-1.551c-1.204-.931-2.595-.912-4.008-1.043-1-.097-1.94-.16-2.658.786-.886 1.173-.532 3.54-.477 4.94a37.65 37.65 0 0 0 .572 5.543z" fill="#000" fill-rule="nonzero" opacity=".05"/><path d="M83.045 301.515c-.908.305-1.317 1.487-1.149 2.472.168.985.74 1.83 1.212 2.698 1.335 2.472 1.917 5.301 3.038 7.881.84 1.929 1.976 3.711 2.806 5.63.831 1.919 1.363 4.114.84 6.165-.245.999-.717 1.918-1.035 2.894-.31 1.07-.514 2.171-.608 3.284a64.3 64.3 0 0 0-.218 11.335c.004.462.098.918.277 1.341.186.376.513.77.354 1.16-.064.154-.2.267-.268.421-.19.432.195.882.545 1.187a.945.945 0 0 1-.59.47c.519.34.76.992.594 1.604-.313.047-.331.54-.131.797.2.258.504.423.645.714a1.01 1.01 0 0 1-.532 1.257 2.413 2.413 0 0 1-1.448.112 15.27 15.27 0 0 1-2.425-.548 2.147 2.147 0 0 1-.745-.352 2.319 2.319 0 0 1-.667-1.52 28.372 28.372 0 0 1-.168-4.692c.132-7.581 0-15.172-.318-22.748-.132-3.05-1.017-6.024-2.161-8.839a45.926 45.926 0 0 0-2.107-4.222c-1.644-3.125-3.106-6.568-2.725-10.11.041-.38.177-.84.54-.901a.763.763 0 0 1 .418.07c.76.37 1.496.79 2.203 1.258a8.152 8.152 0 0 0 3.823 1.182z" fill="#464353" fill-rule="nonzero"/><path d="M83.045 301.515c-.908.305-1.317 1.487-1.149 2.472.168.985.74 1.83 1.212 2.698 1.335 2.472 1.917 5.301 3.038 7.881.84 1.929 1.976 3.711 2.806 5.63.831 1.919 1.363 4.114.84 6.165-.245.999-.717 1.918-1.035 2.894-.31 1.07-.514 2.171-.608 3.284a64.3 64.3 0 0 0-.218 11.335c.004.462.098.918.277 1.341.186.376.513.77.354 1.16-.064.154-.2.267-.268.421-.19.432.195.882.545 1.187a.945.945 0 0 1-.59.47c.519.34.76.992.594 1.604-.313.047-.331.54-.131.797.2.258.504.423.645.714a1.01 1.01 0 0 1-.532 1.257 2.413 2.413 0 0 1-1.448.112 15.27 15.27 0 0 1-2.425-.548 2.147 2.147 0 0 1-.745-.352 2.319 2.319 0 0 1-.667-1.52 28.372 28.372 0 0 1-.168-4.692c.132-7.581 0-15.172-.318-22.748-.132-3.05-1.017-6.024-2.161-8.839a45.926 45.926 0 0 0-2.107-4.222c-1.644-3.125-3.106-6.568-2.725-10.11.041-.38.177-.84.54-.901a.763.763 0 0 1 .418.07c.76.37 1.496.79 2.203 1.258a8.152 8.152 0 0 0 3.823 1.182z" fill="#000" fill-rule="nonzero" opacity=".05"/><path d="M69.75 292.517a3.306 3.306 0 0 0-1.638-.517 3.32 3.32 0 0 0-1.782.884c-.621.481-1.212 1-1.768 1.555a9.468 9.468 0 0 0-2.112 9.361c.563 1.671 1.582 3.147 2.587 4.59l2.047 2.942c3.121 4.487 6.247 8.975 9.517 13.355a.503.503 0 0 0 .354.466c.121.032.265.027.34.125.032.062.047.131.041.2a3.041 3.041 0 0 1-.18.931.433.433 0 0 0-.038.322c.102.246.553.107.693.34.098.148 0 .348-.149.465-.149.116-.279.274-.256.465.024.191.335.368.321.6 0 .131-.111.229-.19.331a.843.843 0 0 0 .102 1.076c.214 2.14-.93 4.166-1.177 6.307-.368 3.366 1.154 6.652 1.34 10.031-.01.38.062.758.209 1.108.316.582 1.126.931 1.098 1.597a6.096 6.096 0 0 1-.228.805c.006.386.046.771.12 1.15 0 .386-.325.847-.683.698.27.894.509 1.796.716 2.705L86.2 355a6.442 6.442 0 0 0-.066-1.936c-.148-.69-.465-1.336-.623-2.025a2.39 2.39 0 0 1 .284-2.025.791.791 0 0 1-.791-.652 3.195 3.195 0 0 1 0-1.112c.19-1.862-.596-3.724-.572-5.586.023-1.48.54-2.9.805-4.353.558-3.11-.024-6.484 1.358-9.31.837-1.713 1.996-3.612 1.056-5.27-.465-.818-1.28-1.396-1.81-2.15a8.74 8.74 0 0 1-.972-2.327c-1.107-3.426-2.889-6.587-4.457-9.831a10.352 10.352 0 0 1-.958-2.584 13.14 13.14 0 0 1-.116-2.383 36.555 36.555 0 0 0-.265-4.283 4.01 4.01 0 0 0-.521-1.773 3.97 3.97 0 0 0-1.117-1.02c-2.35-1.601-5.15-2.527-7.685-3.863z" fill="#464353" fill-rule="nonzero"/><path d="M78.72 364.316c.671.248 1.384.339 2.09.267.054-.616.826-.752 1.403-.723.28-.009.556.06.803.2.146.096.255.242.4.343.25.148.531.225.817.223l3.002.272c1.34.121 2.724.233 3.991-.281.25-.081.47-.24.636-.456.34-.519 0-1.266-.454-1.644-.454-.378-1.077-.553-1.553-.94-1.04-.85-1.185-2.425-1.74-3.705a10.744 10.744 0 0 0-1.434-2.226 8.268 8.268 0 0 0-1.417-1.551c-1.208-.931-2.593-.912-4.005-1.043-1.003-.097-1.943-.16-2.656.786-.908 1.173-.536 3.54-.481 4.94.065 1.86.265 3.712.599 5.538z" fill="#514E7F" fill-rule="nonzero"/><path fill="#FFF" fill-rule="nonzero" d="M118 310h37v37h-37z"/><circle fill="#A1616A" fill-rule="nonzero" cx="111" cy="273" r="7"/><path d="M103.971 274.382c-1.04.887-2.525.939-3.887 1.09a24.504 24.504 0 0 0-8.364 2.393c-.357.156-.68.38-.95.658-.229.304-.39.653-.474 1.023a6.698 6.698 0 0 0-.276 2.488c.095.816.331 1.61.698 2.347a12.644 12.644 0 0 0 4.49 5.06c.329.239.699.414 1.092.517.95.197 1.875-.352 2.81-.596a4.654 4.654 0 0 1 2.597.084c.788.259 1.619.733 2.373.418a2.46 2.46 0 0 0 1.083-1.216c.74-1.387 1.399-2.815 1.974-4.276a16.11 16.11 0 0 1 .717-1.662c.84-1.582 2.293-2.817 3.014-4.441a.967.967 0 0 0 .067-.836 1.171 1.171 0 0 0-.532-.403 12.669 12.669 0 0 1-2.89-2.244c-.475-.47-1.353-1.671-2.037-1.78-.75-.098-.983.935-1.505 1.376z" fill="#A1616A" fill-rule="nonzero"/><path d="M103.775 289.844c-.83.395-1.806.218-2.706.033-2.317-.464-4.657-.965-6.8-1.958a3.635 3.635 0 0 1-1.67-1.266 4.018 4.018 0 0 1-.469-1.587l-.394-2.63c-.136-.928.104-1.773.122-2.7a.782.782 0 0 0-.154-.59.647.647 0 0 0-.47-.143c-1.073 0-1.72 1.127-2.475 1.883-.433.435-.95.78-1.52 1.012-.69.278-1.538.463-1.815 1.155-.117.283-.103.607-.22.89-.47 1.132-2.533.757-3.053 1.856-.15.316-.14.714-.39.965-.248.25-.703.241-1.078.306-1.491.241-2.218 1.949-3.494 2.751-1.074.678-2.457.664-3.61 1.192-.602.356-1.229.666-1.877.928a8.958 8.958 0 0 1-2.176.107.59.59 0 0 0-.436.14.588.588 0 0 0-.07.463c.72 4.547 3.814 8.38 8.136 10.081.246.079.479.19.694.33.652.463.765 1.516 1.501 1.855a1.565 1.565 0 0 0 1.566-.334c.402-.388.78-.8 1.13-1.234a4.518 4.518 0 0 1 2.519-1.308c.886-.14 1.876-.037 2.593-.575.294-.267.567-.556.816-.863a5.129 5.129 0 0 1 1.876-1.095 18.934 18.934 0 0 1 5.862-1.225c1.876-.107 3.822.065 5.6-.543a3.292 3.292 0 0 0 1.247-.696c.384-.41.67-.9.835-1.433.647-1.854.778-3.845.38-5.767z" fill="#514E7F" fill-rule="nonzero"/><path d="M95.041 279.153c.536-.046 1.071 0 1.607 0 .63 0 1.25-.148 1.895-.153 2.045.033 3.831 1.366 4.408 3.291.054.15.064.31.028.465a.336.336 0 0 1-.365.242 7.797 7.797 0 0 0-.81-1.595 4.603 4.603 0 0 0-2.427-1.655 6.417 6.417 0 0 0-2.985-.107c-.408.075-.81.182-1.213.293l-1.967.521c-.355.093-.71.19-1.057.316-.265.093-.725.465-.985.465-.356 0-.067-.302.09-.507a2.529 2.529 0 0 1 1.26-.897 10.768 10.768 0 0 1 2.521-.679z" fill="#514E7F" fill-rule="nonzero"/><path d="M100.351 300.801c.464 1.47.928 2.94 1.49 4.373a37.025 37.025 0 0 0 3.862 7.052 50.8 50.8 0 0 0 3.188 4.187c1.42 1.68 3.008 3.368 3.51 5.512.292 1.238.194 2.535.315 3.8.12 1.266.534 2.61 1.555 3.369a5.77 5.77 0 0 0 2.562.846c.64.103 1.443.135 1.777-.423a1.59 1.59 0 0 0 .177-.735l.153-1.86c.037-.4.176-.931.575-.931.4 0 .604.516.929.753a1.005 1.005 0 0 0 1.392-.465 2.363 2.363 0 0 0 .037-1.628 7.728 7.728 0 0 0-3.95-4.921 11.891 11.891 0 0 1-1.93-1.01 6.51 6.51 0 0 1-1.518-1.916c-3.514-5.792-7.041-11.63-9.515-17.914a13.276 13.276 0 0 1-.98-3.531c-.05-1.243.002-2.487.154-3.722.15-2.235-.051-4.48-.599-6.652a5.23 5.23 0 0 0-.636-1.614c-1.016-1.553-3.416-1.781-4.929-.711a5.092 5.092 0 0 0-1.958 3.59c-.112 1.252.612 2.56.979 3.722l3.36 10.83z" fill="#A1616A" fill-rule="nonzero"/><path d="M120.996 268.063c.056-.59-.464-1.126-1.071-1.503a14.942 14.942 0 0 1-1.818-1.117c-.537-.466-.83-1.075-1.367-1.54a6.018 6.018 0 0 0-2.04-1.02 15.432 15.432 0 0 0-4.878-.88 8.566 8.566 0 0 0-4.67 1.238c-.31.192-.579.444-.792.74a3.267 3.267 0 0 0-.385 1.178 23.336 23.336 0 0 1-1.22 3.724c-.523 1.34-1.084 2.727-2.317 3.76-1.322 1.108-3.348 1.746-4.22 3.082-.192.242-.263.56-.19.86.125.336.529.564.895.778 2.147 1.238 3.997 2.84 4.952 4.757a5.533 5.533 0 0 1-.436 5.935c-.496.651-1.182 1.424-.695 2.08.737.996 3.282.428 3.866 1.48.122.35.149.726.08 1.09 0 1.103 1.061 2.09 2.35 2.597 1.362.464 2.79.7 4.228.698a3.681 3.681 0 0 0 .107-2.746 1.102 1.102 0 0 1-.107-.624c.101-.237.26-.444.464-.6 1.553-1.471 1.224-3.636.292-5.381-.932-1.745-2.378-3.347-2.916-5.185-.27-.931-.274-1.941.463-2.7.415-.364.86-.691 1.331-.977a5.075 5.075 0 0 0 1.855-2.328c.431-1.21.366-2.667 1.636-3.467 1.27-.8 2.917-.54 4.257-1.057 1.08-.433 2.262-2.01 2.346-2.872z" fill="#464353" fill-rule="nonzero"/><circle fill="#FBBEBE" fill-rule="nonzero" cx="161" cy="270" r="8"/><path d="M168.492 270.476A10.168 10.168 0 0 0 175 274.94l-.59 2.101c-1.018 3.619-2.169 7.45-5.017 9.958a4.586 4.586 0 0 0-.797-3.6 13.748 13.748 0 0 0-2.66-2.73l-4.513-3.855a1.216 1.216 0 0 1-.34-.37 1.11 1.11 0 0 1 0-.842c.575-1.758 2.217-2.855 3.546-4.04a12.34 12.34 0 0 0 1.788-2.04c.924-1.25 1.504.013 2.075.953z" fill="#FBBEBE" fill-rule="nonzero"/><path d="M169.476 280.261a4.181 4.181 0 0 1-.228 1.708 1.203 1.203 0 0 1-1.399.716c.164-.367-.265-.786-.666-.74-.4.09-.73.37-.885.75a2.788 2.788 0 0 0-.257 1.73c.126.735.55 1.438.438 2.173-.088.61-.54 1.22-.298 1.791.155.259.35.491.578.69a1.952 1.952 0 0 1-.21 2.68l6.059.115c-.224 1.01.233 2.043.75 2.936a18.517 18.517 0 0 0 13.804 8.999 1.2 1.2 0 0 0-.29 1.833c.495.489 1.324.428 1.94.112.583-.375 1.139-.79 1.663-1.243a5.09 5.09 0 0 1 3.412-.93c.76.07 1.49.312 2.25.353 2.237.121 4.162-1.488 6.301-2.145 1.57-.465 3.346-.465 4.66-1.46.57-.42 1.035-1.108.867-1.796a2.926 2.926 0 0 0-.652-1.052c-.76-.982-1.202-2.159-1.748-3.257a19.447 19.447 0 0 0-4.366-5.835 38.54 38.54 0 0 0-4.325-3.28 7.324 7.324 0 0 0-1.175-.702 12.04 12.04 0 0 1-1.603-.652c-.713-.465-1.118-1.233-1.663-1.86-1.198-1.397-3.039-2.034-4.516-3.132-.988-.735-1.864-1.703-3.043-2.061-.574-.173-1.189-.186-1.762-.359-1.305-.395-2.256-1.554-3.537-2.019-1.012-.372-2.13-.274-3.202-.41a7.464 7.464 0 0 1-3.29-1.242 3.958 3.958 0 0 0-1.063-.623c-1.617-.465-1.747 2.522-1.901 3.564-.242 1.521-.643 3.08-.643 4.648z" fill="#3F3D56" fill-rule="nonzero"/><path d="M171.3 289.995c.27 2.984-1.944 5.879-1.299 8.807.14.624.4 1.216.497 1.845.269 1.736-.747 3.377-1.717 4.829l-8.35 12.459a7.543 7.543 0 0 1-1.189 1.5c-1.596 1.442-3.98 1.29-6.073 1.726a10.3 10.3 0 0 0-4.068 1.835.273.273 0 0 0-.051.369 3.464 3.464 0 0 0 3.025 1.447c.218.294 0 .729-.302.946-.464.317-1.062.402-1.15 1.173-.031.27.02.542.148.78.338.524.862.894 1.461 1.032 2.881.899 5.994-.681 8.152-2.838 2.157-2.157 3.711-4.858 5.827-7.048 1.174-1.21 2.505-2.247 3.711-3.42 2.408-2.365 4.282-5.203 6.092-8.04a9.022 9.022 0 0 0 1.317-2.74c.223-.969.121-2 .38-2.96.335-1.263 1.24-2.27 1.996-3.311 1.48-2.077 2.463-4.612 2.268-7.171-.194-2.559-1.749-5.075-4.11-5.946a3.613 3.613 0 0 0-2.32-.142c-.97.303-1.684 1.121-2.347 1.892l-1.582 1.864c-.397.407-.712.89-.928 1.42a1.511 1.511 0 0 0 .325 1.584" fill="#FBBEBE" fill-rule="nonzero"/><path d="M175.442 278.103c-1.106.067-2.344.178-3.108.96a4.46 4.46 0 0 0-.778 1.257c-.76 1.58-1.5 3.235-1.552 4.996-.047 1.407.351 2.784.562 4.176.174 1.156-.267 2.337-.351 3.508a23.071 23.071 0 0 0 4.425-1.742 14.675 14.675 0 0 1 2.593-1.378c1.317-.45 3.54.322 4.787.96.07-.902-.591-2.471-.52-3.36a3.76 3.76 0 0 1 .196-1.117c.186-.381.408-.743.661-1.08a4.504 4.504 0 0 0-.389-5.188c-1.111-1.282-2.855-1.762-4.52-1.963a19.31 19.31 0 0 0-3.16-.11" fill="#3F3D56" fill-rule="nonzero"/><path d="M150.928 262.408l-.177-1.502c1.22.321 2.373-.744 3.151-1.852.779-1.108 1.497-2.398 2.678-2.878 1.441-.561 2.966.336 4.342 1.075a13.274 13.274 0 0 0 4.981 1.707c.28.013.556.06.825.14.894.33 1.32 1.491 1.45 2.547.13 1.055.093 2.178.533 3.118.338.71.927 1.243 1.26 1.919.927 1.885.033 4.466 1.029 6.318l-2.47-2.341c-.227-.216-.546-.441-.792-.26-.246.183-.213.48-.297.706-.141.335-.41.595-.74.72a1.253 1.253 0 0 1-1.016-.058 4.88 4.88 0 0 1-1.57-1.487 9.643 9.643 0 0 0-3.92-3.075 4.855 4.855 0 0 0-4.147.254c-1.154.677-1.997 2.245-3.41 2.298-1.937.077-2.744-3.656-3.638-5.128a1.86 1.86 0 0 0 .51-2.265c.134-.048 1.39-.187 1.418.044z" fill="#464353" fill-rule="nonzero"/><path d="M328 170.006a8.73 8.73 0 0 1-2.473.674 4.316 4.316 0 0 0 1.895-2.356c-.847.5-1.773.852-2.738 1.041a4.317 4.317 0 0 0-4.73-1.066 4.279 4.279 0 0 0-2.722 3.993c-.002.33.034.658.11.98a12.22 12.22 0 0 1-8.878-4.486 4.288 4.288 0 0 0 1.336 5.73 4.214 4.214 0 0 1-1.957-.537v.051a4.298 4.298 0 0 0 3.458 4.208 4.5 4.5 0 0 1-1.137.151c-.272 0-.543-.027-.81-.08a4.322 4.322 0 0 0 4.027 2.978 8.67 8.67 0 0 1-6.381 1.776 12.112 12.112 0 0 0 6.594 1.937c7.935 0 12.27-6.536 12.27-12.209v-.551a8.728 8.728 0 0 0 2.136-2.234zM312 261.661l1.438 3.55 9.393 9.789 3.145-2.913 1.98 2.06 2.095-1.947.12-4.001 2.618-2.433.211-7.008-8.405-8.758L312 261.661zm18.938-1.96l-.12 4.006-3.145 2.913-.12 4.006-1.975-2.06-2.623 2.432-8.423-8.762 9.958-9.234 6.448 6.698z" fill="#3C83E9" fill-rule="nonzero"/><path d="M323.577 257.454L325.11 256l3.89 4.147-1.534 1.45-3.89-4.143zM320 260.853l1.534-1.46 3.885 4.153-1.534 1.454-3.885-4.147zM142.058 317h-15.116a.942.942 0 0 0-.942.942v15.116c0 .52.422.942.942.942h7.54v-6.731h-2.032v-2.478h2.069v-1.832c0-2.19 1.522-3.387 3.482-3.387.942 0 1.95.07 2.181.104v2.289h-1.56c-1.064 0-1.271.504-1.271 1.248v1.578h2.54l-.33 2.478h-2.215v6.726h4.712c.52 0 .942-.421.942-.942v-15.11a.942.942 0 0 0-.942-.943zM274.038 209.415a3.552 3.552 0 0 1 3.542 3.543v7.075a3.552 3.552 0 0 1-3.542 3.542h-7.076a3.557 3.557 0 0 1-2.504-1.037 3.514 3.514 0 0 1-1.043-2.505v-7.075a3.552 3.552 0 0 1 3.547-3.543h7.076zm0-1.415h-7.076a4.976 4.976 0 0 0-4.962 4.962v7.076a4.976 4.976 0 0 0 4.962 4.962h7.076a4.976 4.976 0 0 0 4.962-4.943v-7.076a4.981 4.981 0 0 0-4.962-4.981z" fill="#3C83E9" fill-rule="nonzero"/><path d="M274.928 213.153a1.077 1.077 0 1 1 1.072-1.072 1.067 1.067 0 0 1-1.072 1.072zm-4.638.7a2.86 2.86 0 1 1 .001 5.72 2.86 2.86 0 0 1-.001-5.72zm0-1.428a4.289 4.289 0 1 0 4.29 4.287 4.289 4.289 0 0 0-4.29-4.287zM491.852 287.759c0-1.993-1.487-3.598-3.345-3.598-2.49-.118-5.023-.161-7.613-.161h-.807c-2.586 0-5.128.043-7.613.16-1.83 0-3.316 1.61-3.316 3.608a62.677 62.677 0 0 0-.158 4.723c.005 1.563.043 3.159.153 4.722 0 1.997 1.486 3.617 3.317 3.617 2.609.118 5.29.17 8.013.17 2.724 0 5.4-.047 8.019-.17 1.835 0 3.345-1.62 3.345-3.617a68.34 68.34 0 0 0 .153-4.746 73.764 73.764 0 0 0-.148-4.722v.014zm-13.538 9.1v-8.718l6.508 4.354-6.508 4.364zM259.032 122c-4.739-.042-8.849 3.276-9.82 7.928-.971 4.652 1.467 9.345 5.824 11.213a8.914 8.914 0 0 1 .17-2.294c.195-.812 1.284-5.446 1.284-5.446a3.808 3.808 0 0 1-.322-1.576c0-1.482.857-2.588 1.922-2.588.909 0 1.344.683 1.344 1.5 0 .912-.582 2.28-.88 3.542-.121.476-.01.981.3 1.36.311.38.783.59 1.272.563 1.893 0 3.157-2.43 3.157-5.313 0-2.189-1.472-3.822-4.142-3.822a4.727 4.727 0 0 0-3.47 1.34 4.755 4.755 0 0 0-1.435 3.441 2.878 2.878 0 0 0 .658 1.961c.166.133.224.36.142.556-.047.185-.156.627-.203.802a.347.347 0 0 1-.502.252c-1.392-.57-2.04-2.099-2.04-3.799 0-2.849 2.367-6.239 7.1-6.239 3.788 0 6.307 2.759 6.307 5.722 0 3.917-2.173 6.847-5.378 6.847a2.838 2.838 0 0 1-2.429-1.244s-.582 2.298-.705 2.744a8.245 8.245 0 0 1-1 2.142c.923.27 1.88.408 2.841.408 5.507.001 9.972-4.475 9.973-9.997.001-5.523-4.461-10.001-9.968-10.003z" fill="#3C83E9" fill-rule="nonzero"/><path d="M361.987 395.087a49.075 49.075 0 0 1-.615-3.017 6.213 6.213 0 0 0-.704-3.064v-3.679a10.67 10.67 0 0 1 .822-1.694c.586-1.013 0-4.739 0-4.739s-2.174-5.25-1.649-8.582c.525-3.332-4.461-14.795-4.461-14.795.031-1.109.19-2.21.472-3.284.054-.225.075-.455.062-.685a.508.508 0 0 0 0-.085v.028c-.076-2.196-1.825-6.316-1.825-6.316l.237-7.845s1.115-4.631-.704-10.844c-.638-2.168-1.045-3.9-1.305-5.241-.028-.15-.056-.296-.08-.436a557.17 557.17 0 0 0 6.616-1.042s-2.174-9.033-3.643-10.614c-1.47-1.581-2.642-6.546-2.642-6.546s-.766-6.381.472-8.244c1.239-1.863 1.418-5.082 1.418-5.082s2.836-2.031 3.171-2.937c.5-1.286.819-2.634.945-4.007 0-1.075-.354-2.032-.236-2.6.118-.568-.822-2.707-.35-3.725a2.709 2.709 0 0 0 .185-1.01c.002-.889-.082-1.777-.25-2.65a7.579 7.579 0 0 0-2.79-1.483l-.06-.24-.161-.633a2.159 2.159 0 0 0-.279-.164v-1.173l.44-2.065c.87-3.58-3.951-4.115-3.951-4.115a2.537 2.537 0 0 0-1.366-1.192c-.945-.338-.16 5.396.293 5.762.34.273 1.418 2.074 1.89 2.956l.085.146c-.08.07-.154.147-.222.23l.184 1.243.029.193c-.32.393-.58.83-.77 1.3 0 0 .883.961.704 2.036a6.339 6.339 0 0 0 .293 2.482c-.052-.06-.671-.727-1.29-.563-.62.164-2.363.676-2.363.676s-1.295.225-1.177.506c.118.282-.88 1.525-.88 1.525l-3.473-3.284a7.343 7.343 0 0 1-.104-.296 7.834 7.834 0 0 1-.298-1.407c.377-.09.747-.208 1.106-.352.36-.126.684-.335.946-.61a3.71 3.71 0 0 0 .557-1.488c.274-1.004.865-1.9 1.29-2.853.702-1.6.934-3.365.671-5.09a3.372 3.372 0 0 0-.529-1.502c-.567-.775-1.597-1.089-2.363-1.708-.765-.62-1.229-1.558-2.103-2.023a4.172 4.172 0 0 0-2.637-.225 14.157 14.157 0 0 0-4.92 1.774c-.51.3-1.063.643-1.649.54-.483-.147-.9-.451-1.186-.864a.228.228 0 0 1 0-.052l-.043-.042a6.142 6.142 0 0 0-.539 2.58v.554c.003.041.003.082 0 .123a.82.82 0 0 1-.028.183 1.328 1.328 0 0 1-.321.469 2.08 2.08 0 0 0-.284.385c0-.047.029-.094.047-.141-.223.32-.349.695-.363 1.084-.02.284.076.564.264.779.172.174.36.331.563.469-.067.378-.1.761-.1 1.145a6.663 6.663 0 0 0 3.27 5.692l.119.295a8.154 8.154 0 0 1 .628 3.754c0 .094 0 .183-.042.277l-.123.14s-5.737.057-7.089-1.158c-1.352-1.216-3.407 2.965-3.407 2.965s-2.056.399-2.467 0c-.411-.399-2.836-.056-2.836-.056a5.22 5.22 0 0 0-3.582-1.295 10.546 10.546 0 0 0-2.632-1.455l-.067-.023a2.96 2.96 0 0 0-1.294-.16s-2.836-2.318-3.64-3.557c-.803-1.238-4.725-5.85-4.758-5.874v-.22l-.048-.672c-.115.019-.232.03-.35.033 0-.07-.047-.145-.08-.235a12.623 12.623 0 0 0-.832-1.877s0-.844.25-1.055c.251-.211-.103-3.318-.103-3.318s-2.543-5.898-4.816-1.497c0 0-4.305 2.849-.695 6.17 0 0 1.418.69 1.645 1.24.137.356.624 1.356.945 2.017l.147.296-.043.033.057.553v.216c-.68.38-1.139.76-1.03 1.051a6.14 6.14 0 0 1 .41 1.525s4.996 6.208 5.644 8.864c0 0 13.393 7.902 17.798 8.47l-.761 3.95a31.025 31.025 0 0 0-.175 3.22c.057.844-.53 4.691-.53 4.691s-.765 5.631-1.417 6.434c-.652.802-.53 4.18-.53 4.18a28.015 28.015 0 0 1-.879 4.796c-.647 2.149-.174 4.8-.174 4.8s-2.236 5.082 3.114 1.638c0 0 2.623-.16 5.671-.263v1.544c-.038 2.909-.057 6.92.076 9.957.236 5.363 1.89 15.953 1.89 15.953v5.33a7.405 7.405 0 0 0-.151 1.526 9.828 9.828 0 0 0 1.446 5.34l.411 3.556s.945 2.346.983 3.754a1.832 1.832 0 0 1-.042.338c-.036.179-.052.362-.048.544-.052 1.614.946 5.48.946 5.48s.06 3.895.647 4.12c.5.193-.671 2.248-1.02 2.816a.933.933 0 0 1-.024-.113c-.043.075-.071.118-.071.118a2.718 2.718 0 0 0-.185.985c-.07.544.185 1.078.653 1.37 1.115.68 1.715 1.243.77 1.469a9.444 9.444 0 0 0-1.035.216c0-.043-.038-.09-.052-.132a.628.628 0 0 0-.369.652c.01.462.132.914.355 1.319a14.046 14.046 0 0 0 1.588 2.881l.472-.052a2.21 2.21 0 0 1-.264.47c-.17.244-.397.444-.662.581-.246.146-.52.24-.803.277a2.246 2.246 0 0 0-1.664.803c-.586.75-.945 1.778.203 2.679l4.202 1.436s7.226.938 6.843-.676a49.887 49.887 0 0 1-.615-3.017 6.329 6.329 0 0 0-.59-2.858 2.811 2.811 0 0 0-.256-.422l.256-.028s.529-3.557 1.233-4.223c.165-.155.203-.277.16-.37.076-.193-.108-.306-.344-.372l-.052.141a3.569 3.569 0 0 0-.7-.075s-.236-1.877.525-2.543a.714.714 0 0 0 .151-.554 3.169 3.169 0 0 0-.08-.76l-.029.047a26.98 26.98 0 0 0-1.687-4.378s-.056-1.694.411-2.374c.468-.68-.056-9.202-.056-9.202s.175-4.12-.355-6.039c-.529-1.919.648-4.18.648-4.18v-.151s-.029-.253-.071-.652v.043c-.118-1.094-.34-3.07-.506-3.98-.236-1.3.057-7.507.057-7.507l1.058-2.651 1.89 4.57 1.995 6.1c.57.755.921 1.65 1.016 2.59v.192c-.009.136-.009.273 0 .409-.033.77.18 1.53.61 2.172 0 0 .53 2.881 1.352 3.613.822.732.822 2.145.822 2.145s.997 4.18 1.47 4.912c.397.62.416 2.318.41 2.816v.155s.138 1.492.133 2.75v.468-.032a4.344 4.344 0 0 1-.123 1.013v-.15c-.21.852-.312 1.727-.302 2.604-.029 1.502.203 3.285 1.12 4.322 1.588 1.806 2.585 1.581 2.585 1.581s-.766 2.257-1.706 2.712a.568.568 0 0 0-.1.061c0-.042 0-.089-.023-.131a1.098 1.098 0 0 0-.274.844 6.016 6.016 0 0 0 1.162 3.346c.221.22.494.382.794.47l-.146.088c-.106.058-.215.11-.326.155a1.55 1.55 0 0 1-.473.122 2.246 2.246 0 0 0-1.663.803c-.586.75-.945 1.778.203 2.679l4.201 1.436s7.136.957 6.773-.676z" fill="url(#a)" fill-rule="nonzero"/><path d="M334.62 397.737l-3.916-1.404c-1.078-.88-.733-1.885-.187-2.62a2.054 2.054 0 0 1 1.546-.783c.267-.037.522-.129.75-.271a1.78 1.78 0 0 0 .62-.569c.29-.456.447-.985.454-1.527 0 0 4.298-1.266 5.458 0 .21.23.386.49.523.77a6.47 6.47 0 0 1 .545 2.794s.219 1.376.573 2.95c.355 1.572-6.367.66-6.367.66zM354.617 395.737l-3.91-1.404c-1.082-.88-.736-1.884-.19-2.613a2.05 2.05 0 0 1 1.55-.79c.157-.013.31-.053.454-.118.104-.043.204-.094.3-.152 1.096-.605 1.069-2.095 1.069-2.095s4.291-1.27 5.455 0c.157.171.295.36.41.564.461.93.688 1.96.659 2.999 0 0 .218 1.375.572 2.948.355 1.573-6.369.66-6.369.66z" fill="#2D293D" fill-rule="nonzero"/><path d="M339.431 390.54c.23.22.42.47.569.739l-7 .721c.315-.437.486-.945.494-1.464 0 0 4.662-1.209 5.937.004zM360 389.292v1.38c-.966 1.89-5.643 1.478-7 .52.1-.049.197-.106.29-.172 1.058-.687 1.032-2.38 1.032-2.38s4.145-1.441 5.27 0c.157.198.294.417.408.652z" fill="#000" fill-rule="nonzero" opacity=".1"/><path d="M360.75 384.068c-.312.542-.577 1.11-.793 1.696v4.47c-1.126 1.879-7 1.244-7.789.225-.788-1.02-1.637-3.675-.737-4.126.901-.451 1.638-2.716 1.638-2.716s-.938.226-2.482-1.584c-1.544-1.809-1.07-5.822-.788-6.785.281-.963 0-4.182 0-4.182s.056-2.26-.395-2.998c-.45-.738-1.407-4.92-1.407-4.92s0-1.41-.788-2.147c-.789-.738-1.3-3.619-1.3-3.619a3.712 3.712 0 0 1-.563-2.429c.169-1.41-.962-2.942-.962-2.942l-1.919-6.108-1.806-4.582-1.014 2.655s-.286 6.222-.056 7.519c.23 1.296.563 4.746.563 4.746s-1.13 2.264-.62 4.186c.512 1.922.338 6.048.338 6.048s.507 8.538.057 9.22c-.45.68-.394 2.349-.394 2.349s2.313 4.976 1.576 5.639c-.737.662-.507 2.547-.507 2.547s1.582 0 .906.676c-.676.677-1.187 4.23-1.187 4.23l-6.836.864a14.48 14.48 0 0 1-1.53-2.885c-.9-2.091.169-1.88 1.08-2.091.91-.212.332-.79-.742-1.471-1.075-.681-.47-2.204-.47-2.204s1.638-2.772 1.075-2.998c-.563-.225-.624-4.126-.624-4.126s-1.126-4.637-.845-5.878c.282-1.24-.905-4.23-.905-4.23l-.394-3.561a9.805 9.805 0 0 1-1.22-6.738v-5.503s-1.581-10.63-1.811-15.977c-.141-3.44-.104-8.134-.057-11.066.029-1.64.057-2.73.057-2.73L351.497 318c.04 1.22.188 2.434.446 3.628.249 1.339.638 3.077 1.248 5.248 1.75 6.217.68 10.855.68 10.855l-.225 7.857s2.144 5.258 1.694 7.048a14.945 14.945 0 0 0-.47 3.29s4.8 11.48 4.294 14.816c-.507 3.336 1.586 8.57 1.586 8.57s.563 3.76 0 4.756z" fill="#464353" fill-rule="nonzero"/><path d="M347 353.885l7-.885s-3.957 3.834-7 .885z" fill="#000" fill-rule="nonzero" opacity=".05"/><path d="M352.504 346s.287 2.904-1.504 4c0 0 3.2-.499 1.504-4zM353 338s-6.376 5.417-8.682 4.974C342.012 342.532 353 338 353 338zM337 357s-4.832.947-4.996 2.615C331.84 361.282 337 357 337 357z" fill="#000" fill-rule="nonzero" opacity=".1"/><path d="M337.922 380s-6.42 1.376-4.596 2.317a28.22 28.22 0 0 0 4.818 1.683s2.067.124-.222-4z" fill="#000" fill-rule="nonzero" opacity=".05"/><g opacity=".05" fill="#000" fill-rule="nonzero"><path d="M332.61 384.125a1.327 1.327 0 0 1-.608-.971l-.065.123s-.621 1.527.467 2.211c.121.076.238.156.346.231.196-.037.41-.066.612-.118.887-.207.317-.778-.752-1.476zM341.152 383.692c.182-.17.173-.609.066-1.17a3.19 3.19 0 0 0-.379 1.646 1.26 1.26 0 0 1 .313-.476zM340.13 355.463a7.873 7.873 0 0 0-.468 2.084c.128-.486.3-.96.514-1.415 0 0 .01-.273-.047-.67zM355.314 352.482c.044-.204.064-.413.06-.622-.083.424-.14.82-.181 1.165.037-.18.074-.359.121-.543zM339.97 375.637c.13-.406.188-.833.169-1.26a4.19 4.19 0 0 0-.323 1.59c.039-.116.09-.227.155-.33zM341.362 386.332a22.88 22.88 0 0 0-.77 3.485l-6.796.797a14.26 14.26 0 0 1-1.523-2.895 5.085 5.085 0 0 1-.191-.5c-.407.189-.57.613-.033 1.886.394 1.02.905 1.99 1.523 2.891l6.791-.797s.51-3.574 1.182-4.244c.331-.363.121-.533-.183-.623zM332.385 376.142s.056 3.918.617 4.145c.285-.646.467-1.26.22-1.363-.561-.226-.617-4.14-.617-4.14s-1.126-4.655-.84-5.905c.284-1.25-.902-4.244-.902-4.244l-.393-3.575a9.927 9.927 0 0 1-1.237-6.753v-5.512s-1.574-10.667-1.799-16.058c-.144-3.452-.102-8.163-.056-11.105v-1.415h-.191s-.028 1.09-.056 2.74c-.047 2.938-.089 7.654.056 11.106.224 5.39 1.798 16.057 1.798 16.057v5.503a9.893 9.893 0 0 0 1.266 6.81l.392 3.574s1.182 3.004.897 4.245c-.285 1.24.845 5.89.845 5.89zM352.39 389.082a6.638 6.638 0 0 1-1.074-2.698c-.696.632.103 3.09.85 4.06.747.972 6.632 1.646 7.758-.23v-1.08c-1.523 1.523-6.787.914-7.534-.052zM360.933 382.668c-.308.545-.57 1.114-.785 1.703v.797c.126-.293.308-.68.56-1.137.18-.449.265-.93.248-1.415l-.023.052zM352.736 383.564c.215-.436.4-.887.556-1.349 0 0-.935.227-2.476-1.589-1.102-1.32-1.163-3.815-1.009-5.446-.28.966-.733 4.994.785 6.81.995 1.192 1.737 1.499 2.144 1.574zM349.807 370.982a31.48 31.48 0 0 1 .112 3.363c.038-.222.08-.401.112-.528.285-.943 0-4.197 0-4.197s.056-2.273-.392-3.01c-.448-.735-1.401-4.937-1.401-4.937s0-1.414-.785-2.155c-.785-.74-1.294-3.63-1.294-3.63a3.75 3.75 0 0 1-.565-2.439c.173-1.415-.934-2.952-.934-2.952l-1.91-6.13-1.822-4.57-1.013 2.664s0 .335-.033.863l.822-2.164 1.798 4.593 1.91 6.13s1.121 1.533.935 2.948c-.085.848.121 1.7.583 2.414 0 0 .505 2.891 1.29 3.632.784.74.789 2.155.789 2.155s.934 4.197 1.401 4.937c.467.74.397 3.013.397 3.013z"/></g><path d="M354.893 267.162l-.448 2.02.025.918v.661l-2.488.239-.279-.46c-.497-.862-1.592-2.62-1.94-2.892-.464-.358-1.285-5.969-.3-5.634a2.545 2.545 0 0 1 1.394 1.162s4.922.478 4.036 3.986z" fill="#FFCDD3" fill-rule="nonzero"/><path d="M354 270.793l-2.698.207-.302-.399c.751-.634 2.003-.786 2.99-.363l.01.555z" fill="#000" fill-rule="nonzero" opacity=".1"/><path d="M354 272.155l-2.781.845-.06-.548-.159-1.454c.307-.533.765-.884 1.271-.975.507-.09 1.02.087 1.426.493l.139.74.164.9z" fill="#DCE6F2" fill-rule="nonzero"/><path d="M304 267.169L300.476 269l-.319-.646c-.34-.68-.838-1.7-.998-2.067-.21-.564-1.682-1.277-1.682-1.277-3.693-3.407.704-6.332.704-6.332 2.33-4.524 4.926 1.533 4.926 1.533s.359 3.195.104 3.407c-.254.212-.254 1.089-.254 1.089.337.62.622 1.264.853 1.927.135.337.19.535.19.535z" fill="#FFCDD3" fill-rule="nonzero"/><path d="M304 267.453L300.332 269l-.332-.545c.52-.338 2.353-1.506 2.956-1.453.29.023.582.023.873 0 .114.285.171.451.171.451z" fill="#000" fill-rule="nonzero" opacity=".1"/><path d="M305 268.245L301.132 270l-.078-.767-.054-.526s2.241-1.772 2.923-1.705a3.9 3.9 0 0 0 1.014 0l.044.642.019.601z" fill="#DCE6F2" fill-rule="nonzero"/><path d="M345 280.838s-16.738 1.87-13.61.866c2.18-.704 3.044-2.071 3.228-3.592a8.666 8.666 0 0 0-.623-3.827 16.56 16.56 0 0 0-1.499-2.994s12.794-6.964 10.237-.631a9.844 9.844 0 0 0-.725 2.999 8.373 8.373 0 0 0 .324 3.032 9.034 9.034 0 0 0 2.668 4.147z" fill="#FFCDD3" fill-rule="nonzero"/><path d="M342.68 270.777c-.376 1-.607 2.06-.685 3.138-1.143 1.046-2.39 1.001-3.995 1.001-1.234 0-2.6.33-3.583-.32a18.123 18.123 0 0 0-1.417-3.133s12.098-7.312 9.68-.686z" fill="#000" fill-rule="nonzero" opacity=".1"/><circle fill="#FFCDD3" fill-rule="nonzero" cx="338.5" cy="268.5" r="6.5"/><path d="M345 280.843s-16.738 1.862-13.61.862c2.18-.7 3.044-2.062 3.228-3.577.831-.89 2.504-1.533 3.582-1.871a5.064 5.064 0 0 1 3.03-.048c.39.104.76.264 1.102.476a8.99 8.99 0 0 0 2.668 4.158zM354 272.098l-2.938.902-.062-.586c.643-1.17 1.774-1.681 2.827-1.278l.173.962zM305 268.51l-3.921 1.49-.079-.651a33.736 33.736 0 0 1 3.95-1.349l.05.51zM352 321.908c-6.32 1.068-15.316 2.466-16.744 2-1.182-.39-4.962-.35-8.256-.228.028-1.767.057-2.941.057-2.941L351.562 318c.036 1.314.183 2.622.438 3.908z" fill="#000" fill-rule="nonzero" opacity=".1"/><path d="M358 319.902s-20.641 3.527-22.857 2.852c-2.216-.674-13.588.06-13.588.06-5.118 3.411-2.978-1.623-2.978-1.623s-.467-2.634.169-4.76c.412-1.56.693-3.153.841-4.76 0 0-.112-3.359.505-4.14.617-.782 1.35-6.384 1.35-6.384s.566-3.806.51-4.653c-.056-.847.169-3.187.169-3.187l.729-3.923c-4.207-.558-17.043-8.398-17.043-8.398-.617-2.629-5.398-8.79-5.398-8.79a6.457 6.457 0 0 0-.393-1.511c-.336-.894 4.726-2.685 4.726-2.685s3.767 4.592 4.552 5.82c.786 1.229 3.487 3.527 3.487 3.527.42-.041.844.014 1.24.163h.065c.904.355 1.75.84 2.514 1.438a4.888 4.888 0 0 1 3.431 1.289s2.31-.335 2.702.056c.393.39 2.337 0 2.337 0s1.973-4.141 3.272-2.94c1.3 1.2 6.782 1.148 6.782 1.148.734-.967 2.51-1.66 3.627-2.019a4.85 4.85 0 0 1 2.931-.046c.417.115.81.304 1.16.558l3.328 3.257s.934-1.233.846-1.512c-.09-.28 1.126-.503 1.126-.503s1.631-.502 2.248-.674c.617-.173 1.188.502 1.234.558a6.527 6.527 0 0 1-.28-2.461 2.783 2.783 0 0 0-.673-2.015c1.986-4.783 6.432-.735 6.432-.735s.504 2.629.056 3.638c-.45 1.01.467 3.136.336 3.695-.13.558.225 1.512.225 2.573a15.248 15.248 0 0 1-.898 3.978c-.341.893-3.038 2.908-3.038 2.908s-.168 3.192-1.351 5.039c-1.183 1.847-.467 8.175-.467 8.175s1.121 4.927 2.528 6.514c1.407 1.586 3.506 10.473 3.506 10.473z" fill="#3F3D56" fill-rule="nonzero"/><path d="M327.849 283s-.625-1.626-1.198-1.764a14.674 14.674 0 0 1-1.651-.634l.37-.602s2.138.504 2.479 1.04c.34.537 0 1.96 0 1.96zM316 278.735c-.11.668-5 1.265-5 1.265l2.473-3 .064.028c.885.42 1.715.996 2.463 1.707z" fill="#000" fill-rule="nonzero" opacity=".1"/><circle fill="#575988" fill-rule="nonzero" cx="301.5" cy="271.5" r="1"/><circle fill="#575988" fill-rule="nonzero" cx="302.5" cy="271.5" r="1"/><circle fill="#575988" fill-rule="nonzero" cx="302.5" cy="272.5" r="1"/><circle fill="#575988" fill-rule="nonzero" cx="303.5" cy="273.5" r="1"/><circle fill="#575988" fill-rule="nonzero" cx="356.5" cy="273.5" r="1"/><circle fill="#575988" fill-rule="nonzero" cx="356.5" cy="274.5" r="1"/><circle fill="#575988" fill-rule="nonzero" cx="356.5" cy="275.5" r="1"/><path d="M328 298c-.052-.068 12.919 16.657 23 6.993 0 0-15.923 2.202-23-6.993zM321 306s7.241.212 8 2.467v2.347a1.296 1.296 0 0 1-1.339 0c-.731-.425-5.108-2.834-6.652-1.676L321 306z" fill="#000" fill-rule="nonzero" opacity=".1"/><path d="M321 306s7.24.213 8 2.464v2.348c-.42.25-.928.25-1.348 0-.732-.43-5.131-2.833-6.652-1.675V306z" fill="#3F3D56" fill-rule="nonzero"/><path d="M324 290a25.705 25.705 0 0 0 3.116 5.313c1.36 1.817 3.01 3.4 4.884 4.687 0 0-7.866-8.882-8-10zM322 281s1.4 5.225 5 7l-5-7zM320.105 282.002c-.03-.107-1.043 4.466 3.895 6.998 0 0-2.086-.793-3.895-6.998zM354.002 278.004c-.075 0 2.34 2.05 2.998 2.996 0 0-1.57-3.129-2.998-2.996z" fill="#000" fill-rule="nonzero" opacity=".1"/><path d="M336.49 273.887c.05.351.234.67.511.893.195.092.408.14.623.138 2.015.125 4.109.212 5.995-.562.353-.12.67-.328.922-.603.265-.443.432-.938.489-1.45.263-.986.82-1.843 1.222-2.8a9.399 9.399 0 0 0 .65-5.03 3.364 3.364 0 0 0-.503-1.474c-.535-.76-1.508-1.069-2.213-1.677-.706-.607-1.162-1.533-1.983-1.99a3.86 3.86 0 0 0-2.49-.22 13.166 13.166 0 0 0-4.649 1.745c-.46.295-1.005.631-1.554.53a2.135 2.135 0 0 1-1.143-.875 6.128 6.128 0 0 0-.494 2.87c.023.143.023.289 0 .432-.07.173-.176.33-.309.46-.498.576-.807 1.488-.318 2.069.217.253.544.391.752.649.373.46.244 1.128.235 1.723a.92.92 0 0 0 .148.584c.22.202.529.276.816.194.28-.084.575-.113.867-.083.31.104.576.308.756.58.913 1.18 1.277 2.474 1.67 3.897z" fill="#2D293D" fill-rule="nonzero"/><path d="M344.964 274.124c-.251.286-.57.5-.923.623-1.848.81-3.964.714-5.978.585a1.317 1.317 0 0 1-.624-.144 1.45 1.45 0 0 1-.517-.925c-.393-1.482-.753-2.834-1.686-4.061a1.45 1.45 0 0 0-.758-.604 2.158 2.158 0 0 0-.868.086.837.837 0 0 1-.818-.201.958.958 0 0 1-.143-.61c0-.618.134-1.313-.24-1.792-.208-.269-.536-.413-.753-.676a1.395 1.395 0 0 1-.125-1.381c-.355.585-.508 1.333-.097 1.841.217.264.545.408.753.676.374.48.245 1.175.236 1.793a.987.987 0 0 0 .148.609c.22.211.53.288.817.201.281-.087.577-.117.869-.086.31.108.577.32.757.604.924 1.232 1.294 2.58 1.686 4.061.052.366.235.699.513.93.195.096.408.145.624.144 2.018.13 4.116.22 6.005-.585.353-.127.67-.343.924-.628a1.85 1.85 0 0 0 .286-.556c-.027.033-.046.072-.088.096zM335 278.25s8.257 1.844 9-.25M351 275s4.916 0 6 2" opacity=".1" fill="#000" fill-rule="nonzero"/></g></svg>