<svg width="167" height="20" xmlns="http://www.w3.org/2000/svg"><path d="M13.434 7.988H6.215l.564-4.106h8.553l.5-3.625H2.687L.011 19.732h13.117l.5-3.611H5.1l.64-4.655h7.219l.475-3.478zm12.153 11.744h4.93L26.157.257h-4.316l-9.66 19.475h4.9l1.6-3.638h6.291l.615 3.638zM23.249 5.714l1.125 6.755h-4.093l2.968-6.755zm13.58 14.018a9.584 9.584 0 0 0 4.646-1.21 10.008 10.008 0 0 0 3.568-3.322 11.421 11.421 0 0 0 1.764-4.8l.123-.9a9.495 9.495 0 0 0-.487-4.782 6.683 6.683 0 0 0-2.691-3.3A8.026 8.026 0 0 0 39.374.257H33.24l-2.676 19.475h6.265zm2.047-15.85a3.1 3.1 0 0 1 2.89 1.431 6.6 6.6 0 0 1 .475 4.254l-.116.843a8.068 8.068 0 0 1-1.647 4.274 4.1 4.1 0 0 1-3.232 1.438h-1.6l1.687-12.24h1.543zm17.343 12.085a3.226 3.226 0 0 1-1.867.5c-.89.098-1.78-.17-2.468-.742a2.728 2.728 0 0 1-.474-2.307h-4.6a5.683 5.683 0 0 0 .48 3.4 5.21 5.21 0 0 0 2.505 2.328 9.269 9.269 0 0 0 4.072.854 9.156 9.156 0 0 0 5.366-1.458 5.629 5.629 0 0 0 2.435-4.013 4.8 4.8 0 0 0-2.4-5.016 14.348 14.348 0 0 0-3.051-1.4 8.339 8.339 0 0 1-2.587-1.257 1.482 1.482 0 0 1-.6-1.358c.084-.58.415-1.094.907-1.411a3.429 3.429 0 0 1 2.018-.555 2.42 2.42 0 0 1 1.839.655c.435.509.605 1.193.459 1.846h4.577a5.21 5.21 0 0 0-.468-3.163A4.807 4.807 0 0 0 60.13.738a8.031 8.031 0 0 0-3.579-.749 10.692 10.692 0 0 0-3.887.689A7.225 7.225 0 0 0 49.79 2.6a5.324 5.324 0 0 0-1.314 2.86c-.298 2.167.702 3.87 3 5.11.891.464 1.816.862 2.766 1.19a7.453 7.453 0 0 1 2.341 1.191c.432.413.619 1.02.492 1.605a1.959 1.959 0 0 1-.856 1.411zm21.912-5.932h-6.905l-.289 2.1h4.407l-.6 4.364c-.536.51-1.188.88-1.9 1.081a9.031 9.031 0 0 1-2.516.32 4.044 4.044 0 0 1-3.7-1.934 7.756 7.756 0 0 1-.748-5.214l.22-1.594c.169-1.91.875-3.733 2.038-5.258a5.1 5.1 0 0 1 4.075-1.814c2.528 0 3.85 1.293 3.966 3.879h2.511a5.919 5.919 0 0 0-1.616-4.421 6.314 6.314 0 0 0-4.586-1.555 7.951 7.951 0 0 0-5.976 2.421 11.841 11.841 0 0 0-2.945 6.822l-.233 1.7a10.545 10.545 0 0 0 .357 4.775 6.074 6.074 0 0 0 2.356 3.177A6.933 6.933 0 0 0 70.026 20a11.457 11.457 0 0 0 4.131-.7 7.056 7.056 0 0 0 2.992-2.12l.982-7.145zm12.63 9.7h2.694l.022-.16-3.337-8.269a6.956 6.956 0 0 0 2.952-2.02c.765-.898 1.251-2 1.4-3.17a4.85 4.85 0 0 0-1.134-4.361 6.55 6.55 0 0 0-4.744-1.5h-6.3l-2.683 19.477h2.524l1.083-7.878h4.472l3.051 7.881zM84.543 2.357h3.845a3.9 3.9 0 0 1 2.906.978c.648.768.897 1.795.672 2.774A3.95 3.95 0 0 1 90.5 8.762a4.828 4.828 0 0 1-3.112.992h-3.862l1.017-7.397zm22.586 17.375h2.577L105.1.257h-2.2l-9.947 19.475h2.589l2.492-5.1h7.978l1.117 5.1zm-3.566-16.305l1.992 9.109h-6.474l4.482-9.109zm15.411 8.681a8.126 8.126 0 0 0 5.174-1.532 6.416 6.416 0 0 0 2.333-4.367 4.966 4.966 0 0 0-1.179-4.32 6.152 6.152 0 0 0-4.673-1.632h-7.023l-2.676 19.475h2.511l1.047-7.624h4.486zm-3.146-9.751h4.656a3.659 3.659 0 0 1 2.794 1.085c.64.776.894 1.802.689 2.787a4.164 4.164 0 0 1-1.458 2.807 4.981 4.981 0 0 1-3.22.971h-4.512l1.051-7.65zm27.97-2.1h-2.524l-1.15 8.373h-9.6l1.151-8.373h-2.511l-2.676 19.475H129l1.237-9h9.6l-1.237 9h2.524L143.798.257zm5.815 0H147.1l-2.676 19.475h2.511L149.613.257zm12.907 13.3a6.4 6.4 0 0 1-1.949 3.377 5.315 5.315 0 0 1-3.344.97 3.556 3.556 0 0 1-3.365-1.874 8.1 8.1 0 0 1-.6-5.047l.259-1.888A9.6 9.6 0 0 1 155.6 3.91a5.162 5.162 0 0 1 4.023-1.821 3.736 3.736 0 0 1 2.91 1.046 4.984 4.984 0 0 1 .955 3.381h2.524a6.424 6.424 0 0 0-1.473-4.8 5.974 5.974 0 0 0-4.627-1.732 8.143 8.143 0 0 0-4.18 1.1 8.791 8.791 0 0 0-3.122 3.163A12.529 12.529 0 0 0 151 9.032l-.253 1.868c-.38 2.765-.005 4.972 1.124 6.621A5.734 5.734 0 0 0 156.939 20a8.114 8.114 0 0 0 5.22-1.679 8.532 8.532 0 0 0 2.885-4.769h-2.524v.005z" fill="#1F2025" fill-rule="evenodd"/></svg>