<?xml version="1.0" encoding="UTF-8"?>
<svg width="167px" height="20px" viewBox="0 0 167 20" version="1.1" xmlns="http://www.w3.org/2000/svg" xmlns:xlink="http://www.w3.org/1999/xlink">
    <!-- Generator: Sketch 54.1 (76490) - https://sketchapp.com -->
    <title>Shape</title>
    <desc>Created with Sketch.</desc>
    <g id="Page-1" stroke="none" stroke-width="1" fill="none" fill-rule="evenodd">
        <g id="EadsGraphic-main-logo" transform="translate(0.000000, -1.000000)" fill="#FFFFFF">
            <path d="M13.434,8.988 L6.215,8.988 L6.779,4.882 L15.332,4.882 L15.832,1.257 L2.687,1.257 L0.011,20.732 L13.128,20.732 L13.628,17.121 L5.1,17.121 L5.74,12.466 L12.959,12.466 L13.434,8.988 Z M25.587,20.732 L30.517,20.732 L26.157,1.257 L21.841,1.257 L12.181,20.732 L17.081,20.732 L18.681,17.094 L24.972,17.094 L25.587,20.732 Z M23.249,6.714 L24.374,13.469 L20.281,13.469 L23.249,6.714 Z M36.829,20.732 C38.4552433,20.7293734 40.0540736,20.3129755 41.475,19.522 C42.9199754,18.7256952 44.1456717,17.5845061 45.043,16.2 C45.9862545,14.7539015 46.5893718,13.1127661 46.807,11.4 L46.93,10.5 C47.1805039,8.89061402 47.0127967,7.24384637 46.443,5.718 C45.9298023,4.35401547 44.9848156,3.1951689 43.752,2.418 C42.4343939,1.6187121 40.9145317,1.21566047 39.374,1.257 L33.24,1.257 L30.564,20.732 L36.829,20.732 L36.829,20.732 Z M38.876,4.882 C40.0311513,4.78095332 41.1461177,5.33303531 41.766,6.313 C42.3925281,7.63885426 42.5596549,9.13560698 42.241,10.567 L42.125,11.41 C42.0004258,12.9638615 41.428369,14.4483612 40.478,15.684 C39.6734993,16.6273435 38.4853399,17.1559863 37.246,17.122 L35.646,17.122 L37.333,4.882 L38.876,4.882 Z M56.219,16.967 C55.6623934,17.3205604 55.0108083,17.4950609 54.352,17.467 C53.462,17.565 52.572,17.297 51.884,16.725 C51.3850859,16.0673259 51.2108097,15.2191078 51.41,14.418 L46.81,14.418 C46.6155976,15.5737154 46.7832525,16.7612705 47.29,17.818 C47.8392876,18.8537412 48.721854,19.6739467 49.795,20.146 C51.0700813,20.7355587 52.4624891,21.0275814 53.867,21 C55.7635619,21.0820241 57.6387286,20.5725212 59.233,19.542 C60.5902867,18.6227146 61.4793971,17.157417 61.668,15.529 C62.0165513,13.5166882 61.053626,11.5041744 59.268,10.513 C58.3092823,9.92856184 57.2852757,9.4586801 56.217,9.113 C55.2883711,8.84699934 54.4130202,8.42167419 53.63,7.856 C53.2013355,7.54336784 52.9724984,7.02543309 53.03,6.498 C53.114,5.918 53.445,5.404 53.937,5.087 C54.5353916,4.69621953 55.2409323,4.50217836 55.955,4.532 C56.6327768,4.48243337 57.3001609,4.7201368 57.794,5.187 C58.229,5.696 58.399,6.38 58.253,7.033 L62.83,7.033 C63.0093812,5.95567518 62.8456691,4.84921938 62.362,3.87 C61.8725958,2.93329634 61.0881379,2.18398441 60.13,1.738 C59.0104639,1.21645378 57.7857222,0.960144343 56.551,0.989 C55.2237992,0.975416083 53.9056706,1.20906429 52.664,1.678 C51.5645671,2.07662616 50.5783301,2.73617646 49.79,3.6 C49.0737768,4.39912132 48.6157578,5.39602708 48.476,6.46 C48.178,8.627 49.178,10.33 51.476,11.57 C52.367,12.034 53.292,12.432 54.242,12.76 C55.0866863,13.0152848 55.8793257,13.4185456 56.583,13.951 C57.015,14.364 57.202,14.971 57.075,15.556 C57.0113698,16.1294382 56.6981929,16.6456678 56.219,16.967 L56.219,16.967 Z M78.131,11.035 L71.226,11.035 L70.937,13.135 L75.344,13.135 L74.744,17.499 C74.208,18.009 73.556,18.379 72.844,18.58 C72.0245615,18.8044876 71.1775439,18.9122164 70.328,18.9 C68.8315185,18.9910314 67.4074822,18.2466838 66.628,16.966 C65.7780612,15.3684737 65.5134593,13.5240423 65.88,11.752 L66.1,10.158 C66.269,8.248 66.975,6.425 68.138,4.9 C69.1458829,3.70189154 70.6482332,3.03311525 72.213,3.086 C74.741,3.086 76.063,4.379 76.179,6.965 L78.69,6.965 C78.7856586,5.3313018 78.2006679,3.73090345 77.074,2.544 C75.812751,1.43677163 74.1625785,0.87723863 72.488,0.989 C70.2434897,0.915848825 68.0727165,1.79527354 66.512,3.41 C64.8237837,5.30910713 63.7912602,7.70091536 63.567,10.232 L63.334,11.932 C63.0852684,13.5299839 63.2074173,15.1637671 63.691,16.707 C64.0998823,17.9991976 64.9292059,19.1175173 66.047,19.884 C67.2290487,20.6518342 68.6170584,21.0411327 70.026,21 C71.4343218,21.0225792 72.8347349,20.7852785 74.157,20.3 C75.323738,19.8693638 76.3559282,19.1379991 77.149,18.18 L78.131,11.035 Z M90.761,20.735 L93.455,20.735 L93.477,20.575 L90.14,12.306 C91.2832599,11.9015041 92.3009065,11.205147 93.092,10.286 C93.857,9.388 94.343,8.286 94.492,7.116 C94.8532158,5.56431263 94.4293289,3.93417977 93.358,2.755 C92.0355181,1.65047979 90.331075,1.11155386 88.614,1.255 L82.314,1.255 L79.631,20.732 L82.155,20.732 L83.238,12.854 L87.71,12.854 L90.761,20.735 L90.761,20.735 Z M84.543,3.357 L88.388,3.357 C89.4495653,3.27257786 90.4994831,3.62592251 91.294,4.335 C91.942,5.103 92.191,6.13 91.966,7.109 C91.8495827,8.15309916 91.3220276,9.10780837 90.5,9.762 C89.6094199,10.4441741 88.5090797,10.7949252 87.388,10.754 L83.526,10.754 L84.543,3.357 L84.543,3.357 Z M107.129,20.732 L109.706,20.732 L105.1,1.257 L102.9,1.257 L92.953,20.732 L95.542,20.732 L98.034,15.632 L106.012,15.632 L107.129,20.732 L107.129,20.732 Z M103.563,4.427 L105.555,13.536 L99.081,13.536 L103.563,4.427 Z M118.974,13.108 C120.822822,13.2015872 122.648184,12.6611053 124.148,11.576 C125.478623,10.4911045 126.318934,8.91817839 126.481,7.209 C126.796396,5.66347667 126.358789,4.0600314 125.302,2.889 C124.041536,1.71472061 122.346461,1.12273193 120.629,1.257 L113.606,1.257 L110.93,20.732 L113.441,20.732 L114.488,13.108 L118.974,13.108 L118.974,13.108 Z M115.828,3.357 L120.484,3.357 C121.527535,3.30312522 122.544316,3.69797414 123.278,4.442 C123.918,5.218 124.172,6.244 123.967,7.229 C123.869129,8.32001817 123.345292,9.32852939 122.509,10.036 C121.580705,10.7231994 120.442448,11.066444 119.289,11.007 L114.777,11.007 L115.828,3.357 L115.828,3.357 Z M143.798,1.257 L141.274,1.257 L140.124,9.63 L130.524,9.63 L131.675,1.257 L129.164,1.257 L126.488,20.732 L129,20.732 L130.237,11.732 L139.837,11.732 L138.6,20.732 L141.124,20.732 L143.798,1.257 Z M149.613,1.257 L147.1,1.257 L144.424,20.732 L146.935,20.732 L149.613,1.257 Z M162.52,14.557 C162.237387,15.8579823 161.556094,17.0384476 160.571,17.934 C159.596863,18.623626 158.41896,18.9653022 157.227,18.904 C155.834849,18.9934565 154.518979,18.2606365 153.862,17.03 C153.1257,15.4556097 152.91534,13.6861353 153.262,11.983 L153.521,10.095 C153.684699,8.19879156 154.408342,6.39403341 155.6,4.91 C156.600575,3.73109234 158.076944,3.06281781 159.623,3.089 C160.698544,3.0010296 161.759591,3.38242291 162.533,4.135 C163.251167,5.10872245 163.590605,6.31044153 163.488,7.516 L166.012,7.516 C166.192493,5.7824265 165.660831,4.04992266 164.539,2.716 C163.31883,1.49807547 161.631995,0.866651743 159.912,0.984 C158.445016,0.967428707 157.000803,1.34748477 155.732,2.084 C154.437604,2.85353679 153.362584,3.94267416 152.61,5.247 C151.754209,6.71623072 151.206423,8.34427765 151,10.032 L150.747,11.9 C150.367,14.665 150.742,16.872 151.871,18.521 C153.008847,20.178749 154.931869,21.1193906 156.939,21 C158.821118,21.0630443 160.66656,20.4694626 162.159,19.321 C163.627436,18.0991334 164.643337,16.4198144 165.044,14.552 L162.52,14.552 L162.52,14.557 L162.52,14.557 Z" id="Shape"></path>
        </g>
    </g>
</svg>