<?xml version="1.0" encoding="UTF-8"?>
<svg width="142px" height="142px" viewBox="0 0 142 142" version="1.1" xmlns="http://www.w3.org/2000/svg" xmlns:xlink="http://www.w3.org/1999/xlink">
    <!-- Generator: Sketch 54.1 (76490) - https://sketchapp.com -->
    <title>section-accent</title>
    <desc>Created with Sketch.</desc>
    <g id="Page-1" stroke="none" stroke-width="1" fill="none" fill-rule="evenodd">
        <g id="section-accent" fill="#3C83E9">
            <path d="M0,0 L2,0 L2,2 L0,2 L0,0 Z M0,20 L2,20 L2,22 L0,22 L0,20 Z M20,0 L22,0 L22,2 L20,2 L20,0 Z M20,20 L22,20 L22,22 L20,22 L20,20 Z M40,0 L42,0 L42,2 L40,2 L40,0 Z M40,20 L42,20 L42,22 L40,22 L40,20 Z M60,0 L62,0 L62,2 L60,2 L60,0 Z M60,20 L62,20 L62,22 L60,22 L60,20 Z M80,0 L82,0 L82,2 L80,2 L80,0 Z M80,20 L82,20 L82,22 L80,22 L80,20 Z M100,0 L102,0 L102,2 L100,2 L100,0 Z M100,20 L102,20 L102,22 L100,22 L100,20 Z M120,0 L122,0 L122,2 L120,2 L120,0 Z M120,20 L122,20 L122,22 L120,22 L120,20 Z M140,0 L142,0 L142,2 L140,2 L140,0 Z M140,20 L142,20 L142,22 L140,22 L140,20 Z M0,40 L2,40 L2,42 L0,42 L0,40 Z M20,40 L22,40 L22,42 L20,42 L20,40 Z M40,40 L42,40 L42,42 L40,42 L40,40 Z M60,40 L62,40 L62,42 L60,42 L60,40 Z M80,40 L82,40 L82,42 L80,42 L80,40 Z M100,40 L102,40 L102,42 L100,42 L100,40 Z M120,40 L122,40 L122,42 L120,42 L120,40 Z M140,40 L142,40 L142,42 L140,42 L140,40 Z M0,60 L2,60 L2,62 L0,62 L0,60 Z M20,60 L22,60 L22,62 L20,62 L20,60 Z M40,60 L42,60 L42,62 L40,62 L40,60 Z M60,60 L62,60 L62,62 L60,62 L60,60 Z M80,60 L82,60 L82,62 L80,62 L80,60 Z M100,60 L102,60 L102,62 L100,62 L100,60 Z M120,60 L122,60 L122,62 L120,62 L120,60 Z M140,60 L142,60 L142,62 L140,62 L140,60 Z M0,80 L2,80 L2,82 L0,82 L0,80 Z M20,80 L22,80 L22,82 L20,82 L20,80 Z M40,80 L42,80 L42,82 L40,82 L40,80 Z M60,80 L62,80 L62,82 L60,82 L60,80 Z M80,80 L82,80 L82,82 L80,82 L80,80 Z M100,80 L102,80 L102,82 L100,82 L100,80 Z M120,80 L122,80 L122,82 L120,82 L120,80 Z M140,80 L142,80 L142,82 L140,82 L140,80 Z M0,100 L2,100 L2,102 L0,102 L0,100 Z M20,100 L22,100 L22,102 L20,102 L20,100 Z M40,100 L42,100 L42,102 L40,102 L40,100 Z M60,100 L62,100 L62,102 L60,102 L60,100 Z M80,100 L82,100 L82,102 L80,102 L80,100 Z M100,100 L102,100 L102,102 L100,102 L100,100 Z M120,100 L122,100 L122,102 L120,102 L120,100 Z M140,100 L142,100 L142,102 L140,102 L140,100 Z M0,120 L2,120 L2,122 L0,122 L0,120 Z M20,120 L22,120 L22,122 L20,122 L20,120 Z M40,120 L42,120 L42,122 L40,122 L40,120 Z M60,120 L62,120 L62,122 L60,122 L60,120 Z M80,120 L82,120 L82,122 L80,122 L80,120 Z M100,120 L102,120 L102,122 L100,122 L100,120 Z M120,120 L122,120 L122,122 L120,122 L120,120 Z M140,120 L142,120 L142,122 L140,122 L140,120 Z M0,140 L2,140 L2,142 L0,142 L0,140 Z M20,140 L22,140 L22,142 L20,142 L20,140 Z M40,140 L42,140 L42,142 L40,142 L40,140 Z M60,140 L62,140 L62,142 L60,142 L60,140 Z M80,140 L82,140 L82,142 L80,142 L80,140 Z M100,140 L102,140 L102,142 L100,142 L100,140 Z M120,140 L122,140 L122,142 L120,142 L120,140 Z M140,140 L142,140 L142,142 L140,142 L140,140 Z" id="Shape"></path>
        </g>
    </g>
</svg>