<?xml version="1.0" encoding="UTF-8"?>
<svg width="52px" height="33px" viewBox="0 0 52 33" version="1.1" xmlns="http://www.w3.org/2000/svg" xmlns:xlink="http://www.w3.org/1999/xlink">
    <!-- Generator: Sketch 54.1 (76490) - https://sketchapp.com -->
    <title>Shape</title>
    <desc>Created with Sketch.</desc>
    <g id="Page-1" stroke="none" stroke-width="1" fill="none" fill-rule="evenodd">
        <g id="behance" fill="#FFFFFF" fill-rule="nonzero">
            <path d="M20.5594018,14.7384104 C23.3774578,13.3914151 24.8485184,11.3531986 24.8485184,8.18067017 C24.8485184,1.92423151 20.1872058,0.4 14.8080864,0.4 L0,0.4 L0,31.8062587 L15.2245915,31.8062587 C20.9315979,31.8062587 26.2929936,29.067959 26.2929936,22.687455 C26.2929936,18.743949 24.4231515,15.8284132 20.5594018,14.7384104 L20.5594018,14.7384104 Z M6.90335087,5.76139574 L13.3813348,5.76139574 C15.8715037,5.76139574 18.113542,6.46147881 18.113542,9.35042924 C18.113542,12.0178344 16.3677652,13.0901135 13.9041817,13.0901135 L6.90335087,13.0901135 L6.90335087,5.76139574 L6.90335087,5.76139574 Z M14.2852395,26.4714484 L6.90335087,26.4714484 L6.90335087,17.8223207 L14.4270285,17.8223207 C17.4666297,17.8223207 19.3896428,19.0895597 19.3896428,22.3063971 C19.3896428,25.4789255 17.0944337,26.4714484 14.2852395,26.4714484 L14.2852395,26.4714484 Z M46.0548325,5.14106896 L33.3204099,5.14106896 L33.3204099,2.04829687 L46.0548325,2.04829687 L46.0548325,5.14106896 L46.0548325,5.14106896 Z M51.0440321,20.764442 C51.0440321,14.0383273 47.109388,8.42880089 39.97563,8.42880089 C33.0456937,8.42880089 28.340072,13.6395458 28.340072,20.4631404 C28.340072,27.5437275 32.797563,32.4 39.97563,32.4 C45.4079202,32.4 48.9260593,29.9541401 50.6186652,24.752257 L45.1066187,24.752257 C44.5128773,26.6929936 42.0670174,27.7209637 40.1705899,27.7209637 C36.5106619,27.7209637 34.5876489,25.5764054 34.5876489,21.9342011 L50.9908613,21.9342011 C51.0174467,21.562005 51.0440321,21.1632235 51.0440321,20.764442 Z M34.5965107,17.9995569 C34.8003323,15.0131266 36.785378,13.1432844 39.7806702,13.1432844 C42.9177513,13.1432844 44.4951537,14.9865411 44.761008,17.9995569 L34.5965107,17.9995569 Z" id="Shape"></path>
        </g>
    </g>
</svg>