<?xml version="1.0" encoding="UTF-8"?>
<svg width="32px" height="32px" viewBox="0 0 32 32" version="1.1" xmlns="http://www.w3.org/2000/svg" xmlns:xlink="http://www.w3.org/1999/xlink">
    <!-- Generator: Sketch 53.2 (72643) - https://sketchapp.com -->
    <title>dribbble-brands</title>
    <desc>Created with Sketch.</desc>
    <g id="Design" stroke="none" stroke-width="1" fill="none" fill-rule="evenodd">
        <g id="Hero-Image" transform="translate(-477.000000, -735.000000)" fill="#D0D5DA" fill-rule="nonzero">
            <g id="dribbble-brands" transform="translate(477.000000, 735.000000)">
                <path d="M16,0 C7.17754839,0 0,7.17754839 0,16 C0,24.8224516 7.17754839,32 16,32 C24.8224516,32 32,24.8224516 32,16 C32,7.17754839 24.8224516,0 16,0 Z M26.5787097,7.37845161 C28.482129,9.704 29.6347742,12.666 29.6648387,15.8916774 C29.2142581,15.7963871 24.6959355,14.8799355 20.1485806,15.4518065 C19.7774839,14.5459355 19.4272258,13.7490323 18.9474839,12.7670323 C24.0004516,10.704 26.2905806,7.76819355 26.5787097,7.37845161 L26.5787097,7.37845161 Z M25.0594194,5.79806452 C24.8136129,6.14819355 22.7563871,8.91329032 17.8967742,10.7347742 C15.6572903,6.62019355 13.1751613,3.24006452 12.7974194,2.73425806 C17.1313548,1.68954839 21.6984516,2.81619355 25.0594194,5.79806452 L25.0594194,5.79806452 Z M10.1897419,3.65290323 C10.5500645,4.14703226 12.9921935,7.53135484 15.2566452,11.5567097 C8.86393548,13.2543226 3.23341935,13.229871 2.62219355,13.2218065 C3.5083871,8.98096774 6.36632258,5.45632258 10.1897419,3.65290323 Z M2.33354839,16.0208387 C2.33354839,15.8810968 2.33632258,15.742 2.34051613,15.6032258 C2.93845161,15.6154839 9.56116129,15.7008387 16.3860645,13.6583226 C16.7772903,14.424 17.1510323,15.2012258 17.4940645,15.9776129 C12.5521935,17.3695484 8.06219355,21.3664516 5.84690323,25.1586452 C3.66412903,22.7358065 2.33354839,19.5309677 2.33354839,16.0208387 Z M7.61141935,26.8023226 C9.03896774,23.8840645 12.9132258,20.1170323 18.4229677,18.2374194 C20.3416774,23.2234194 21.1351613,27.402129 21.3383871,28.6011613 C16.9440645,30.4729677 11.66,29.9594194 7.61141935,26.8023226 L7.61141935,26.8023226 Z M23.6359355,27.35 C23.495871,26.5186452 22.7684516,22.5179355 20.9809677,17.6059355 C25.2635484,16.9203871 29.026129,18.0425806 29.4936774,18.190129 C28.8845161,21.9927742 26.701871,25.2768387 23.6359355,27.35 Z" id="Shape"></path>
            </g>
        </g>
    </g>
</svg>