<?xml version="1.0" encoding="UTF-8"?>
<svg width="33px" height="32px" viewBox="0 0 33 32" version="1.1" xmlns="http://www.w3.org/2000/svg" xmlns:xlink="http://www.w3.org/1999/xlink">
    <!-- Generator: Sketch 54.1 (76490) - https://sketchapp.com -->
    <title>Shape</title>
    <desc>Created with Sketch.</desc>
    <g id="Page-1" stroke="none" stroke-width="1" fill="none" fill-rule="evenodd">
        <g id="github" fill="#FFFFFF" fill-rule="nonzero">
            <path d="M10.9774987,25.7663532 C10.9774987,25.8986919 10.8253092,26.0045629 10.633418,26.0045629 C10.4150591,26.0244138 10.2628695,25.9185428 10.2628695,25.7663532 C10.2628695,25.6340145 10.4150591,25.5281435 10.6069502,25.5281435 C10.8054583,25.5082927 10.9774987,25.6141637 10.9774987,25.7663532 Z M8.91963126,25.468591 C8.8733127,25.6009298 9.00565144,25.7531193 9.20415955,25.792821 C9.37619992,25.8589903 9.57470803,25.792821 9.61440966,25.6604822 C9.65411128,25.5281435 9.52838947,25.3759539 9.32988136,25.3164015 C9.157841,25.2700829 8.96594982,25.3362523 8.91963126,25.468591 Z M11.8443175,25.3561031 C11.6524263,25.4024217 11.5200876,25.5281435 11.5399384,25.680333 C11.5597892,25.8126718 11.7318295,25.8986919 11.9303377,25.8523734 C12.1222288,25.8060548 12.2545676,25.680333 12.2347168,25.5479943 C12.214866,25.4222725 12.0362086,25.3362523 11.8443175,25.3561031 Z M16.1982621,0 C7.0205703,0 0,6.9676348 0,16.1453266 C0,23.4835099 4.61862212,29.7629832 11.2157084,31.9730402 C12.0626764,32.1252298 12.3604386,31.6024918 12.3604386,31.1723908 C12.3604386,30.7621407 12.3405878,28.4991482 12.3405878,27.1095914 C12.3405878,27.1095914 7.70873176,28.102132 6.736042,25.1377442 C6.736042,25.1377442 5.98171117,23.2122155 4.89653348,22.7159452 C4.89653348,22.7159452 3.38125488,21.6770861 5.00240447,21.6969369 C5.00240447,21.6969369 6.65002182,21.8292756 7.55654221,23.4041066 C9.00565144,25.9582444 11.4340674,25.2237644 12.3802894,24.7870465 C12.5324789,23.7283366 12.9625798,22.9938565 13.4389993,22.5571387 C9.74013146,22.1468886 6.00817892,21.6109167 6.00817892,15.2454232 C6.00817892,13.4257654 6.51106614,12.5126281 7.56977608,11.3480472 C7.39773572,10.9179463 6.83529606,9.14460712 7.74181645,6.85514687 C9.12475631,6.42504596 12.3075031,8.6417199 12.3075031,8.6417199 C13.6308905,8.27117142 15.053532,8.07928024 16.4629396,8.07928024 C17.8723472,8.07928024 19.2949887,8.27117142 20.6183761,8.6417199 C20.6183761,8.6417199 23.8011229,6.41842902 25.1840627,6.85514687 C26.0905831,9.15122406 25.5281435,10.9179463 25.3561031,11.3480472 C26.414813,12.5192451 27.0632729,13.4323824 27.0632729,15.2454232 C27.0632729,21.6307675 23.1658969,22.1402717 19.4670291,22.5571387 C20.0757873,23.0798767 20.5919084,24.0724173 20.5919084,25.6273975 C20.5919084,27.8573053 20.5720576,30.6165681 20.5720576,31.159157 C20.5720576,31.5892579 20.8764367,32.1119959 21.7167877,31.9598064 C28.3337248,29.7629832 32.8200082,23.4835099 32.8200082,16.1453266 C32.8200082,6.9676348 25.3759539,0 16.1982621,0 Z M6.4316629,22.8218162 C6.34564271,22.8879856 6.36549352,23.0401751 6.47798146,23.1658969 C6.58385245,23.2717679 6.736042,23.3180865 6.82206219,23.2320663 C6.90808237,23.1658969 6.88823156,23.0137074 6.77574363,22.8879856 C6.66987263,22.7821146 6.51768308,22.735796 6.4316629,22.8218162 Z M5.71703368,22.2858443 C5.67071512,22.3718645 5.7368845,22.4777354 5.86922324,22.5439048 C5.97509423,22.6100742 6.10743298,22.5902234 6.15375154,22.4975863 C6.2000701,22.4115661 6.13390072,22.3056951 6.00156198,22.2395257 C5.86922324,22.1998241 5.76335224,22.2196749 5.71703368,22.2858443 Z M7.86092132,24.6414739 C7.75505032,24.7274941 7.79475195,24.9260022 7.9469415,25.051724 C8.09913105,25.2039135 8.29102223,25.2237644 8.37704241,25.1178934 C8.4630626,25.0318732 8.42336097,24.8333651 8.29102223,24.7076433 C8.14544961,24.5554537 7.9469415,24.5356029 7.86092132,24.6414739 Z M7.10659048,23.6687841 C7.00071949,23.7349535 7.00071949,23.9069939 7.10659048,24.0591834 C7.21246148,24.211373 7.39111878,24.2775423 7.47713896,24.211373 C7.58300996,24.1253528 7.58300996,23.9533124 7.47713896,23.8011229 C7.38450184,23.6489333 7.21246148,23.5827639 7.10659048,23.6687841 Z" id="Shape"></path>
        </g>
    </g>
</svg>