<?xml version="1.0" encoding="UTF-8"?>
<svg width="46px" height="32px" viewBox="0 0 46 32" version="1.1" xmlns="http://www.w3.org/2000/svg" xmlns:xlink="http://www.w3.org/1999/xlink">
    <!-- Generator: Sketch 53.2 (72643) - https://sketchapp.com -->
    <title>youtube-brands</title>
    <desc>Created with Sketch.</desc>
    <g id="Design" stroke="none" stroke-width="1" fill="none" fill-rule="evenodd">
        <g id="Hero-Image" transform="translate(-250.000000, -735.000000)" fill="#D0D5DA" fill-rule="nonzero">
            <g id="youtube-brands" transform="translate(250.000000, 735.000000)">
                <path d="M44.5601667,5.00691667 C44.03675,3.03608333 42.4945833,1.48391667 40.5365,0.957166667 C36.9873333,0 22.7555833,0 22.7555833,0 C22.7555833,0 8.52391667,0 4.97466667,0.957166667 C3.01658333,1.484 1.47441667,3.03608333 0.951,5.00691667 C0,8.57916667 0,16.0323333 0,16.0323333 C0,16.0323333 0,23.4855 0.951,27.05775 C1.47441667,29.0285833 3.01658333,30.5160833 4.97466667,31.0428333 C8.52391667,32 22.7555833,32 22.7555833,32 C22.7555833,32 36.98725,32 40.5365,31.0428333 C42.4945833,30.5160833 44.03675,29.0285833 44.5601667,27.05775 C45.5111667,23.4855 45.5111667,16.0323333 45.5111667,16.0323333 C45.5111667,16.0323333 45.5111667,8.57916667 44.5601667,5.00691667 Z M18.101,22.79925 L18.101,9.26541667 L29.9959167,16.0325 L18.101,22.79925 Z" id="Shape"></path>
            </g>
        </g>
    </g>
</svg>